%TF.GenerationSoftware,KiCad,Pcbnew,(5.1.6-0-10_14)*%
%TF.CreationDate,2021-04-11T14:49:43-04:00*%
%TF.ProjectId,F051_ESC-4in1-V2,46303531-5f45-4534-932d-34696e312d56,rev?*%
%TF.SameCoordinates,Original*%
%TF.FileFunction,Soldermask,Bot*%
%TF.FilePolarity,Negative*%
%FSLAX46Y46*%
G04 Gerber Fmt 4.6, Leading zero omitted, Abs format (unit mm)*
G04 Created by KiCad (PCBNEW (5.1.6-0-10_14)) date 2021-04-11 14:49:43*
%MOMM*%
%LPD*%
G01*
G04 APERTURE LIST*
%ADD10R,3.551600X3.551600*%
%ADD11C,1.101600*%
%ADD12R,1.551600X0.951600*%
%ADD13R,1.151600X0.951600*%
%ADD14R,3.851600X4.801600*%
%ADD15R,2.801600X2.801600*%
%ADD16R,0.701600X0.801600*%
%ADD17C,4.101600*%
G04 APERTURE END LIST*
D10*
%TO.C,U12*%
X135160000Y-79000000D03*
G36*
G01*
X132322100Y-77074200D02*
X133122900Y-77074200D01*
G75*
G02*
X133210800Y-77162100I0J-87900D01*
G01*
X133210800Y-77337900D01*
G75*
G02*
X133122900Y-77425800I-87900J0D01*
G01*
X132322100Y-77425800D01*
G75*
G02*
X132234200Y-77337900I0J87900D01*
G01*
X132234200Y-77162100D01*
G75*
G02*
X132322100Y-77074200I87900J0D01*
G01*
G37*
G36*
G01*
X132322100Y-77574200D02*
X133122900Y-77574200D01*
G75*
G02*
X133210800Y-77662100I0J-87900D01*
G01*
X133210800Y-77837900D01*
G75*
G02*
X133122900Y-77925800I-87900J0D01*
G01*
X132322100Y-77925800D01*
G75*
G02*
X132234200Y-77837900I0J87900D01*
G01*
X132234200Y-77662100D01*
G75*
G02*
X132322100Y-77574200I87900J0D01*
G01*
G37*
G36*
G01*
X132322100Y-78074200D02*
X133122900Y-78074200D01*
G75*
G02*
X133210800Y-78162100I0J-87900D01*
G01*
X133210800Y-78337900D01*
G75*
G02*
X133122900Y-78425800I-87900J0D01*
G01*
X132322100Y-78425800D01*
G75*
G02*
X132234200Y-78337900I0J87900D01*
G01*
X132234200Y-78162100D01*
G75*
G02*
X132322100Y-78074200I87900J0D01*
G01*
G37*
G36*
G01*
X132322100Y-78574200D02*
X133122900Y-78574200D01*
G75*
G02*
X133210800Y-78662100I0J-87900D01*
G01*
X133210800Y-78837900D01*
G75*
G02*
X133122900Y-78925800I-87900J0D01*
G01*
X132322100Y-78925800D01*
G75*
G02*
X132234200Y-78837900I0J87900D01*
G01*
X132234200Y-78662100D01*
G75*
G02*
X132322100Y-78574200I87900J0D01*
G01*
G37*
G36*
G01*
X132322100Y-79074200D02*
X133122900Y-79074200D01*
G75*
G02*
X133210800Y-79162100I0J-87900D01*
G01*
X133210800Y-79337900D01*
G75*
G02*
X133122900Y-79425800I-87900J0D01*
G01*
X132322100Y-79425800D01*
G75*
G02*
X132234200Y-79337900I0J87900D01*
G01*
X132234200Y-79162100D01*
G75*
G02*
X132322100Y-79074200I87900J0D01*
G01*
G37*
G36*
G01*
X132322100Y-79574200D02*
X133122900Y-79574200D01*
G75*
G02*
X133210800Y-79662100I0J-87900D01*
G01*
X133210800Y-79837900D01*
G75*
G02*
X133122900Y-79925800I-87900J0D01*
G01*
X132322100Y-79925800D01*
G75*
G02*
X132234200Y-79837900I0J87900D01*
G01*
X132234200Y-79662100D01*
G75*
G02*
X132322100Y-79574200I87900J0D01*
G01*
G37*
G36*
G01*
X132322100Y-80074200D02*
X133122900Y-80074200D01*
G75*
G02*
X133210800Y-80162100I0J-87900D01*
G01*
X133210800Y-80337900D01*
G75*
G02*
X133122900Y-80425800I-87900J0D01*
G01*
X132322100Y-80425800D01*
G75*
G02*
X132234200Y-80337900I0J87900D01*
G01*
X132234200Y-80162100D01*
G75*
G02*
X132322100Y-80074200I87900J0D01*
G01*
G37*
G36*
G01*
X132322100Y-80574200D02*
X133122900Y-80574200D01*
G75*
G02*
X133210800Y-80662100I0J-87900D01*
G01*
X133210800Y-80837900D01*
G75*
G02*
X133122900Y-80925800I-87900J0D01*
G01*
X132322100Y-80925800D01*
G75*
G02*
X132234200Y-80837900I0J87900D01*
G01*
X132234200Y-80662100D01*
G75*
G02*
X132322100Y-80574200I87900J0D01*
G01*
G37*
G36*
G01*
X133322100Y-80949200D02*
X133497900Y-80949200D01*
G75*
G02*
X133585800Y-81037100I0J-87900D01*
G01*
X133585800Y-81837900D01*
G75*
G02*
X133497900Y-81925800I-87900J0D01*
G01*
X133322100Y-81925800D01*
G75*
G02*
X133234200Y-81837900I0J87900D01*
G01*
X133234200Y-81037100D01*
G75*
G02*
X133322100Y-80949200I87900J0D01*
G01*
G37*
G36*
G01*
X133822100Y-80949200D02*
X133997900Y-80949200D01*
G75*
G02*
X134085800Y-81037100I0J-87900D01*
G01*
X134085800Y-81837900D01*
G75*
G02*
X133997900Y-81925800I-87900J0D01*
G01*
X133822100Y-81925800D01*
G75*
G02*
X133734200Y-81837900I0J87900D01*
G01*
X133734200Y-81037100D01*
G75*
G02*
X133822100Y-80949200I87900J0D01*
G01*
G37*
G36*
G01*
X134322100Y-80949200D02*
X134497900Y-80949200D01*
G75*
G02*
X134585800Y-81037100I0J-87900D01*
G01*
X134585800Y-81837900D01*
G75*
G02*
X134497900Y-81925800I-87900J0D01*
G01*
X134322100Y-81925800D01*
G75*
G02*
X134234200Y-81837900I0J87900D01*
G01*
X134234200Y-81037100D01*
G75*
G02*
X134322100Y-80949200I87900J0D01*
G01*
G37*
G36*
G01*
X134822100Y-80949200D02*
X134997900Y-80949200D01*
G75*
G02*
X135085800Y-81037100I0J-87900D01*
G01*
X135085800Y-81837900D01*
G75*
G02*
X134997900Y-81925800I-87900J0D01*
G01*
X134822100Y-81925800D01*
G75*
G02*
X134734200Y-81837900I0J87900D01*
G01*
X134734200Y-81037100D01*
G75*
G02*
X134822100Y-80949200I87900J0D01*
G01*
G37*
G36*
G01*
X135322100Y-80949200D02*
X135497900Y-80949200D01*
G75*
G02*
X135585800Y-81037100I0J-87900D01*
G01*
X135585800Y-81837900D01*
G75*
G02*
X135497900Y-81925800I-87900J0D01*
G01*
X135322100Y-81925800D01*
G75*
G02*
X135234200Y-81837900I0J87900D01*
G01*
X135234200Y-81037100D01*
G75*
G02*
X135322100Y-80949200I87900J0D01*
G01*
G37*
G36*
G01*
X135822100Y-80949200D02*
X135997900Y-80949200D01*
G75*
G02*
X136085800Y-81037100I0J-87900D01*
G01*
X136085800Y-81837900D01*
G75*
G02*
X135997900Y-81925800I-87900J0D01*
G01*
X135822100Y-81925800D01*
G75*
G02*
X135734200Y-81837900I0J87900D01*
G01*
X135734200Y-81037100D01*
G75*
G02*
X135822100Y-80949200I87900J0D01*
G01*
G37*
G36*
G01*
X136322100Y-80949200D02*
X136497900Y-80949200D01*
G75*
G02*
X136585800Y-81037100I0J-87900D01*
G01*
X136585800Y-81837900D01*
G75*
G02*
X136497900Y-81925800I-87900J0D01*
G01*
X136322100Y-81925800D01*
G75*
G02*
X136234200Y-81837900I0J87900D01*
G01*
X136234200Y-81037100D01*
G75*
G02*
X136322100Y-80949200I87900J0D01*
G01*
G37*
G36*
G01*
X136822100Y-80949200D02*
X136997900Y-80949200D01*
G75*
G02*
X137085800Y-81037100I0J-87900D01*
G01*
X137085800Y-81837900D01*
G75*
G02*
X136997900Y-81925800I-87900J0D01*
G01*
X136822100Y-81925800D01*
G75*
G02*
X136734200Y-81837900I0J87900D01*
G01*
X136734200Y-81037100D01*
G75*
G02*
X136822100Y-80949200I87900J0D01*
G01*
G37*
G36*
G01*
X137197100Y-80574200D02*
X137997900Y-80574200D01*
G75*
G02*
X138085800Y-80662100I0J-87900D01*
G01*
X138085800Y-80837900D01*
G75*
G02*
X137997900Y-80925800I-87900J0D01*
G01*
X137197100Y-80925800D01*
G75*
G02*
X137109200Y-80837900I0J87900D01*
G01*
X137109200Y-80662100D01*
G75*
G02*
X137197100Y-80574200I87900J0D01*
G01*
G37*
G36*
G01*
X137197100Y-80074200D02*
X137997900Y-80074200D01*
G75*
G02*
X138085800Y-80162100I0J-87900D01*
G01*
X138085800Y-80337900D01*
G75*
G02*
X137997900Y-80425800I-87900J0D01*
G01*
X137197100Y-80425800D01*
G75*
G02*
X137109200Y-80337900I0J87900D01*
G01*
X137109200Y-80162100D01*
G75*
G02*
X137197100Y-80074200I87900J0D01*
G01*
G37*
G36*
G01*
X137197100Y-79574200D02*
X137997900Y-79574200D01*
G75*
G02*
X138085800Y-79662100I0J-87900D01*
G01*
X138085800Y-79837900D01*
G75*
G02*
X137997900Y-79925800I-87900J0D01*
G01*
X137197100Y-79925800D01*
G75*
G02*
X137109200Y-79837900I0J87900D01*
G01*
X137109200Y-79662100D01*
G75*
G02*
X137197100Y-79574200I87900J0D01*
G01*
G37*
G36*
G01*
X137197100Y-79074200D02*
X137997900Y-79074200D01*
G75*
G02*
X138085800Y-79162100I0J-87900D01*
G01*
X138085800Y-79337900D01*
G75*
G02*
X137997900Y-79425800I-87900J0D01*
G01*
X137197100Y-79425800D01*
G75*
G02*
X137109200Y-79337900I0J87900D01*
G01*
X137109200Y-79162100D01*
G75*
G02*
X137197100Y-79074200I87900J0D01*
G01*
G37*
G36*
G01*
X137197100Y-78574200D02*
X137997900Y-78574200D01*
G75*
G02*
X138085800Y-78662100I0J-87900D01*
G01*
X138085800Y-78837900D01*
G75*
G02*
X137997900Y-78925800I-87900J0D01*
G01*
X137197100Y-78925800D01*
G75*
G02*
X137109200Y-78837900I0J87900D01*
G01*
X137109200Y-78662100D01*
G75*
G02*
X137197100Y-78574200I87900J0D01*
G01*
G37*
G36*
G01*
X137197100Y-78074200D02*
X137997900Y-78074200D01*
G75*
G02*
X138085800Y-78162100I0J-87900D01*
G01*
X138085800Y-78337900D01*
G75*
G02*
X137997900Y-78425800I-87900J0D01*
G01*
X137197100Y-78425800D01*
G75*
G02*
X137109200Y-78337900I0J87900D01*
G01*
X137109200Y-78162100D01*
G75*
G02*
X137197100Y-78074200I87900J0D01*
G01*
G37*
G36*
G01*
X137197100Y-77574200D02*
X137997900Y-77574200D01*
G75*
G02*
X138085800Y-77662100I0J-87900D01*
G01*
X138085800Y-77837900D01*
G75*
G02*
X137997900Y-77925800I-87900J0D01*
G01*
X137197100Y-77925800D01*
G75*
G02*
X137109200Y-77837900I0J87900D01*
G01*
X137109200Y-77662100D01*
G75*
G02*
X137197100Y-77574200I87900J0D01*
G01*
G37*
G36*
G01*
X137197100Y-77074200D02*
X137997900Y-77074200D01*
G75*
G02*
X138085800Y-77162100I0J-87900D01*
G01*
X138085800Y-77337900D01*
G75*
G02*
X137997900Y-77425800I-87900J0D01*
G01*
X137197100Y-77425800D01*
G75*
G02*
X137109200Y-77337900I0J87900D01*
G01*
X137109200Y-77162100D01*
G75*
G02*
X137197100Y-77074200I87900J0D01*
G01*
G37*
G36*
G01*
X136822100Y-76074200D02*
X136997900Y-76074200D01*
G75*
G02*
X137085800Y-76162100I0J-87900D01*
G01*
X137085800Y-76962900D01*
G75*
G02*
X136997900Y-77050800I-87900J0D01*
G01*
X136822100Y-77050800D01*
G75*
G02*
X136734200Y-76962900I0J87900D01*
G01*
X136734200Y-76162100D01*
G75*
G02*
X136822100Y-76074200I87900J0D01*
G01*
G37*
G36*
G01*
X136322100Y-76074200D02*
X136497900Y-76074200D01*
G75*
G02*
X136585800Y-76162100I0J-87900D01*
G01*
X136585800Y-76962900D01*
G75*
G02*
X136497900Y-77050800I-87900J0D01*
G01*
X136322100Y-77050800D01*
G75*
G02*
X136234200Y-76962900I0J87900D01*
G01*
X136234200Y-76162100D01*
G75*
G02*
X136322100Y-76074200I87900J0D01*
G01*
G37*
G36*
G01*
X135822100Y-76074200D02*
X135997900Y-76074200D01*
G75*
G02*
X136085800Y-76162100I0J-87900D01*
G01*
X136085800Y-76962900D01*
G75*
G02*
X135997900Y-77050800I-87900J0D01*
G01*
X135822100Y-77050800D01*
G75*
G02*
X135734200Y-76962900I0J87900D01*
G01*
X135734200Y-76162100D01*
G75*
G02*
X135822100Y-76074200I87900J0D01*
G01*
G37*
G36*
G01*
X135322100Y-76074200D02*
X135497900Y-76074200D01*
G75*
G02*
X135585800Y-76162100I0J-87900D01*
G01*
X135585800Y-76962900D01*
G75*
G02*
X135497900Y-77050800I-87900J0D01*
G01*
X135322100Y-77050800D01*
G75*
G02*
X135234200Y-76962900I0J87900D01*
G01*
X135234200Y-76162100D01*
G75*
G02*
X135322100Y-76074200I87900J0D01*
G01*
G37*
G36*
G01*
X134822100Y-76074200D02*
X134997900Y-76074200D01*
G75*
G02*
X135085800Y-76162100I0J-87900D01*
G01*
X135085800Y-76962900D01*
G75*
G02*
X134997900Y-77050800I-87900J0D01*
G01*
X134822100Y-77050800D01*
G75*
G02*
X134734200Y-76962900I0J87900D01*
G01*
X134734200Y-76162100D01*
G75*
G02*
X134822100Y-76074200I87900J0D01*
G01*
G37*
G36*
G01*
X134322100Y-76074200D02*
X134497900Y-76074200D01*
G75*
G02*
X134585800Y-76162100I0J-87900D01*
G01*
X134585800Y-76962900D01*
G75*
G02*
X134497900Y-77050800I-87900J0D01*
G01*
X134322100Y-77050800D01*
G75*
G02*
X134234200Y-76962900I0J87900D01*
G01*
X134234200Y-76162100D01*
G75*
G02*
X134322100Y-76074200I87900J0D01*
G01*
G37*
G36*
G01*
X133822100Y-76074200D02*
X133997900Y-76074200D01*
G75*
G02*
X134085800Y-76162100I0J-87900D01*
G01*
X134085800Y-76962900D01*
G75*
G02*
X133997900Y-77050800I-87900J0D01*
G01*
X133822100Y-77050800D01*
G75*
G02*
X133734200Y-76962900I0J87900D01*
G01*
X133734200Y-76162100D01*
G75*
G02*
X133822100Y-76074200I87900J0D01*
G01*
G37*
G36*
G01*
X133322100Y-76074200D02*
X133497900Y-76074200D01*
G75*
G02*
X133585800Y-76162100I0J-87900D01*
G01*
X133585800Y-76962900D01*
G75*
G02*
X133497900Y-77050800I-87900J0D01*
G01*
X133322100Y-77050800D01*
G75*
G02*
X133234200Y-76962900I0J87900D01*
G01*
X133234200Y-76162100D01*
G75*
G02*
X133322100Y-76074200I87900J0D01*
G01*
G37*
%TD*%
%TO.C,R65*%
G36*
G01*
X139399200Y-73677900D02*
X139399200Y-73282100D01*
G75*
G02*
X139572100Y-73109200I172900J0D01*
G01*
X139917900Y-73109200D01*
G75*
G02*
X140090800Y-73282100I0J-172900D01*
G01*
X140090800Y-73677900D01*
G75*
G02*
X139917900Y-73850800I-172900J0D01*
G01*
X139572100Y-73850800D01*
G75*
G02*
X139399200Y-73677900I0J172900D01*
G01*
G37*
G36*
G01*
X138429200Y-73677900D02*
X138429200Y-73282100D01*
G75*
G02*
X138602100Y-73109200I172900J0D01*
G01*
X138947900Y-73109200D01*
G75*
G02*
X139120800Y-73282100I0J-172900D01*
G01*
X139120800Y-73677900D01*
G75*
G02*
X138947900Y-73850800I-172900J0D01*
G01*
X138602100Y-73850800D01*
G75*
G02*
X138429200Y-73677900I0J172900D01*
G01*
G37*
%TD*%
%TO.C,U9*%
X135160000Y-93760000D03*
G36*
G01*
X132322100Y-91834200D02*
X133122900Y-91834200D01*
G75*
G02*
X133210800Y-91922100I0J-87900D01*
G01*
X133210800Y-92097900D01*
G75*
G02*
X133122900Y-92185800I-87900J0D01*
G01*
X132322100Y-92185800D01*
G75*
G02*
X132234200Y-92097900I0J87900D01*
G01*
X132234200Y-91922100D01*
G75*
G02*
X132322100Y-91834200I87900J0D01*
G01*
G37*
G36*
G01*
X132322100Y-92334200D02*
X133122900Y-92334200D01*
G75*
G02*
X133210800Y-92422100I0J-87900D01*
G01*
X133210800Y-92597900D01*
G75*
G02*
X133122900Y-92685800I-87900J0D01*
G01*
X132322100Y-92685800D01*
G75*
G02*
X132234200Y-92597900I0J87900D01*
G01*
X132234200Y-92422100D01*
G75*
G02*
X132322100Y-92334200I87900J0D01*
G01*
G37*
G36*
G01*
X132322100Y-92834200D02*
X133122900Y-92834200D01*
G75*
G02*
X133210800Y-92922100I0J-87900D01*
G01*
X133210800Y-93097900D01*
G75*
G02*
X133122900Y-93185800I-87900J0D01*
G01*
X132322100Y-93185800D01*
G75*
G02*
X132234200Y-93097900I0J87900D01*
G01*
X132234200Y-92922100D01*
G75*
G02*
X132322100Y-92834200I87900J0D01*
G01*
G37*
G36*
G01*
X132322100Y-93334200D02*
X133122900Y-93334200D01*
G75*
G02*
X133210800Y-93422100I0J-87900D01*
G01*
X133210800Y-93597900D01*
G75*
G02*
X133122900Y-93685800I-87900J0D01*
G01*
X132322100Y-93685800D01*
G75*
G02*
X132234200Y-93597900I0J87900D01*
G01*
X132234200Y-93422100D01*
G75*
G02*
X132322100Y-93334200I87900J0D01*
G01*
G37*
G36*
G01*
X132322100Y-93834200D02*
X133122900Y-93834200D01*
G75*
G02*
X133210800Y-93922100I0J-87900D01*
G01*
X133210800Y-94097900D01*
G75*
G02*
X133122900Y-94185800I-87900J0D01*
G01*
X132322100Y-94185800D01*
G75*
G02*
X132234200Y-94097900I0J87900D01*
G01*
X132234200Y-93922100D01*
G75*
G02*
X132322100Y-93834200I87900J0D01*
G01*
G37*
G36*
G01*
X132322100Y-94334200D02*
X133122900Y-94334200D01*
G75*
G02*
X133210800Y-94422100I0J-87900D01*
G01*
X133210800Y-94597900D01*
G75*
G02*
X133122900Y-94685800I-87900J0D01*
G01*
X132322100Y-94685800D01*
G75*
G02*
X132234200Y-94597900I0J87900D01*
G01*
X132234200Y-94422100D01*
G75*
G02*
X132322100Y-94334200I87900J0D01*
G01*
G37*
G36*
G01*
X132322100Y-94834200D02*
X133122900Y-94834200D01*
G75*
G02*
X133210800Y-94922100I0J-87900D01*
G01*
X133210800Y-95097900D01*
G75*
G02*
X133122900Y-95185800I-87900J0D01*
G01*
X132322100Y-95185800D01*
G75*
G02*
X132234200Y-95097900I0J87900D01*
G01*
X132234200Y-94922100D01*
G75*
G02*
X132322100Y-94834200I87900J0D01*
G01*
G37*
G36*
G01*
X132322100Y-95334200D02*
X133122900Y-95334200D01*
G75*
G02*
X133210800Y-95422100I0J-87900D01*
G01*
X133210800Y-95597900D01*
G75*
G02*
X133122900Y-95685800I-87900J0D01*
G01*
X132322100Y-95685800D01*
G75*
G02*
X132234200Y-95597900I0J87900D01*
G01*
X132234200Y-95422100D01*
G75*
G02*
X132322100Y-95334200I87900J0D01*
G01*
G37*
G36*
G01*
X133322100Y-95709200D02*
X133497900Y-95709200D01*
G75*
G02*
X133585800Y-95797100I0J-87900D01*
G01*
X133585800Y-96597900D01*
G75*
G02*
X133497900Y-96685800I-87900J0D01*
G01*
X133322100Y-96685800D01*
G75*
G02*
X133234200Y-96597900I0J87900D01*
G01*
X133234200Y-95797100D01*
G75*
G02*
X133322100Y-95709200I87900J0D01*
G01*
G37*
G36*
G01*
X133822100Y-95709200D02*
X133997900Y-95709200D01*
G75*
G02*
X134085800Y-95797100I0J-87900D01*
G01*
X134085800Y-96597900D01*
G75*
G02*
X133997900Y-96685800I-87900J0D01*
G01*
X133822100Y-96685800D01*
G75*
G02*
X133734200Y-96597900I0J87900D01*
G01*
X133734200Y-95797100D01*
G75*
G02*
X133822100Y-95709200I87900J0D01*
G01*
G37*
G36*
G01*
X134322100Y-95709200D02*
X134497900Y-95709200D01*
G75*
G02*
X134585800Y-95797100I0J-87900D01*
G01*
X134585800Y-96597900D01*
G75*
G02*
X134497900Y-96685800I-87900J0D01*
G01*
X134322100Y-96685800D01*
G75*
G02*
X134234200Y-96597900I0J87900D01*
G01*
X134234200Y-95797100D01*
G75*
G02*
X134322100Y-95709200I87900J0D01*
G01*
G37*
G36*
G01*
X134822100Y-95709200D02*
X134997900Y-95709200D01*
G75*
G02*
X135085800Y-95797100I0J-87900D01*
G01*
X135085800Y-96597900D01*
G75*
G02*
X134997900Y-96685800I-87900J0D01*
G01*
X134822100Y-96685800D01*
G75*
G02*
X134734200Y-96597900I0J87900D01*
G01*
X134734200Y-95797100D01*
G75*
G02*
X134822100Y-95709200I87900J0D01*
G01*
G37*
G36*
G01*
X135322100Y-95709200D02*
X135497900Y-95709200D01*
G75*
G02*
X135585800Y-95797100I0J-87900D01*
G01*
X135585800Y-96597900D01*
G75*
G02*
X135497900Y-96685800I-87900J0D01*
G01*
X135322100Y-96685800D01*
G75*
G02*
X135234200Y-96597900I0J87900D01*
G01*
X135234200Y-95797100D01*
G75*
G02*
X135322100Y-95709200I87900J0D01*
G01*
G37*
G36*
G01*
X135822100Y-95709200D02*
X135997900Y-95709200D01*
G75*
G02*
X136085800Y-95797100I0J-87900D01*
G01*
X136085800Y-96597900D01*
G75*
G02*
X135997900Y-96685800I-87900J0D01*
G01*
X135822100Y-96685800D01*
G75*
G02*
X135734200Y-96597900I0J87900D01*
G01*
X135734200Y-95797100D01*
G75*
G02*
X135822100Y-95709200I87900J0D01*
G01*
G37*
G36*
G01*
X136322100Y-95709200D02*
X136497900Y-95709200D01*
G75*
G02*
X136585800Y-95797100I0J-87900D01*
G01*
X136585800Y-96597900D01*
G75*
G02*
X136497900Y-96685800I-87900J0D01*
G01*
X136322100Y-96685800D01*
G75*
G02*
X136234200Y-96597900I0J87900D01*
G01*
X136234200Y-95797100D01*
G75*
G02*
X136322100Y-95709200I87900J0D01*
G01*
G37*
G36*
G01*
X136822100Y-95709200D02*
X136997900Y-95709200D01*
G75*
G02*
X137085800Y-95797100I0J-87900D01*
G01*
X137085800Y-96597900D01*
G75*
G02*
X136997900Y-96685800I-87900J0D01*
G01*
X136822100Y-96685800D01*
G75*
G02*
X136734200Y-96597900I0J87900D01*
G01*
X136734200Y-95797100D01*
G75*
G02*
X136822100Y-95709200I87900J0D01*
G01*
G37*
G36*
G01*
X137197100Y-95334200D02*
X137997900Y-95334200D01*
G75*
G02*
X138085800Y-95422100I0J-87900D01*
G01*
X138085800Y-95597900D01*
G75*
G02*
X137997900Y-95685800I-87900J0D01*
G01*
X137197100Y-95685800D01*
G75*
G02*
X137109200Y-95597900I0J87900D01*
G01*
X137109200Y-95422100D01*
G75*
G02*
X137197100Y-95334200I87900J0D01*
G01*
G37*
G36*
G01*
X137197100Y-94834200D02*
X137997900Y-94834200D01*
G75*
G02*
X138085800Y-94922100I0J-87900D01*
G01*
X138085800Y-95097900D01*
G75*
G02*
X137997900Y-95185800I-87900J0D01*
G01*
X137197100Y-95185800D01*
G75*
G02*
X137109200Y-95097900I0J87900D01*
G01*
X137109200Y-94922100D01*
G75*
G02*
X137197100Y-94834200I87900J0D01*
G01*
G37*
G36*
G01*
X137197100Y-94334200D02*
X137997900Y-94334200D01*
G75*
G02*
X138085800Y-94422100I0J-87900D01*
G01*
X138085800Y-94597900D01*
G75*
G02*
X137997900Y-94685800I-87900J0D01*
G01*
X137197100Y-94685800D01*
G75*
G02*
X137109200Y-94597900I0J87900D01*
G01*
X137109200Y-94422100D01*
G75*
G02*
X137197100Y-94334200I87900J0D01*
G01*
G37*
G36*
G01*
X137197100Y-93834200D02*
X137997900Y-93834200D01*
G75*
G02*
X138085800Y-93922100I0J-87900D01*
G01*
X138085800Y-94097900D01*
G75*
G02*
X137997900Y-94185800I-87900J0D01*
G01*
X137197100Y-94185800D01*
G75*
G02*
X137109200Y-94097900I0J87900D01*
G01*
X137109200Y-93922100D01*
G75*
G02*
X137197100Y-93834200I87900J0D01*
G01*
G37*
G36*
G01*
X137197100Y-93334200D02*
X137997900Y-93334200D01*
G75*
G02*
X138085800Y-93422100I0J-87900D01*
G01*
X138085800Y-93597900D01*
G75*
G02*
X137997900Y-93685800I-87900J0D01*
G01*
X137197100Y-93685800D01*
G75*
G02*
X137109200Y-93597900I0J87900D01*
G01*
X137109200Y-93422100D01*
G75*
G02*
X137197100Y-93334200I87900J0D01*
G01*
G37*
G36*
G01*
X137197100Y-92834200D02*
X137997900Y-92834200D01*
G75*
G02*
X138085800Y-92922100I0J-87900D01*
G01*
X138085800Y-93097900D01*
G75*
G02*
X137997900Y-93185800I-87900J0D01*
G01*
X137197100Y-93185800D01*
G75*
G02*
X137109200Y-93097900I0J87900D01*
G01*
X137109200Y-92922100D01*
G75*
G02*
X137197100Y-92834200I87900J0D01*
G01*
G37*
G36*
G01*
X137197100Y-92334200D02*
X137997900Y-92334200D01*
G75*
G02*
X138085800Y-92422100I0J-87900D01*
G01*
X138085800Y-92597900D01*
G75*
G02*
X137997900Y-92685800I-87900J0D01*
G01*
X137197100Y-92685800D01*
G75*
G02*
X137109200Y-92597900I0J87900D01*
G01*
X137109200Y-92422100D01*
G75*
G02*
X137197100Y-92334200I87900J0D01*
G01*
G37*
G36*
G01*
X137197100Y-91834200D02*
X137997900Y-91834200D01*
G75*
G02*
X138085800Y-91922100I0J-87900D01*
G01*
X138085800Y-92097900D01*
G75*
G02*
X137997900Y-92185800I-87900J0D01*
G01*
X137197100Y-92185800D01*
G75*
G02*
X137109200Y-92097900I0J87900D01*
G01*
X137109200Y-91922100D01*
G75*
G02*
X137197100Y-91834200I87900J0D01*
G01*
G37*
G36*
G01*
X136822100Y-90834200D02*
X136997900Y-90834200D01*
G75*
G02*
X137085800Y-90922100I0J-87900D01*
G01*
X137085800Y-91722900D01*
G75*
G02*
X136997900Y-91810800I-87900J0D01*
G01*
X136822100Y-91810800D01*
G75*
G02*
X136734200Y-91722900I0J87900D01*
G01*
X136734200Y-90922100D01*
G75*
G02*
X136822100Y-90834200I87900J0D01*
G01*
G37*
G36*
G01*
X136322100Y-90834200D02*
X136497900Y-90834200D01*
G75*
G02*
X136585800Y-90922100I0J-87900D01*
G01*
X136585800Y-91722900D01*
G75*
G02*
X136497900Y-91810800I-87900J0D01*
G01*
X136322100Y-91810800D01*
G75*
G02*
X136234200Y-91722900I0J87900D01*
G01*
X136234200Y-90922100D01*
G75*
G02*
X136322100Y-90834200I87900J0D01*
G01*
G37*
G36*
G01*
X135822100Y-90834200D02*
X135997900Y-90834200D01*
G75*
G02*
X136085800Y-90922100I0J-87900D01*
G01*
X136085800Y-91722900D01*
G75*
G02*
X135997900Y-91810800I-87900J0D01*
G01*
X135822100Y-91810800D01*
G75*
G02*
X135734200Y-91722900I0J87900D01*
G01*
X135734200Y-90922100D01*
G75*
G02*
X135822100Y-90834200I87900J0D01*
G01*
G37*
G36*
G01*
X135322100Y-90834200D02*
X135497900Y-90834200D01*
G75*
G02*
X135585800Y-90922100I0J-87900D01*
G01*
X135585800Y-91722900D01*
G75*
G02*
X135497900Y-91810800I-87900J0D01*
G01*
X135322100Y-91810800D01*
G75*
G02*
X135234200Y-91722900I0J87900D01*
G01*
X135234200Y-90922100D01*
G75*
G02*
X135322100Y-90834200I87900J0D01*
G01*
G37*
G36*
G01*
X134822100Y-90834200D02*
X134997900Y-90834200D01*
G75*
G02*
X135085800Y-90922100I0J-87900D01*
G01*
X135085800Y-91722900D01*
G75*
G02*
X134997900Y-91810800I-87900J0D01*
G01*
X134822100Y-91810800D01*
G75*
G02*
X134734200Y-91722900I0J87900D01*
G01*
X134734200Y-90922100D01*
G75*
G02*
X134822100Y-90834200I87900J0D01*
G01*
G37*
G36*
G01*
X134322100Y-90834200D02*
X134497900Y-90834200D01*
G75*
G02*
X134585800Y-90922100I0J-87900D01*
G01*
X134585800Y-91722900D01*
G75*
G02*
X134497900Y-91810800I-87900J0D01*
G01*
X134322100Y-91810800D01*
G75*
G02*
X134234200Y-91722900I0J87900D01*
G01*
X134234200Y-90922100D01*
G75*
G02*
X134322100Y-90834200I87900J0D01*
G01*
G37*
G36*
G01*
X133822100Y-90834200D02*
X133997900Y-90834200D01*
G75*
G02*
X134085800Y-90922100I0J-87900D01*
G01*
X134085800Y-91722900D01*
G75*
G02*
X133997900Y-91810800I-87900J0D01*
G01*
X133822100Y-91810800D01*
G75*
G02*
X133734200Y-91722900I0J87900D01*
G01*
X133734200Y-90922100D01*
G75*
G02*
X133822100Y-90834200I87900J0D01*
G01*
G37*
G36*
G01*
X133322100Y-90834200D02*
X133497900Y-90834200D01*
G75*
G02*
X133585800Y-90922100I0J-87900D01*
G01*
X133585800Y-91722900D01*
G75*
G02*
X133497900Y-91810800I-87900J0D01*
G01*
X133322100Y-91810800D01*
G75*
G02*
X133234200Y-91722900I0J87900D01*
G01*
X133234200Y-90922100D01*
G75*
G02*
X133322100Y-90834200I87900J0D01*
G01*
G37*
%TD*%
%TO.C,U6*%
X144840000Y-83240000D03*
G36*
G01*
X147677900Y-85165800D02*
X146877100Y-85165800D01*
G75*
G02*
X146789200Y-85077900I0J87900D01*
G01*
X146789200Y-84902100D01*
G75*
G02*
X146877100Y-84814200I87900J0D01*
G01*
X147677900Y-84814200D01*
G75*
G02*
X147765800Y-84902100I0J-87900D01*
G01*
X147765800Y-85077900D01*
G75*
G02*
X147677900Y-85165800I-87900J0D01*
G01*
G37*
G36*
G01*
X147677900Y-84665800D02*
X146877100Y-84665800D01*
G75*
G02*
X146789200Y-84577900I0J87900D01*
G01*
X146789200Y-84402100D01*
G75*
G02*
X146877100Y-84314200I87900J0D01*
G01*
X147677900Y-84314200D01*
G75*
G02*
X147765800Y-84402100I0J-87900D01*
G01*
X147765800Y-84577900D01*
G75*
G02*
X147677900Y-84665800I-87900J0D01*
G01*
G37*
G36*
G01*
X147677900Y-84165800D02*
X146877100Y-84165800D01*
G75*
G02*
X146789200Y-84077900I0J87900D01*
G01*
X146789200Y-83902100D01*
G75*
G02*
X146877100Y-83814200I87900J0D01*
G01*
X147677900Y-83814200D01*
G75*
G02*
X147765800Y-83902100I0J-87900D01*
G01*
X147765800Y-84077900D01*
G75*
G02*
X147677900Y-84165800I-87900J0D01*
G01*
G37*
G36*
G01*
X147677900Y-83665800D02*
X146877100Y-83665800D01*
G75*
G02*
X146789200Y-83577900I0J87900D01*
G01*
X146789200Y-83402100D01*
G75*
G02*
X146877100Y-83314200I87900J0D01*
G01*
X147677900Y-83314200D01*
G75*
G02*
X147765800Y-83402100I0J-87900D01*
G01*
X147765800Y-83577900D01*
G75*
G02*
X147677900Y-83665800I-87900J0D01*
G01*
G37*
G36*
G01*
X147677900Y-83165800D02*
X146877100Y-83165800D01*
G75*
G02*
X146789200Y-83077900I0J87900D01*
G01*
X146789200Y-82902100D01*
G75*
G02*
X146877100Y-82814200I87900J0D01*
G01*
X147677900Y-82814200D01*
G75*
G02*
X147765800Y-82902100I0J-87900D01*
G01*
X147765800Y-83077900D01*
G75*
G02*
X147677900Y-83165800I-87900J0D01*
G01*
G37*
G36*
G01*
X147677900Y-82665800D02*
X146877100Y-82665800D01*
G75*
G02*
X146789200Y-82577900I0J87900D01*
G01*
X146789200Y-82402100D01*
G75*
G02*
X146877100Y-82314200I87900J0D01*
G01*
X147677900Y-82314200D01*
G75*
G02*
X147765800Y-82402100I0J-87900D01*
G01*
X147765800Y-82577900D01*
G75*
G02*
X147677900Y-82665800I-87900J0D01*
G01*
G37*
G36*
G01*
X147677900Y-82165800D02*
X146877100Y-82165800D01*
G75*
G02*
X146789200Y-82077900I0J87900D01*
G01*
X146789200Y-81902100D01*
G75*
G02*
X146877100Y-81814200I87900J0D01*
G01*
X147677900Y-81814200D01*
G75*
G02*
X147765800Y-81902100I0J-87900D01*
G01*
X147765800Y-82077900D01*
G75*
G02*
X147677900Y-82165800I-87900J0D01*
G01*
G37*
G36*
G01*
X147677900Y-81665800D02*
X146877100Y-81665800D01*
G75*
G02*
X146789200Y-81577900I0J87900D01*
G01*
X146789200Y-81402100D01*
G75*
G02*
X146877100Y-81314200I87900J0D01*
G01*
X147677900Y-81314200D01*
G75*
G02*
X147765800Y-81402100I0J-87900D01*
G01*
X147765800Y-81577900D01*
G75*
G02*
X147677900Y-81665800I-87900J0D01*
G01*
G37*
G36*
G01*
X146677900Y-81290800D02*
X146502100Y-81290800D01*
G75*
G02*
X146414200Y-81202900I0J87900D01*
G01*
X146414200Y-80402100D01*
G75*
G02*
X146502100Y-80314200I87900J0D01*
G01*
X146677900Y-80314200D01*
G75*
G02*
X146765800Y-80402100I0J-87900D01*
G01*
X146765800Y-81202900D01*
G75*
G02*
X146677900Y-81290800I-87900J0D01*
G01*
G37*
G36*
G01*
X146177900Y-81290800D02*
X146002100Y-81290800D01*
G75*
G02*
X145914200Y-81202900I0J87900D01*
G01*
X145914200Y-80402100D01*
G75*
G02*
X146002100Y-80314200I87900J0D01*
G01*
X146177900Y-80314200D01*
G75*
G02*
X146265800Y-80402100I0J-87900D01*
G01*
X146265800Y-81202900D01*
G75*
G02*
X146177900Y-81290800I-87900J0D01*
G01*
G37*
G36*
G01*
X145677900Y-81290800D02*
X145502100Y-81290800D01*
G75*
G02*
X145414200Y-81202900I0J87900D01*
G01*
X145414200Y-80402100D01*
G75*
G02*
X145502100Y-80314200I87900J0D01*
G01*
X145677900Y-80314200D01*
G75*
G02*
X145765800Y-80402100I0J-87900D01*
G01*
X145765800Y-81202900D01*
G75*
G02*
X145677900Y-81290800I-87900J0D01*
G01*
G37*
G36*
G01*
X145177900Y-81290800D02*
X145002100Y-81290800D01*
G75*
G02*
X144914200Y-81202900I0J87900D01*
G01*
X144914200Y-80402100D01*
G75*
G02*
X145002100Y-80314200I87900J0D01*
G01*
X145177900Y-80314200D01*
G75*
G02*
X145265800Y-80402100I0J-87900D01*
G01*
X145265800Y-81202900D01*
G75*
G02*
X145177900Y-81290800I-87900J0D01*
G01*
G37*
G36*
G01*
X144677900Y-81290800D02*
X144502100Y-81290800D01*
G75*
G02*
X144414200Y-81202900I0J87900D01*
G01*
X144414200Y-80402100D01*
G75*
G02*
X144502100Y-80314200I87900J0D01*
G01*
X144677900Y-80314200D01*
G75*
G02*
X144765800Y-80402100I0J-87900D01*
G01*
X144765800Y-81202900D01*
G75*
G02*
X144677900Y-81290800I-87900J0D01*
G01*
G37*
G36*
G01*
X144177900Y-81290800D02*
X144002100Y-81290800D01*
G75*
G02*
X143914200Y-81202900I0J87900D01*
G01*
X143914200Y-80402100D01*
G75*
G02*
X144002100Y-80314200I87900J0D01*
G01*
X144177900Y-80314200D01*
G75*
G02*
X144265800Y-80402100I0J-87900D01*
G01*
X144265800Y-81202900D01*
G75*
G02*
X144177900Y-81290800I-87900J0D01*
G01*
G37*
G36*
G01*
X143677900Y-81290800D02*
X143502100Y-81290800D01*
G75*
G02*
X143414200Y-81202900I0J87900D01*
G01*
X143414200Y-80402100D01*
G75*
G02*
X143502100Y-80314200I87900J0D01*
G01*
X143677900Y-80314200D01*
G75*
G02*
X143765800Y-80402100I0J-87900D01*
G01*
X143765800Y-81202900D01*
G75*
G02*
X143677900Y-81290800I-87900J0D01*
G01*
G37*
G36*
G01*
X143177900Y-81290800D02*
X143002100Y-81290800D01*
G75*
G02*
X142914200Y-81202900I0J87900D01*
G01*
X142914200Y-80402100D01*
G75*
G02*
X143002100Y-80314200I87900J0D01*
G01*
X143177900Y-80314200D01*
G75*
G02*
X143265800Y-80402100I0J-87900D01*
G01*
X143265800Y-81202900D01*
G75*
G02*
X143177900Y-81290800I-87900J0D01*
G01*
G37*
G36*
G01*
X142802900Y-81665800D02*
X142002100Y-81665800D01*
G75*
G02*
X141914200Y-81577900I0J87900D01*
G01*
X141914200Y-81402100D01*
G75*
G02*
X142002100Y-81314200I87900J0D01*
G01*
X142802900Y-81314200D01*
G75*
G02*
X142890800Y-81402100I0J-87900D01*
G01*
X142890800Y-81577900D01*
G75*
G02*
X142802900Y-81665800I-87900J0D01*
G01*
G37*
G36*
G01*
X142802900Y-82165800D02*
X142002100Y-82165800D01*
G75*
G02*
X141914200Y-82077900I0J87900D01*
G01*
X141914200Y-81902100D01*
G75*
G02*
X142002100Y-81814200I87900J0D01*
G01*
X142802900Y-81814200D01*
G75*
G02*
X142890800Y-81902100I0J-87900D01*
G01*
X142890800Y-82077900D01*
G75*
G02*
X142802900Y-82165800I-87900J0D01*
G01*
G37*
G36*
G01*
X142802900Y-82665800D02*
X142002100Y-82665800D01*
G75*
G02*
X141914200Y-82577900I0J87900D01*
G01*
X141914200Y-82402100D01*
G75*
G02*
X142002100Y-82314200I87900J0D01*
G01*
X142802900Y-82314200D01*
G75*
G02*
X142890800Y-82402100I0J-87900D01*
G01*
X142890800Y-82577900D01*
G75*
G02*
X142802900Y-82665800I-87900J0D01*
G01*
G37*
G36*
G01*
X142802900Y-83165800D02*
X142002100Y-83165800D01*
G75*
G02*
X141914200Y-83077900I0J87900D01*
G01*
X141914200Y-82902100D01*
G75*
G02*
X142002100Y-82814200I87900J0D01*
G01*
X142802900Y-82814200D01*
G75*
G02*
X142890800Y-82902100I0J-87900D01*
G01*
X142890800Y-83077900D01*
G75*
G02*
X142802900Y-83165800I-87900J0D01*
G01*
G37*
G36*
G01*
X142802900Y-83665800D02*
X142002100Y-83665800D01*
G75*
G02*
X141914200Y-83577900I0J87900D01*
G01*
X141914200Y-83402100D01*
G75*
G02*
X142002100Y-83314200I87900J0D01*
G01*
X142802900Y-83314200D01*
G75*
G02*
X142890800Y-83402100I0J-87900D01*
G01*
X142890800Y-83577900D01*
G75*
G02*
X142802900Y-83665800I-87900J0D01*
G01*
G37*
G36*
G01*
X142802900Y-84165800D02*
X142002100Y-84165800D01*
G75*
G02*
X141914200Y-84077900I0J87900D01*
G01*
X141914200Y-83902100D01*
G75*
G02*
X142002100Y-83814200I87900J0D01*
G01*
X142802900Y-83814200D01*
G75*
G02*
X142890800Y-83902100I0J-87900D01*
G01*
X142890800Y-84077900D01*
G75*
G02*
X142802900Y-84165800I-87900J0D01*
G01*
G37*
G36*
G01*
X142802900Y-84665800D02*
X142002100Y-84665800D01*
G75*
G02*
X141914200Y-84577900I0J87900D01*
G01*
X141914200Y-84402100D01*
G75*
G02*
X142002100Y-84314200I87900J0D01*
G01*
X142802900Y-84314200D01*
G75*
G02*
X142890800Y-84402100I0J-87900D01*
G01*
X142890800Y-84577900D01*
G75*
G02*
X142802900Y-84665800I-87900J0D01*
G01*
G37*
G36*
G01*
X142802900Y-85165800D02*
X142002100Y-85165800D01*
G75*
G02*
X141914200Y-85077900I0J87900D01*
G01*
X141914200Y-84902100D01*
G75*
G02*
X142002100Y-84814200I87900J0D01*
G01*
X142802900Y-84814200D01*
G75*
G02*
X142890800Y-84902100I0J-87900D01*
G01*
X142890800Y-85077900D01*
G75*
G02*
X142802900Y-85165800I-87900J0D01*
G01*
G37*
G36*
G01*
X143177900Y-86165800D02*
X143002100Y-86165800D01*
G75*
G02*
X142914200Y-86077900I0J87900D01*
G01*
X142914200Y-85277100D01*
G75*
G02*
X143002100Y-85189200I87900J0D01*
G01*
X143177900Y-85189200D01*
G75*
G02*
X143265800Y-85277100I0J-87900D01*
G01*
X143265800Y-86077900D01*
G75*
G02*
X143177900Y-86165800I-87900J0D01*
G01*
G37*
G36*
G01*
X143677900Y-86165800D02*
X143502100Y-86165800D01*
G75*
G02*
X143414200Y-86077900I0J87900D01*
G01*
X143414200Y-85277100D01*
G75*
G02*
X143502100Y-85189200I87900J0D01*
G01*
X143677900Y-85189200D01*
G75*
G02*
X143765800Y-85277100I0J-87900D01*
G01*
X143765800Y-86077900D01*
G75*
G02*
X143677900Y-86165800I-87900J0D01*
G01*
G37*
G36*
G01*
X144177900Y-86165800D02*
X144002100Y-86165800D01*
G75*
G02*
X143914200Y-86077900I0J87900D01*
G01*
X143914200Y-85277100D01*
G75*
G02*
X144002100Y-85189200I87900J0D01*
G01*
X144177900Y-85189200D01*
G75*
G02*
X144265800Y-85277100I0J-87900D01*
G01*
X144265800Y-86077900D01*
G75*
G02*
X144177900Y-86165800I-87900J0D01*
G01*
G37*
G36*
G01*
X144677900Y-86165800D02*
X144502100Y-86165800D01*
G75*
G02*
X144414200Y-86077900I0J87900D01*
G01*
X144414200Y-85277100D01*
G75*
G02*
X144502100Y-85189200I87900J0D01*
G01*
X144677900Y-85189200D01*
G75*
G02*
X144765800Y-85277100I0J-87900D01*
G01*
X144765800Y-86077900D01*
G75*
G02*
X144677900Y-86165800I-87900J0D01*
G01*
G37*
G36*
G01*
X145177900Y-86165800D02*
X145002100Y-86165800D01*
G75*
G02*
X144914200Y-86077900I0J87900D01*
G01*
X144914200Y-85277100D01*
G75*
G02*
X145002100Y-85189200I87900J0D01*
G01*
X145177900Y-85189200D01*
G75*
G02*
X145265800Y-85277100I0J-87900D01*
G01*
X145265800Y-86077900D01*
G75*
G02*
X145177900Y-86165800I-87900J0D01*
G01*
G37*
G36*
G01*
X145677900Y-86165800D02*
X145502100Y-86165800D01*
G75*
G02*
X145414200Y-86077900I0J87900D01*
G01*
X145414200Y-85277100D01*
G75*
G02*
X145502100Y-85189200I87900J0D01*
G01*
X145677900Y-85189200D01*
G75*
G02*
X145765800Y-85277100I0J-87900D01*
G01*
X145765800Y-86077900D01*
G75*
G02*
X145677900Y-86165800I-87900J0D01*
G01*
G37*
G36*
G01*
X146177900Y-86165800D02*
X146002100Y-86165800D01*
G75*
G02*
X145914200Y-86077900I0J87900D01*
G01*
X145914200Y-85277100D01*
G75*
G02*
X146002100Y-85189200I87900J0D01*
G01*
X146177900Y-85189200D01*
G75*
G02*
X146265800Y-85277100I0J-87900D01*
G01*
X146265800Y-86077900D01*
G75*
G02*
X146177900Y-86165800I-87900J0D01*
G01*
G37*
G36*
G01*
X146677900Y-86165800D02*
X146502100Y-86165800D01*
G75*
G02*
X146414200Y-86077900I0J87900D01*
G01*
X146414200Y-85277100D01*
G75*
G02*
X146502100Y-85189200I87900J0D01*
G01*
X146677900Y-85189200D01*
G75*
G02*
X146765800Y-85277100I0J-87900D01*
G01*
X146765800Y-86077900D01*
G75*
G02*
X146677900Y-86165800I-87900J0D01*
G01*
G37*
%TD*%
%TO.C,R25*%
G36*
G01*
X141330800Y-88522100D02*
X141330800Y-88917900D01*
G75*
G02*
X141157900Y-89090800I-172900J0D01*
G01*
X140812100Y-89090800D01*
G75*
G02*
X140639200Y-88917900I0J172900D01*
G01*
X140639200Y-88522100D01*
G75*
G02*
X140812100Y-88349200I172900J0D01*
G01*
X141157900Y-88349200D01*
G75*
G02*
X141330800Y-88522100I0J-172900D01*
G01*
G37*
G36*
G01*
X142300800Y-88522100D02*
X142300800Y-88917900D01*
G75*
G02*
X142127900Y-89090800I-172900J0D01*
G01*
X141782100Y-89090800D01*
G75*
G02*
X141609200Y-88917900I0J172900D01*
G01*
X141609200Y-88522100D01*
G75*
G02*
X141782100Y-88349200I172900J0D01*
G01*
X142127900Y-88349200D01*
G75*
G02*
X142300800Y-88522100I0J-172900D01*
G01*
G37*
%TD*%
%TO.C,U2*%
X144840000Y-98000000D03*
G36*
G01*
X147677900Y-99925800D02*
X146877100Y-99925800D01*
G75*
G02*
X146789200Y-99837900I0J87900D01*
G01*
X146789200Y-99662100D01*
G75*
G02*
X146877100Y-99574200I87900J0D01*
G01*
X147677900Y-99574200D01*
G75*
G02*
X147765800Y-99662100I0J-87900D01*
G01*
X147765800Y-99837900D01*
G75*
G02*
X147677900Y-99925800I-87900J0D01*
G01*
G37*
G36*
G01*
X147677900Y-99425800D02*
X146877100Y-99425800D01*
G75*
G02*
X146789200Y-99337900I0J87900D01*
G01*
X146789200Y-99162100D01*
G75*
G02*
X146877100Y-99074200I87900J0D01*
G01*
X147677900Y-99074200D01*
G75*
G02*
X147765800Y-99162100I0J-87900D01*
G01*
X147765800Y-99337900D01*
G75*
G02*
X147677900Y-99425800I-87900J0D01*
G01*
G37*
G36*
G01*
X147677900Y-98925800D02*
X146877100Y-98925800D01*
G75*
G02*
X146789200Y-98837900I0J87900D01*
G01*
X146789200Y-98662100D01*
G75*
G02*
X146877100Y-98574200I87900J0D01*
G01*
X147677900Y-98574200D01*
G75*
G02*
X147765800Y-98662100I0J-87900D01*
G01*
X147765800Y-98837900D01*
G75*
G02*
X147677900Y-98925800I-87900J0D01*
G01*
G37*
G36*
G01*
X147677900Y-98425800D02*
X146877100Y-98425800D01*
G75*
G02*
X146789200Y-98337900I0J87900D01*
G01*
X146789200Y-98162100D01*
G75*
G02*
X146877100Y-98074200I87900J0D01*
G01*
X147677900Y-98074200D01*
G75*
G02*
X147765800Y-98162100I0J-87900D01*
G01*
X147765800Y-98337900D01*
G75*
G02*
X147677900Y-98425800I-87900J0D01*
G01*
G37*
G36*
G01*
X147677900Y-97925800D02*
X146877100Y-97925800D01*
G75*
G02*
X146789200Y-97837900I0J87900D01*
G01*
X146789200Y-97662100D01*
G75*
G02*
X146877100Y-97574200I87900J0D01*
G01*
X147677900Y-97574200D01*
G75*
G02*
X147765800Y-97662100I0J-87900D01*
G01*
X147765800Y-97837900D01*
G75*
G02*
X147677900Y-97925800I-87900J0D01*
G01*
G37*
G36*
G01*
X147677900Y-97425800D02*
X146877100Y-97425800D01*
G75*
G02*
X146789200Y-97337900I0J87900D01*
G01*
X146789200Y-97162100D01*
G75*
G02*
X146877100Y-97074200I87900J0D01*
G01*
X147677900Y-97074200D01*
G75*
G02*
X147765800Y-97162100I0J-87900D01*
G01*
X147765800Y-97337900D01*
G75*
G02*
X147677900Y-97425800I-87900J0D01*
G01*
G37*
G36*
G01*
X147677900Y-96925800D02*
X146877100Y-96925800D01*
G75*
G02*
X146789200Y-96837900I0J87900D01*
G01*
X146789200Y-96662100D01*
G75*
G02*
X146877100Y-96574200I87900J0D01*
G01*
X147677900Y-96574200D01*
G75*
G02*
X147765800Y-96662100I0J-87900D01*
G01*
X147765800Y-96837900D01*
G75*
G02*
X147677900Y-96925800I-87900J0D01*
G01*
G37*
G36*
G01*
X147677900Y-96425800D02*
X146877100Y-96425800D01*
G75*
G02*
X146789200Y-96337900I0J87900D01*
G01*
X146789200Y-96162100D01*
G75*
G02*
X146877100Y-96074200I87900J0D01*
G01*
X147677900Y-96074200D01*
G75*
G02*
X147765800Y-96162100I0J-87900D01*
G01*
X147765800Y-96337900D01*
G75*
G02*
X147677900Y-96425800I-87900J0D01*
G01*
G37*
G36*
G01*
X146677900Y-96050800D02*
X146502100Y-96050800D01*
G75*
G02*
X146414200Y-95962900I0J87900D01*
G01*
X146414200Y-95162100D01*
G75*
G02*
X146502100Y-95074200I87900J0D01*
G01*
X146677900Y-95074200D01*
G75*
G02*
X146765800Y-95162100I0J-87900D01*
G01*
X146765800Y-95962900D01*
G75*
G02*
X146677900Y-96050800I-87900J0D01*
G01*
G37*
G36*
G01*
X146177900Y-96050800D02*
X146002100Y-96050800D01*
G75*
G02*
X145914200Y-95962900I0J87900D01*
G01*
X145914200Y-95162100D01*
G75*
G02*
X146002100Y-95074200I87900J0D01*
G01*
X146177900Y-95074200D01*
G75*
G02*
X146265800Y-95162100I0J-87900D01*
G01*
X146265800Y-95962900D01*
G75*
G02*
X146177900Y-96050800I-87900J0D01*
G01*
G37*
G36*
G01*
X145677900Y-96050800D02*
X145502100Y-96050800D01*
G75*
G02*
X145414200Y-95962900I0J87900D01*
G01*
X145414200Y-95162100D01*
G75*
G02*
X145502100Y-95074200I87900J0D01*
G01*
X145677900Y-95074200D01*
G75*
G02*
X145765800Y-95162100I0J-87900D01*
G01*
X145765800Y-95962900D01*
G75*
G02*
X145677900Y-96050800I-87900J0D01*
G01*
G37*
G36*
G01*
X145177900Y-96050800D02*
X145002100Y-96050800D01*
G75*
G02*
X144914200Y-95962900I0J87900D01*
G01*
X144914200Y-95162100D01*
G75*
G02*
X145002100Y-95074200I87900J0D01*
G01*
X145177900Y-95074200D01*
G75*
G02*
X145265800Y-95162100I0J-87900D01*
G01*
X145265800Y-95962900D01*
G75*
G02*
X145177900Y-96050800I-87900J0D01*
G01*
G37*
G36*
G01*
X144677900Y-96050800D02*
X144502100Y-96050800D01*
G75*
G02*
X144414200Y-95962900I0J87900D01*
G01*
X144414200Y-95162100D01*
G75*
G02*
X144502100Y-95074200I87900J0D01*
G01*
X144677900Y-95074200D01*
G75*
G02*
X144765800Y-95162100I0J-87900D01*
G01*
X144765800Y-95962900D01*
G75*
G02*
X144677900Y-96050800I-87900J0D01*
G01*
G37*
G36*
G01*
X144177900Y-96050800D02*
X144002100Y-96050800D01*
G75*
G02*
X143914200Y-95962900I0J87900D01*
G01*
X143914200Y-95162100D01*
G75*
G02*
X144002100Y-95074200I87900J0D01*
G01*
X144177900Y-95074200D01*
G75*
G02*
X144265800Y-95162100I0J-87900D01*
G01*
X144265800Y-95962900D01*
G75*
G02*
X144177900Y-96050800I-87900J0D01*
G01*
G37*
G36*
G01*
X143677900Y-96050800D02*
X143502100Y-96050800D01*
G75*
G02*
X143414200Y-95962900I0J87900D01*
G01*
X143414200Y-95162100D01*
G75*
G02*
X143502100Y-95074200I87900J0D01*
G01*
X143677900Y-95074200D01*
G75*
G02*
X143765800Y-95162100I0J-87900D01*
G01*
X143765800Y-95962900D01*
G75*
G02*
X143677900Y-96050800I-87900J0D01*
G01*
G37*
G36*
G01*
X143177900Y-96050800D02*
X143002100Y-96050800D01*
G75*
G02*
X142914200Y-95962900I0J87900D01*
G01*
X142914200Y-95162100D01*
G75*
G02*
X143002100Y-95074200I87900J0D01*
G01*
X143177900Y-95074200D01*
G75*
G02*
X143265800Y-95162100I0J-87900D01*
G01*
X143265800Y-95962900D01*
G75*
G02*
X143177900Y-96050800I-87900J0D01*
G01*
G37*
G36*
G01*
X142802900Y-96425800D02*
X142002100Y-96425800D01*
G75*
G02*
X141914200Y-96337900I0J87900D01*
G01*
X141914200Y-96162100D01*
G75*
G02*
X142002100Y-96074200I87900J0D01*
G01*
X142802900Y-96074200D01*
G75*
G02*
X142890800Y-96162100I0J-87900D01*
G01*
X142890800Y-96337900D01*
G75*
G02*
X142802900Y-96425800I-87900J0D01*
G01*
G37*
G36*
G01*
X142802900Y-96925800D02*
X142002100Y-96925800D01*
G75*
G02*
X141914200Y-96837900I0J87900D01*
G01*
X141914200Y-96662100D01*
G75*
G02*
X142002100Y-96574200I87900J0D01*
G01*
X142802900Y-96574200D01*
G75*
G02*
X142890800Y-96662100I0J-87900D01*
G01*
X142890800Y-96837900D01*
G75*
G02*
X142802900Y-96925800I-87900J0D01*
G01*
G37*
G36*
G01*
X142802900Y-97425800D02*
X142002100Y-97425800D01*
G75*
G02*
X141914200Y-97337900I0J87900D01*
G01*
X141914200Y-97162100D01*
G75*
G02*
X142002100Y-97074200I87900J0D01*
G01*
X142802900Y-97074200D01*
G75*
G02*
X142890800Y-97162100I0J-87900D01*
G01*
X142890800Y-97337900D01*
G75*
G02*
X142802900Y-97425800I-87900J0D01*
G01*
G37*
G36*
G01*
X142802900Y-97925800D02*
X142002100Y-97925800D01*
G75*
G02*
X141914200Y-97837900I0J87900D01*
G01*
X141914200Y-97662100D01*
G75*
G02*
X142002100Y-97574200I87900J0D01*
G01*
X142802900Y-97574200D01*
G75*
G02*
X142890800Y-97662100I0J-87900D01*
G01*
X142890800Y-97837900D01*
G75*
G02*
X142802900Y-97925800I-87900J0D01*
G01*
G37*
G36*
G01*
X142802900Y-98425800D02*
X142002100Y-98425800D01*
G75*
G02*
X141914200Y-98337900I0J87900D01*
G01*
X141914200Y-98162100D01*
G75*
G02*
X142002100Y-98074200I87900J0D01*
G01*
X142802900Y-98074200D01*
G75*
G02*
X142890800Y-98162100I0J-87900D01*
G01*
X142890800Y-98337900D01*
G75*
G02*
X142802900Y-98425800I-87900J0D01*
G01*
G37*
G36*
G01*
X142802900Y-98925800D02*
X142002100Y-98925800D01*
G75*
G02*
X141914200Y-98837900I0J87900D01*
G01*
X141914200Y-98662100D01*
G75*
G02*
X142002100Y-98574200I87900J0D01*
G01*
X142802900Y-98574200D01*
G75*
G02*
X142890800Y-98662100I0J-87900D01*
G01*
X142890800Y-98837900D01*
G75*
G02*
X142802900Y-98925800I-87900J0D01*
G01*
G37*
G36*
G01*
X142802900Y-99425800D02*
X142002100Y-99425800D01*
G75*
G02*
X141914200Y-99337900I0J87900D01*
G01*
X141914200Y-99162100D01*
G75*
G02*
X142002100Y-99074200I87900J0D01*
G01*
X142802900Y-99074200D01*
G75*
G02*
X142890800Y-99162100I0J-87900D01*
G01*
X142890800Y-99337900D01*
G75*
G02*
X142802900Y-99425800I-87900J0D01*
G01*
G37*
G36*
G01*
X142802900Y-99925800D02*
X142002100Y-99925800D01*
G75*
G02*
X141914200Y-99837900I0J87900D01*
G01*
X141914200Y-99662100D01*
G75*
G02*
X142002100Y-99574200I87900J0D01*
G01*
X142802900Y-99574200D01*
G75*
G02*
X142890800Y-99662100I0J-87900D01*
G01*
X142890800Y-99837900D01*
G75*
G02*
X142802900Y-99925800I-87900J0D01*
G01*
G37*
G36*
G01*
X143177900Y-100925800D02*
X143002100Y-100925800D01*
G75*
G02*
X142914200Y-100837900I0J87900D01*
G01*
X142914200Y-100037100D01*
G75*
G02*
X143002100Y-99949200I87900J0D01*
G01*
X143177900Y-99949200D01*
G75*
G02*
X143265800Y-100037100I0J-87900D01*
G01*
X143265800Y-100837900D01*
G75*
G02*
X143177900Y-100925800I-87900J0D01*
G01*
G37*
G36*
G01*
X143677900Y-100925800D02*
X143502100Y-100925800D01*
G75*
G02*
X143414200Y-100837900I0J87900D01*
G01*
X143414200Y-100037100D01*
G75*
G02*
X143502100Y-99949200I87900J0D01*
G01*
X143677900Y-99949200D01*
G75*
G02*
X143765800Y-100037100I0J-87900D01*
G01*
X143765800Y-100837900D01*
G75*
G02*
X143677900Y-100925800I-87900J0D01*
G01*
G37*
G36*
G01*
X144177900Y-100925800D02*
X144002100Y-100925800D01*
G75*
G02*
X143914200Y-100837900I0J87900D01*
G01*
X143914200Y-100037100D01*
G75*
G02*
X144002100Y-99949200I87900J0D01*
G01*
X144177900Y-99949200D01*
G75*
G02*
X144265800Y-100037100I0J-87900D01*
G01*
X144265800Y-100837900D01*
G75*
G02*
X144177900Y-100925800I-87900J0D01*
G01*
G37*
G36*
G01*
X144677900Y-100925800D02*
X144502100Y-100925800D01*
G75*
G02*
X144414200Y-100837900I0J87900D01*
G01*
X144414200Y-100037100D01*
G75*
G02*
X144502100Y-99949200I87900J0D01*
G01*
X144677900Y-99949200D01*
G75*
G02*
X144765800Y-100037100I0J-87900D01*
G01*
X144765800Y-100837900D01*
G75*
G02*
X144677900Y-100925800I-87900J0D01*
G01*
G37*
G36*
G01*
X145177900Y-100925800D02*
X145002100Y-100925800D01*
G75*
G02*
X144914200Y-100837900I0J87900D01*
G01*
X144914200Y-100037100D01*
G75*
G02*
X145002100Y-99949200I87900J0D01*
G01*
X145177900Y-99949200D01*
G75*
G02*
X145265800Y-100037100I0J-87900D01*
G01*
X145265800Y-100837900D01*
G75*
G02*
X145177900Y-100925800I-87900J0D01*
G01*
G37*
G36*
G01*
X145677900Y-100925800D02*
X145502100Y-100925800D01*
G75*
G02*
X145414200Y-100837900I0J87900D01*
G01*
X145414200Y-100037100D01*
G75*
G02*
X145502100Y-99949200I87900J0D01*
G01*
X145677900Y-99949200D01*
G75*
G02*
X145765800Y-100037100I0J-87900D01*
G01*
X145765800Y-100837900D01*
G75*
G02*
X145677900Y-100925800I-87900J0D01*
G01*
G37*
G36*
G01*
X146177900Y-100925800D02*
X146002100Y-100925800D01*
G75*
G02*
X145914200Y-100837900I0J87900D01*
G01*
X145914200Y-100037100D01*
G75*
G02*
X146002100Y-99949200I87900J0D01*
G01*
X146177900Y-99949200D01*
G75*
G02*
X146265800Y-100037100I0J-87900D01*
G01*
X146265800Y-100837900D01*
G75*
G02*
X146177900Y-100925800I-87900J0D01*
G01*
G37*
G36*
G01*
X146677900Y-100925800D02*
X146502100Y-100925800D01*
G75*
G02*
X146414200Y-100837900I0J87900D01*
G01*
X146414200Y-100037100D01*
G75*
G02*
X146502100Y-99949200I87900J0D01*
G01*
X146677900Y-99949200D01*
G75*
G02*
X146765800Y-100037100I0J-87900D01*
G01*
X146765800Y-100837900D01*
G75*
G02*
X146677900Y-100925800I-87900J0D01*
G01*
G37*
%TD*%
%TO.C,J10*%
G36*
G01*
X120085560Y-80050800D02*
X117914440Y-80050800D01*
G75*
G02*
X117449200Y-79585560I0J465240D01*
G01*
X117449200Y-77414440D01*
G75*
G02*
X117914440Y-76949200I465240J0D01*
G01*
X120085560Y-76949200D01*
G75*
G02*
X120550800Y-77414440I0J-465240D01*
G01*
X120550800Y-79585560D01*
G75*
G02*
X120085560Y-80050800I-465240J0D01*
G01*
G37*
G36*
G01*
X120085560Y-84050800D02*
X117914440Y-84050800D01*
G75*
G02*
X117449200Y-83585560I0J465240D01*
G01*
X117449200Y-81414440D01*
G75*
G02*
X117914440Y-80949200I465240J0D01*
G01*
X120085560Y-80949200D01*
G75*
G02*
X120550800Y-81414440I0J-465240D01*
G01*
X120550800Y-83585560D01*
G75*
G02*
X120085560Y-84050800I-465240J0D01*
G01*
G37*
G36*
G01*
X120085560Y-88050800D02*
X117914440Y-88050800D01*
G75*
G02*
X117449200Y-87585560I0J465240D01*
G01*
X117449200Y-85414440D01*
G75*
G02*
X117914440Y-84949200I465240J0D01*
G01*
X120085560Y-84949200D01*
G75*
G02*
X120550800Y-85414440I0J-465240D01*
G01*
X120550800Y-87585560D01*
G75*
G02*
X120085560Y-88050800I-465240J0D01*
G01*
G37*
%TD*%
%TO.C,J6*%
G36*
G01*
X159914440Y-96949200D02*
X162085560Y-96949200D01*
G75*
G02*
X162550800Y-97414440I0J-465240D01*
G01*
X162550800Y-99585560D01*
G75*
G02*
X162085560Y-100050800I-465240J0D01*
G01*
X159914440Y-100050800D01*
G75*
G02*
X159449200Y-99585560I0J465240D01*
G01*
X159449200Y-97414440D01*
G75*
G02*
X159914440Y-96949200I465240J0D01*
G01*
G37*
G36*
G01*
X159914440Y-92949200D02*
X162085560Y-92949200D01*
G75*
G02*
X162550800Y-93414440I0J-465240D01*
G01*
X162550800Y-95585560D01*
G75*
G02*
X162085560Y-96050800I-465240J0D01*
G01*
X159914440Y-96050800D01*
G75*
G02*
X159449200Y-95585560I0J465240D01*
G01*
X159449200Y-93414440D01*
G75*
G02*
X159914440Y-92949200I465240J0D01*
G01*
G37*
G36*
G01*
X159914440Y-88949200D02*
X162085560Y-88949200D01*
G75*
G02*
X162550800Y-89414440I0J-465240D01*
G01*
X162550800Y-91585560D01*
G75*
G02*
X162085560Y-92050800I-465240J0D01*
G01*
X159914440Y-92050800D01*
G75*
G02*
X159449200Y-91585560I0J465240D01*
G01*
X159449200Y-89414440D01*
G75*
G02*
X159914440Y-88949200I465240J0D01*
G01*
G37*
%TD*%
D11*
%TO.C,J7*%
X140860000Y-75520000D03*
X140860000Y-76720000D03*
X140860000Y-77920000D03*
X140860000Y-79120000D03*
%TD*%
%TO.C,J5*%
X138940000Y-87070000D03*
X138940000Y-85870000D03*
X138940000Y-84670000D03*
X138940000Y-83470000D03*
%TD*%
%TO.C,J4*%
X141030000Y-90050000D03*
X141030000Y-91250000D03*
X141030000Y-92450000D03*
X141030000Y-93650000D03*
%TD*%
%TO.C,J3*%
X138930000Y-101630000D03*
X138930000Y-100430000D03*
X138930000Y-99230000D03*
X138930000Y-98030000D03*
%TD*%
D12*
%TO.C,Q24*%
X127560000Y-83790000D03*
X127560000Y-85060000D03*
X127560000Y-86330000D03*
X127560000Y-87600000D03*
D13*
X121860000Y-87600000D03*
X121860000Y-86330000D03*
X121860000Y-85060000D03*
X121860000Y-83790000D03*
D14*
X124260000Y-85695000D03*
%TD*%
D12*
%TO.C,Q22*%
X127560000Y-78205000D03*
X127560000Y-79475000D03*
X127560000Y-80745000D03*
X127560000Y-82015000D03*
D13*
X121860000Y-82015000D03*
X121860000Y-80745000D03*
X121860000Y-79475000D03*
X121860000Y-78205000D03*
D14*
X124260000Y-80110000D03*
%TD*%
D12*
%TO.C,Q20*%
X134250000Y-69345000D03*
X134250000Y-70615000D03*
X134250000Y-71885000D03*
X134250000Y-73155000D03*
D13*
X128550000Y-73155000D03*
X128550000Y-71885000D03*
X128550000Y-70615000D03*
X128550000Y-69345000D03*
D14*
X130950000Y-71250000D03*
%TD*%
D12*
%TO.C,Q6*%
X152440000Y-93205000D03*
X152440000Y-91935000D03*
X152440000Y-90665000D03*
X152440000Y-89395000D03*
D13*
X158140000Y-89395000D03*
X158140000Y-90665000D03*
X158140000Y-91935000D03*
X158140000Y-93205000D03*
D14*
X155740000Y-91300000D03*
%TD*%
D12*
%TO.C,Q4*%
X152440000Y-98795000D03*
X152440000Y-97525000D03*
X152440000Y-96255000D03*
X152440000Y-94985000D03*
D13*
X158140000Y-94985000D03*
X158140000Y-96255000D03*
X158140000Y-97525000D03*
X158140000Y-98795000D03*
D14*
X155740000Y-96890000D03*
%TD*%
D12*
%TO.C,Q2*%
X145750000Y-107655000D03*
X145750000Y-106385000D03*
X145750000Y-105115000D03*
X145750000Y-103845000D03*
D13*
X151450000Y-103845000D03*
X151450000Y-105115000D03*
X151450000Y-106385000D03*
X151450000Y-107655000D03*
D14*
X149050000Y-105750000D03*
%TD*%
D12*
%TO.C,Q12*%
X145750000Y-73155000D03*
X145750000Y-71885000D03*
X145750000Y-70615000D03*
X145750000Y-69345000D03*
D13*
X151450000Y-69345000D03*
X151450000Y-70615000D03*
X151450000Y-71885000D03*
X151450000Y-73155000D03*
D14*
X149050000Y-71250000D03*
%TD*%
D12*
%TO.C,Q10*%
X152440000Y-82015000D03*
X152440000Y-80745000D03*
X152440000Y-79475000D03*
X152440000Y-78205000D03*
D13*
X158140000Y-78205000D03*
X158140000Y-79475000D03*
X158140000Y-80745000D03*
X158140000Y-82015000D03*
D14*
X155740000Y-80110000D03*
%TD*%
D12*
%TO.C,Q8*%
X152440000Y-87605000D03*
X152440000Y-86335000D03*
X152440000Y-85065000D03*
X152440000Y-83795000D03*
D13*
X158140000Y-83795000D03*
X158140000Y-85065000D03*
X158140000Y-86335000D03*
X158140000Y-87605000D03*
D14*
X155740000Y-85700000D03*
%TD*%
D12*
%TO.C,Q18*%
X134250000Y-103845000D03*
X134250000Y-105115000D03*
X134250000Y-106385000D03*
X134250000Y-107655000D03*
D13*
X128550000Y-107655000D03*
X128550000Y-106385000D03*
X128550000Y-105115000D03*
X128550000Y-103845000D03*
D14*
X130950000Y-105750000D03*
%TD*%
D12*
%TO.C,Q16*%
X127560000Y-94985000D03*
X127560000Y-96255000D03*
X127560000Y-97525000D03*
X127560000Y-98795000D03*
D13*
X121860000Y-98795000D03*
X121860000Y-97525000D03*
X121860000Y-96255000D03*
X121860000Y-94985000D03*
D14*
X124260000Y-96890000D03*
%TD*%
D12*
%TO.C,Q14*%
X127560000Y-89395000D03*
X127560000Y-90665000D03*
X127560000Y-91935000D03*
X127560000Y-93205000D03*
D13*
X121860000Y-93205000D03*
X121860000Y-91935000D03*
X121860000Y-90665000D03*
X121860000Y-89395000D03*
D14*
X124260000Y-91300000D03*
%TD*%
%TO.C,C44*%
G36*
G01*
X130988350Y-87009200D02*
X131551650Y-87009200D01*
G75*
G02*
X131795800Y-87253350I0J-244150D01*
G01*
X131795800Y-87741650D01*
G75*
G02*
X131551650Y-87985800I-244150J0D01*
G01*
X130988350Y-87985800D01*
G75*
G02*
X130744200Y-87741650I0J244150D01*
G01*
X130744200Y-87253350D01*
G75*
G02*
X130988350Y-87009200I244150J0D01*
G01*
G37*
G36*
G01*
X130988350Y-85434200D02*
X131551650Y-85434200D01*
G75*
G02*
X131795800Y-85678350I0J-244150D01*
G01*
X131795800Y-86166650D01*
G75*
G02*
X131551650Y-86410800I-244150J0D01*
G01*
X130988350Y-86410800D01*
G75*
G02*
X130744200Y-86166650I0J244150D01*
G01*
X130744200Y-85678350D01*
G75*
G02*
X130988350Y-85434200I244150J0D01*
G01*
G37*
%TD*%
%TO.C,C43*%
G36*
G01*
X130978350Y-82849200D02*
X131541650Y-82849200D01*
G75*
G02*
X131785800Y-83093350I0J-244150D01*
G01*
X131785800Y-83581650D01*
G75*
G02*
X131541650Y-83825800I-244150J0D01*
G01*
X130978350Y-83825800D01*
G75*
G02*
X130734200Y-83581650I0J244150D01*
G01*
X130734200Y-83093350D01*
G75*
G02*
X130978350Y-82849200I244150J0D01*
G01*
G37*
G36*
G01*
X130978350Y-81274200D02*
X131541650Y-81274200D01*
G75*
G02*
X131785800Y-81518350I0J-244150D01*
G01*
X131785800Y-82006650D01*
G75*
G02*
X131541650Y-82250800I-244150J0D01*
G01*
X130978350Y-82250800D01*
G75*
G02*
X130734200Y-82006650I0J244150D01*
G01*
X130734200Y-81518350D01*
G75*
G02*
X130978350Y-81274200I244150J0D01*
G01*
G37*
%TD*%
%TO.C,C42*%
G36*
G01*
X130978350Y-78659200D02*
X131541650Y-78659200D01*
G75*
G02*
X131785800Y-78903350I0J-244150D01*
G01*
X131785800Y-79391650D01*
G75*
G02*
X131541650Y-79635800I-244150J0D01*
G01*
X130978350Y-79635800D01*
G75*
G02*
X130734200Y-79391650I0J244150D01*
G01*
X130734200Y-78903350D01*
G75*
G02*
X130978350Y-78659200I244150J0D01*
G01*
G37*
G36*
G01*
X130978350Y-77084200D02*
X131541650Y-77084200D01*
G75*
G02*
X131785800Y-77328350I0J-244150D01*
G01*
X131785800Y-77816650D01*
G75*
G02*
X131541650Y-78060800I-244150J0D01*
G01*
X130978350Y-78060800D01*
G75*
G02*
X130734200Y-77816650I0J244150D01*
G01*
X130734200Y-77328350D01*
G75*
G02*
X130978350Y-77084200I244150J0D01*
G01*
G37*
%TD*%
%TO.C,C6*%
G36*
G01*
X149011650Y-89990800D02*
X148448350Y-89990800D01*
G75*
G02*
X148204200Y-89746650I0J244150D01*
G01*
X148204200Y-89258350D01*
G75*
G02*
X148448350Y-89014200I244150J0D01*
G01*
X149011650Y-89014200D01*
G75*
G02*
X149255800Y-89258350I0J-244150D01*
G01*
X149255800Y-89746650D01*
G75*
G02*
X149011650Y-89990800I-244150J0D01*
G01*
G37*
G36*
G01*
X149011650Y-91565800D02*
X148448350Y-91565800D01*
G75*
G02*
X148204200Y-91321650I0J244150D01*
G01*
X148204200Y-90833350D01*
G75*
G02*
X148448350Y-90589200I244150J0D01*
G01*
X149011650Y-90589200D01*
G75*
G02*
X149255800Y-90833350I0J-244150D01*
G01*
X149255800Y-91321650D01*
G75*
G02*
X149011650Y-91565800I-244150J0D01*
G01*
G37*
%TD*%
%TO.C,C3*%
G36*
G01*
X149021650Y-94150800D02*
X148458350Y-94150800D01*
G75*
G02*
X148214200Y-93906650I0J244150D01*
G01*
X148214200Y-93418350D01*
G75*
G02*
X148458350Y-93174200I244150J0D01*
G01*
X149021650Y-93174200D01*
G75*
G02*
X149265800Y-93418350I0J-244150D01*
G01*
X149265800Y-93906650D01*
G75*
G02*
X149021650Y-94150800I-244150J0D01*
G01*
G37*
G36*
G01*
X149021650Y-95725800D02*
X148458350Y-95725800D01*
G75*
G02*
X148214200Y-95481650I0J244150D01*
G01*
X148214200Y-94993350D01*
G75*
G02*
X148458350Y-94749200I244150J0D01*
G01*
X149021650Y-94749200D01*
G75*
G02*
X149265800Y-94993350I0J-244150D01*
G01*
X149265800Y-95481650D01*
G75*
G02*
X149021650Y-95725800I-244150J0D01*
G01*
G37*
%TD*%
%TO.C,C2*%
G36*
G01*
X149021650Y-98340800D02*
X148458350Y-98340800D01*
G75*
G02*
X148214200Y-98096650I0J244150D01*
G01*
X148214200Y-97608350D01*
G75*
G02*
X148458350Y-97364200I244150J0D01*
G01*
X149021650Y-97364200D01*
G75*
G02*
X149265800Y-97608350I0J-244150D01*
G01*
X149265800Y-98096650D01*
G75*
G02*
X149021650Y-98340800I-244150J0D01*
G01*
G37*
G36*
G01*
X149021650Y-99915800D02*
X148458350Y-99915800D01*
G75*
G02*
X148214200Y-99671650I0J244150D01*
G01*
X148214200Y-99183350D01*
G75*
G02*
X148458350Y-98939200I244150J0D01*
G01*
X149021650Y-98939200D01*
G75*
G02*
X149265800Y-99183350I0J-244150D01*
G01*
X149265800Y-99671650D01*
G75*
G02*
X149021650Y-99915800I-244150J0D01*
G01*
G37*
%TD*%
%TO.C,C29*%
G36*
G01*
X149021650Y-83680800D02*
X148458350Y-83680800D01*
G75*
G02*
X148214200Y-83436650I0J244150D01*
G01*
X148214200Y-82948350D01*
G75*
G02*
X148458350Y-82704200I244150J0D01*
G01*
X149021650Y-82704200D01*
G75*
G02*
X149265800Y-82948350I0J-244150D01*
G01*
X149265800Y-83436650D01*
G75*
G02*
X149021650Y-83680800I-244150J0D01*
G01*
G37*
G36*
G01*
X149021650Y-85255800D02*
X148458350Y-85255800D01*
G75*
G02*
X148214200Y-85011650I0J244150D01*
G01*
X148214200Y-84523350D01*
G75*
G02*
X148458350Y-84279200I244150J0D01*
G01*
X149021650Y-84279200D01*
G75*
G02*
X149265800Y-84523350I0J-244150D01*
G01*
X149265800Y-85011650D01*
G75*
G02*
X149021650Y-85255800I-244150J0D01*
G01*
G37*
%TD*%
%TO.C,C30*%
G36*
G01*
X149021650Y-79490800D02*
X148458350Y-79490800D01*
G75*
G02*
X148214200Y-79246650I0J244150D01*
G01*
X148214200Y-78758350D01*
G75*
G02*
X148458350Y-78514200I244150J0D01*
G01*
X149021650Y-78514200D01*
G75*
G02*
X149265800Y-78758350I0J-244150D01*
G01*
X149265800Y-79246650D01*
G75*
G02*
X149021650Y-79490800I-244150J0D01*
G01*
G37*
G36*
G01*
X149021650Y-81065800D02*
X148458350Y-81065800D01*
G75*
G02*
X148214200Y-80821650I0J244150D01*
G01*
X148214200Y-80333350D01*
G75*
G02*
X148458350Y-80089200I244150J0D01*
G01*
X149021650Y-80089200D01*
G75*
G02*
X149265800Y-80333350I0J-244150D01*
G01*
X149265800Y-80821650D01*
G75*
G02*
X149021650Y-81065800I-244150J0D01*
G01*
G37*
%TD*%
%TO.C,C31*%
G36*
G01*
X149011650Y-75330800D02*
X148448350Y-75330800D01*
G75*
G02*
X148204200Y-75086650I0J244150D01*
G01*
X148204200Y-74598350D01*
G75*
G02*
X148448350Y-74354200I244150J0D01*
G01*
X149011650Y-74354200D01*
G75*
G02*
X149255800Y-74598350I0J-244150D01*
G01*
X149255800Y-75086650D01*
G75*
G02*
X149011650Y-75330800I-244150J0D01*
G01*
G37*
G36*
G01*
X149011650Y-76905800D02*
X148448350Y-76905800D01*
G75*
G02*
X148204200Y-76661650I0J244150D01*
G01*
X148204200Y-76173350D01*
G75*
G02*
X148448350Y-75929200I244150J0D01*
G01*
X149011650Y-75929200D01*
G75*
G02*
X149255800Y-76173350I0J-244150D01*
G01*
X149255800Y-76661650D01*
G75*
G02*
X149011650Y-76905800I-244150J0D01*
G01*
G37*
%TD*%
%TO.C,C40*%
G36*
G01*
X130988350Y-101669200D02*
X131551650Y-101669200D01*
G75*
G02*
X131795800Y-101913350I0J-244150D01*
G01*
X131795800Y-102401650D01*
G75*
G02*
X131551650Y-102645800I-244150J0D01*
G01*
X130988350Y-102645800D01*
G75*
G02*
X130744200Y-102401650I0J244150D01*
G01*
X130744200Y-101913350D01*
G75*
G02*
X130988350Y-101669200I244150J0D01*
G01*
G37*
G36*
G01*
X130988350Y-100094200D02*
X131551650Y-100094200D01*
G75*
G02*
X131795800Y-100338350I0J-244150D01*
G01*
X131795800Y-100826650D01*
G75*
G02*
X131551650Y-101070800I-244150J0D01*
G01*
X130988350Y-101070800D01*
G75*
G02*
X130744200Y-100826650I0J244150D01*
G01*
X130744200Y-100338350D01*
G75*
G02*
X130988350Y-100094200I244150J0D01*
G01*
G37*
%TD*%
%TO.C,C39*%
G36*
G01*
X130868350Y-97509200D02*
X131431650Y-97509200D01*
G75*
G02*
X131675800Y-97753350I0J-244150D01*
G01*
X131675800Y-98241650D01*
G75*
G02*
X131431650Y-98485800I-244150J0D01*
G01*
X130868350Y-98485800D01*
G75*
G02*
X130624200Y-98241650I0J244150D01*
G01*
X130624200Y-97753350D01*
G75*
G02*
X130868350Y-97509200I244150J0D01*
G01*
G37*
G36*
G01*
X130868350Y-95934200D02*
X131431650Y-95934200D01*
G75*
G02*
X131675800Y-96178350I0J-244150D01*
G01*
X131675800Y-96666650D01*
G75*
G02*
X131431650Y-96910800I-244150J0D01*
G01*
X130868350Y-96910800D01*
G75*
G02*
X130624200Y-96666650I0J244150D01*
G01*
X130624200Y-96178350D01*
G75*
G02*
X130868350Y-95934200I244150J0D01*
G01*
G37*
%TD*%
%TO.C,C38*%
G36*
G01*
X130978350Y-93319200D02*
X131541650Y-93319200D01*
G75*
G02*
X131785800Y-93563350I0J-244150D01*
G01*
X131785800Y-94051650D01*
G75*
G02*
X131541650Y-94295800I-244150J0D01*
G01*
X130978350Y-94295800D01*
G75*
G02*
X130734200Y-94051650I0J244150D01*
G01*
X130734200Y-93563350D01*
G75*
G02*
X130978350Y-93319200I244150J0D01*
G01*
G37*
G36*
G01*
X130978350Y-91744200D02*
X131541650Y-91744200D01*
G75*
G02*
X131785800Y-91988350I0J-244150D01*
G01*
X131785800Y-92476650D01*
G75*
G02*
X131541650Y-92720800I-244150J0D01*
G01*
X130978350Y-92720800D01*
G75*
G02*
X130734200Y-92476650I0J244150D01*
G01*
X130734200Y-91988350D01*
G75*
G02*
X130978350Y-91744200I244150J0D01*
G01*
G37*
%TD*%
%TO.C,R71*%
G36*
G01*
X130370800Y-74912100D02*
X130370800Y-75307900D01*
G75*
G02*
X130197900Y-75480800I-172900J0D01*
G01*
X129852100Y-75480800D01*
G75*
G02*
X129679200Y-75307900I0J172900D01*
G01*
X129679200Y-74912100D01*
G75*
G02*
X129852100Y-74739200I172900J0D01*
G01*
X130197900Y-74739200D01*
G75*
G02*
X130370800Y-74912100I0J-172900D01*
G01*
G37*
G36*
G01*
X131340800Y-74912100D02*
X131340800Y-75307900D01*
G75*
G02*
X131167900Y-75480800I-172900J0D01*
G01*
X130822100Y-75480800D01*
G75*
G02*
X130649200Y-75307900I0J172900D01*
G01*
X130649200Y-74912100D01*
G75*
G02*
X130822100Y-74739200I172900J0D01*
G01*
X131167900Y-74739200D01*
G75*
G02*
X131340800Y-74912100I0J-172900D01*
G01*
G37*
%TD*%
%TO.C,R70*%
G36*
G01*
X136127900Y-74808300D02*
X135732100Y-74808300D01*
G75*
G02*
X135559200Y-74635400I0J172900D01*
G01*
X135559200Y-74289600D01*
G75*
G02*
X135732100Y-74116700I172900J0D01*
G01*
X136127900Y-74116700D01*
G75*
G02*
X136300800Y-74289600I0J-172900D01*
G01*
X136300800Y-74635400D01*
G75*
G02*
X136127900Y-74808300I-172900J0D01*
G01*
G37*
G36*
G01*
X136127900Y-75778300D02*
X135732100Y-75778300D01*
G75*
G02*
X135559200Y-75605400I0J172900D01*
G01*
X135559200Y-75259600D01*
G75*
G02*
X135732100Y-75086700I172900J0D01*
G01*
X136127900Y-75086700D01*
G75*
G02*
X136300800Y-75259600I0J-172900D01*
G01*
X136300800Y-75605400D01*
G75*
G02*
X136127900Y-75778300I-172900J0D01*
G01*
G37*
%TD*%
%TO.C,R69*%
G36*
G01*
X139120800Y-74269600D02*
X139120800Y-74665400D01*
G75*
G02*
X138947900Y-74838300I-172900J0D01*
G01*
X138602100Y-74838300D01*
G75*
G02*
X138429200Y-74665400I0J172900D01*
G01*
X138429200Y-74269600D01*
G75*
G02*
X138602100Y-74096700I172900J0D01*
G01*
X138947900Y-74096700D01*
G75*
G02*
X139120800Y-74269600I0J-172900D01*
G01*
G37*
G36*
G01*
X140090800Y-74269600D02*
X140090800Y-74665400D01*
G75*
G02*
X139917900Y-74838300I-172900J0D01*
G01*
X139572100Y-74838300D01*
G75*
G02*
X139399200Y-74665400I0J172900D01*
G01*
X139399200Y-74269600D01*
G75*
G02*
X139572100Y-74096700I172900J0D01*
G01*
X139917900Y-74096700D01*
G75*
G02*
X140090800Y-74269600I0J-172900D01*
G01*
G37*
%TD*%
%TO.C,R68*%
G36*
G01*
X139120800Y-79169600D02*
X139120800Y-79565400D01*
G75*
G02*
X138947900Y-79738300I-172900J0D01*
G01*
X138602100Y-79738300D01*
G75*
G02*
X138429200Y-79565400I0J172900D01*
G01*
X138429200Y-79169600D01*
G75*
G02*
X138602100Y-78996700I172900J0D01*
G01*
X138947900Y-78996700D01*
G75*
G02*
X139120800Y-79169600I0J-172900D01*
G01*
G37*
G36*
G01*
X140090800Y-79169600D02*
X140090800Y-79565400D01*
G75*
G02*
X139917900Y-79738300I-172900J0D01*
G01*
X139572100Y-79738300D01*
G75*
G02*
X139399200Y-79565400I0J172900D01*
G01*
X139399200Y-79169600D01*
G75*
G02*
X139572100Y-78996700I172900J0D01*
G01*
X139917900Y-78996700D01*
G75*
G02*
X140090800Y-79169600I0J-172900D01*
G01*
G37*
%TD*%
%TO.C,R67*%
G36*
G01*
X137612100Y-75086700D02*
X138007900Y-75086700D01*
G75*
G02*
X138180800Y-75259600I0J-172900D01*
G01*
X138180800Y-75605400D01*
G75*
G02*
X138007900Y-75778300I-172900J0D01*
G01*
X137612100Y-75778300D01*
G75*
G02*
X137439200Y-75605400I0J172900D01*
G01*
X137439200Y-75259600D01*
G75*
G02*
X137612100Y-75086700I172900J0D01*
G01*
G37*
G36*
G01*
X137612100Y-74116700D02*
X138007900Y-74116700D01*
G75*
G02*
X138180800Y-74289600I0J-172900D01*
G01*
X138180800Y-74635400D01*
G75*
G02*
X138007900Y-74808300I-172900J0D01*
G01*
X137612100Y-74808300D01*
G75*
G02*
X137439200Y-74635400I0J172900D01*
G01*
X137439200Y-74289600D01*
G75*
G02*
X137612100Y-74116700I172900J0D01*
G01*
G37*
%TD*%
%TO.C,R66*%
G36*
G01*
X136672100Y-75086700D02*
X137067900Y-75086700D01*
G75*
G02*
X137240800Y-75259600I0J-172900D01*
G01*
X137240800Y-75605400D01*
G75*
G02*
X137067900Y-75778300I-172900J0D01*
G01*
X136672100Y-75778300D01*
G75*
G02*
X136499200Y-75605400I0J172900D01*
G01*
X136499200Y-75259600D01*
G75*
G02*
X136672100Y-75086700I172900J0D01*
G01*
G37*
G36*
G01*
X136672100Y-74116700D02*
X137067900Y-74116700D01*
G75*
G02*
X137240800Y-74289600I0J-172900D01*
G01*
X137240800Y-74635400D01*
G75*
G02*
X137067900Y-74808300I-172900J0D01*
G01*
X136672100Y-74808300D01*
G75*
G02*
X136499200Y-74635400I0J172900D01*
G01*
X136499200Y-74289600D01*
G75*
G02*
X136672100Y-74116700I172900J0D01*
G01*
G37*
%TD*%
%TO.C,R64*%
G36*
G01*
X139399200Y-75607900D02*
X139399200Y-75212100D01*
G75*
G02*
X139572100Y-75039200I172900J0D01*
G01*
X139917900Y-75039200D01*
G75*
G02*
X140090800Y-75212100I0J-172900D01*
G01*
X140090800Y-75607900D01*
G75*
G02*
X139917900Y-75780800I-172900J0D01*
G01*
X139572100Y-75780800D01*
G75*
G02*
X139399200Y-75607900I0J172900D01*
G01*
G37*
G36*
G01*
X138429200Y-75607900D02*
X138429200Y-75212100D01*
G75*
G02*
X138602100Y-75039200I172900J0D01*
G01*
X138947900Y-75039200D01*
G75*
G02*
X139120800Y-75212100I0J-172900D01*
G01*
X139120800Y-75607900D01*
G75*
G02*
X138947900Y-75780800I-172900J0D01*
G01*
X138602100Y-75780800D01*
G75*
G02*
X138429200Y-75607900I0J172900D01*
G01*
G37*
%TD*%
%TO.C,R63*%
G36*
G01*
X139120800Y-76202100D02*
X139120800Y-76597900D01*
G75*
G02*
X138947900Y-76770800I-172900J0D01*
G01*
X138602100Y-76770800D01*
G75*
G02*
X138429200Y-76597900I0J172900D01*
G01*
X138429200Y-76202100D01*
G75*
G02*
X138602100Y-76029200I172900J0D01*
G01*
X138947900Y-76029200D01*
G75*
G02*
X139120800Y-76202100I0J-172900D01*
G01*
G37*
G36*
G01*
X140090800Y-76202100D02*
X140090800Y-76597900D01*
G75*
G02*
X139917900Y-76770800I-172900J0D01*
G01*
X139572100Y-76770800D01*
G75*
G02*
X139399200Y-76597900I0J172900D01*
G01*
X139399200Y-76202100D01*
G75*
G02*
X139572100Y-76029200I172900J0D01*
G01*
X139917900Y-76029200D01*
G75*
G02*
X140090800Y-76202100I0J-172900D01*
G01*
G37*
%TD*%
%TO.C,R62*%
G36*
G01*
X139399200Y-78575400D02*
X139399200Y-78179600D01*
G75*
G02*
X139572100Y-78006700I172900J0D01*
G01*
X139917900Y-78006700D01*
G75*
G02*
X140090800Y-78179600I0J-172900D01*
G01*
X140090800Y-78575400D01*
G75*
G02*
X139917900Y-78748300I-172900J0D01*
G01*
X139572100Y-78748300D01*
G75*
G02*
X139399200Y-78575400I0J172900D01*
G01*
G37*
G36*
G01*
X138429200Y-78575400D02*
X138429200Y-78179600D01*
G75*
G02*
X138602100Y-78006700I172900J0D01*
G01*
X138947900Y-78006700D01*
G75*
G02*
X139120800Y-78179600I0J-172900D01*
G01*
X139120800Y-78575400D01*
G75*
G02*
X138947900Y-78748300I-172900J0D01*
G01*
X138602100Y-78748300D01*
G75*
G02*
X138429200Y-78575400I0J172900D01*
G01*
G37*
%TD*%
%TO.C,R61*%
G36*
G01*
X139120800Y-77189600D02*
X139120800Y-77585400D01*
G75*
G02*
X138947900Y-77758300I-172900J0D01*
G01*
X138602100Y-77758300D01*
G75*
G02*
X138429200Y-77585400I0J172900D01*
G01*
X138429200Y-77189600D01*
G75*
G02*
X138602100Y-77016700I172900J0D01*
G01*
X138947900Y-77016700D01*
G75*
G02*
X139120800Y-77189600I0J-172900D01*
G01*
G37*
G36*
G01*
X140090800Y-77189600D02*
X140090800Y-77585400D01*
G75*
G02*
X139917900Y-77758300I-172900J0D01*
G01*
X139572100Y-77758300D01*
G75*
G02*
X139399200Y-77585400I0J172900D01*
G01*
X139399200Y-77189600D01*
G75*
G02*
X139572100Y-77016700I172900J0D01*
G01*
X139917900Y-77016700D01*
G75*
G02*
X140090800Y-77189600I0J-172900D01*
G01*
G37*
%TD*%
%TO.C,R60*%
G36*
G01*
X133899200Y-88487900D02*
X133899200Y-88092100D01*
G75*
G02*
X134072100Y-87919200I172900J0D01*
G01*
X134417900Y-87919200D01*
G75*
G02*
X134590800Y-88092100I0J-172900D01*
G01*
X134590800Y-88487900D01*
G75*
G02*
X134417900Y-88660800I-172900J0D01*
G01*
X134072100Y-88660800D01*
G75*
G02*
X133899200Y-88487900I0J172900D01*
G01*
G37*
G36*
G01*
X132929200Y-88487900D02*
X132929200Y-88092100D01*
G75*
G02*
X133102100Y-87919200I172900J0D01*
G01*
X133447900Y-87919200D01*
G75*
G02*
X133620800Y-88092100I0J-172900D01*
G01*
X133620800Y-88487900D01*
G75*
G02*
X133447900Y-88660800I-172900J0D01*
G01*
X133102100Y-88660800D01*
G75*
G02*
X132929200Y-88487900I0J172900D01*
G01*
G37*
%TD*%
%TO.C,R59*%
G36*
G01*
X130267900Y-86070800D02*
X129872100Y-86070800D01*
G75*
G02*
X129699200Y-85897900I0J172900D01*
G01*
X129699200Y-85552100D01*
G75*
G02*
X129872100Y-85379200I172900J0D01*
G01*
X130267900Y-85379200D01*
G75*
G02*
X130440800Y-85552100I0J-172900D01*
G01*
X130440800Y-85897900D01*
G75*
G02*
X130267900Y-86070800I-172900J0D01*
G01*
G37*
G36*
G01*
X130267900Y-87040800D02*
X129872100Y-87040800D01*
G75*
G02*
X129699200Y-86867900I0J172900D01*
G01*
X129699200Y-86522100D01*
G75*
G02*
X129872100Y-86349200I172900J0D01*
G01*
X130267900Y-86349200D01*
G75*
G02*
X130440800Y-86522100I0J-172900D01*
G01*
X130440800Y-86867900D01*
G75*
G02*
X130267900Y-87040800I-172900J0D01*
G01*
G37*
%TD*%
%TO.C,R58*%
G36*
G01*
X128762100Y-83139200D02*
X129157900Y-83139200D01*
G75*
G02*
X129330800Y-83312100I0J-172900D01*
G01*
X129330800Y-83657900D01*
G75*
G02*
X129157900Y-83830800I-172900J0D01*
G01*
X128762100Y-83830800D01*
G75*
G02*
X128589200Y-83657900I0J172900D01*
G01*
X128589200Y-83312100D01*
G75*
G02*
X128762100Y-83139200I172900J0D01*
G01*
G37*
G36*
G01*
X128762100Y-82169200D02*
X129157900Y-82169200D01*
G75*
G02*
X129330800Y-82342100I0J-172900D01*
G01*
X129330800Y-82687900D01*
G75*
G02*
X129157900Y-82860800I-172900J0D01*
G01*
X128762100Y-82860800D01*
G75*
G02*
X128589200Y-82687900I0J172900D01*
G01*
X128589200Y-82342100D01*
G75*
G02*
X128762100Y-82169200I172900J0D01*
G01*
G37*
%TD*%
%TO.C,R57*%
G36*
G01*
X130257900Y-82860800D02*
X129862100Y-82860800D01*
G75*
G02*
X129689200Y-82687900I0J172900D01*
G01*
X129689200Y-82342100D01*
G75*
G02*
X129862100Y-82169200I172900J0D01*
G01*
X130257900Y-82169200D01*
G75*
G02*
X130430800Y-82342100I0J-172900D01*
G01*
X130430800Y-82687900D01*
G75*
G02*
X130257900Y-82860800I-172900J0D01*
G01*
G37*
G36*
G01*
X130257900Y-83830800D02*
X129862100Y-83830800D01*
G75*
G02*
X129689200Y-83657900I0J172900D01*
G01*
X129689200Y-83312100D01*
G75*
G02*
X129862100Y-83139200I172900J0D01*
G01*
X130257900Y-83139200D01*
G75*
G02*
X130430800Y-83312100I0J-172900D01*
G01*
X130430800Y-83657900D01*
G75*
G02*
X130257900Y-83830800I-172900J0D01*
G01*
G37*
%TD*%
%TO.C,R56*%
G36*
G01*
X129739200Y-79507900D02*
X129739200Y-79112100D01*
G75*
G02*
X129912100Y-78939200I172900J0D01*
G01*
X130257900Y-78939200D01*
G75*
G02*
X130430800Y-79112100I0J-172900D01*
G01*
X130430800Y-79507900D01*
G75*
G02*
X130257900Y-79680800I-172900J0D01*
G01*
X129912100Y-79680800D01*
G75*
G02*
X129739200Y-79507900I0J172900D01*
G01*
G37*
G36*
G01*
X128769200Y-79507900D02*
X128769200Y-79112100D01*
G75*
G02*
X128942100Y-78939200I172900J0D01*
G01*
X129287900Y-78939200D01*
G75*
G02*
X129460800Y-79112100I0J-172900D01*
G01*
X129460800Y-79507900D01*
G75*
G02*
X129287900Y-79680800I-172900J0D01*
G01*
X128942100Y-79680800D01*
G75*
G02*
X128769200Y-79507900I0J172900D01*
G01*
G37*
%TD*%
%TO.C,R55*%
G36*
G01*
X130257900Y-77770800D02*
X129862100Y-77770800D01*
G75*
G02*
X129689200Y-77597900I0J172900D01*
G01*
X129689200Y-77252100D01*
G75*
G02*
X129862100Y-77079200I172900J0D01*
G01*
X130257900Y-77079200D01*
G75*
G02*
X130430800Y-77252100I0J-172900D01*
G01*
X130430800Y-77597900D01*
G75*
G02*
X130257900Y-77770800I-172900J0D01*
G01*
G37*
G36*
G01*
X130257900Y-78740800D02*
X129862100Y-78740800D01*
G75*
G02*
X129689200Y-78567900I0J172900D01*
G01*
X129689200Y-78222100D01*
G75*
G02*
X129862100Y-78049200I172900J0D01*
G01*
X130257900Y-78049200D01*
G75*
G02*
X130430800Y-78222100I0J-172900D01*
G01*
X130430800Y-78567900D01*
G75*
G02*
X130257900Y-78740800I-172900J0D01*
G01*
G37*
%TD*%
%TO.C,R24*%
G36*
G01*
X149629200Y-102087900D02*
X149629200Y-101692100D01*
G75*
G02*
X149802100Y-101519200I172900J0D01*
G01*
X150147900Y-101519200D01*
G75*
G02*
X150320800Y-101692100I0J-172900D01*
G01*
X150320800Y-102087900D01*
G75*
G02*
X150147900Y-102260800I-172900J0D01*
G01*
X149802100Y-102260800D01*
G75*
G02*
X149629200Y-102087900I0J172900D01*
G01*
G37*
G36*
G01*
X148659200Y-102087900D02*
X148659200Y-101692100D01*
G75*
G02*
X148832100Y-101519200I172900J0D01*
G01*
X149177900Y-101519200D01*
G75*
G02*
X149350800Y-101692100I0J-172900D01*
G01*
X149350800Y-102087900D01*
G75*
G02*
X149177900Y-102260800I-172900J0D01*
G01*
X148832100Y-102260800D01*
G75*
G02*
X148659200Y-102087900I0J172900D01*
G01*
G37*
%TD*%
%TO.C,R23*%
G36*
G01*
X144297900Y-101910800D02*
X143902100Y-101910800D01*
G75*
G02*
X143729200Y-101737900I0J172900D01*
G01*
X143729200Y-101392100D01*
G75*
G02*
X143902100Y-101219200I172900J0D01*
G01*
X144297900Y-101219200D01*
G75*
G02*
X144470800Y-101392100I0J-172900D01*
G01*
X144470800Y-101737900D01*
G75*
G02*
X144297900Y-101910800I-172900J0D01*
G01*
G37*
G36*
G01*
X144297900Y-102880800D02*
X143902100Y-102880800D01*
G75*
G02*
X143729200Y-102707900I0J172900D01*
G01*
X143729200Y-102362100D01*
G75*
G02*
X143902100Y-102189200I172900J0D01*
G01*
X144297900Y-102189200D01*
G75*
G02*
X144470800Y-102362100I0J-172900D01*
G01*
X144470800Y-102707900D01*
G75*
G02*
X144297900Y-102880800I-172900J0D01*
G01*
G37*
%TD*%
%TO.C,R21*%
G36*
G01*
X140879200Y-102730400D02*
X140879200Y-102334600D01*
G75*
G02*
X141052100Y-102161700I172900J0D01*
G01*
X141397900Y-102161700D01*
G75*
G02*
X141570800Y-102334600I0J-172900D01*
G01*
X141570800Y-102730400D01*
G75*
G02*
X141397900Y-102903300I-172900J0D01*
G01*
X141052100Y-102903300D01*
G75*
G02*
X140879200Y-102730400I0J172900D01*
G01*
G37*
G36*
G01*
X139909200Y-102730400D02*
X139909200Y-102334600D01*
G75*
G02*
X140082100Y-102161700I172900J0D01*
G01*
X140427900Y-102161700D01*
G75*
G02*
X140600800Y-102334600I0J-172900D01*
G01*
X140600800Y-102730400D01*
G75*
G02*
X140427900Y-102903300I-172900J0D01*
G01*
X140082100Y-102903300D01*
G75*
G02*
X139909200Y-102730400I0J172900D01*
G01*
G37*
%TD*%
%TO.C,R20*%
G36*
G01*
X140879200Y-97830400D02*
X140879200Y-97434600D01*
G75*
G02*
X141052100Y-97261700I172900J0D01*
G01*
X141397900Y-97261700D01*
G75*
G02*
X141570800Y-97434600I0J-172900D01*
G01*
X141570800Y-97830400D01*
G75*
G02*
X141397900Y-98003300I-172900J0D01*
G01*
X141052100Y-98003300D01*
G75*
G02*
X140879200Y-97830400I0J172900D01*
G01*
G37*
G36*
G01*
X139909200Y-97830400D02*
X139909200Y-97434600D01*
G75*
G02*
X140082100Y-97261700I172900J0D01*
G01*
X140427900Y-97261700D01*
G75*
G02*
X140600800Y-97434600I0J-172900D01*
G01*
X140600800Y-97830400D01*
G75*
G02*
X140427900Y-98003300I-172900J0D01*
G01*
X140082100Y-98003300D01*
G75*
G02*
X139909200Y-97830400I0J172900D01*
G01*
G37*
%TD*%
%TO.C,R19*%
G36*
G01*
X142510800Y-101392100D02*
X142510800Y-101787900D01*
G75*
G02*
X142337900Y-101960800I-172900J0D01*
G01*
X141992100Y-101960800D01*
G75*
G02*
X141819200Y-101787900I0J172900D01*
G01*
X141819200Y-101392100D01*
G75*
G02*
X141992100Y-101219200I172900J0D01*
G01*
X142337900Y-101219200D01*
G75*
G02*
X142510800Y-101392100I0J-172900D01*
G01*
G37*
G36*
G01*
X143480800Y-101392100D02*
X143480800Y-101787900D01*
G75*
G02*
X143307900Y-101960800I-172900J0D01*
G01*
X142962100Y-101960800D01*
G75*
G02*
X142789200Y-101787900I0J172900D01*
G01*
X142789200Y-101392100D01*
G75*
G02*
X142962100Y-101219200I172900J0D01*
G01*
X143307900Y-101219200D01*
G75*
G02*
X143480800Y-101392100I0J-172900D01*
G01*
G37*
%TD*%
%TO.C,R18*%
G36*
G01*
X142510800Y-102332100D02*
X142510800Y-102727900D01*
G75*
G02*
X142337900Y-102900800I-172900J0D01*
G01*
X141992100Y-102900800D01*
G75*
G02*
X141819200Y-102727900I0J172900D01*
G01*
X141819200Y-102332100D01*
G75*
G02*
X141992100Y-102159200I172900J0D01*
G01*
X142337900Y-102159200D01*
G75*
G02*
X142510800Y-102332100I0J-172900D01*
G01*
G37*
G36*
G01*
X143480800Y-102332100D02*
X143480800Y-102727900D01*
G75*
G02*
X143307900Y-102900800I-172900J0D01*
G01*
X142962100Y-102900800D01*
G75*
G02*
X142789200Y-102727900I0J172900D01*
G01*
X142789200Y-102332100D01*
G75*
G02*
X142962100Y-102159200I172900J0D01*
G01*
X143307900Y-102159200D01*
G75*
G02*
X143480800Y-102332100I0J-172900D01*
G01*
G37*
%TD*%
%TO.C,R17*%
G36*
G01*
X140600800Y-101392100D02*
X140600800Y-101787900D01*
G75*
G02*
X140427900Y-101960800I-172900J0D01*
G01*
X140082100Y-101960800D01*
G75*
G02*
X139909200Y-101787900I0J172900D01*
G01*
X139909200Y-101392100D01*
G75*
G02*
X140082100Y-101219200I172900J0D01*
G01*
X140427900Y-101219200D01*
G75*
G02*
X140600800Y-101392100I0J-172900D01*
G01*
G37*
G36*
G01*
X141570800Y-101392100D02*
X141570800Y-101787900D01*
G75*
G02*
X141397900Y-101960800I-172900J0D01*
G01*
X141052100Y-101960800D01*
G75*
G02*
X140879200Y-101787900I0J172900D01*
G01*
X140879200Y-101392100D01*
G75*
G02*
X141052100Y-101219200I172900J0D01*
G01*
X141397900Y-101219200D01*
G75*
G02*
X141570800Y-101392100I0J-172900D01*
G01*
G37*
%TD*%
%TO.C,R16*%
G36*
G01*
X140600800Y-100402100D02*
X140600800Y-100797900D01*
G75*
G02*
X140427900Y-100970800I-172900J0D01*
G01*
X140082100Y-100970800D01*
G75*
G02*
X139909200Y-100797900I0J172900D01*
G01*
X139909200Y-100402100D01*
G75*
G02*
X140082100Y-100229200I172900J0D01*
G01*
X140427900Y-100229200D01*
G75*
G02*
X140600800Y-100402100I0J-172900D01*
G01*
G37*
G36*
G01*
X141570800Y-100402100D02*
X141570800Y-100797900D01*
G75*
G02*
X141397900Y-100970800I-172900J0D01*
G01*
X141052100Y-100970800D01*
G75*
G02*
X140879200Y-100797900I0J172900D01*
G01*
X140879200Y-100402100D01*
G75*
G02*
X141052100Y-100229200I172900J0D01*
G01*
X141397900Y-100229200D01*
G75*
G02*
X141570800Y-100402100I0J-172900D01*
G01*
G37*
%TD*%
%TO.C,R15*%
G36*
G01*
X140580800Y-103322100D02*
X140580800Y-103717900D01*
G75*
G02*
X140407900Y-103890800I-172900J0D01*
G01*
X140062100Y-103890800D01*
G75*
G02*
X139889200Y-103717900I0J172900D01*
G01*
X139889200Y-103322100D01*
G75*
G02*
X140062100Y-103149200I172900J0D01*
G01*
X140407900Y-103149200D01*
G75*
G02*
X140580800Y-103322100I0J-172900D01*
G01*
G37*
G36*
G01*
X141550800Y-103322100D02*
X141550800Y-103717900D01*
G75*
G02*
X141377900Y-103890800I-172900J0D01*
G01*
X141032100Y-103890800D01*
G75*
G02*
X140859200Y-103717900I0J172900D01*
G01*
X140859200Y-103322100D01*
G75*
G02*
X141032100Y-103149200I172900J0D01*
G01*
X141377900Y-103149200D01*
G75*
G02*
X141550800Y-103322100I0J-172900D01*
G01*
G37*
%TD*%
%TO.C,R14*%
G36*
G01*
X140600800Y-98424600D02*
X140600800Y-98820400D01*
G75*
G02*
X140427900Y-98993300I-172900J0D01*
G01*
X140082100Y-98993300D01*
G75*
G02*
X139909200Y-98820400I0J172900D01*
G01*
X139909200Y-98424600D01*
G75*
G02*
X140082100Y-98251700I172900J0D01*
G01*
X140427900Y-98251700D01*
G75*
G02*
X140600800Y-98424600I0J-172900D01*
G01*
G37*
G36*
G01*
X141570800Y-98424600D02*
X141570800Y-98820400D01*
G75*
G02*
X141397900Y-98993300I-172900J0D01*
G01*
X141052100Y-98993300D01*
G75*
G02*
X140879200Y-98820400I0J172900D01*
G01*
X140879200Y-98424600D01*
G75*
G02*
X141052100Y-98251700I172900J0D01*
G01*
X141397900Y-98251700D01*
G75*
G02*
X141570800Y-98424600I0J-172900D01*
G01*
G37*
%TD*%
%TO.C,R13*%
G36*
G01*
X140600800Y-99414600D02*
X140600800Y-99810400D01*
G75*
G02*
X140427900Y-99983300I-172900J0D01*
G01*
X140082100Y-99983300D01*
G75*
G02*
X139909200Y-99810400I0J172900D01*
G01*
X139909200Y-99414600D01*
G75*
G02*
X140082100Y-99241700I172900J0D01*
G01*
X140427900Y-99241700D01*
G75*
G02*
X140600800Y-99414600I0J-172900D01*
G01*
G37*
G36*
G01*
X141570800Y-99414600D02*
X141570800Y-99810400D01*
G75*
G02*
X141397900Y-99983300I-172900J0D01*
G01*
X141052100Y-99983300D01*
G75*
G02*
X140879200Y-99810400I0J172900D01*
G01*
X140879200Y-99414600D01*
G75*
G02*
X141052100Y-99241700I172900J0D01*
G01*
X141397900Y-99241700D01*
G75*
G02*
X141570800Y-99414600I0J-172900D01*
G01*
G37*
%TD*%
%TO.C,R12*%
G36*
G01*
X146430800Y-88512100D02*
X146430800Y-88907900D01*
G75*
G02*
X146257900Y-89080800I-172900J0D01*
G01*
X145912100Y-89080800D01*
G75*
G02*
X145739200Y-88907900I0J172900D01*
G01*
X145739200Y-88512100D01*
G75*
G02*
X145912100Y-88339200I172900J0D01*
G01*
X146257900Y-88339200D01*
G75*
G02*
X146430800Y-88512100I0J-172900D01*
G01*
G37*
G36*
G01*
X147400800Y-88512100D02*
X147400800Y-88907900D01*
G75*
G02*
X147227900Y-89080800I-172900J0D01*
G01*
X146882100Y-89080800D01*
G75*
G02*
X146709200Y-88907900I0J172900D01*
G01*
X146709200Y-88512100D01*
G75*
G02*
X146882100Y-88339200I172900J0D01*
G01*
X147227900Y-88339200D01*
G75*
G02*
X147400800Y-88512100I0J-172900D01*
G01*
G37*
%TD*%
%TO.C,R11*%
G36*
G01*
X149732100Y-90929200D02*
X150127900Y-90929200D01*
G75*
G02*
X150300800Y-91102100I0J-172900D01*
G01*
X150300800Y-91447900D01*
G75*
G02*
X150127900Y-91620800I-172900J0D01*
G01*
X149732100Y-91620800D01*
G75*
G02*
X149559200Y-91447900I0J172900D01*
G01*
X149559200Y-91102100D01*
G75*
G02*
X149732100Y-90929200I172900J0D01*
G01*
G37*
G36*
G01*
X149732100Y-89959200D02*
X150127900Y-89959200D01*
G75*
G02*
X150300800Y-90132100I0J-172900D01*
G01*
X150300800Y-90477900D01*
G75*
G02*
X150127900Y-90650800I-172900J0D01*
G01*
X149732100Y-90650800D01*
G75*
G02*
X149559200Y-90477900I0J172900D01*
G01*
X149559200Y-90132100D01*
G75*
G02*
X149732100Y-89959200I172900J0D01*
G01*
G37*
%TD*%
%TO.C,R10*%
G36*
G01*
X151237900Y-93860800D02*
X150842100Y-93860800D01*
G75*
G02*
X150669200Y-93687900I0J172900D01*
G01*
X150669200Y-93342100D01*
G75*
G02*
X150842100Y-93169200I172900J0D01*
G01*
X151237900Y-93169200D01*
G75*
G02*
X151410800Y-93342100I0J-172900D01*
G01*
X151410800Y-93687900D01*
G75*
G02*
X151237900Y-93860800I-172900J0D01*
G01*
G37*
G36*
G01*
X151237900Y-94830800D02*
X150842100Y-94830800D01*
G75*
G02*
X150669200Y-94657900I0J172900D01*
G01*
X150669200Y-94312100D01*
G75*
G02*
X150842100Y-94139200I172900J0D01*
G01*
X151237900Y-94139200D01*
G75*
G02*
X151410800Y-94312100I0J-172900D01*
G01*
X151410800Y-94657900D01*
G75*
G02*
X151237900Y-94830800I-172900J0D01*
G01*
G37*
%TD*%
%TO.C,R9*%
G36*
G01*
X149742100Y-94139200D02*
X150137900Y-94139200D01*
G75*
G02*
X150310800Y-94312100I0J-172900D01*
G01*
X150310800Y-94657900D01*
G75*
G02*
X150137900Y-94830800I-172900J0D01*
G01*
X149742100Y-94830800D01*
G75*
G02*
X149569200Y-94657900I0J172900D01*
G01*
X149569200Y-94312100D01*
G75*
G02*
X149742100Y-94139200I172900J0D01*
G01*
G37*
G36*
G01*
X149742100Y-93169200D02*
X150137900Y-93169200D01*
G75*
G02*
X150310800Y-93342100I0J-172900D01*
G01*
X150310800Y-93687900D01*
G75*
G02*
X150137900Y-93860800I-172900J0D01*
G01*
X149742100Y-93860800D01*
G75*
G02*
X149569200Y-93687900I0J172900D01*
G01*
X149569200Y-93342100D01*
G75*
G02*
X149742100Y-93169200I172900J0D01*
G01*
G37*
%TD*%
%TO.C,R8*%
G36*
G01*
X150260800Y-97492100D02*
X150260800Y-97887900D01*
G75*
G02*
X150087900Y-98060800I-172900J0D01*
G01*
X149742100Y-98060800D01*
G75*
G02*
X149569200Y-97887900I0J172900D01*
G01*
X149569200Y-97492100D01*
G75*
G02*
X149742100Y-97319200I172900J0D01*
G01*
X150087900Y-97319200D01*
G75*
G02*
X150260800Y-97492100I0J-172900D01*
G01*
G37*
G36*
G01*
X151230800Y-97492100D02*
X151230800Y-97887900D01*
G75*
G02*
X151057900Y-98060800I-172900J0D01*
G01*
X150712100Y-98060800D01*
G75*
G02*
X150539200Y-97887900I0J172900D01*
G01*
X150539200Y-97492100D01*
G75*
G02*
X150712100Y-97319200I172900J0D01*
G01*
X151057900Y-97319200D01*
G75*
G02*
X151230800Y-97492100I0J-172900D01*
G01*
G37*
%TD*%
%TO.C,R7*%
G36*
G01*
X149742100Y-99229200D02*
X150137900Y-99229200D01*
G75*
G02*
X150310800Y-99402100I0J-172900D01*
G01*
X150310800Y-99747900D01*
G75*
G02*
X150137900Y-99920800I-172900J0D01*
G01*
X149742100Y-99920800D01*
G75*
G02*
X149569200Y-99747900I0J172900D01*
G01*
X149569200Y-99402100D01*
G75*
G02*
X149742100Y-99229200I172900J0D01*
G01*
G37*
G36*
G01*
X149742100Y-98259200D02*
X150137900Y-98259200D01*
G75*
G02*
X150310800Y-98432100I0J-172900D01*
G01*
X150310800Y-98777900D01*
G75*
G02*
X150137900Y-98950800I-172900J0D01*
G01*
X149742100Y-98950800D01*
G75*
G02*
X149569200Y-98777900I0J172900D01*
G01*
X149569200Y-98432100D01*
G75*
G02*
X149742100Y-98259200I172900J0D01*
G01*
G37*
%TD*%
%TO.C,R37*%
G36*
G01*
X144820800Y-74262100D02*
X144820800Y-74657900D01*
G75*
G02*
X144647900Y-74830800I-172900J0D01*
G01*
X144302100Y-74830800D01*
G75*
G02*
X144129200Y-74657900I0J172900D01*
G01*
X144129200Y-74262100D01*
G75*
G02*
X144302100Y-74089200I172900J0D01*
G01*
X144647900Y-74089200D01*
G75*
G02*
X144820800Y-74262100I0J-172900D01*
G01*
G37*
G36*
G01*
X145790800Y-74262100D02*
X145790800Y-74657900D01*
G75*
G02*
X145617900Y-74830800I-172900J0D01*
G01*
X145272100Y-74830800D01*
G75*
G02*
X145099200Y-74657900I0J172900D01*
G01*
X145099200Y-74262100D01*
G75*
G02*
X145272100Y-74089200I172900J0D01*
G01*
X145617900Y-74089200D01*
G75*
G02*
X145790800Y-74262100I0J-172900D01*
G01*
G37*
%TD*%
%TO.C,R36*%
G36*
G01*
X149732100Y-76319200D02*
X150127900Y-76319200D01*
G75*
G02*
X150300800Y-76492100I0J-172900D01*
G01*
X150300800Y-76837900D01*
G75*
G02*
X150127900Y-77010800I-172900J0D01*
G01*
X149732100Y-77010800D01*
G75*
G02*
X149559200Y-76837900I0J172900D01*
G01*
X149559200Y-76492100D01*
G75*
G02*
X149732100Y-76319200I172900J0D01*
G01*
G37*
G36*
G01*
X149732100Y-75349200D02*
X150127900Y-75349200D01*
G75*
G02*
X150300800Y-75522100I0J-172900D01*
G01*
X150300800Y-75867900D01*
G75*
G02*
X150127900Y-76040800I-172900J0D01*
G01*
X149732100Y-76040800D01*
G75*
G02*
X149559200Y-75867900I0J172900D01*
G01*
X149559200Y-75522100D01*
G75*
G02*
X149732100Y-75349200I172900J0D01*
G01*
G37*
%TD*%
%TO.C,R35*%
G36*
G01*
X151237900Y-78850800D02*
X150842100Y-78850800D01*
G75*
G02*
X150669200Y-78677900I0J172900D01*
G01*
X150669200Y-78332100D01*
G75*
G02*
X150842100Y-78159200I172900J0D01*
G01*
X151237900Y-78159200D01*
G75*
G02*
X151410800Y-78332100I0J-172900D01*
G01*
X151410800Y-78677900D01*
G75*
G02*
X151237900Y-78850800I-172900J0D01*
G01*
G37*
G36*
G01*
X151237900Y-79820800D02*
X150842100Y-79820800D01*
G75*
G02*
X150669200Y-79647900I0J172900D01*
G01*
X150669200Y-79302100D01*
G75*
G02*
X150842100Y-79129200I172900J0D01*
G01*
X151237900Y-79129200D01*
G75*
G02*
X151410800Y-79302100I0J-172900D01*
G01*
X151410800Y-79647900D01*
G75*
G02*
X151237900Y-79820800I-172900J0D01*
G01*
G37*
%TD*%
%TO.C,R34*%
G36*
G01*
X149742100Y-79479200D02*
X150137900Y-79479200D01*
G75*
G02*
X150310800Y-79652100I0J-172900D01*
G01*
X150310800Y-79997900D01*
G75*
G02*
X150137900Y-80170800I-172900J0D01*
G01*
X149742100Y-80170800D01*
G75*
G02*
X149569200Y-79997900I0J172900D01*
G01*
X149569200Y-79652100D01*
G75*
G02*
X149742100Y-79479200I172900J0D01*
G01*
G37*
G36*
G01*
X149742100Y-78509200D02*
X150137900Y-78509200D01*
G75*
G02*
X150310800Y-78682100I0J-172900D01*
G01*
X150310800Y-79027900D01*
G75*
G02*
X150137900Y-79200800I-172900J0D01*
G01*
X149742100Y-79200800D01*
G75*
G02*
X149569200Y-79027900I0J172900D01*
G01*
X149569200Y-78682100D01*
G75*
G02*
X149742100Y-78509200I172900J0D01*
G01*
G37*
%TD*%
%TO.C,R33*%
G36*
G01*
X151177900Y-83390800D02*
X150782100Y-83390800D01*
G75*
G02*
X150609200Y-83217900I0J172900D01*
G01*
X150609200Y-82872100D01*
G75*
G02*
X150782100Y-82699200I172900J0D01*
G01*
X151177900Y-82699200D01*
G75*
G02*
X151350800Y-82872100I0J-172900D01*
G01*
X151350800Y-83217900D01*
G75*
G02*
X151177900Y-83390800I-172900J0D01*
G01*
G37*
G36*
G01*
X151177900Y-84360800D02*
X150782100Y-84360800D01*
G75*
G02*
X150609200Y-84187900I0J172900D01*
G01*
X150609200Y-83842100D01*
G75*
G02*
X150782100Y-83669200I172900J0D01*
G01*
X151177900Y-83669200D01*
G75*
G02*
X151350800Y-83842100I0J-172900D01*
G01*
X151350800Y-84187900D01*
G75*
G02*
X151177900Y-84360800I-172900J0D01*
G01*
G37*
%TD*%
%TO.C,R32*%
G36*
G01*
X150237900Y-83390800D02*
X149842100Y-83390800D01*
G75*
G02*
X149669200Y-83217900I0J172900D01*
G01*
X149669200Y-82872100D01*
G75*
G02*
X149842100Y-82699200I172900J0D01*
G01*
X150237900Y-82699200D01*
G75*
G02*
X150410800Y-82872100I0J-172900D01*
G01*
X150410800Y-83217900D01*
G75*
G02*
X150237900Y-83390800I-172900J0D01*
G01*
G37*
G36*
G01*
X150237900Y-84360800D02*
X149842100Y-84360800D01*
G75*
G02*
X149669200Y-84187900I0J172900D01*
G01*
X149669200Y-83842100D01*
G75*
G02*
X149842100Y-83669200I172900J0D01*
G01*
X150237900Y-83669200D01*
G75*
G02*
X150410800Y-83842100I0J-172900D01*
G01*
X150410800Y-84187900D01*
G75*
G02*
X150237900Y-84360800I-172900J0D01*
G01*
G37*
%TD*%
%TO.C,R31*%
G36*
G01*
X149629200Y-87427900D02*
X149629200Y-87032100D01*
G75*
G02*
X149802100Y-86859200I172900J0D01*
G01*
X150147900Y-86859200D01*
G75*
G02*
X150320800Y-87032100I0J-172900D01*
G01*
X150320800Y-87427900D01*
G75*
G02*
X150147900Y-87600800I-172900J0D01*
G01*
X149802100Y-87600800D01*
G75*
G02*
X149629200Y-87427900I0J172900D01*
G01*
G37*
G36*
G01*
X148659200Y-87427900D02*
X148659200Y-87032100D01*
G75*
G02*
X148832100Y-86859200I172900J0D01*
G01*
X149177900Y-86859200D01*
G75*
G02*
X149350800Y-87032100I0J-172900D01*
G01*
X149350800Y-87427900D01*
G75*
G02*
X149177900Y-87600800I-172900J0D01*
G01*
X148832100Y-87600800D01*
G75*
G02*
X148659200Y-87427900I0J172900D01*
G01*
G37*
%TD*%
%TO.C,R30*%
G36*
G01*
X143622100Y-87431700D02*
X144017900Y-87431700D01*
G75*
G02*
X144190800Y-87604600I0J-172900D01*
G01*
X144190800Y-87950400D01*
G75*
G02*
X144017900Y-88123300I-172900J0D01*
G01*
X143622100Y-88123300D01*
G75*
G02*
X143449200Y-87950400I0J172900D01*
G01*
X143449200Y-87604600D01*
G75*
G02*
X143622100Y-87431700I172900J0D01*
G01*
G37*
G36*
G01*
X143622100Y-86461700D02*
X144017900Y-86461700D01*
G75*
G02*
X144190800Y-86634600I0J-172900D01*
G01*
X144190800Y-86980400D01*
G75*
G02*
X144017900Y-87153300I-172900J0D01*
G01*
X143622100Y-87153300D01*
G75*
G02*
X143449200Y-86980400I0J172900D01*
G01*
X143449200Y-86634600D01*
G75*
G02*
X143622100Y-86461700I172900J0D01*
G01*
G37*
%TD*%
%TO.C,R29*%
G36*
G01*
X140629200Y-87970400D02*
X140629200Y-87574600D01*
G75*
G02*
X140802100Y-87401700I172900J0D01*
G01*
X141147900Y-87401700D01*
G75*
G02*
X141320800Y-87574600I0J-172900D01*
G01*
X141320800Y-87970400D01*
G75*
G02*
X141147900Y-88143300I-172900J0D01*
G01*
X140802100Y-88143300D01*
G75*
G02*
X140629200Y-87970400I0J172900D01*
G01*
G37*
G36*
G01*
X139659200Y-87970400D02*
X139659200Y-87574600D01*
G75*
G02*
X139832100Y-87401700I172900J0D01*
G01*
X140177900Y-87401700D01*
G75*
G02*
X140350800Y-87574600I0J-172900D01*
G01*
X140350800Y-87970400D01*
G75*
G02*
X140177900Y-88143300I-172900J0D01*
G01*
X139832100Y-88143300D01*
G75*
G02*
X139659200Y-87970400I0J172900D01*
G01*
G37*
%TD*%
%TO.C,R28*%
G36*
G01*
X140879200Y-83070400D02*
X140879200Y-82674600D01*
G75*
G02*
X141052100Y-82501700I172900J0D01*
G01*
X141397900Y-82501700D01*
G75*
G02*
X141570800Y-82674600I0J-172900D01*
G01*
X141570800Y-83070400D01*
G75*
G02*
X141397900Y-83243300I-172900J0D01*
G01*
X141052100Y-83243300D01*
G75*
G02*
X140879200Y-83070400I0J172900D01*
G01*
G37*
G36*
G01*
X139909200Y-83070400D02*
X139909200Y-82674600D01*
G75*
G02*
X140082100Y-82501700I172900J0D01*
G01*
X140427900Y-82501700D01*
G75*
G02*
X140600800Y-82674600I0J-172900D01*
G01*
X140600800Y-83070400D01*
G75*
G02*
X140427900Y-83243300I-172900J0D01*
G01*
X140082100Y-83243300D01*
G75*
G02*
X139909200Y-83070400I0J172900D01*
G01*
G37*
%TD*%
%TO.C,R27*%
G36*
G01*
X142137900Y-87153300D02*
X141742100Y-87153300D01*
G75*
G02*
X141569200Y-86980400I0J172900D01*
G01*
X141569200Y-86634600D01*
G75*
G02*
X141742100Y-86461700I172900J0D01*
G01*
X142137900Y-86461700D01*
G75*
G02*
X142310800Y-86634600I0J-172900D01*
G01*
X142310800Y-86980400D01*
G75*
G02*
X142137900Y-87153300I-172900J0D01*
G01*
G37*
G36*
G01*
X142137900Y-88123300D02*
X141742100Y-88123300D01*
G75*
G02*
X141569200Y-87950400I0J172900D01*
G01*
X141569200Y-87604600D01*
G75*
G02*
X141742100Y-87431700I172900J0D01*
G01*
X142137900Y-87431700D01*
G75*
G02*
X142310800Y-87604600I0J-172900D01*
G01*
X142310800Y-87950400D01*
G75*
G02*
X142137900Y-88123300I-172900J0D01*
G01*
G37*
%TD*%
%TO.C,R26*%
G36*
G01*
X143077900Y-87153300D02*
X142682100Y-87153300D01*
G75*
G02*
X142509200Y-86980400I0J172900D01*
G01*
X142509200Y-86634600D01*
G75*
G02*
X142682100Y-86461700I172900J0D01*
G01*
X143077900Y-86461700D01*
G75*
G02*
X143250800Y-86634600I0J-172900D01*
G01*
X143250800Y-86980400D01*
G75*
G02*
X143077900Y-87153300I-172900J0D01*
G01*
G37*
G36*
G01*
X143077900Y-88123300D02*
X142682100Y-88123300D01*
G75*
G02*
X142509200Y-87950400I0J172900D01*
G01*
X142509200Y-87604600D01*
G75*
G02*
X142682100Y-87431700I172900J0D01*
G01*
X143077900Y-87431700D01*
G75*
G02*
X143250800Y-87604600I0J-172900D01*
G01*
X143250800Y-87950400D01*
G75*
G02*
X143077900Y-88123300I-172900J0D01*
G01*
G37*
%TD*%
%TO.C,R22*%
G36*
G01*
X140350800Y-86634600D02*
X140350800Y-87030400D01*
G75*
G02*
X140177900Y-87203300I-172900J0D01*
G01*
X139832100Y-87203300D01*
G75*
G02*
X139659200Y-87030400I0J172900D01*
G01*
X139659200Y-86634600D01*
G75*
G02*
X139832100Y-86461700I172900J0D01*
G01*
X140177900Y-86461700D01*
G75*
G02*
X140350800Y-86634600I0J-172900D01*
G01*
G37*
G36*
G01*
X141320800Y-86634600D02*
X141320800Y-87030400D01*
G75*
G02*
X141147900Y-87203300I-172900J0D01*
G01*
X140802100Y-87203300D01*
G75*
G02*
X140629200Y-87030400I0J172900D01*
G01*
X140629200Y-86634600D01*
G75*
G02*
X140802100Y-86461700I172900J0D01*
G01*
X141147900Y-86461700D01*
G75*
G02*
X141320800Y-86634600I0J-172900D01*
G01*
G37*
%TD*%
%TO.C,R6*%
G36*
G01*
X140879200Y-86040400D02*
X140879200Y-85644600D01*
G75*
G02*
X141052100Y-85471700I172900J0D01*
G01*
X141397900Y-85471700D01*
G75*
G02*
X141570800Y-85644600I0J-172900D01*
G01*
X141570800Y-86040400D01*
G75*
G02*
X141397900Y-86213300I-172900J0D01*
G01*
X141052100Y-86213300D01*
G75*
G02*
X140879200Y-86040400I0J172900D01*
G01*
G37*
G36*
G01*
X139909200Y-86040400D02*
X139909200Y-85644600D01*
G75*
G02*
X140082100Y-85471700I172900J0D01*
G01*
X140427900Y-85471700D01*
G75*
G02*
X140600800Y-85644600I0J-172900D01*
G01*
X140600800Y-86040400D01*
G75*
G02*
X140427900Y-86213300I-172900J0D01*
G01*
X140082100Y-86213300D01*
G75*
G02*
X139909200Y-86040400I0J172900D01*
G01*
G37*
%TD*%
%TO.C,R5*%
G36*
G01*
X140600800Y-83664600D02*
X140600800Y-84060400D01*
G75*
G02*
X140427900Y-84233300I-172900J0D01*
G01*
X140082100Y-84233300D01*
G75*
G02*
X139909200Y-84060400I0J172900D01*
G01*
X139909200Y-83664600D01*
G75*
G02*
X140082100Y-83491700I172900J0D01*
G01*
X140427900Y-83491700D01*
G75*
G02*
X140600800Y-83664600I0J-172900D01*
G01*
G37*
G36*
G01*
X141570800Y-83664600D02*
X141570800Y-84060400D01*
G75*
G02*
X141397900Y-84233300I-172900J0D01*
G01*
X141052100Y-84233300D01*
G75*
G02*
X140879200Y-84060400I0J172900D01*
G01*
X140879200Y-83664600D01*
G75*
G02*
X141052100Y-83491700I172900J0D01*
G01*
X141397900Y-83491700D01*
G75*
G02*
X141570800Y-83664600I0J-172900D01*
G01*
G37*
%TD*%
%TO.C,R4*%
G36*
G01*
X140879200Y-85050400D02*
X140879200Y-84654600D01*
G75*
G02*
X141052100Y-84481700I172900J0D01*
G01*
X141397900Y-84481700D01*
G75*
G02*
X141570800Y-84654600I0J-172900D01*
G01*
X141570800Y-85050400D01*
G75*
G02*
X141397900Y-85223300I-172900J0D01*
G01*
X141052100Y-85223300D01*
G75*
G02*
X140879200Y-85050400I0J172900D01*
G01*
G37*
G36*
G01*
X139909200Y-85050400D02*
X139909200Y-84654600D01*
G75*
G02*
X140082100Y-84481700I172900J0D01*
G01*
X140427900Y-84481700D01*
G75*
G02*
X140600800Y-84654600I0J-172900D01*
G01*
X140600800Y-85050400D01*
G75*
G02*
X140427900Y-85223300I-172900J0D01*
G01*
X140082100Y-85223300D01*
G75*
G02*
X139909200Y-85050400I0J172900D01*
G01*
G37*
%TD*%
%TO.C,R49*%
G36*
G01*
X130257900Y-92430800D02*
X129862100Y-92430800D01*
G75*
G02*
X129689200Y-92257900I0J172900D01*
G01*
X129689200Y-91912100D01*
G75*
G02*
X129862100Y-91739200I172900J0D01*
G01*
X130257900Y-91739200D01*
G75*
G02*
X130430800Y-91912100I0J-172900D01*
G01*
X130430800Y-92257900D01*
G75*
G02*
X130257900Y-92430800I-172900J0D01*
G01*
G37*
G36*
G01*
X130257900Y-93400800D02*
X129862100Y-93400800D01*
G75*
G02*
X129689200Y-93227900I0J172900D01*
G01*
X129689200Y-92882100D01*
G75*
G02*
X129862100Y-92709200I172900J0D01*
G01*
X130257900Y-92709200D01*
G75*
G02*
X130430800Y-92882100I0J-172900D01*
G01*
X130430800Y-93227900D01*
G75*
G02*
X130257900Y-93400800I-172900J0D01*
G01*
G37*
%TD*%
%TO.C,R54*%
G36*
G01*
X136120800Y-102342100D02*
X136120800Y-102737900D01*
G75*
G02*
X135947900Y-102910800I-172900J0D01*
G01*
X135602100Y-102910800D01*
G75*
G02*
X135429200Y-102737900I0J172900D01*
G01*
X135429200Y-102342100D01*
G75*
G02*
X135602100Y-102169200I172900J0D01*
G01*
X135947900Y-102169200D01*
G75*
G02*
X136120800Y-102342100I0J-172900D01*
G01*
G37*
G36*
G01*
X137090800Y-102342100D02*
X137090800Y-102737900D01*
G75*
G02*
X136917900Y-102910800I-172900J0D01*
G01*
X136572100Y-102910800D01*
G75*
G02*
X136399200Y-102737900I0J172900D01*
G01*
X136399200Y-102342100D01*
G75*
G02*
X136572100Y-102169200I172900J0D01*
G01*
X136917900Y-102169200D01*
G75*
G02*
X137090800Y-102342100I0J-172900D01*
G01*
G37*
%TD*%
%TO.C,R53*%
G36*
G01*
X130267900Y-100680800D02*
X129872100Y-100680800D01*
G75*
G02*
X129699200Y-100507900I0J172900D01*
G01*
X129699200Y-100162100D01*
G75*
G02*
X129872100Y-99989200I172900J0D01*
G01*
X130267900Y-99989200D01*
G75*
G02*
X130440800Y-100162100I0J-172900D01*
G01*
X130440800Y-100507900D01*
G75*
G02*
X130267900Y-100680800I-172900J0D01*
G01*
G37*
G36*
G01*
X130267900Y-101650800D02*
X129872100Y-101650800D01*
G75*
G02*
X129699200Y-101477900I0J172900D01*
G01*
X129699200Y-101132100D01*
G75*
G02*
X129872100Y-100959200I172900J0D01*
G01*
X130267900Y-100959200D01*
G75*
G02*
X130440800Y-101132100I0J-172900D01*
G01*
X130440800Y-101477900D01*
G75*
G02*
X130267900Y-101650800I-172900J0D01*
G01*
G37*
%TD*%
%TO.C,R52*%
G36*
G01*
X134539200Y-102757900D02*
X134539200Y-102362100D01*
G75*
G02*
X134712100Y-102189200I172900J0D01*
G01*
X135057900Y-102189200D01*
G75*
G02*
X135230800Y-102362100I0J-172900D01*
G01*
X135230800Y-102757900D01*
G75*
G02*
X135057900Y-102930800I-172900J0D01*
G01*
X134712100Y-102930800D01*
G75*
G02*
X134539200Y-102757900I0J172900D01*
G01*
G37*
G36*
G01*
X133569200Y-102757900D02*
X133569200Y-102362100D01*
G75*
G02*
X133742100Y-102189200I172900J0D01*
G01*
X134087900Y-102189200D01*
G75*
G02*
X134260800Y-102362100I0J-172900D01*
G01*
X134260800Y-102757900D01*
G75*
G02*
X134087900Y-102930800I-172900J0D01*
G01*
X133742100Y-102930800D01*
G75*
G02*
X133569200Y-102757900I0J172900D01*
G01*
G37*
%TD*%
%TO.C,R51*%
G36*
G01*
X130147900Y-96590800D02*
X129752100Y-96590800D01*
G75*
G02*
X129579200Y-96417900I0J172900D01*
G01*
X129579200Y-96072100D01*
G75*
G02*
X129752100Y-95899200I172900J0D01*
G01*
X130147900Y-95899200D01*
G75*
G02*
X130320800Y-96072100I0J-172900D01*
G01*
X130320800Y-96417900D01*
G75*
G02*
X130147900Y-96590800I-172900J0D01*
G01*
G37*
G36*
G01*
X130147900Y-97560800D02*
X129752100Y-97560800D01*
G75*
G02*
X129579200Y-97387900I0J172900D01*
G01*
X129579200Y-97042100D01*
G75*
G02*
X129752100Y-96869200I172900J0D01*
G01*
X130147900Y-96869200D01*
G75*
G02*
X130320800Y-97042100I0J-172900D01*
G01*
X130320800Y-97387900D01*
G75*
G02*
X130147900Y-97560800I-172900J0D01*
G01*
G37*
%TD*%
%TO.C,R50*%
G36*
G01*
X129739200Y-94167900D02*
X129739200Y-93772100D01*
G75*
G02*
X129912100Y-93599200I172900J0D01*
G01*
X130257900Y-93599200D01*
G75*
G02*
X130430800Y-93772100I0J-172900D01*
G01*
X130430800Y-94167900D01*
G75*
G02*
X130257900Y-94340800I-172900J0D01*
G01*
X129912100Y-94340800D01*
G75*
G02*
X129739200Y-94167900I0J172900D01*
G01*
G37*
G36*
G01*
X128769200Y-94167900D02*
X128769200Y-93772100D01*
G75*
G02*
X128942100Y-93599200I172900J0D01*
G01*
X129287900Y-93599200D01*
G75*
G02*
X129460800Y-93772100I0J-172900D01*
G01*
X129460800Y-94167900D01*
G75*
G02*
X129287900Y-94340800I-172900J0D01*
G01*
X128942100Y-94340800D01*
G75*
G02*
X128769200Y-94167900I0J172900D01*
G01*
G37*
%TD*%
%TO.C,R48*%
G36*
G01*
X130620800Y-89572100D02*
X130620800Y-89967900D01*
G75*
G02*
X130447900Y-90140800I-172900J0D01*
G01*
X130102100Y-90140800D01*
G75*
G02*
X129929200Y-89967900I0J172900D01*
G01*
X129929200Y-89572100D01*
G75*
G02*
X130102100Y-89399200I172900J0D01*
G01*
X130447900Y-89399200D01*
G75*
G02*
X130620800Y-89572100I0J-172900D01*
G01*
G37*
G36*
G01*
X131590800Y-89572100D02*
X131590800Y-89967900D01*
G75*
G02*
X131417900Y-90140800I-172900J0D01*
G01*
X131072100Y-90140800D01*
G75*
G02*
X130899200Y-89967900I0J172900D01*
G01*
X130899200Y-89572100D01*
G75*
G02*
X131072100Y-89399200I172900J0D01*
G01*
X131417900Y-89399200D01*
G75*
G02*
X131590800Y-89572100I0J-172900D01*
G01*
G37*
%TD*%
%TO.C,R47*%
G36*
G01*
X136377900Y-89570800D02*
X135982100Y-89570800D01*
G75*
G02*
X135809200Y-89397900I0J172900D01*
G01*
X135809200Y-89052100D01*
G75*
G02*
X135982100Y-88879200I172900J0D01*
G01*
X136377900Y-88879200D01*
G75*
G02*
X136550800Y-89052100I0J-172900D01*
G01*
X136550800Y-89397900D01*
G75*
G02*
X136377900Y-89570800I-172900J0D01*
G01*
G37*
G36*
G01*
X136377900Y-90540800D02*
X135982100Y-90540800D01*
G75*
G02*
X135809200Y-90367900I0J172900D01*
G01*
X135809200Y-90022100D01*
G75*
G02*
X135982100Y-89849200I172900J0D01*
G01*
X136377900Y-89849200D01*
G75*
G02*
X136550800Y-90022100I0J-172900D01*
G01*
X136550800Y-90367900D01*
G75*
G02*
X136377900Y-90540800I-172900J0D01*
G01*
G37*
%TD*%
%TO.C,R46*%
G36*
G01*
X139370800Y-89032100D02*
X139370800Y-89427900D01*
G75*
G02*
X139197900Y-89600800I-172900J0D01*
G01*
X138852100Y-89600800D01*
G75*
G02*
X138679200Y-89427900I0J172900D01*
G01*
X138679200Y-89032100D01*
G75*
G02*
X138852100Y-88859200I172900J0D01*
G01*
X139197900Y-88859200D01*
G75*
G02*
X139370800Y-89032100I0J-172900D01*
G01*
G37*
G36*
G01*
X140340800Y-89032100D02*
X140340800Y-89427900D01*
G75*
G02*
X140167900Y-89600800I-172900J0D01*
G01*
X139822100Y-89600800D01*
G75*
G02*
X139649200Y-89427900I0J172900D01*
G01*
X139649200Y-89032100D01*
G75*
G02*
X139822100Y-88859200I172900J0D01*
G01*
X140167900Y-88859200D01*
G75*
G02*
X140340800Y-89032100I0J-172900D01*
G01*
G37*
%TD*%
%TO.C,R45*%
G36*
G01*
X139120800Y-93932100D02*
X139120800Y-94327900D01*
G75*
G02*
X138947900Y-94500800I-172900J0D01*
G01*
X138602100Y-94500800D01*
G75*
G02*
X138429200Y-94327900I0J172900D01*
G01*
X138429200Y-93932100D01*
G75*
G02*
X138602100Y-93759200I172900J0D01*
G01*
X138947900Y-93759200D01*
G75*
G02*
X139120800Y-93932100I0J-172900D01*
G01*
G37*
G36*
G01*
X140090800Y-93932100D02*
X140090800Y-94327900D01*
G75*
G02*
X139917900Y-94500800I-172900J0D01*
G01*
X139572100Y-94500800D01*
G75*
G02*
X139399200Y-94327900I0J172900D01*
G01*
X139399200Y-93932100D01*
G75*
G02*
X139572100Y-93759200I172900J0D01*
G01*
X139917900Y-93759200D01*
G75*
G02*
X140090800Y-93932100I0J-172900D01*
G01*
G37*
%TD*%
%TO.C,R44*%
G36*
G01*
X137862100Y-89849200D02*
X138257900Y-89849200D01*
G75*
G02*
X138430800Y-90022100I0J-172900D01*
G01*
X138430800Y-90367900D01*
G75*
G02*
X138257900Y-90540800I-172900J0D01*
G01*
X137862100Y-90540800D01*
G75*
G02*
X137689200Y-90367900I0J172900D01*
G01*
X137689200Y-90022100D01*
G75*
G02*
X137862100Y-89849200I172900J0D01*
G01*
G37*
G36*
G01*
X137862100Y-88879200D02*
X138257900Y-88879200D01*
G75*
G02*
X138430800Y-89052100I0J-172900D01*
G01*
X138430800Y-89397900D01*
G75*
G02*
X138257900Y-89570800I-172900J0D01*
G01*
X137862100Y-89570800D01*
G75*
G02*
X137689200Y-89397900I0J172900D01*
G01*
X137689200Y-89052100D01*
G75*
G02*
X137862100Y-88879200I172900J0D01*
G01*
G37*
%TD*%
%TO.C,R43*%
G36*
G01*
X136922100Y-89849200D02*
X137317900Y-89849200D01*
G75*
G02*
X137490800Y-90022100I0J-172900D01*
G01*
X137490800Y-90367900D01*
G75*
G02*
X137317900Y-90540800I-172900J0D01*
G01*
X136922100Y-90540800D01*
G75*
G02*
X136749200Y-90367900I0J172900D01*
G01*
X136749200Y-90022100D01*
G75*
G02*
X136922100Y-89849200I172900J0D01*
G01*
G37*
G36*
G01*
X136922100Y-88879200D02*
X137317900Y-88879200D01*
G75*
G02*
X137490800Y-89052100I0J-172900D01*
G01*
X137490800Y-89397900D01*
G75*
G02*
X137317900Y-89570800I-172900J0D01*
G01*
X136922100Y-89570800D01*
G75*
G02*
X136749200Y-89397900I0J172900D01*
G01*
X136749200Y-89052100D01*
G75*
G02*
X136922100Y-88879200I172900J0D01*
G01*
G37*
%TD*%
%TO.C,R42*%
G36*
G01*
X138719200Y-88477900D02*
X138719200Y-88082100D01*
G75*
G02*
X138892100Y-87909200I172900J0D01*
G01*
X139237900Y-87909200D01*
G75*
G02*
X139410800Y-88082100I0J-172900D01*
G01*
X139410800Y-88477900D01*
G75*
G02*
X139237900Y-88650800I-172900J0D01*
G01*
X138892100Y-88650800D01*
G75*
G02*
X138719200Y-88477900I0J172900D01*
G01*
G37*
G36*
G01*
X137749200Y-88477900D02*
X137749200Y-88082100D01*
G75*
G02*
X137922100Y-87909200I172900J0D01*
G01*
X138267900Y-87909200D01*
G75*
G02*
X138440800Y-88082100I0J-172900D01*
G01*
X138440800Y-88477900D01*
G75*
G02*
X138267900Y-88650800I-172900J0D01*
G01*
X137922100Y-88650800D01*
G75*
G02*
X137749200Y-88477900I0J172900D01*
G01*
G37*
%TD*%
%TO.C,R41*%
G36*
G01*
X139649200Y-90367900D02*
X139649200Y-89972100D01*
G75*
G02*
X139822100Y-89799200I172900J0D01*
G01*
X140167900Y-89799200D01*
G75*
G02*
X140340800Y-89972100I0J-172900D01*
G01*
X140340800Y-90367900D01*
G75*
G02*
X140167900Y-90540800I-172900J0D01*
G01*
X139822100Y-90540800D01*
G75*
G02*
X139649200Y-90367900I0J172900D01*
G01*
G37*
G36*
G01*
X138679200Y-90367900D02*
X138679200Y-89972100D01*
G75*
G02*
X138852100Y-89799200I172900J0D01*
G01*
X139197900Y-89799200D01*
G75*
G02*
X139370800Y-89972100I0J-172900D01*
G01*
X139370800Y-90367900D01*
G75*
G02*
X139197900Y-90540800I-172900J0D01*
G01*
X138852100Y-90540800D01*
G75*
G02*
X138679200Y-90367900I0J172900D01*
G01*
G37*
%TD*%
%TO.C,R40*%
G36*
G01*
X139120800Y-90962100D02*
X139120800Y-91357900D01*
G75*
G02*
X138947900Y-91530800I-172900J0D01*
G01*
X138602100Y-91530800D01*
G75*
G02*
X138429200Y-91357900I0J172900D01*
G01*
X138429200Y-90962100D01*
G75*
G02*
X138602100Y-90789200I172900J0D01*
G01*
X138947900Y-90789200D01*
G75*
G02*
X139120800Y-90962100I0J-172900D01*
G01*
G37*
G36*
G01*
X140090800Y-90962100D02*
X140090800Y-91357900D01*
G75*
G02*
X139917900Y-91530800I-172900J0D01*
G01*
X139572100Y-91530800D01*
G75*
G02*
X139399200Y-91357900I0J172900D01*
G01*
X139399200Y-90962100D01*
G75*
G02*
X139572100Y-90789200I172900J0D01*
G01*
X139917900Y-90789200D01*
G75*
G02*
X140090800Y-90962100I0J-172900D01*
G01*
G37*
%TD*%
%TO.C,R39*%
G36*
G01*
X139399200Y-93337900D02*
X139399200Y-92942100D01*
G75*
G02*
X139572100Y-92769200I172900J0D01*
G01*
X139917900Y-92769200D01*
G75*
G02*
X140090800Y-92942100I0J-172900D01*
G01*
X140090800Y-93337900D01*
G75*
G02*
X139917900Y-93510800I-172900J0D01*
G01*
X139572100Y-93510800D01*
G75*
G02*
X139399200Y-93337900I0J172900D01*
G01*
G37*
G36*
G01*
X138429200Y-93337900D02*
X138429200Y-92942100D01*
G75*
G02*
X138602100Y-92769200I172900J0D01*
G01*
X138947900Y-92769200D01*
G75*
G02*
X139120800Y-92942100I0J-172900D01*
G01*
X139120800Y-93337900D01*
G75*
G02*
X138947900Y-93510800I-172900J0D01*
G01*
X138602100Y-93510800D01*
G75*
G02*
X138429200Y-93337900I0J172900D01*
G01*
G37*
%TD*%
%TO.C,R38*%
G36*
G01*
X139120800Y-91952100D02*
X139120800Y-92347900D01*
G75*
G02*
X138947900Y-92520800I-172900J0D01*
G01*
X138602100Y-92520800D01*
G75*
G02*
X138429200Y-92347900I0J172900D01*
G01*
X138429200Y-91952100D01*
G75*
G02*
X138602100Y-91779200I172900J0D01*
G01*
X138947900Y-91779200D01*
G75*
G02*
X139120800Y-91952100I0J-172900D01*
G01*
G37*
G36*
G01*
X140090800Y-91952100D02*
X140090800Y-92347900D01*
G75*
G02*
X139917900Y-92520800I-172900J0D01*
G01*
X139572100Y-92520800D01*
G75*
G02*
X139399200Y-92347900I0J172900D01*
G01*
X139399200Y-91952100D01*
G75*
G02*
X139572100Y-91779200I172900J0D01*
G01*
X139917900Y-91779200D01*
G75*
G02*
X140090800Y-91952100I0J-172900D01*
G01*
G37*
%TD*%
D15*
%TO.C,U11*%
X134660000Y-84790000D03*
G36*
G01*
X136085800Y-82452100D02*
X136085800Y-83202900D01*
G75*
G02*
X135997900Y-83290800I-87900J0D01*
G01*
X135822100Y-83290800D01*
G75*
G02*
X135734200Y-83202900I0J87900D01*
G01*
X135734200Y-82452100D01*
G75*
G02*
X135822100Y-82364200I87900J0D01*
G01*
X135997900Y-82364200D01*
G75*
G02*
X136085800Y-82452100I0J-87900D01*
G01*
G37*
G36*
G01*
X135585800Y-82452100D02*
X135585800Y-83202900D01*
G75*
G02*
X135497900Y-83290800I-87900J0D01*
G01*
X135322100Y-83290800D01*
G75*
G02*
X135234200Y-83202900I0J87900D01*
G01*
X135234200Y-82452100D01*
G75*
G02*
X135322100Y-82364200I87900J0D01*
G01*
X135497900Y-82364200D01*
G75*
G02*
X135585800Y-82452100I0J-87900D01*
G01*
G37*
G36*
G01*
X135085800Y-82452100D02*
X135085800Y-83202900D01*
G75*
G02*
X134997900Y-83290800I-87900J0D01*
G01*
X134822100Y-83290800D01*
G75*
G02*
X134734200Y-83202900I0J87900D01*
G01*
X134734200Y-82452100D01*
G75*
G02*
X134822100Y-82364200I87900J0D01*
G01*
X134997900Y-82364200D01*
G75*
G02*
X135085800Y-82452100I0J-87900D01*
G01*
G37*
G36*
G01*
X134585800Y-82452100D02*
X134585800Y-83202900D01*
G75*
G02*
X134497900Y-83290800I-87900J0D01*
G01*
X134322100Y-83290800D01*
G75*
G02*
X134234200Y-83202900I0J87900D01*
G01*
X134234200Y-82452100D01*
G75*
G02*
X134322100Y-82364200I87900J0D01*
G01*
X134497900Y-82364200D01*
G75*
G02*
X134585800Y-82452100I0J-87900D01*
G01*
G37*
G36*
G01*
X134085800Y-82452100D02*
X134085800Y-83202900D01*
G75*
G02*
X133997900Y-83290800I-87900J0D01*
G01*
X133822100Y-83290800D01*
G75*
G02*
X133734200Y-83202900I0J87900D01*
G01*
X133734200Y-82452100D01*
G75*
G02*
X133822100Y-82364200I87900J0D01*
G01*
X133997900Y-82364200D01*
G75*
G02*
X134085800Y-82452100I0J-87900D01*
G01*
G37*
G36*
G01*
X133585800Y-82452100D02*
X133585800Y-83202900D01*
G75*
G02*
X133497900Y-83290800I-87900J0D01*
G01*
X133322100Y-83290800D01*
G75*
G02*
X133234200Y-83202900I0J87900D01*
G01*
X133234200Y-82452100D01*
G75*
G02*
X133322100Y-82364200I87900J0D01*
G01*
X133497900Y-82364200D01*
G75*
G02*
X133585800Y-82452100I0J-87900D01*
G01*
G37*
G36*
G01*
X133160800Y-83452100D02*
X133160800Y-83627900D01*
G75*
G02*
X133072900Y-83715800I-87900J0D01*
G01*
X132322100Y-83715800D01*
G75*
G02*
X132234200Y-83627900I0J87900D01*
G01*
X132234200Y-83452100D01*
G75*
G02*
X132322100Y-83364200I87900J0D01*
G01*
X133072900Y-83364200D01*
G75*
G02*
X133160800Y-83452100I0J-87900D01*
G01*
G37*
G36*
G01*
X133160800Y-83952100D02*
X133160800Y-84127900D01*
G75*
G02*
X133072900Y-84215800I-87900J0D01*
G01*
X132322100Y-84215800D01*
G75*
G02*
X132234200Y-84127900I0J87900D01*
G01*
X132234200Y-83952100D01*
G75*
G02*
X132322100Y-83864200I87900J0D01*
G01*
X133072900Y-83864200D01*
G75*
G02*
X133160800Y-83952100I0J-87900D01*
G01*
G37*
G36*
G01*
X133160800Y-84452100D02*
X133160800Y-84627900D01*
G75*
G02*
X133072900Y-84715800I-87900J0D01*
G01*
X132322100Y-84715800D01*
G75*
G02*
X132234200Y-84627900I0J87900D01*
G01*
X132234200Y-84452100D01*
G75*
G02*
X132322100Y-84364200I87900J0D01*
G01*
X133072900Y-84364200D01*
G75*
G02*
X133160800Y-84452100I0J-87900D01*
G01*
G37*
G36*
G01*
X133160800Y-84952100D02*
X133160800Y-85127900D01*
G75*
G02*
X133072900Y-85215800I-87900J0D01*
G01*
X132322100Y-85215800D01*
G75*
G02*
X132234200Y-85127900I0J87900D01*
G01*
X132234200Y-84952100D01*
G75*
G02*
X132322100Y-84864200I87900J0D01*
G01*
X133072900Y-84864200D01*
G75*
G02*
X133160800Y-84952100I0J-87900D01*
G01*
G37*
G36*
G01*
X133160800Y-85452100D02*
X133160800Y-85627900D01*
G75*
G02*
X133072900Y-85715800I-87900J0D01*
G01*
X132322100Y-85715800D01*
G75*
G02*
X132234200Y-85627900I0J87900D01*
G01*
X132234200Y-85452100D01*
G75*
G02*
X132322100Y-85364200I87900J0D01*
G01*
X133072900Y-85364200D01*
G75*
G02*
X133160800Y-85452100I0J-87900D01*
G01*
G37*
G36*
G01*
X133160800Y-85952100D02*
X133160800Y-86127900D01*
G75*
G02*
X133072900Y-86215800I-87900J0D01*
G01*
X132322100Y-86215800D01*
G75*
G02*
X132234200Y-86127900I0J87900D01*
G01*
X132234200Y-85952100D01*
G75*
G02*
X132322100Y-85864200I87900J0D01*
G01*
X133072900Y-85864200D01*
G75*
G02*
X133160800Y-85952100I0J-87900D01*
G01*
G37*
G36*
G01*
X133585800Y-86377100D02*
X133585800Y-87127900D01*
G75*
G02*
X133497900Y-87215800I-87900J0D01*
G01*
X133322100Y-87215800D01*
G75*
G02*
X133234200Y-87127900I0J87900D01*
G01*
X133234200Y-86377100D01*
G75*
G02*
X133322100Y-86289200I87900J0D01*
G01*
X133497900Y-86289200D01*
G75*
G02*
X133585800Y-86377100I0J-87900D01*
G01*
G37*
G36*
G01*
X134085800Y-86377100D02*
X134085800Y-87127900D01*
G75*
G02*
X133997900Y-87215800I-87900J0D01*
G01*
X133822100Y-87215800D01*
G75*
G02*
X133734200Y-87127900I0J87900D01*
G01*
X133734200Y-86377100D01*
G75*
G02*
X133822100Y-86289200I87900J0D01*
G01*
X133997900Y-86289200D01*
G75*
G02*
X134085800Y-86377100I0J-87900D01*
G01*
G37*
G36*
G01*
X134585800Y-86377100D02*
X134585800Y-87127900D01*
G75*
G02*
X134497900Y-87215800I-87900J0D01*
G01*
X134322100Y-87215800D01*
G75*
G02*
X134234200Y-87127900I0J87900D01*
G01*
X134234200Y-86377100D01*
G75*
G02*
X134322100Y-86289200I87900J0D01*
G01*
X134497900Y-86289200D01*
G75*
G02*
X134585800Y-86377100I0J-87900D01*
G01*
G37*
G36*
G01*
X135085800Y-86377100D02*
X135085800Y-87127900D01*
G75*
G02*
X134997900Y-87215800I-87900J0D01*
G01*
X134822100Y-87215800D01*
G75*
G02*
X134734200Y-87127900I0J87900D01*
G01*
X134734200Y-86377100D01*
G75*
G02*
X134822100Y-86289200I87900J0D01*
G01*
X134997900Y-86289200D01*
G75*
G02*
X135085800Y-86377100I0J-87900D01*
G01*
G37*
G36*
G01*
X135585800Y-86377100D02*
X135585800Y-87127900D01*
G75*
G02*
X135497900Y-87215800I-87900J0D01*
G01*
X135322100Y-87215800D01*
G75*
G02*
X135234200Y-87127900I0J87900D01*
G01*
X135234200Y-86377100D01*
G75*
G02*
X135322100Y-86289200I87900J0D01*
G01*
X135497900Y-86289200D01*
G75*
G02*
X135585800Y-86377100I0J-87900D01*
G01*
G37*
G36*
G01*
X136085800Y-86377100D02*
X136085800Y-87127900D01*
G75*
G02*
X135997900Y-87215800I-87900J0D01*
G01*
X135822100Y-87215800D01*
G75*
G02*
X135734200Y-87127900I0J87900D01*
G01*
X135734200Y-86377100D01*
G75*
G02*
X135822100Y-86289200I87900J0D01*
G01*
X135997900Y-86289200D01*
G75*
G02*
X136085800Y-86377100I0J-87900D01*
G01*
G37*
G36*
G01*
X137085800Y-85952100D02*
X137085800Y-86127900D01*
G75*
G02*
X136997900Y-86215800I-87900J0D01*
G01*
X136247100Y-86215800D01*
G75*
G02*
X136159200Y-86127900I0J87900D01*
G01*
X136159200Y-85952100D01*
G75*
G02*
X136247100Y-85864200I87900J0D01*
G01*
X136997900Y-85864200D01*
G75*
G02*
X137085800Y-85952100I0J-87900D01*
G01*
G37*
G36*
G01*
X137085800Y-85452100D02*
X137085800Y-85627900D01*
G75*
G02*
X136997900Y-85715800I-87900J0D01*
G01*
X136247100Y-85715800D01*
G75*
G02*
X136159200Y-85627900I0J87900D01*
G01*
X136159200Y-85452100D01*
G75*
G02*
X136247100Y-85364200I87900J0D01*
G01*
X136997900Y-85364200D01*
G75*
G02*
X137085800Y-85452100I0J-87900D01*
G01*
G37*
G36*
G01*
X137085800Y-84952100D02*
X137085800Y-85127900D01*
G75*
G02*
X136997900Y-85215800I-87900J0D01*
G01*
X136247100Y-85215800D01*
G75*
G02*
X136159200Y-85127900I0J87900D01*
G01*
X136159200Y-84952100D01*
G75*
G02*
X136247100Y-84864200I87900J0D01*
G01*
X136997900Y-84864200D01*
G75*
G02*
X137085800Y-84952100I0J-87900D01*
G01*
G37*
G36*
G01*
X137085800Y-84452100D02*
X137085800Y-84627900D01*
G75*
G02*
X136997900Y-84715800I-87900J0D01*
G01*
X136247100Y-84715800D01*
G75*
G02*
X136159200Y-84627900I0J87900D01*
G01*
X136159200Y-84452100D01*
G75*
G02*
X136247100Y-84364200I87900J0D01*
G01*
X136997900Y-84364200D01*
G75*
G02*
X137085800Y-84452100I0J-87900D01*
G01*
G37*
G36*
G01*
X137085800Y-83952100D02*
X137085800Y-84127900D01*
G75*
G02*
X136997900Y-84215800I-87900J0D01*
G01*
X136247100Y-84215800D01*
G75*
G02*
X136159200Y-84127900I0J87900D01*
G01*
X136159200Y-83952100D01*
G75*
G02*
X136247100Y-83864200I87900J0D01*
G01*
X136997900Y-83864200D01*
G75*
G02*
X137085800Y-83952100I0J-87900D01*
G01*
G37*
G36*
G01*
X137085800Y-83452100D02*
X137085800Y-83627900D01*
G75*
G02*
X136997900Y-83715800I-87900J0D01*
G01*
X136247100Y-83715800D01*
G75*
G02*
X136159200Y-83627900I0J87900D01*
G01*
X136159200Y-83452100D01*
G75*
G02*
X136247100Y-83364200I87900J0D01*
G01*
X136997900Y-83364200D01*
G75*
G02*
X137085800Y-83452100I0J-87900D01*
G01*
G37*
%TD*%
%TO.C,FB4*%
G36*
G01*
X137169200Y-73569150D02*
X137169200Y-73005850D01*
G75*
G02*
X137413350Y-72761700I244150J0D01*
G01*
X137901650Y-72761700D01*
G75*
G02*
X138145800Y-73005850I0J-244150D01*
G01*
X138145800Y-73569150D01*
G75*
G02*
X137901650Y-73813300I-244150J0D01*
G01*
X137413350Y-73813300D01*
G75*
G02*
X137169200Y-73569150I0J244150D01*
G01*
G37*
G36*
G01*
X135594200Y-73569150D02*
X135594200Y-73005850D01*
G75*
G02*
X135838350Y-72761700I244150J0D01*
G01*
X136326650Y-72761700D01*
G75*
G02*
X136570800Y-73005850I0J-244150D01*
G01*
X136570800Y-73569150D01*
G75*
G02*
X136326650Y-73813300I-244150J0D01*
G01*
X135838350Y-73813300D01*
G75*
G02*
X135594200Y-73569150I0J244150D01*
G01*
G37*
%TD*%
D16*
%TO.C,D12*%
X131440000Y-84630000D03*
X130040000Y-84630000D03*
%TD*%
%TO.C,D11*%
X131440000Y-80440000D03*
X130040000Y-80440000D03*
%TD*%
%TO.C,D10*%
X131190000Y-76280000D03*
X129790000Y-76280000D03*
%TD*%
%TO.C,C49*%
G36*
G01*
X133277900Y-74810800D02*
X132882100Y-74810800D01*
G75*
G02*
X132709200Y-74637900I0J172900D01*
G01*
X132709200Y-74292100D01*
G75*
G02*
X132882100Y-74119200I172900J0D01*
G01*
X133277900Y-74119200D01*
G75*
G02*
X133450800Y-74292100I0J-172900D01*
G01*
X133450800Y-74637900D01*
G75*
G02*
X133277900Y-74810800I-172900J0D01*
G01*
G37*
G36*
G01*
X133277900Y-75780800D02*
X132882100Y-75780800D01*
G75*
G02*
X132709200Y-75607900I0J172900D01*
G01*
X132709200Y-75262100D01*
G75*
G02*
X132882100Y-75089200I172900J0D01*
G01*
X133277900Y-75089200D01*
G75*
G02*
X133450800Y-75262100I0J-172900D01*
G01*
X133450800Y-75607900D01*
G75*
G02*
X133277900Y-75780800I-172900J0D01*
G01*
G37*
%TD*%
%TO.C,C48*%
G36*
G01*
X137918366Y-82401507D02*
X137638493Y-82121634D01*
G75*
G02*
X137638493Y-81877116I122259J122259D01*
G01*
X137883010Y-81632599D01*
G75*
G02*
X138127528Y-81632599I122259J-122259D01*
G01*
X138407401Y-81912472D01*
G75*
G02*
X138407401Y-82156990I-122259J-122259D01*
G01*
X138162884Y-82401507D01*
G75*
G02*
X137918366Y-82401507I-122259J122259D01*
G01*
G37*
G36*
G01*
X137232472Y-83087401D02*
X136952599Y-82807528D01*
G75*
G02*
X136952599Y-82563010I122259J122259D01*
G01*
X137197116Y-82318493D01*
G75*
G02*
X137441634Y-82318493I122259J-122259D01*
G01*
X137721507Y-82598366D01*
G75*
G02*
X137721507Y-82842884I-122259J-122259D01*
G01*
X137476990Y-83087401D01*
G75*
G02*
X137232472Y-83087401I-122259J122259D01*
G01*
G37*
%TD*%
%TO.C,C47*%
G36*
G01*
X132337900Y-74810800D02*
X131942100Y-74810800D01*
G75*
G02*
X131769200Y-74637900I0J172900D01*
G01*
X131769200Y-74292100D01*
G75*
G02*
X131942100Y-74119200I172900J0D01*
G01*
X132337900Y-74119200D01*
G75*
G02*
X132510800Y-74292100I0J-172900D01*
G01*
X132510800Y-74637900D01*
G75*
G02*
X132337900Y-74810800I-172900J0D01*
G01*
G37*
G36*
G01*
X132337900Y-75780800D02*
X131942100Y-75780800D01*
G75*
G02*
X131769200Y-75607900I0J172900D01*
G01*
X131769200Y-75262100D01*
G75*
G02*
X131942100Y-75089200I172900J0D01*
G01*
X132337900Y-75089200D01*
G75*
G02*
X132510800Y-75262100I0J-172900D01*
G01*
X132510800Y-75607900D01*
G75*
G02*
X132337900Y-75780800I-172900J0D01*
G01*
G37*
%TD*%
%TO.C,C46*%
G36*
G01*
X134340800Y-74269600D02*
X134340800Y-74665400D01*
G75*
G02*
X134167900Y-74838300I-172900J0D01*
G01*
X133822100Y-74838300D01*
G75*
G02*
X133649200Y-74665400I0J172900D01*
G01*
X133649200Y-74269600D01*
G75*
G02*
X133822100Y-74096700I172900J0D01*
G01*
X134167900Y-74096700D01*
G75*
G02*
X134340800Y-74269600I0J-172900D01*
G01*
G37*
G36*
G01*
X135310800Y-74269600D02*
X135310800Y-74665400D01*
G75*
G02*
X135137900Y-74838300I-172900J0D01*
G01*
X134792100Y-74838300D01*
G75*
G02*
X134619200Y-74665400I0J172900D01*
G01*
X134619200Y-74269600D01*
G75*
G02*
X134792100Y-74096700I172900J0D01*
G01*
X135137900Y-74096700D01*
G75*
G02*
X135310800Y-74269600I0J-172900D01*
G01*
G37*
%TD*%
%TO.C,C45*%
G36*
G01*
X134340800Y-75209600D02*
X134340800Y-75605400D01*
G75*
G02*
X134167900Y-75778300I-172900J0D01*
G01*
X133822100Y-75778300D01*
G75*
G02*
X133649200Y-75605400I0J172900D01*
G01*
X133649200Y-75209600D01*
G75*
G02*
X133822100Y-75036700I172900J0D01*
G01*
X134167900Y-75036700D01*
G75*
G02*
X134340800Y-75209600I0J-172900D01*
G01*
G37*
G36*
G01*
X135310800Y-75209600D02*
X135310800Y-75605400D01*
G75*
G02*
X135137900Y-75778300I-172900J0D01*
G01*
X134792100Y-75778300D01*
G75*
G02*
X134619200Y-75605400I0J172900D01*
G01*
X134619200Y-75209600D01*
G75*
G02*
X134792100Y-75036700I172900J0D01*
G01*
X135137900Y-75036700D01*
G75*
G02*
X135310800Y-75209600I0J-172900D01*
G01*
G37*
%TD*%
%TO.C,C41*%
G36*
G01*
X137552100Y-85619200D02*
X137947900Y-85619200D01*
G75*
G02*
X138120800Y-85792100I0J-172900D01*
G01*
X138120800Y-86137900D01*
G75*
G02*
X137947900Y-86310800I-172900J0D01*
G01*
X137552100Y-86310800D01*
G75*
G02*
X137379200Y-86137900I0J172900D01*
G01*
X137379200Y-85792100D01*
G75*
G02*
X137552100Y-85619200I172900J0D01*
G01*
G37*
G36*
G01*
X137552100Y-84649200D02*
X137947900Y-84649200D01*
G75*
G02*
X138120800Y-84822100I0J-172900D01*
G01*
X138120800Y-85167900D01*
G75*
G02*
X137947900Y-85340800I-172900J0D01*
G01*
X137552100Y-85340800D01*
G75*
G02*
X137379200Y-85167900I0J172900D01*
G01*
X137379200Y-84822100D01*
G75*
G02*
X137552100Y-84649200I172900J0D01*
G01*
G37*
%TD*%
D15*
%TO.C,U1*%
X145340000Y-92210000D03*
G36*
G01*
X143914200Y-94547900D02*
X143914200Y-93797100D01*
G75*
G02*
X144002100Y-93709200I87900J0D01*
G01*
X144177900Y-93709200D01*
G75*
G02*
X144265800Y-93797100I0J-87900D01*
G01*
X144265800Y-94547900D01*
G75*
G02*
X144177900Y-94635800I-87900J0D01*
G01*
X144002100Y-94635800D01*
G75*
G02*
X143914200Y-94547900I0J87900D01*
G01*
G37*
G36*
G01*
X144414200Y-94547900D02*
X144414200Y-93797100D01*
G75*
G02*
X144502100Y-93709200I87900J0D01*
G01*
X144677900Y-93709200D01*
G75*
G02*
X144765800Y-93797100I0J-87900D01*
G01*
X144765800Y-94547900D01*
G75*
G02*
X144677900Y-94635800I-87900J0D01*
G01*
X144502100Y-94635800D01*
G75*
G02*
X144414200Y-94547900I0J87900D01*
G01*
G37*
G36*
G01*
X144914200Y-94547900D02*
X144914200Y-93797100D01*
G75*
G02*
X145002100Y-93709200I87900J0D01*
G01*
X145177900Y-93709200D01*
G75*
G02*
X145265800Y-93797100I0J-87900D01*
G01*
X145265800Y-94547900D01*
G75*
G02*
X145177900Y-94635800I-87900J0D01*
G01*
X145002100Y-94635800D01*
G75*
G02*
X144914200Y-94547900I0J87900D01*
G01*
G37*
G36*
G01*
X145414200Y-94547900D02*
X145414200Y-93797100D01*
G75*
G02*
X145502100Y-93709200I87900J0D01*
G01*
X145677900Y-93709200D01*
G75*
G02*
X145765800Y-93797100I0J-87900D01*
G01*
X145765800Y-94547900D01*
G75*
G02*
X145677900Y-94635800I-87900J0D01*
G01*
X145502100Y-94635800D01*
G75*
G02*
X145414200Y-94547900I0J87900D01*
G01*
G37*
G36*
G01*
X145914200Y-94547900D02*
X145914200Y-93797100D01*
G75*
G02*
X146002100Y-93709200I87900J0D01*
G01*
X146177900Y-93709200D01*
G75*
G02*
X146265800Y-93797100I0J-87900D01*
G01*
X146265800Y-94547900D01*
G75*
G02*
X146177900Y-94635800I-87900J0D01*
G01*
X146002100Y-94635800D01*
G75*
G02*
X145914200Y-94547900I0J87900D01*
G01*
G37*
G36*
G01*
X146414200Y-94547900D02*
X146414200Y-93797100D01*
G75*
G02*
X146502100Y-93709200I87900J0D01*
G01*
X146677900Y-93709200D01*
G75*
G02*
X146765800Y-93797100I0J-87900D01*
G01*
X146765800Y-94547900D01*
G75*
G02*
X146677900Y-94635800I-87900J0D01*
G01*
X146502100Y-94635800D01*
G75*
G02*
X146414200Y-94547900I0J87900D01*
G01*
G37*
G36*
G01*
X146839200Y-93547900D02*
X146839200Y-93372100D01*
G75*
G02*
X146927100Y-93284200I87900J0D01*
G01*
X147677900Y-93284200D01*
G75*
G02*
X147765800Y-93372100I0J-87900D01*
G01*
X147765800Y-93547900D01*
G75*
G02*
X147677900Y-93635800I-87900J0D01*
G01*
X146927100Y-93635800D01*
G75*
G02*
X146839200Y-93547900I0J87900D01*
G01*
G37*
G36*
G01*
X146839200Y-93047900D02*
X146839200Y-92872100D01*
G75*
G02*
X146927100Y-92784200I87900J0D01*
G01*
X147677900Y-92784200D01*
G75*
G02*
X147765800Y-92872100I0J-87900D01*
G01*
X147765800Y-93047900D01*
G75*
G02*
X147677900Y-93135800I-87900J0D01*
G01*
X146927100Y-93135800D01*
G75*
G02*
X146839200Y-93047900I0J87900D01*
G01*
G37*
G36*
G01*
X146839200Y-92547900D02*
X146839200Y-92372100D01*
G75*
G02*
X146927100Y-92284200I87900J0D01*
G01*
X147677900Y-92284200D01*
G75*
G02*
X147765800Y-92372100I0J-87900D01*
G01*
X147765800Y-92547900D01*
G75*
G02*
X147677900Y-92635800I-87900J0D01*
G01*
X146927100Y-92635800D01*
G75*
G02*
X146839200Y-92547900I0J87900D01*
G01*
G37*
G36*
G01*
X146839200Y-92047900D02*
X146839200Y-91872100D01*
G75*
G02*
X146927100Y-91784200I87900J0D01*
G01*
X147677900Y-91784200D01*
G75*
G02*
X147765800Y-91872100I0J-87900D01*
G01*
X147765800Y-92047900D01*
G75*
G02*
X147677900Y-92135800I-87900J0D01*
G01*
X146927100Y-92135800D01*
G75*
G02*
X146839200Y-92047900I0J87900D01*
G01*
G37*
G36*
G01*
X146839200Y-91547900D02*
X146839200Y-91372100D01*
G75*
G02*
X146927100Y-91284200I87900J0D01*
G01*
X147677900Y-91284200D01*
G75*
G02*
X147765800Y-91372100I0J-87900D01*
G01*
X147765800Y-91547900D01*
G75*
G02*
X147677900Y-91635800I-87900J0D01*
G01*
X146927100Y-91635800D01*
G75*
G02*
X146839200Y-91547900I0J87900D01*
G01*
G37*
G36*
G01*
X146839200Y-91047900D02*
X146839200Y-90872100D01*
G75*
G02*
X146927100Y-90784200I87900J0D01*
G01*
X147677900Y-90784200D01*
G75*
G02*
X147765800Y-90872100I0J-87900D01*
G01*
X147765800Y-91047900D01*
G75*
G02*
X147677900Y-91135800I-87900J0D01*
G01*
X146927100Y-91135800D01*
G75*
G02*
X146839200Y-91047900I0J87900D01*
G01*
G37*
G36*
G01*
X146414200Y-90622900D02*
X146414200Y-89872100D01*
G75*
G02*
X146502100Y-89784200I87900J0D01*
G01*
X146677900Y-89784200D01*
G75*
G02*
X146765800Y-89872100I0J-87900D01*
G01*
X146765800Y-90622900D01*
G75*
G02*
X146677900Y-90710800I-87900J0D01*
G01*
X146502100Y-90710800D01*
G75*
G02*
X146414200Y-90622900I0J87900D01*
G01*
G37*
G36*
G01*
X145914200Y-90622900D02*
X145914200Y-89872100D01*
G75*
G02*
X146002100Y-89784200I87900J0D01*
G01*
X146177900Y-89784200D01*
G75*
G02*
X146265800Y-89872100I0J-87900D01*
G01*
X146265800Y-90622900D01*
G75*
G02*
X146177900Y-90710800I-87900J0D01*
G01*
X146002100Y-90710800D01*
G75*
G02*
X145914200Y-90622900I0J87900D01*
G01*
G37*
G36*
G01*
X145414200Y-90622900D02*
X145414200Y-89872100D01*
G75*
G02*
X145502100Y-89784200I87900J0D01*
G01*
X145677900Y-89784200D01*
G75*
G02*
X145765800Y-89872100I0J-87900D01*
G01*
X145765800Y-90622900D01*
G75*
G02*
X145677900Y-90710800I-87900J0D01*
G01*
X145502100Y-90710800D01*
G75*
G02*
X145414200Y-90622900I0J87900D01*
G01*
G37*
G36*
G01*
X144914200Y-90622900D02*
X144914200Y-89872100D01*
G75*
G02*
X145002100Y-89784200I87900J0D01*
G01*
X145177900Y-89784200D01*
G75*
G02*
X145265800Y-89872100I0J-87900D01*
G01*
X145265800Y-90622900D01*
G75*
G02*
X145177900Y-90710800I-87900J0D01*
G01*
X145002100Y-90710800D01*
G75*
G02*
X144914200Y-90622900I0J87900D01*
G01*
G37*
G36*
G01*
X144414200Y-90622900D02*
X144414200Y-89872100D01*
G75*
G02*
X144502100Y-89784200I87900J0D01*
G01*
X144677900Y-89784200D01*
G75*
G02*
X144765800Y-89872100I0J-87900D01*
G01*
X144765800Y-90622900D01*
G75*
G02*
X144677900Y-90710800I-87900J0D01*
G01*
X144502100Y-90710800D01*
G75*
G02*
X144414200Y-90622900I0J87900D01*
G01*
G37*
G36*
G01*
X143914200Y-90622900D02*
X143914200Y-89872100D01*
G75*
G02*
X144002100Y-89784200I87900J0D01*
G01*
X144177900Y-89784200D01*
G75*
G02*
X144265800Y-89872100I0J-87900D01*
G01*
X144265800Y-90622900D01*
G75*
G02*
X144177900Y-90710800I-87900J0D01*
G01*
X144002100Y-90710800D01*
G75*
G02*
X143914200Y-90622900I0J87900D01*
G01*
G37*
G36*
G01*
X142914200Y-91047900D02*
X142914200Y-90872100D01*
G75*
G02*
X143002100Y-90784200I87900J0D01*
G01*
X143752900Y-90784200D01*
G75*
G02*
X143840800Y-90872100I0J-87900D01*
G01*
X143840800Y-91047900D01*
G75*
G02*
X143752900Y-91135800I-87900J0D01*
G01*
X143002100Y-91135800D01*
G75*
G02*
X142914200Y-91047900I0J87900D01*
G01*
G37*
G36*
G01*
X142914200Y-91547900D02*
X142914200Y-91372100D01*
G75*
G02*
X143002100Y-91284200I87900J0D01*
G01*
X143752900Y-91284200D01*
G75*
G02*
X143840800Y-91372100I0J-87900D01*
G01*
X143840800Y-91547900D01*
G75*
G02*
X143752900Y-91635800I-87900J0D01*
G01*
X143002100Y-91635800D01*
G75*
G02*
X142914200Y-91547900I0J87900D01*
G01*
G37*
G36*
G01*
X142914200Y-92047900D02*
X142914200Y-91872100D01*
G75*
G02*
X143002100Y-91784200I87900J0D01*
G01*
X143752900Y-91784200D01*
G75*
G02*
X143840800Y-91872100I0J-87900D01*
G01*
X143840800Y-92047900D01*
G75*
G02*
X143752900Y-92135800I-87900J0D01*
G01*
X143002100Y-92135800D01*
G75*
G02*
X142914200Y-92047900I0J87900D01*
G01*
G37*
G36*
G01*
X142914200Y-92547900D02*
X142914200Y-92372100D01*
G75*
G02*
X143002100Y-92284200I87900J0D01*
G01*
X143752900Y-92284200D01*
G75*
G02*
X143840800Y-92372100I0J-87900D01*
G01*
X143840800Y-92547900D01*
G75*
G02*
X143752900Y-92635800I-87900J0D01*
G01*
X143002100Y-92635800D01*
G75*
G02*
X142914200Y-92547900I0J87900D01*
G01*
G37*
G36*
G01*
X142914200Y-93047900D02*
X142914200Y-92872100D01*
G75*
G02*
X143002100Y-92784200I87900J0D01*
G01*
X143752900Y-92784200D01*
G75*
G02*
X143840800Y-92872100I0J-87900D01*
G01*
X143840800Y-93047900D01*
G75*
G02*
X143752900Y-93135800I-87900J0D01*
G01*
X143002100Y-93135800D01*
G75*
G02*
X142914200Y-93047900I0J87900D01*
G01*
G37*
G36*
G01*
X142914200Y-93547900D02*
X142914200Y-93372100D01*
G75*
G02*
X143002100Y-93284200I87900J0D01*
G01*
X143752900Y-93284200D01*
G75*
G02*
X143840800Y-93372100I0J-87900D01*
G01*
X143840800Y-93547900D01*
G75*
G02*
X143752900Y-93635800I-87900J0D01*
G01*
X143002100Y-93635800D01*
G75*
G02*
X142914200Y-93547900I0J87900D01*
G01*
G37*
%TD*%
%TO.C,FB1*%
G36*
G01*
X142830800Y-103430850D02*
X142830800Y-103994150D01*
G75*
G02*
X142586650Y-104238300I-244150J0D01*
G01*
X142098350Y-104238300D01*
G75*
G02*
X141854200Y-103994150I0J244150D01*
G01*
X141854200Y-103430850D01*
G75*
G02*
X142098350Y-103186700I244150J0D01*
G01*
X142586650Y-103186700D01*
G75*
G02*
X142830800Y-103430850I0J-244150D01*
G01*
G37*
G36*
G01*
X144405800Y-103430850D02*
X144405800Y-103994150D01*
G75*
G02*
X144161650Y-104238300I-244150J0D01*
G01*
X143673350Y-104238300D01*
G75*
G02*
X143429200Y-103994150I0J244150D01*
G01*
X143429200Y-103430850D01*
G75*
G02*
X143673350Y-103186700I244150J0D01*
G01*
X144161650Y-103186700D01*
G75*
G02*
X144405800Y-103430850I0J-244150D01*
G01*
G37*
%TD*%
D16*
%TO.C,D4*%
X148560000Y-92370000D03*
X149960000Y-92370000D03*
%TD*%
%TO.C,D3*%
X148560000Y-96560000D03*
X149960000Y-96560000D03*
%TD*%
%TO.C,D2*%
X148810000Y-100720000D03*
X150210000Y-100720000D03*
%TD*%
%TO.C,C15*%
G36*
G01*
X146722100Y-102189200D02*
X147117900Y-102189200D01*
G75*
G02*
X147290800Y-102362100I0J-172900D01*
G01*
X147290800Y-102707900D01*
G75*
G02*
X147117900Y-102880800I-172900J0D01*
G01*
X146722100Y-102880800D01*
G75*
G02*
X146549200Y-102707900I0J172900D01*
G01*
X146549200Y-102362100D01*
G75*
G02*
X146722100Y-102189200I172900J0D01*
G01*
G37*
G36*
G01*
X146722100Y-101219200D02*
X147117900Y-101219200D01*
G75*
G02*
X147290800Y-101392100I0J-172900D01*
G01*
X147290800Y-101737900D01*
G75*
G02*
X147117900Y-101910800I-172900J0D01*
G01*
X146722100Y-101910800D01*
G75*
G02*
X146549200Y-101737900I0J172900D01*
G01*
X146549200Y-101392100D01*
G75*
G02*
X146722100Y-101219200I172900J0D01*
G01*
G37*
%TD*%
%TO.C,C14*%
G36*
G01*
X142111634Y-94548493D02*
X142391507Y-94828366D01*
G75*
G02*
X142391507Y-95072884I-122259J-122259D01*
G01*
X142146990Y-95317401D01*
G75*
G02*
X141902472Y-95317401I-122259J122259D01*
G01*
X141622599Y-95037528D01*
G75*
G02*
X141622599Y-94793010I122259J122259D01*
G01*
X141867116Y-94548493D01*
G75*
G02*
X142111634Y-94548493I122259J-122259D01*
G01*
G37*
G36*
G01*
X142797528Y-93862599D02*
X143077401Y-94142472D01*
G75*
G02*
X143077401Y-94386990I-122259J-122259D01*
G01*
X142832884Y-94631507D01*
G75*
G02*
X142588366Y-94631507I-122259J122259D01*
G01*
X142308493Y-94351634D01*
G75*
G02*
X142308493Y-94107116I122259J122259D01*
G01*
X142553010Y-93862599D01*
G75*
G02*
X142797528Y-93862599I122259J-122259D01*
G01*
G37*
%TD*%
%TO.C,C13*%
G36*
G01*
X147662100Y-102189200D02*
X148057900Y-102189200D01*
G75*
G02*
X148230800Y-102362100I0J-172900D01*
G01*
X148230800Y-102707900D01*
G75*
G02*
X148057900Y-102880800I-172900J0D01*
G01*
X147662100Y-102880800D01*
G75*
G02*
X147489200Y-102707900I0J172900D01*
G01*
X147489200Y-102362100D01*
G75*
G02*
X147662100Y-102189200I172900J0D01*
G01*
G37*
G36*
G01*
X147662100Y-101219200D02*
X148057900Y-101219200D01*
G75*
G02*
X148230800Y-101392100I0J-172900D01*
G01*
X148230800Y-101737900D01*
G75*
G02*
X148057900Y-101910800I-172900J0D01*
G01*
X147662100Y-101910800D01*
G75*
G02*
X147489200Y-101737900I0J172900D01*
G01*
X147489200Y-101392100D01*
G75*
G02*
X147662100Y-101219200I172900J0D01*
G01*
G37*
%TD*%
%TO.C,C12*%
G36*
G01*
X145659200Y-102730400D02*
X145659200Y-102334600D01*
G75*
G02*
X145832100Y-102161700I172900J0D01*
G01*
X146177900Y-102161700D01*
G75*
G02*
X146350800Y-102334600I0J-172900D01*
G01*
X146350800Y-102730400D01*
G75*
G02*
X146177900Y-102903300I-172900J0D01*
G01*
X145832100Y-102903300D01*
G75*
G02*
X145659200Y-102730400I0J172900D01*
G01*
G37*
G36*
G01*
X144689200Y-102730400D02*
X144689200Y-102334600D01*
G75*
G02*
X144862100Y-102161700I172900J0D01*
G01*
X145207900Y-102161700D01*
G75*
G02*
X145380800Y-102334600I0J-172900D01*
G01*
X145380800Y-102730400D01*
G75*
G02*
X145207900Y-102903300I-172900J0D01*
G01*
X144862100Y-102903300D01*
G75*
G02*
X144689200Y-102730400I0J172900D01*
G01*
G37*
%TD*%
%TO.C,C11*%
G36*
G01*
X145659200Y-101790400D02*
X145659200Y-101394600D01*
G75*
G02*
X145832100Y-101221700I172900J0D01*
G01*
X146177900Y-101221700D01*
G75*
G02*
X146350800Y-101394600I0J-172900D01*
G01*
X146350800Y-101790400D01*
G75*
G02*
X146177900Y-101963300I-172900J0D01*
G01*
X145832100Y-101963300D01*
G75*
G02*
X145659200Y-101790400I0J172900D01*
G01*
G37*
G36*
G01*
X144689200Y-101790400D02*
X144689200Y-101394600D01*
G75*
G02*
X144862100Y-101221700I172900J0D01*
G01*
X145207900Y-101221700D01*
G75*
G02*
X145380800Y-101394600I0J-172900D01*
G01*
X145380800Y-101790400D01*
G75*
G02*
X145207900Y-101963300I-172900J0D01*
G01*
X144862100Y-101963300D01*
G75*
G02*
X144689200Y-101790400I0J172900D01*
G01*
G37*
%TD*%
%TO.C,C1*%
G36*
G01*
X142447900Y-91770800D02*
X142052100Y-91770800D01*
G75*
G02*
X141879200Y-91597900I0J172900D01*
G01*
X141879200Y-91252100D01*
G75*
G02*
X142052100Y-91079200I172900J0D01*
G01*
X142447900Y-91079200D01*
G75*
G02*
X142620800Y-91252100I0J-172900D01*
G01*
X142620800Y-91597900D01*
G75*
G02*
X142447900Y-91770800I-172900J0D01*
G01*
G37*
G36*
G01*
X142447900Y-92740800D02*
X142052100Y-92740800D01*
G75*
G02*
X141879200Y-92567900I0J172900D01*
G01*
X141879200Y-92222100D01*
G75*
G02*
X142052100Y-92049200I172900J0D01*
G01*
X142447900Y-92049200D01*
G75*
G02*
X142620800Y-92222100I0J-172900D01*
G01*
X142620800Y-92567900D01*
G75*
G02*
X142447900Y-92740800I-172900J0D01*
G01*
G37*
%TD*%
%TO.C,C10*%
G36*
G01*
X145409200Y-87970400D02*
X145409200Y-87574600D01*
G75*
G02*
X145582100Y-87401700I172900J0D01*
G01*
X145927900Y-87401700D01*
G75*
G02*
X146100800Y-87574600I0J-172900D01*
G01*
X146100800Y-87970400D01*
G75*
G02*
X145927900Y-88143300I-172900J0D01*
G01*
X145582100Y-88143300D01*
G75*
G02*
X145409200Y-87970400I0J172900D01*
G01*
G37*
G36*
G01*
X144439200Y-87970400D02*
X144439200Y-87574600D01*
G75*
G02*
X144612100Y-87401700I172900J0D01*
G01*
X144957900Y-87401700D01*
G75*
G02*
X145130800Y-87574600I0J-172900D01*
G01*
X145130800Y-87970400D01*
G75*
G02*
X144957900Y-88143300I-172900J0D01*
G01*
X144612100Y-88143300D01*
G75*
G02*
X144439200Y-87970400I0J172900D01*
G01*
G37*
%TD*%
%TO.C,C25*%
G36*
G01*
X146990800Y-87474600D02*
X146990800Y-87870400D01*
G75*
G02*
X146817900Y-88043300I-172900J0D01*
G01*
X146472100Y-88043300D01*
G75*
G02*
X146299200Y-87870400I0J172900D01*
G01*
X146299200Y-87474600D01*
G75*
G02*
X146472100Y-87301700I172900J0D01*
G01*
X146817900Y-87301700D01*
G75*
G02*
X146990800Y-87474600I0J-172900D01*
G01*
G37*
G36*
G01*
X147960800Y-87474600D02*
X147960800Y-87870400D01*
G75*
G02*
X147787900Y-88043300I-172900J0D01*
G01*
X147442100Y-88043300D01*
G75*
G02*
X147269200Y-87870400I0J172900D01*
G01*
X147269200Y-87474600D01*
G75*
G02*
X147442100Y-87301700I172900J0D01*
G01*
X147787900Y-87301700D01*
G75*
G02*
X147960800Y-87474600I0J-172900D01*
G01*
G37*
%TD*%
%TO.C,C26*%
G36*
G01*
X142081634Y-79880993D02*
X142361507Y-80160866D01*
G75*
G02*
X142361507Y-80405384I-122259J-122259D01*
G01*
X142116990Y-80649901D01*
G75*
G02*
X141872472Y-80649901I-122259J122259D01*
G01*
X141592599Y-80370028D01*
G75*
G02*
X141592599Y-80125510I122259J122259D01*
G01*
X141837116Y-79880993D01*
G75*
G02*
X142081634Y-79880993I122259J-122259D01*
G01*
G37*
G36*
G01*
X142767528Y-79195099D02*
X143047401Y-79474972D01*
G75*
G02*
X143047401Y-79719490I-122259J-122259D01*
G01*
X142802884Y-79964007D01*
G75*
G02*
X142558366Y-79964007I-122259J122259D01*
G01*
X142278493Y-79684134D01*
G75*
G02*
X142278493Y-79439616I122259J122259D01*
G01*
X142523010Y-79195099D01*
G75*
G02*
X142767528Y-79195099I122259J-122259D01*
G01*
G37*
%TD*%
D15*
%TO.C,U8*%
X145340000Y-77550000D03*
G36*
G01*
X143914200Y-79887900D02*
X143914200Y-79137100D01*
G75*
G02*
X144002100Y-79049200I87900J0D01*
G01*
X144177900Y-79049200D01*
G75*
G02*
X144265800Y-79137100I0J-87900D01*
G01*
X144265800Y-79887900D01*
G75*
G02*
X144177900Y-79975800I-87900J0D01*
G01*
X144002100Y-79975800D01*
G75*
G02*
X143914200Y-79887900I0J87900D01*
G01*
G37*
G36*
G01*
X144414200Y-79887900D02*
X144414200Y-79137100D01*
G75*
G02*
X144502100Y-79049200I87900J0D01*
G01*
X144677900Y-79049200D01*
G75*
G02*
X144765800Y-79137100I0J-87900D01*
G01*
X144765800Y-79887900D01*
G75*
G02*
X144677900Y-79975800I-87900J0D01*
G01*
X144502100Y-79975800D01*
G75*
G02*
X144414200Y-79887900I0J87900D01*
G01*
G37*
G36*
G01*
X144914200Y-79887900D02*
X144914200Y-79137100D01*
G75*
G02*
X145002100Y-79049200I87900J0D01*
G01*
X145177900Y-79049200D01*
G75*
G02*
X145265800Y-79137100I0J-87900D01*
G01*
X145265800Y-79887900D01*
G75*
G02*
X145177900Y-79975800I-87900J0D01*
G01*
X145002100Y-79975800D01*
G75*
G02*
X144914200Y-79887900I0J87900D01*
G01*
G37*
G36*
G01*
X145414200Y-79887900D02*
X145414200Y-79137100D01*
G75*
G02*
X145502100Y-79049200I87900J0D01*
G01*
X145677900Y-79049200D01*
G75*
G02*
X145765800Y-79137100I0J-87900D01*
G01*
X145765800Y-79887900D01*
G75*
G02*
X145677900Y-79975800I-87900J0D01*
G01*
X145502100Y-79975800D01*
G75*
G02*
X145414200Y-79887900I0J87900D01*
G01*
G37*
G36*
G01*
X145914200Y-79887900D02*
X145914200Y-79137100D01*
G75*
G02*
X146002100Y-79049200I87900J0D01*
G01*
X146177900Y-79049200D01*
G75*
G02*
X146265800Y-79137100I0J-87900D01*
G01*
X146265800Y-79887900D01*
G75*
G02*
X146177900Y-79975800I-87900J0D01*
G01*
X146002100Y-79975800D01*
G75*
G02*
X145914200Y-79887900I0J87900D01*
G01*
G37*
G36*
G01*
X146414200Y-79887900D02*
X146414200Y-79137100D01*
G75*
G02*
X146502100Y-79049200I87900J0D01*
G01*
X146677900Y-79049200D01*
G75*
G02*
X146765800Y-79137100I0J-87900D01*
G01*
X146765800Y-79887900D01*
G75*
G02*
X146677900Y-79975800I-87900J0D01*
G01*
X146502100Y-79975800D01*
G75*
G02*
X146414200Y-79887900I0J87900D01*
G01*
G37*
G36*
G01*
X146839200Y-78887900D02*
X146839200Y-78712100D01*
G75*
G02*
X146927100Y-78624200I87900J0D01*
G01*
X147677900Y-78624200D01*
G75*
G02*
X147765800Y-78712100I0J-87900D01*
G01*
X147765800Y-78887900D01*
G75*
G02*
X147677900Y-78975800I-87900J0D01*
G01*
X146927100Y-78975800D01*
G75*
G02*
X146839200Y-78887900I0J87900D01*
G01*
G37*
G36*
G01*
X146839200Y-78387900D02*
X146839200Y-78212100D01*
G75*
G02*
X146927100Y-78124200I87900J0D01*
G01*
X147677900Y-78124200D01*
G75*
G02*
X147765800Y-78212100I0J-87900D01*
G01*
X147765800Y-78387900D01*
G75*
G02*
X147677900Y-78475800I-87900J0D01*
G01*
X146927100Y-78475800D01*
G75*
G02*
X146839200Y-78387900I0J87900D01*
G01*
G37*
G36*
G01*
X146839200Y-77887900D02*
X146839200Y-77712100D01*
G75*
G02*
X146927100Y-77624200I87900J0D01*
G01*
X147677900Y-77624200D01*
G75*
G02*
X147765800Y-77712100I0J-87900D01*
G01*
X147765800Y-77887900D01*
G75*
G02*
X147677900Y-77975800I-87900J0D01*
G01*
X146927100Y-77975800D01*
G75*
G02*
X146839200Y-77887900I0J87900D01*
G01*
G37*
G36*
G01*
X146839200Y-77387900D02*
X146839200Y-77212100D01*
G75*
G02*
X146927100Y-77124200I87900J0D01*
G01*
X147677900Y-77124200D01*
G75*
G02*
X147765800Y-77212100I0J-87900D01*
G01*
X147765800Y-77387900D01*
G75*
G02*
X147677900Y-77475800I-87900J0D01*
G01*
X146927100Y-77475800D01*
G75*
G02*
X146839200Y-77387900I0J87900D01*
G01*
G37*
G36*
G01*
X146839200Y-76887900D02*
X146839200Y-76712100D01*
G75*
G02*
X146927100Y-76624200I87900J0D01*
G01*
X147677900Y-76624200D01*
G75*
G02*
X147765800Y-76712100I0J-87900D01*
G01*
X147765800Y-76887900D01*
G75*
G02*
X147677900Y-76975800I-87900J0D01*
G01*
X146927100Y-76975800D01*
G75*
G02*
X146839200Y-76887900I0J87900D01*
G01*
G37*
G36*
G01*
X146839200Y-76387900D02*
X146839200Y-76212100D01*
G75*
G02*
X146927100Y-76124200I87900J0D01*
G01*
X147677900Y-76124200D01*
G75*
G02*
X147765800Y-76212100I0J-87900D01*
G01*
X147765800Y-76387900D01*
G75*
G02*
X147677900Y-76475800I-87900J0D01*
G01*
X146927100Y-76475800D01*
G75*
G02*
X146839200Y-76387900I0J87900D01*
G01*
G37*
G36*
G01*
X146414200Y-75962900D02*
X146414200Y-75212100D01*
G75*
G02*
X146502100Y-75124200I87900J0D01*
G01*
X146677900Y-75124200D01*
G75*
G02*
X146765800Y-75212100I0J-87900D01*
G01*
X146765800Y-75962900D01*
G75*
G02*
X146677900Y-76050800I-87900J0D01*
G01*
X146502100Y-76050800D01*
G75*
G02*
X146414200Y-75962900I0J87900D01*
G01*
G37*
G36*
G01*
X145914200Y-75962900D02*
X145914200Y-75212100D01*
G75*
G02*
X146002100Y-75124200I87900J0D01*
G01*
X146177900Y-75124200D01*
G75*
G02*
X146265800Y-75212100I0J-87900D01*
G01*
X146265800Y-75962900D01*
G75*
G02*
X146177900Y-76050800I-87900J0D01*
G01*
X146002100Y-76050800D01*
G75*
G02*
X145914200Y-75962900I0J87900D01*
G01*
G37*
G36*
G01*
X145414200Y-75962900D02*
X145414200Y-75212100D01*
G75*
G02*
X145502100Y-75124200I87900J0D01*
G01*
X145677900Y-75124200D01*
G75*
G02*
X145765800Y-75212100I0J-87900D01*
G01*
X145765800Y-75962900D01*
G75*
G02*
X145677900Y-76050800I-87900J0D01*
G01*
X145502100Y-76050800D01*
G75*
G02*
X145414200Y-75962900I0J87900D01*
G01*
G37*
G36*
G01*
X144914200Y-75962900D02*
X144914200Y-75212100D01*
G75*
G02*
X145002100Y-75124200I87900J0D01*
G01*
X145177900Y-75124200D01*
G75*
G02*
X145265800Y-75212100I0J-87900D01*
G01*
X145265800Y-75962900D01*
G75*
G02*
X145177900Y-76050800I-87900J0D01*
G01*
X145002100Y-76050800D01*
G75*
G02*
X144914200Y-75962900I0J87900D01*
G01*
G37*
G36*
G01*
X144414200Y-75962900D02*
X144414200Y-75212100D01*
G75*
G02*
X144502100Y-75124200I87900J0D01*
G01*
X144677900Y-75124200D01*
G75*
G02*
X144765800Y-75212100I0J-87900D01*
G01*
X144765800Y-75962900D01*
G75*
G02*
X144677900Y-76050800I-87900J0D01*
G01*
X144502100Y-76050800D01*
G75*
G02*
X144414200Y-75962900I0J87900D01*
G01*
G37*
G36*
G01*
X143914200Y-75962900D02*
X143914200Y-75212100D01*
G75*
G02*
X144002100Y-75124200I87900J0D01*
G01*
X144177900Y-75124200D01*
G75*
G02*
X144265800Y-75212100I0J-87900D01*
G01*
X144265800Y-75962900D01*
G75*
G02*
X144177900Y-76050800I-87900J0D01*
G01*
X144002100Y-76050800D01*
G75*
G02*
X143914200Y-75962900I0J87900D01*
G01*
G37*
G36*
G01*
X142914200Y-76387900D02*
X142914200Y-76212100D01*
G75*
G02*
X143002100Y-76124200I87900J0D01*
G01*
X143752900Y-76124200D01*
G75*
G02*
X143840800Y-76212100I0J-87900D01*
G01*
X143840800Y-76387900D01*
G75*
G02*
X143752900Y-76475800I-87900J0D01*
G01*
X143002100Y-76475800D01*
G75*
G02*
X142914200Y-76387900I0J87900D01*
G01*
G37*
G36*
G01*
X142914200Y-76887900D02*
X142914200Y-76712100D01*
G75*
G02*
X143002100Y-76624200I87900J0D01*
G01*
X143752900Y-76624200D01*
G75*
G02*
X143840800Y-76712100I0J-87900D01*
G01*
X143840800Y-76887900D01*
G75*
G02*
X143752900Y-76975800I-87900J0D01*
G01*
X143002100Y-76975800D01*
G75*
G02*
X142914200Y-76887900I0J87900D01*
G01*
G37*
G36*
G01*
X142914200Y-77387900D02*
X142914200Y-77212100D01*
G75*
G02*
X143002100Y-77124200I87900J0D01*
G01*
X143752900Y-77124200D01*
G75*
G02*
X143840800Y-77212100I0J-87900D01*
G01*
X143840800Y-77387900D01*
G75*
G02*
X143752900Y-77475800I-87900J0D01*
G01*
X143002100Y-77475800D01*
G75*
G02*
X142914200Y-77387900I0J87900D01*
G01*
G37*
G36*
G01*
X142914200Y-77887900D02*
X142914200Y-77712100D01*
G75*
G02*
X143002100Y-77624200I87900J0D01*
G01*
X143752900Y-77624200D01*
G75*
G02*
X143840800Y-77712100I0J-87900D01*
G01*
X143840800Y-77887900D01*
G75*
G02*
X143752900Y-77975800I-87900J0D01*
G01*
X143002100Y-77975800D01*
G75*
G02*
X142914200Y-77887900I0J87900D01*
G01*
G37*
G36*
G01*
X142914200Y-78387900D02*
X142914200Y-78212100D01*
G75*
G02*
X143002100Y-78124200I87900J0D01*
G01*
X143752900Y-78124200D01*
G75*
G02*
X143840800Y-78212100I0J-87900D01*
G01*
X143840800Y-78387900D01*
G75*
G02*
X143752900Y-78475800I-87900J0D01*
G01*
X143002100Y-78475800D01*
G75*
G02*
X142914200Y-78387900I0J87900D01*
G01*
G37*
G36*
G01*
X142914200Y-78887900D02*
X142914200Y-78712100D01*
G75*
G02*
X143002100Y-78624200I87900J0D01*
G01*
X143752900Y-78624200D01*
G75*
G02*
X143840800Y-78712100I0J-87900D01*
G01*
X143840800Y-78887900D01*
G75*
G02*
X143752900Y-78975800I-87900J0D01*
G01*
X143002100Y-78975800D01*
G75*
G02*
X142914200Y-78887900I0J87900D01*
G01*
G37*
%TD*%
%TO.C,FB2*%
G36*
G01*
X143630800Y-88688350D02*
X143630800Y-89251650D01*
G75*
G02*
X143386650Y-89495800I-244150J0D01*
G01*
X142898350Y-89495800D01*
G75*
G02*
X142654200Y-89251650I0J244150D01*
G01*
X142654200Y-88688350D01*
G75*
G02*
X142898350Y-88444200I244150J0D01*
G01*
X143386650Y-88444200D01*
G75*
G02*
X143630800Y-88688350I0J-244150D01*
G01*
G37*
G36*
G01*
X145205800Y-88688350D02*
X145205800Y-89251650D01*
G75*
G02*
X144961650Y-89495800I-244150J0D01*
G01*
X144473350Y-89495800D01*
G75*
G02*
X144229200Y-89251650I0J244150D01*
G01*
X144229200Y-88688350D01*
G75*
G02*
X144473350Y-88444200I244150J0D01*
G01*
X144961650Y-88444200D01*
G75*
G02*
X145205800Y-88688350I0J-244150D01*
G01*
G37*
%TD*%
D16*
%TO.C,D6*%
X148560000Y-77710000D03*
X149960000Y-77710000D03*
%TD*%
%TO.C,D5*%
X148670000Y-81900000D03*
X150070000Y-81900000D03*
%TD*%
%TO.C,D1*%
X148960000Y-86060000D03*
X150360000Y-86060000D03*
%TD*%
%TO.C,C28*%
G36*
G01*
X142447900Y-77110800D02*
X142052100Y-77110800D01*
G75*
G02*
X141879200Y-76937900I0J172900D01*
G01*
X141879200Y-76592100D01*
G75*
G02*
X142052100Y-76419200I172900J0D01*
G01*
X142447900Y-76419200D01*
G75*
G02*
X142620800Y-76592100I0J-172900D01*
G01*
X142620800Y-76937900D01*
G75*
G02*
X142447900Y-77110800I-172900J0D01*
G01*
G37*
G36*
G01*
X142447900Y-78080800D02*
X142052100Y-78080800D01*
G75*
G02*
X141879200Y-77907900I0J172900D01*
G01*
X141879200Y-77562100D01*
G75*
G02*
X142052100Y-77389200I172900J0D01*
G01*
X142447900Y-77389200D01*
G75*
G02*
X142620800Y-77562100I0J-172900D01*
G01*
X142620800Y-77907900D01*
G75*
G02*
X142447900Y-78080800I-172900J0D01*
G01*
G37*
%TD*%
%TO.C,C27*%
G36*
G01*
X147269200Y-86930400D02*
X147269200Y-86534600D01*
G75*
G02*
X147442100Y-86361700I172900J0D01*
G01*
X147787900Y-86361700D01*
G75*
G02*
X147960800Y-86534600I0J-172900D01*
G01*
X147960800Y-86930400D01*
G75*
G02*
X147787900Y-87103300I-172900J0D01*
G01*
X147442100Y-87103300D01*
G75*
G02*
X147269200Y-86930400I0J172900D01*
G01*
G37*
G36*
G01*
X146299200Y-86930400D02*
X146299200Y-86534600D01*
G75*
G02*
X146472100Y-86361700I172900J0D01*
G01*
X146817900Y-86361700D01*
G75*
G02*
X146990800Y-86534600I0J-172900D01*
G01*
X146990800Y-86930400D01*
G75*
G02*
X146817900Y-87103300I-172900J0D01*
G01*
X146472100Y-87103300D01*
G75*
G02*
X146299200Y-86930400I0J172900D01*
G01*
G37*
%TD*%
%TO.C,C9*%
G36*
G01*
X145409200Y-87030400D02*
X145409200Y-86634600D01*
G75*
G02*
X145582100Y-86461700I172900J0D01*
G01*
X145927900Y-86461700D01*
G75*
G02*
X146100800Y-86634600I0J-172900D01*
G01*
X146100800Y-87030400D01*
G75*
G02*
X145927900Y-87203300I-172900J0D01*
G01*
X145582100Y-87203300D01*
G75*
G02*
X145409200Y-87030400I0J172900D01*
G01*
G37*
G36*
G01*
X144439200Y-87030400D02*
X144439200Y-86634600D01*
G75*
G02*
X144612100Y-86461700I172900J0D01*
G01*
X144957900Y-86461700D01*
G75*
G02*
X145130800Y-86634600I0J-172900D01*
G01*
X145130800Y-87030400D01*
G75*
G02*
X144957900Y-87203300I-172900J0D01*
G01*
X144612100Y-87203300D01*
G75*
G02*
X144439200Y-87030400I0J172900D01*
G01*
G37*
%TD*%
%TO.C,J8*%
G36*
G01*
X159914440Y-84949200D02*
X162085560Y-84949200D01*
G75*
G02*
X162550800Y-85414440I0J-465240D01*
G01*
X162550800Y-87585560D01*
G75*
G02*
X162085560Y-88050800I-465240J0D01*
G01*
X159914440Y-88050800D01*
G75*
G02*
X159449200Y-87585560I0J465240D01*
G01*
X159449200Y-85414440D01*
G75*
G02*
X159914440Y-84949200I465240J0D01*
G01*
G37*
G36*
G01*
X159914440Y-80949200D02*
X162085560Y-80949200D01*
G75*
G02*
X162550800Y-81414440I0J-465240D01*
G01*
X162550800Y-83585560D01*
G75*
G02*
X162085560Y-84050800I-465240J0D01*
G01*
X159914440Y-84050800D01*
G75*
G02*
X159449200Y-83585560I0J465240D01*
G01*
X159449200Y-81414440D01*
G75*
G02*
X159914440Y-80949200I465240J0D01*
G01*
G37*
G36*
G01*
X159914440Y-76949200D02*
X162085560Y-76949200D01*
G75*
G02*
X162550800Y-77414440I0J-465240D01*
G01*
X162550800Y-79585560D01*
G75*
G02*
X162085560Y-80050800I-465240J0D01*
G01*
X159914440Y-80050800D01*
G75*
G02*
X159449200Y-79585560I0J465240D01*
G01*
X159449200Y-77414440D01*
G75*
G02*
X159914440Y-76949200I465240J0D01*
G01*
G37*
%TD*%
D15*
%TO.C,U10*%
X134660000Y-99450000D03*
G36*
G01*
X136085800Y-97112100D02*
X136085800Y-97862900D01*
G75*
G02*
X135997900Y-97950800I-87900J0D01*
G01*
X135822100Y-97950800D01*
G75*
G02*
X135734200Y-97862900I0J87900D01*
G01*
X135734200Y-97112100D01*
G75*
G02*
X135822100Y-97024200I87900J0D01*
G01*
X135997900Y-97024200D01*
G75*
G02*
X136085800Y-97112100I0J-87900D01*
G01*
G37*
G36*
G01*
X135585800Y-97112100D02*
X135585800Y-97862900D01*
G75*
G02*
X135497900Y-97950800I-87900J0D01*
G01*
X135322100Y-97950800D01*
G75*
G02*
X135234200Y-97862900I0J87900D01*
G01*
X135234200Y-97112100D01*
G75*
G02*
X135322100Y-97024200I87900J0D01*
G01*
X135497900Y-97024200D01*
G75*
G02*
X135585800Y-97112100I0J-87900D01*
G01*
G37*
G36*
G01*
X135085800Y-97112100D02*
X135085800Y-97862900D01*
G75*
G02*
X134997900Y-97950800I-87900J0D01*
G01*
X134822100Y-97950800D01*
G75*
G02*
X134734200Y-97862900I0J87900D01*
G01*
X134734200Y-97112100D01*
G75*
G02*
X134822100Y-97024200I87900J0D01*
G01*
X134997900Y-97024200D01*
G75*
G02*
X135085800Y-97112100I0J-87900D01*
G01*
G37*
G36*
G01*
X134585800Y-97112100D02*
X134585800Y-97862900D01*
G75*
G02*
X134497900Y-97950800I-87900J0D01*
G01*
X134322100Y-97950800D01*
G75*
G02*
X134234200Y-97862900I0J87900D01*
G01*
X134234200Y-97112100D01*
G75*
G02*
X134322100Y-97024200I87900J0D01*
G01*
X134497900Y-97024200D01*
G75*
G02*
X134585800Y-97112100I0J-87900D01*
G01*
G37*
G36*
G01*
X134085800Y-97112100D02*
X134085800Y-97862900D01*
G75*
G02*
X133997900Y-97950800I-87900J0D01*
G01*
X133822100Y-97950800D01*
G75*
G02*
X133734200Y-97862900I0J87900D01*
G01*
X133734200Y-97112100D01*
G75*
G02*
X133822100Y-97024200I87900J0D01*
G01*
X133997900Y-97024200D01*
G75*
G02*
X134085800Y-97112100I0J-87900D01*
G01*
G37*
G36*
G01*
X133585800Y-97112100D02*
X133585800Y-97862900D01*
G75*
G02*
X133497900Y-97950800I-87900J0D01*
G01*
X133322100Y-97950800D01*
G75*
G02*
X133234200Y-97862900I0J87900D01*
G01*
X133234200Y-97112100D01*
G75*
G02*
X133322100Y-97024200I87900J0D01*
G01*
X133497900Y-97024200D01*
G75*
G02*
X133585800Y-97112100I0J-87900D01*
G01*
G37*
G36*
G01*
X133160800Y-98112100D02*
X133160800Y-98287900D01*
G75*
G02*
X133072900Y-98375800I-87900J0D01*
G01*
X132322100Y-98375800D01*
G75*
G02*
X132234200Y-98287900I0J87900D01*
G01*
X132234200Y-98112100D01*
G75*
G02*
X132322100Y-98024200I87900J0D01*
G01*
X133072900Y-98024200D01*
G75*
G02*
X133160800Y-98112100I0J-87900D01*
G01*
G37*
G36*
G01*
X133160800Y-98612100D02*
X133160800Y-98787900D01*
G75*
G02*
X133072900Y-98875800I-87900J0D01*
G01*
X132322100Y-98875800D01*
G75*
G02*
X132234200Y-98787900I0J87900D01*
G01*
X132234200Y-98612100D01*
G75*
G02*
X132322100Y-98524200I87900J0D01*
G01*
X133072900Y-98524200D01*
G75*
G02*
X133160800Y-98612100I0J-87900D01*
G01*
G37*
G36*
G01*
X133160800Y-99112100D02*
X133160800Y-99287900D01*
G75*
G02*
X133072900Y-99375800I-87900J0D01*
G01*
X132322100Y-99375800D01*
G75*
G02*
X132234200Y-99287900I0J87900D01*
G01*
X132234200Y-99112100D01*
G75*
G02*
X132322100Y-99024200I87900J0D01*
G01*
X133072900Y-99024200D01*
G75*
G02*
X133160800Y-99112100I0J-87900D01*
G01*
G37*
G36*
G01*
X133160800Y-99612100D02*
X133160800Y-99787900D01*
G75*
G02*
X133072900Y-99875800I-87900J0D01*
G01*
X132322100Y-99875800D01*
G75*
G02*
X132234200Y-99787900I0J87900D01*
G01*
X132234200Y-99612100D01*
G75*
G02*
X132322100Y-99524200I87900J0D01*
G01*
X133072900Y-99524200D01*
G75*
G02*
X133160800Y-99612100I0J-87900D01*
G01*
G37*
G36*
G01*
X133160800Y-100112100D02*
X133160800Y-100287900D01*
G75*
G02*
X133072900Y-100375800I-87900J0D01*
G01*
X132322100Y-100375800D01*
G75*
G02*
X132234200Y-100287900I0J87900D01*
G01*
X132234200Y-100112100D01*
G75*
G02*
X132322100Y-100024200I87900J0D01*
G01*
X133072900Y-100024200D01*
G75*
G02*
X133160800Y-100112100I0J-87900D01*
G01*
G37*
G36*
G01*
X133160800Y-100612100D02*
X133160800Y-100787900D01*
G75*
G02*
X133072900Y-100875800I-87900J0D01*
G01*
X132322100Y-100875800D01*
G75*
G02*
X132234200Y-100787900I0J87900D01*
G01*
X132234200Y-100612100D01*
G75*
G02*
X132322100Y-100524200I87900J0D01*
G01*
X133072900Y-100524200D01*
G75*
G02*
X133160800Y-100612100I0J-87900D01*
G01*
G37*
G36*
G01*
X133585800Y-101037100D02*
X133585800Y-101787900D01*
G75*
G02*
X133497900Y-101875800I-87900J0D01*
G01*
X133322100Y-101875800D01*
G75*
G02*
X133234200Y-101787900I0J87900D01*
G01*
X133234200Y-101037100D01*
G75*
G02*
X133322100Y-100949200I87900J0D01*
G01*
X133497900Y-100949200D01*
G75*
G02*
X133585800Y-101037100I0J-87900D01*
G01*
G37*
G36*
G01*
X134085800Y-101037100D02*
X134085800Y-101787900D01*
G75*
G02*
X133997900Y-101875800I-87900J0D01*
G01*
X133822100Y-101875800D01*
G75*
G02*
X133734200Y-101787900I0J87900D01*
G01*
X133734200Y-101037100D01*
G75*
G02*
X133822100Y-100949200I87900J0D01*
G01*
X133997900Y-100949200D01*
G75*
G02*
X134085800Y-101037100I0J-87900D01*
G01*
G37*
G36*
G01*
X134585800Y-101037100D02*
X134585800Y-101787900D01*
G75*
G02*
X134497900Y-101875800I-87900J0D01*
G01*
X134322100Y-101875800D01*
G75*
G02*
X134234200Y-101787900I0J87900D01*
G01*
X134234200Y-101037100D01*
G75*
G02*
X134322100Y-100949200I87900J0D01*
G01*
X134497900Y-100949200D01*
G75*
G02*
X134585800Y-101037100I0J-87900D01*
G01*
G37*
G36*
G01*
X135085800Y-101037100D02*
X135085800Y-101787900D01*
G75*
G02*
X134997900Y-101875800I-87900J0D01*
G01*
X134822100Y-101875800D01*
G75*
G02*
X134734200Y-101787900I0J87900D01*
G01*
X134734200Y-101037100D01*
G75*
G02*
X134822100Y-100949200I87900J0D01*
G01*
X134997900Y-100949200D01*
G75*
G02*
X135085800Y-101037100I0J-87900D01*
G01*
G37*
G36*
G01*
X135585800Y-101037100D02*
X135585800Y-101787900D01*
G75*
G02*
X135497900Y-101875800I-87900J0D01*
G01*
X135322100Y-101875800D01*
G75*
G02*
X135234200Y-101787900I0J87900D01*
G01*
X135234200Y-101037100D01*
G75*
G02*
X135322100Y-100949200I87900J0D01*
G01*
X135497900Y-100949200D01*
G75*
G02*
X135585800Y-101037100I0J-87900D01*
G01*
G37*
G36*
G01*
X136085800Y-101037100D02*
X136085800Y-101787900D01*
G75*
G02*
X135997900Y-101875800I-87900J0D01*
G01*
X135822100Y-101875800D01*
G75*
G02*
X135734200Y-101787900I0J87900D01*
G01*
X135734200Y-101037100D01*
G75*
G02*
X135822100Y-100949200I87900J0D01*
G01*
X135997900Y-100949200D01*
G75*
G02*
X136085800Y-101037100I0J-87900D01*
G01*
G37*
G36*
G01*
X137085800Y-100612100D02*
X137085800Y-100787900D01*
G75*
G02*
X136997900Y-100875800I-87900J0D01*
G01*
X136247100Y-100875800D01*
G75*
G02*
X136159200Y-100787900I0J87900D01*
G01*
X136159200Y-100612100D01*
G75*
G02*
X136247100Y-100524200I87900J0D01*
G01*
X136997900Y-100524200D01*
G75*
G02*
X137085800Y-100612100I0J-87900D01*
G01*
G37*
G36*
G01*
X137085800Y-100112100D02*
X137085800Y-100287900D01*
G75*
G02*
X136997900Y-100375800I-87900J0D01*
G01*
X136247100Y-100375800D01*
G75*
G02*
X136159200Y-100287900I0J87900D01*
G01*
X136159200Y-100112100D01*
G75*
G02*
X136247100Y-100024200I87900J0D01*
G01*
X136997900Y-100024200D01*
G75*
G02*
X137085800Y-100112100I0J-87900D01*
G01*
G37*
G36*
G01*
X137085800Y-99612100D02*
X137085800Y-99787900D01*
G75*
G02*
X136997900Y-99875800I-87900J0D01*
G01*
X136247100Y-99875800D01*
G75*
G02*
X136159200Y-99787900I0J87900D01*
G01*
X136159200Y-99612100D01*
G75*
G02*
X136247100Y-99524200I87900J0D01*
G01*
X136997900Y-99524200D01*
G75*
G02*
X137085800Y-99612100I0J-87900D01*
G01*
G37*
G36*
G01*
X137085800Y-99112100D02*
X137085800Y-99287900D01*
G75*
G02*
X136997900Y-99375800I-87900J0D01*
G01*
X136247100Y-99375800D01*
G75*
G02*
X136159200Y-99287900I0J87900D01*
G01*
X136159200Y-99112100D01*
G75*
G02*
X136247100Y-99024200I87900J0D01*
G01*
X136997900Y-99024200D01*
G75*
G02*
X137085800Y-99112100I0J-87900D01*
G01*
G37*
G36*
G01*
X137085800Y-98612100D02*
X137085800Y-98787900D01*
G75*
G02*
X136997900Y-98875800I-87900J0D01*
G01*
X136247100Y-98875800D01*
G75*
G02*
X136159200Y-98787900I0J87900D01*
G01*
X136159200Y-98612100D01*
G75*
G02*
X136247100Y-98524200I87900J0D01*
G01*
X136997900Y-98524200D01*
G75*
G02*
X137085800Y-98612100I0J-87900D01*
G01*
G37*
G36*
G01*
X137085800Y-98112100D02*
X137085800Y-98287900D01*
G75*
G02*
X136997900Y-98375800I-87900J0D01*
G01*
X136247100Y-98375800D01*
G75*
G02*
X136159200Y-98287900I0J87900D01*
G01*
X136159200Y-98112100D01*
G75*
G02*
X136247100Y-98024200I87900J0D01*
G01*
X136997900Y-98024200D01*
G75*
G02*
X137085800Y-98112100I0J-87900D01*
G01*
G37*
%TD*%
%TO.C,FB3*%
G36*
G01*
X136469200Y-88311650D02*
X136469200Y-87748350D01*
G75*
G02*
X136713350Y-87504200I244150J0D01*
G01*
X137201650Y-87504200D01*
G75*
G02*
X137445800Y-87748350I0J-244150D01*
G01*
X137445800Y-88311650D01*
G75*
G02*
X137201650Y-88555800I-244150J0D01*
G01*
X136713350Y-88555800D01*
G75*
G02*
X136469200Y-88311650I0J244150D01*
G01*
G37*
G36*
G01*
X134894200Y-88311650D02*
X134894200Y-87748350D01*
G75*
G02*
X135138350Y-87504200I244150J0D01*
G01*
X135626650Y-87504200D01*
G75*
G02*
X135870800Y-87748350I0J-244150D01*
G01*
X135870800Y-88311650D01*
G75*
G02*
X135626650Y-88555800I-244150J0D01*
G01*
X135138350Y-88555800D01*
G75*
G02*
X134894200Y-88311650I0J244150D01*
G01*
G37*
%TD*%
D16*
%TO.C,D9*%
X131440000Y-99290000D03*
X130040000Y-99290000D03*
%TD*%
%TO.C,D8*%
X131440000Y-95100000D03*
X130040000Y-95100000D03*
%TD*%
%TO.C,D7*%
X131190000Y-90940000D03*
X129790000Y-90940000D03*
%TD*%
%TO.C,C37*%
G36*
G01*
X137552100Y-100129200D02*
X137947900Y-100129200D01*
G75*
G02*
X138120800Y-100302100I0J-172900D01*
G01*
X138120800Y-100647900D01*
G75*
G02*
X137947900Y-100820800I-172900J0D01*
G01*
X137552100Y-100820800D01*
G75*
G02*
X137379200Y-100647900I0J172900D01*
G01*
X137379200Y-100302100D01*
G75*
G02*
X137552100Y-100129200I172900J0D01*
G01*
G37*
G36*
G01*
X137552100Y-99159200D02*
X137947900Y-99159200D01*
G75*
G02*
X138120800Y-99332100I0J-172900D01*
G01*
X138120800Y-99677900D01*
G75*
G02*
X137947900Y-99850800I-172900J0D01*
G01*
X137552100Y-99850800D01*
G75*
G02*
X137379200Y-99677900I0J172900D01*
G01*
X137379200Y-99332100D01*
G75*
G02*
X137552100Y-99159200I172900J0D01*
G01*
G37*
%TD*%
%TO.C,C36*%
G36*
G01*
X133527900Y-89670800D02*
X133132100Y-89670800D01*
G75*
G02*
X132959200Y-89497900I0J172900D01*
G01*
X132959200Y-89152100D01*
G75*
G02*
X133132100Y-88979200I172900J0D01*
G01*
X133527900Y-88979200D01*
G75*
G02*
X133700800Y-89152100I0J-172900D01*
G01*
X133700800Y-89497900D01*
G75*
G02*
X133527900Y-89670800I-172900J0D01*
G01*
G37*
G36*
G01*
X133527900Y-90640800D02*
X133132100Y-90640800D01*
G75*
G02*
X132959200Y-90467900I0J172900D01*
G01*
X132959200Y-90122100D01*
G75*
G02*
X133132100Y-89949200I172900J0D01*
G01*
X133527900Y-89949200D01*
G75*
G02*
X133700800Y-90122100I0J-172900D01*
G01*
X133700800Y-90467900D01*
G75*
G02*
X133527900Y-90640800I-172900J0D01*
G01*
G37*
%TD*%
%TO.C,C35*%
G36*
G01*
X137918366Y-97121507D02*
X137638493Y-96841634D01*
G75*
G02*
X137638493Y-96597116I122259J122259D01*
G01*
X137883010Y-96352599D01*
G75*
G02*
X138127528Y-96352599I122259J-122259D01*
G01*
X138407401Y-96632472D01*
G75*
G02*
X138407401Y-96876990I-122259J-122259D01*
G01*
X138162884Y-97121507D01*
G75*
G02*
X137918366Y-97121507I-122259J122259D01*
G01*
G37*
G36*
G01*
X137232472Y-97807401D02*
X136952599Y-97527528D01*
G75*
G02*
X136952599Y-97283010I122259J122259D01*
G01*
X137197116Y-97038493D01*
G75*
G02*
X137441634Y-97038493I122259J-122259D01*
G01*
X137721507Y-97318366D01*
G75*
G02*
X137721507Y-97562884I-122259J-122259D01*
G01*
X137476990Y-97807401D01*
G75*
G02*
X137232472Y-97807401I-122259J122259D01*
G01*
G37*
%TD*%
%TO.C,C34*%
G36*
G01*
X132587900Y-89670800D02*
X132192100Y-89670800D01*
G75*
G02*
X132019200Y-89497900I0J172900D01*
G01*
X132019200Y-89152100D01*
G75*
G02*
X132192100Y-88979200I172900J0D01*
G01*
X132587900Y-88979200D01*
G75*
G02*
X132760800Y-89152100I0J-172900D01*
G01*
X132760800Y-89497900D01*
G75*
G02*
X132587900Y-89670800I-172900J0D01*
G01*
G37*
G36*
G01*
X132587900Y-90640800D02*
X132192100Y-90640800D01*
G75*
G02*
X132019200Y-90467900I0J172900D01*
G01*
X132019200Y-90122100D01*
G75*
G02*
X132192100Y-89949200I172900J0D01*
G01*
X132587900Y-89949200D01*
G75*
G02*
X132760800Y-90122100I0J-172900D01*
G01*
X132760800Y-90467900D01*
G75*
G02*
X132587900Y-90640800I-172900J0D01*
G01*
G37*
%TD*%
%TO.C,C33*%
G36*
G01*
X134590800Y-89032100D02*
X134590800Y-89427900D01*
G75*
G02*
X134417900Y-89600800I-172900J0D01*
G01*
X134072100Y-89600800D01*
G75*
G02*
X133899200Y-89427900I0J172900D01*
G01*
X133899200Y-89032100D01*
G75*
G02*
X134072100Y-88859200I172900J0D01*
G01*
X134417900Y-88859200D01*
G75*
G02*
X134590800Y-89032100I0J-172900D01*
G01*
G37*
G36*
G01*
X135560800Y-89032100D02*
X135560800Y-89427900D01*
G75*
G02*
X135387900Y-89600800I-172900J0D01*
G01*
X135042100Y-89600800D01*
G75*
G02*
X134869200Y-89427900I0J172900D01*
G01*
X134869200Y-89032100D01*
G75*
G02*
X135042100Y-88859200I172900J0D01*
G01*
X135387900Y-88859200D01*
G75*
G02*
X135560800Y-89032100I0J-172900D01*
G01*
G37*
%TD*%
%TO.C,C32*%
G36*
G01*
X134590800Y-89972100D02*
X134590800Y-90367900D01*
G75*
G02*
X134417900Y-90540800I-172900J0D01*
G01*
X134072100Y-90540800D01*
G75*
G02*
X133899200Y-90367900I0J172900D01*
G01*
X133899200Y-89972100D01*
G75*
G02*
X134072100Y-89799200I172900J0D01*
G01*
X134417900Y-89799200D01*
G75*
G02*
X134590800Y-89972100I0J-172900D01*
G01*
G37*
G36*
G01*
X135560800Y-89972100D02*
X135560800Y-90367900D01*
G75*
G02*
X135387900Y-90540800I-172900J0D01*
G01*
X135042100Y-90540800D01*
G75*
G02*
X134869200Y-90367900I0J172900D01*
G01*
X134869200Y-89972100D01*
G75*
G02*
X135042100Y-89799200I172900J0D01*
G01*
X135387900Y-89799200D01*
G75*
G02*
X135560800Y-89972100I0J-172900D01*
G01*
G37*
%TD*%
D17*
%TO.C,H4*%
X124750000Y-73250000D03*
%TD*%
%TO.C,J1*%
G36*
G01*
X150050800Y-110724600D02*
X150050800Y-115275400D01*
G75*
G02*
X148775400Y-116550800I-1275400J0D01*
G01*
X146224600Y-116550800D01*
G75*
G02*
X144949200Y-115275400I0J1275400D01*
G01*
X144949200Y-110724600D01*
G75*
G02*
X146224600Y-109449200I1275400J0D01*
G01*
X148775400Y-109449200D01*
G75*
G02*
X150050800Y-110724600I0J-1275400D01*
G01*
G37*
G36*
G01*
X135050800Y-110724600D02*
X135050800Y-115275400D01*
G75*
G02*
X133775400Y-116550800I-1275400J0D01*
G01*
X131224600Y-116550800D01*
G75*
G02*
X129949200Y-115275400I0J1275400D01*
G01*
X129949200Y-110724600D01*
G75*
G02*
X131224600Y-109449200I1275400J0D01*
G01*
X133775400Y-109449200D01*
G75*
G02*
X135050800Y-110724600I0J-1275400D01*
G01*
G37*
%TD*%
D11*
%TO.C,J9*%
X133700000Y-63250000D03*
X135100000Y-63250000D03*
X139300000Y-63250000D03*
X136500000Y-63250000D03*
X137900000Y-63250000D03*
X140700000Y-63250000D03*
X142100000Y-63250000D03*
X146300000Y-63250000D03*
X143500000Y-63250000D03*
X144900000Y-63250000D03*
%TD*%
D17*
%TO.C,H3*%
X124750000Y-103750000D03*
%TD*%
%TO.C,H2*%
X155250000Y-73250000D03*
%TD*%
%TO.C,H1*%
X155250000Y-103750000D03*
%TD*%
%TO.C,J11*%
G36*
G01*
X120085560Y-92050800D02*
X117914440Y-92050800D01*
G75*
G02*
X117449200Y-91585560I0J465240D01*
G01*
X117449200Y-89414440D01*
G75*
G02*
X117914440Y-88949200I465240J0D01*
G01*
X120085560Y-88949200D01*
G75*
G02*
X120550800Y-89414440I0J-465240D01*
G01*
X120550800Y-91585560D01*
G75*
G02*
X120085560Y-92050800I-465240J0D01*
G01*
G37*
G36*
G01*
X120085560Y-96050800D02*
X117914440Y-96050800D01*
G75*
G02*
X117449200Y-95585560I0J465240D01*
G01*
X117449200Y-93414440D01*
G75*
G02*
X117914440Y-92949200I465240J0D01*
G01*
X120085560Y-92949200D01*
G75*
G02*
X120550800Y-93414440I0J-465240D01*
G01*
X120550800Y-95585560D01*
G75*
G02*
X120085560Y-96050800I-465240J0D01*
G01*
G37*
G36*
G01*
X120085560Y-100050800D02*
X117914440Y-100050800D01*
G75*
G02*
X117449200Y-99585560I0J465240D01*
G01*
X117449200Y-97414440D01*
G75*
G02*
X117914440Y-96949200I465240J0D01*
G01*
X120085560Y-96949200D01*
G75*
G02*
X120550800Y-97414440I0J-465240D01*
G01*
X120550800Y-99585560D01*
G75*
G02*
X120085560Y-100050800I-465240J0D01*
G01*
G37*
%TD*%
M02*
