%TF.GenerationSoftware,KiCad,Pcbnew,(5.1.6-0-10_14)*%
%TF.CreationDate,2021-04-11T14:49:43-04:00*%
%TF.ProjectId,F051_ESC-4in1-V2,46303531-5f45-4534-932d-34696e312d56,rev?*%
%TF.SameCoordinates,Original*%
%TF.FileFunction,Legend,Bot*%
%TF.FilePolarity,Positive*%
%FSLAX46Y46*%
G04 Gerber Fmt 4.6, Leading zero omitted, Abs format (unit mm)*
G04 Created by KiCad (PCBNEW (5.1.6-0-10_14)) date 2021-04-11 14:49:43*
%MOMM*%
%LPD*%
G01*
G04 APERTURE LIST*
%ADD10C,0.125000*%
%ADD11C,0.075000*%
%ADD12C,0.500000*%
%ADD13C,0.375000*%
%ADD14C,0.120000*%
%ADD15C,0.127000*%
%ADD16C,0.200000*%
G04 APERTURE END LIST*
D10*
X140926190Y-64107142D02*
X140426190Y-64107142D01*
X140926190Y-64392857D01*
X140426190Y-64392857D01*
X140878571Y-64916666D02*
X140902380Y-64892857D01*
X140926190Y-64821428D01*
X140926190Y-64773809D01*
X140902380Y-64702380D01*
X140854761Y-64654761D01*
X140807142Y-64630952D01*
X140711904Y-64607142D01*
X140640476Y-64607142D01*
X140545238Y-64630952D01*
X140497619Y-64654761D01*
X140450000Y-64702380D01*
X140426190Y-64773809D01*
X140426190Y-64821428D01*
X140450000Y-64892857D01*
X140473809Y-64916666D01*
D11*
X141712030Y-78419492D02*
X141732233Y-78419492D01*
X141772639Y-78399289D01*
X141792842Y-78379086D01*
X141813045Y-78338680D01*
X141813045Y-78298274D01*
X141802944Y-78267969D01*
X141772639Y-78217461D01*
X141742335Y-78187157D01*
X141691827Y-78156852D01*
X141661522Y-78146751D01*
X141621116Y-78146751D01*
X141580710Y-78166954D01*
X141560507Y-78187157D01*
X141540304Y-78227563D01*
X141540304Y-78247766D01*
X141540304Y-78631624D02*
X141641319Y-78530609D01*
X141429187Y-78318477D01*
X141469593Y-78702335D02*
X141257461Y-78490203D01*
X141348375Y-78823553D02*
X141318071Y-78611421D01*
X141136243Y-78611421D02*
X141378680Y-78611421D01*
X141505456Y-75842208D02*
X141384238Y-75963426D01*
X141656979Y-76114949D02*
X141444847Y-75902817D01*
X141333730Y-76013933D02*
X141404441Y-76367487D01*
X141192309Y-76155355D02*
X141545862Y-76226066D01*
X141823147Y-77148781D02*
X141611015Y-76936649D01*
X141560507Y-76987157D01*
X141540304Y-77027563D01*
X141540304Y-77067969D01*
X141550406Y-77098274D01*
X141580710Y-77148781D01*
X141611015Y-77179086D01*
X141661522Y-77209390D01*
X141691827Y-77219492D01*
X141732233Y-77219492D01*
X141772639Y-77199289D01*
X141823147Y-77148781D01*
X141611015Y-77360913D02*
X141398883Y-77148781D01*
X141257461Y-77290203D02*
X141217055Y-77330609D01*
X141206954Y-77360913D01*
X141206954Y-77401319D01*
X141237258Y-77451827D01*
X141307969Y-77522538D01*
X141358477Y-77552842D01*
X141398883Y-77552842D01*
X141429187Y-77542741D01*
X141469593Y-77502335D01*
X141479695Y-77472030D01*
X141479695Y-77431624D01*
X141449390Y-77381116D01*
X141378680Y-77310406D01*
X141328172Y-77280101D01*
X141287766Y-77280101D01*
X141257461Y-77290203D01*
X141591319Y-74980609D02*
X141561015Y-74808883D01*
X141712538Y-74859390D02*
X141500406Y-74647258D01*
X141419593Y-74728071D01*
X141409492Y-74758375D01*
X141409492Y-74778578D01*
X141419593Y-74808883D01*
X141449898Y-74839187D01*
X141480203Y-74849289D01*
X141500406Y-74849289D01*
X141530710Y-74839187D01*
X141611522Y-74758375D01*
X141308477Y-74839187D02*
X141379187Y-75192741D01*
X141167055Y-74980609D02*
X141520609Y-75051319D01*
X138375456Y-100752208D02*
X138254238Y-100873426D01*
X138526979Y-101024949D02*
X138314847Y-100812817D01*
X138203730Y-100923933D02*
X138274441Y-101277487D01*
X138062309Y-101065355D02*
X138415862Y-101136066D01*
X138482030Y-98629492D02*
X138502233Y-98629492D01*
X138542639Y-98609289D01*
X138562842Y-98589086D01*
X138583045Y-98548680D01*
X138583045Y-98508274D01*
X138572944Y-98477969D01*
X138542639Y-98427461D01*
X138512335Y-98397157D01*
X138461827Y-98366852D01*
X138431522Y-98356751D01*
X138391116Y-98356751D01*
X138350710Y-98376954D01*
X138330507Y-98397157D01*
X138310304Y-98437563D01*
X138310304Y-98457766D01*
X138310304Y-98841624D02*
X138411319Y-98740609D01*
X138199187Y-98528477D01*
X138239593Y-98912335D02*
X138027461Y-98700203D01*
X138118375Y-99033553D02*
X138088071Y-98821421D01*
X137906243Y-98821421D02*
X138148680Y-98821421D01*
X138461319Y-102290609D02*
X138431015Y-102118883D01*
X138582538Y-102169390D02*
X138370406Y-101957258D01*
X138289593Y-102038071D01*
X138279492Y-102068375D01*
X138279492Y-102088578D01*
X138289593Y-102118883D01*
X138319898Y-102149187D01*
X138350203Y-102159289D01*
X138370406Y-102159289D01*
X138400710Y-102149187D01*
X138481522Y-102068375D01*
X138178477Y-102149187D02*
X138249187Y-102502741D01*
X138037055Y-102290609D02*
X138390609Y-102361319D01*
X138593147Y-99758781D02*
X138381015Y-99546649D01*
X138330507Y-99597157D01*
X138310304Y-99637563D01*
X138310304Y-99677969D01*
X138320406Y-99708274D01*
X138350710Y-99758781D01*
X138381015Y-99789086D01*
X138431522Y-99819390D01*
X138461827Y-99829492D01*
X138502233Y-99829492D01*
X138542639Y-99809289D01*
X138593147Y-99758781D01*
X138381015Y-99970913D02*
X138168883Y-99758781D01*
X138027461Y-99900203D02*
X137987055Y-99940609D01*
X137976954Y-99970913D01*
X137976954Y-100011319D01*
X138007258Y-100061827D01*
X138077969Y-100132538D01*
X138128477Y-100162842D01*
X138168883Y-100162842D01*
X138199187Y-100152741D01*
X138239593Y-100112335D01*
X138249695Y-100082030D01*
X138249695Y-100041624D01*
X138219390Y-99991116D01*
X138148680Y-99920406D01*
X138098172Y-99890101D01*
X138057766Y-99890101D01*
X138027461Y-99900203D01*
X141675456Y-90372208D02*
X141554238Y-90493426D01*
X141826979Y-90644949D02*
X141614847Y-90432817D01*
X141503730Y-90543933D02*
X141574441Y-90897487D01*
X141362309Y-90685355D02*
X141715862Y-90756066D01*
X141882030Y-91749492D02*
X141902233Y-91749492D01*
X141942639Y-91729289D01*
X141962842Y-91709086D01*
X141983045Y-91668680D01*
X141983045Y-91628274D01*
X141972944Y-91597969D01*
X141942639Y-91547461D01*
X141912335Y-91517157D01*
X141861827Y-91486852D01*
X141831522Y-91476751D01*
X141791116Y-91476751D01*
X141750710Y-91496954D01*
X141730507Y-91517157D01*
X141710304Y-91557563D01*
X141710304Y-91577766D01*
X141710304Y-91961624D02*
X141811319Y-91860609D01*
X141599187Y-91648477D01*
X141639593Y-92032335D02*
X141427461Y-91820203D01*
X141518375Y-92153553D02*
X141488071Y-91941421D01*
X141306243Y-91941421D02*
X141548680Y-91941421D01*
X141761319Y-89510609D02*
X141731015Y-89338883D01*
X141882538Y-89389390D02*
X141670406Y-89177258D01*
X141589593Y-89258071D01*
X141579492Y-89288375D01*
X141579492Y-89308578D01*
X141589593Y-89338883D01*
X141619898Y-89369187D01*
X141650203Y-89379289D01*
X141670406Y-89379289D01*
X141700710Y-89369187D01*
X141781522Y-89288375D01*
X141478477Y-89369187D02*
X141549187Y-89722741D01*
X141337055Y-89510609D02*
X141690609Y-89581319D01*
X141993147Y-92878781D02*
X141781015Y-92666649D01*
X141730507Y-92717157D01*
X141710304Y-92757563D01*
X141710304Y-92797969D01*
X141720406Y-92828274D01*
X141750710Y-92878781D01*
X141781015Y-92909086D01*
X141831522Y-92939390D01*
X141861827Y-92949492D01*
X141902233Y-92949492D01*
X141942639Y-92929289D01*
X141993147Y-92878781D01*
X141781015Y-93090913D02*
X141568883Y-92878781D01*
X141427461Y-93020203D02*
X141387055Y-93060609D01*
X141376954Y-93090913D01*
X141376954Y-93131319D01*
X141407258Y-93181827D01*
X141477969Y-93252538D01*
X141528477Y-93282842D01*
X141568883Y-93282842D01*
X141599187Y-93272741D01*
X141639593Y-93232335D01*
X141649695Y-93202030D01*
X141649695Y-93161624D01*
X141619390Y-93111116D01*
X141548680Y-93040406D01*
X141498172Y-93010101D01*
X141457766Y-93010101D01*
X141427461Y-93020203D01*
X138603147Y-83998781D02*
X138391015Y-83786649D01*
X138340507Y-83837157D01*
X138320304Y-83877563D01*
X138320304Y-83917969D01*
X138330406Y-83948274D01*
X138360710Y-83998781D01*
X138391015Y-84029086D01*
X138441522Y-84059390D01*
X138471827Y-84069492D01*
X138512233Y-84069492D01*
X138552639Y-84049289D01*
X138603147Y-83998781D01*
X138391015Y-84210913D02*
X138178883Y-83998781D01*
X138037461Y-84140203D02*
X137997055Y-84180609D01*
X137986954Y-84210913D01*
X137986954Y-84251319D01*
X138017258Y-84301827D01*
X138087969Y-84372538D01*
X138138477Y-84402842D01*
X138178883Y-84402842D01*
X138209187Y-84392741D01*
X138249593Y-84352335D01*
X138259695Y-84322030D01*
X138259695Y-84281624D01*
X138229390Y-84231116D01*
X138158680Y-84160406D01*
X138108172Y-84130101D01*
X138067766Y-84130101D01*
X138037461Y-84140203D01*
X138492030Y-85269492D02*
X138512233Y-85269492D01*
X138552639Y-85249289D01*
X138572842Y-85229086D01*
X138593045Y-85188680D01*
X138593045Y-85148274D01*
X138582944Y-85117969D01*
X138552639Y-85067461D01*
X138522335Y-85037157D01*
X138471827Y-85006852D01*
X138441522Y-84996751D01*
X138401116Y-84996751D01*
X138360710Y-85016954D01*
X138340507Y-85037157D01*
X138320304Y-85077563D01*
X138320304Y-85097766D01*
X138320304Y-85481624D02*
X138421319Y-85380609D01*
X138209187Y-85168477D01*
X138249593Y-85552335D02*
X138037461Y-85340203D01*
X138128375Y-85673553D02*
X138098071Y-85461421D01*
X137916243Y-85461421D02*
X138158680Y-85461421D01*
X138385456Y-86192208D02*
X138264238Y-86313426D01*
X138536979Y-86464949D02*
X138324847Y-86252817D01*
X138213730Y-86363933D02*
X138284441Y-86717487D01*
X138072309Y-86505355D02*
X138425862Y-86576066D01*
D12*
X158921428Y-72345238D02*
X158826190Y-72250000D01*
X158635714Y-72154761D01*
X158159523Y-72154761D01*
X157969047Y-72250000D01*
X157873809Y-72345238D01*
X157778571Y-72535714D01*
X157778571Y-72726190D01*
X157873809Y-73011904D01*
X159016666Y-74154761D01*
X157778571Y-74154761D01*
D11*
X138471319Y-87730609D02*
X138441015Y-87558883D01*
X138592538Y-87609390D02*
X138380406Y-87397258D01*
X138299593Y-87478071D01*
X138289492Y-87508375D01*
X138289492Y-87528578D01*
X138299593Y-87558883D01*
X138329898Y-87589187D01*
X138360203Y-87599289D01*
X138380406Y-87599289D01*
X138410710Y-87589187D01*
X138491522Y-87508375D01*
X138188477Y-87589187D02*
X138259187Y-87942741D01*
X138047055Y-87730609D02*
X138400609Y-87801319D01*
D12*
X121259047Y-72821428D02*
X121259047Y-74154761D01*
X121735238Y-72059523D02*
X122211428Y-73488095D01*
X120973333Y-73488095D01*
X122316666Y-102654761D02*
X121078571Y-102654761D01*
X121745238Y-103416666D01*
X121459523Y-103416666D01*
X121269047Y-103511904D01*
X121173809Y-103607142D01*
X121078571Y-103797619D01*
X121078571Y-104273809D01*
X121173809Y-104464285D01*
X121269047Y-104559523D01*
X121459523Y-104654761D01*
X122030952Y-104654761D01*
X122221428Y-104559523D01*
X122316666Y-104464285D01*
X157778571Y-104654761D02*
X158921428Y-104654761D01*
X158350000Y-104654761D02*
X158350000Y-102654761D01*
X158540476Y-102940476D01*
X158730952Y-103130952D01*
X158921428Y-103226190D01*
D10*
X141850000Y-64369047D02*
X141826190Y-64321428D01*
X141826190Y-64250000D01*
X141850000Y-64178571D01*
X141897619Y-64130952D01*
X141945238Y-64107142D01*
X142040476Y-64083333D01*
X142111904Y-64083333D01*
X142207142Y-64107142D01*
X142254761Y-64130952D01*
X142302380Y-64178571D01*
X142326190Y-64250000D01*
X142326190Y-64297619D01*
X142302380Y-64369047D01*
X142278571Y-64392857D01*
X142111904Y-64392857D01*
X142111904Y-64297619D01*
X142326190Y-64607142D02*
X141826190Y-64607142D01*
X142326190Y-64892857D01*
X141826190Y-64892857D01*
X142326190Y-65130952D02*
X141826190Y-65130952D01*
X141826190Y-65250000D01*
X141850000Y-65321428D01*
X141897619Y-65369047D01*
X141945238Y-65392857D01*
X142040476Y-65416666D01*
X142111904Y-65416666D01*
X142207142Y-65392857D01*
X142254761Y-65369047D01*
X142302380Y-65321428D01*
X142326190Y-65250000D01*
X142326190Y-65130952D01*
X143226190Y-64404761D02*
X143226190Y-64166666D01*
X143464285Y-64142857D01*
X143440476Y-64166666D01*
X143416666Y-64214285D01*
X143416666Y-64333333D01*
X143440476Y-64380952D01*
X143464285Y-64404761D01*
X143511904Y-64428571D01*
X143630952Y-64428571D01*
X143678571Y-64404761D01*
X143702380Y-64380952D01*
X143726190Y-64333333D01*
X143726190Y-64214285D01*
X143702380Y-64166666D01*
X143678571Y-64142857D01*
X143226190Y-64571428D02*
X143726190Y-64738095D01*
X143226190Y-64904761D01*
X133926190Y-64095238D02*
X133426190Y-64095238D01*
X133783333Y-64261904D01*
X133426190Y-64428571D01*
X133926190Y-64428571D01*
X133592857Y-64880952D02*
X133926190Y-64880952D01*
X133402380Y-64761904D02*
X133759523Y-64642857D01*
X133759523Y-64952380D01*
X135326190Y-64095238D02*
X134826190Y-64095238D01*
X135183333Y-64261904D01*
X134826190Y-64428571D01*
X135326190Y-64428571D01*
X134826190Y-64619047D02*
X134826190Y-64928571D01*
X135016666Y-64761904D01*
X135016666Y-64833333D01*
X135040476Y-64880952D01*
X135064285Y-64904761D01*
X135111904Y-64928571D01*
X135230952Y-64928571D01*
X135278571Y-64904761D01*
X135302380Y-64880952D01*
X135326190Y-64833333D01*
X135326190Y-64690476D01*
X135302380Y-64642857D01*
X135278571Y-64619047D01*
X136726190Y-64095238D02*
X136226190Y-64095238D01*
X136583333Y-64261904D01*
X136226190Y-64428571D01*
X136726190Y-64428571D01*
X136273809Y-64642857D02*
X136250000Y-64666666D01*
X136226190Y-64714285D01*
X136226190Y-64833333D01*
X136250000Y-64880952D01*
X136273809Y-64904761D01*
X136321428Y-64928571D01*
X136369047Y-64928571D01*
X136440476Y-64904761D01*
X136726190Y-64619047D01*
X136726190Y-64928571D01*
D13*
X142392857Y-114246071D02*
X142392857Y-112746071D01*
X141892857Y-113817500D01*
X141392857Y-112746071D01*
X141392857Y-114246071D01*
X140678571Y-114246071D02*
X140678571Y-112746071D01*
X139964285Y-114246071D02*
X139964285Y-112746071D01*
X139607142Y-112746071D01*
X139392857Y-112817500D01*
X139250000Y-112960357D01*
X139178571Y-113103214D01*
X139107142Y-113388928D01*
X139107142Y-113603214D01*
X139178571Y-113888928D01*
X139250000Y-114031785D01*
X139392857Y-114174642D01*
X139607142Y-114246071D01*
X139964285Y-114246071D01*
X138464285Y-114246071D02*
X138464285Y-112746071D01*
X137607142Y-114246071D01*
X137607142Y-112746071D01*
X143357142Y-115371071D02*
X143000000Y-116871071D01*
X142714285Y-115799642D01*
X142428571Y-116871071D01*
X142071428Y-115371071D01*
X141214285Y-115371071D02*
X140928571Y-115371071D01*
X140785714Y-115442500D01*
X140642857Y-115585357D01*
X140571428Y-115871071D01*
X140571428Y-116371071D01*
X140642857Y-116656785D01*
X140785714Y-116799642D01*
X140928571Y-116871071D01*
X141214285Y-116871071D01*
X141357142Y-116799642D01*
X141500000Y-116656785D01*
X141571428Y-116371071D01*
X141571428Y-115871071D01*
X141500000Y-115585357D01*
X141357142Y-115442500D01*
X141214285Y-115371071D01*
X139214285Y-116871071D02*
X139928571Y-116871071D01*
X139928571Y-115371071D01*
X138214285Y-116085357D02*
X138714285Y-116085357D01*
X138714285Y-116871071D02*
X138714285Y-115371071D01*
X138000000Y-115371071D01*
X137428571Y-116085357D02*
X136928571Y-116085357D01*
X136714285Y-116871071D02*
X137428571Y-116871071D01*
X137428571Y-115371071D01*
X136714285Y-115371071D01*
X149771700Y-109679822D02*
X150579822Y-108871700D01*
X150579822Y-109679822D02*
X149771700Y-108871700D01*
X129371700Y-109679822D02*
X130179822Y-108871700D01*
D10*
X138126190Y-64095238D02*
X137626190Y-64095238D01*
X137983333Y-64261904D01*
X137626190Y-64428571D01*
X138126190Y-64428571D01*
X138126190Y-64928571D02*
X138126190Y-64642857D01*
X138126190Y-64785714D02*
X137626190Y-64785714D01*
X137697619Y-64738095D01*
X137745238Y-64690476D01*
X137769047Y-64642857D01*
X139478571Y-64392857D02*
X139502380Y-64369047D01*
X139526190Y-64297619D01*
X139526190Y-64250000D01*
X139502380Y-64178571D01*
X139454761Y-64130952D01*
X139407142Y-64107142D01*
X139311904Y-64083333D01*
X139240476Y-64083333D01*
X139145238Y-64107142D01*
X139097619Y-64130952D01*
X139050000Y-64178571D01*
X139026190Y-64250000D01*
X139026190Y-64297619D01*
X139050000Y-64369047D01*
X139073809Y-64392857D01*
X139026190Y-64607142D02*
X139430952Y-64607142D01*
X139478571Y-64630952D01*
X139502380Y-64654761D01*
X139526190Y-64702380D01*
X139526190Y-64797619D01*
X139502380Y-64845238D01*
X139478571Y-64869047D01*
X139430952Y-64892857D01*
X139026190Y-64892857D01*
X139526190Y-65416666D02*
X139288095Y-65250000D01*
X139526190Y-65130952D02*
X139026190Y-65130952D01*
X139026190Y-65321428D01*
X139050000Y-65369047D01*
X139073809Y-65392857D01*
X139121428Y-65416666D01*
X139192857Y-65416666D01*
X139240476Y-65392857D01*
X139264285Y-65369047D01*
X139288095Y-65321428D01*
X139288095Y-65130952D01*
X139526190Y-65916666D02*
X139288095Y-65750000D01*
X139526190Y-65630952D02*
X139026190Y-65630952D01*
X139026190Y-65821428D01*
X139050000Y-65869047D01*
X139073809Y-65892857D01*
X139121428Y-65916666D01*
X139192857Y-65916666D01*
X139240476Y-65892857D01*
X139264285Y-65869047D01*
X139288095Y-65821428D01*
X139288095Y-65630952D01*
X144650000Y-64369047D02*
X144626190Y-64321428D01*
X144626190Y-64250000D01*
X144650000Y-64178571D01*
X144697619Y-64130952D01*
X144745238Y-64107142D01*
X144840476Y-64083333D01*
X144911904Y-64083333D01*
X145007142Y-64107142D01*
X145054761Y-64130952D01*
X145102380Y-64178571D01*
X145126190Y-64250000D01*
X145126190Y-64297619D01*
X145102380Y-64369047D01*
X145078571Y-64392857D01*
X144911904Y-64392857D01*
X144911904Y-64297619D01*
X145126190Y-64607142D02*
X144626190Y-64607142D01*
X145126190Y-64892857D01*
X144626190Y-64892857D01*
X145126190Y-65130952D02*
X144626190Y-65130952D01*
X144626190Y-65250000D01*
X144650000Y-65321428D01*
X144697619Y-65369047D01*
X144745238Y-65392857D01*
X144840476Y-65416666D01*
X144911904Y-65416666D01*
X145007142Y-65392857D01*
X145054761Y-65369047D01*
X145102380Y-65321428D01*
X145126190Y-65250000D01*
X145126190Y-65130952D01*
X146026190Y-64083333D02*
X146526190Y-64250000D01*
X146026190Y-64416666D01*
X146478571Y-64869047D02*
X146502380Y-64845238D01*
X146526190Y-64773809D01*
X146526190Y-64726190D01*
X146502380Y-64654761D01*
X146454761Y-64607142D01*
X146407142Y-64583333D01*
X146311904Y-64559523D01*
X146240476Y-64559523D01*
X146145238Y-64583333D01*
X146097619Y-64607142D01*
X146050000Y-64654761D01*
X146026190Y-64726190D01*
X146026190Y-64773809D01*
X146050000Y-64845238D01*
X146073809Y-64869047D01*
X146478571Y-65369047D02*
X146502380Y-65345238D01*
X146526190Y-65273809D01*
X146526190Y-65226190D01*
X146502380Y-65154761D01*
X146454761Y-65107142D01*
X146407142Y-65083333D01*
X146311904Y-65059523D01*
X146240476Y-65059523D01*
X146145238Y-65083333D01*
X146097619Y-65107142D01*
X146050000Y-65154761D01*
X146026190Y-65226190D01*
X146026190Y-65273809D01*
X146050000Y-65345238D01*
X146073809Y-65369047D01*
D14*
%TO.C,U12*%
X132550000Y-81135000D02*
X132550000Y-81610000D01*
X132550000Y-81610000D02*
X133025000Y-81610000D01*
X137770000Y-76865000D02*
X137770000Y-76390000D01*
X137770000Y-76390000D02*
X137295000Y-76390000D01*
X137770000Y-81135000D02*
X137770000Y-81610000D01*
X137770000Y-81610000D02*
X137295000Y-81610000D01*
X132550000Y-76865000D02*
X132550000Y-76390000D01*
%TO.C,U9*%
X132550000Y-95895000D02*
X132550000Y-96370000D01*
X132550000Y-96370000D02*
X133025000Y-96370000D01*
X137770000Y-91625000D02*
X137770000Y-91150000D01*
X137770000Y-91150000D02*
X137295000Y-91150000D01*
X137770000Y-95895000D02*
X137770000Y-96370000D01*
X137770000Y-96370000D02*
X137295000Y-96370000D01*
X132550000Y-91625000D02*
X132550000Y-91150000D01*
%TO.C,U6*%
X147450000Y-81105000D02*
X147450000Y-80630000D01*
X147450000Y-80630000D02*
X146975000Y-80630000D01*
X142230000Y-85375000D02*
X142230000Y-85850000D01*
X142230000Y-85850000D02*
X142705000Y-85850000D01*
X142230000Y-81105000D02*
X142230000Y-80630000D01*
X142230000Y-80630000D02*
X142705000Y-80630000D01*
X147450000Y-85375000D02*
X147450000Y-85850000D01*
%TO.C,U2*%
X147450000Y-95865000D02*
X147450000Y-95390000D01*
X147450000Y-95390000D02*
X146975000Y-95390000D01*
X142230000Y-100135000D02*
X142230000Y-100610000D01*
X142230000Y-100610000D02*
X142705000Y-100610000D01*
X142230000Y-95865000D02*
X142230000Y-95390000D01*
X142230000Y-95390000D02*
X142705000Y-95390000D01*
X147450000Y-100135000D02*
X147450000Y-100610000D01*
%TO.C,J7*%
X140160000Y-74820000D02*
X140910000Y-74820000D01*
X141560000Y-79820000D02*
X141560000Y-79070000D01*
X140160000Y-74820000D02*
X140160000Y-79820000D01*
X141560000Y-79820000D02*
X140160000Y-79820000D01*
%TO.C,J5*%
X139640000Y-87770000D02*
X138890000Y-87770000D01*
X138240000Y-82770000D02*
X138240000Y-83520000D01*
X139640000Y-87770000D02*
X139640000Y-82770000D01*
X138240000Y-82770000D02*
X139640000Y-82770000D01*
%TO.C,J4*%
X140330000Y-89350000D02*
X141080000Y-89350000D01*
X141730000Y-94350000D02*
X141730000Y-93600000D01*
X140330000Y-89350000D02*
X140330000Y-94350000D01*
X141730000Y-94350000D02*
X140330000Y-94350000D01*
%TO.C,J3*%
X139630000Y-102330000D02*
X138880000Y-102330000D01*
X138230000Y-97330000D02*
X138230000Y-98080000D01*
X139630000Y-102330000D02*
X139630000Y-97330000D01*
X138230000Y-97330000D02*
X139630000Y-97330000D01*
D15*
%TO.C,Q24*%
X127310000Y-88245000D02*
X122310000Y-88245000D01*
X127310000Y-83145000D02*
X122310000Y-83145000D01*
D16*
X128910000Y-83795000D02*
G75*
G03*
X128910000Y-83795000I-100000J0D01*
G01*
D15*
%TO.C,Q22*%
X127310000Y-82660000D02*
X122310000Y-82660000D01*
X127310000Y-77560000D02*
X122310000Y-77560000D01*
D16*
X128910000Y-78210000D02*
G75*
G03*
X128910000Y-78210000I-100000J0D01*
G01*
D15*
%TO.C,Q20*%
X134000000Y-73800000D02*
X129000000Y-73800000D01*
X134000000Y-68700000D02*
X129000000Y-68700000D01*
D16*
X135600000Y-69350000D02*
G75*
G03*
X135600000Y-69350000I-100000J0D01*
G01*
D15*
%TO.C,Q6*%
X152690000Y-88750000D02*
X157690000Y-88750000D01*
X152690000Y-93850000D02*
X157690000Y-93850000D01*
D16*
X151290000Y-93200000D02*
G75*
G03*
X151290000Y-93200000I-100000J0D01*
G01*
D15*
%TO.C,Q4*%
X152690000Y-94340000D02*
X157690000Y-94340000D01*
X152690000Y-99440000D02*
X157690000Y-99440000D01*
D16*
X151290000Y-98790000D02*
G75*
G03*
X151290000Y-98790000I-100000J0D01*
G01*
D15*
%TO.C,Q2*%
X146000000Y-103200000D02*
X151000000Y-103200000D01*
X146000000Y-108300000D02*
X151000000Y-108300000D01*
D16*
X144600000Y-107650000D02*
G75*
G03*
X144600000Y-107650000I-100000J0D01*
G01*
D15*
%TO.C,Q12*%
X146000000Y-68700000D02*
X151000000Y-68700000D01*
X146000000Y-73800000D02*
X151000000Y-73800000D01*
D16*
X144600000Y-73150000D02*
G75*
G03*
X144600000Y-73150000I-100000J0D01*
G01*
D15*
%TO.C,Q10*%
X152690000Y-77560000D02*
X157690000Y-77560000D01*
X152690000Y-82660000D02*
X157690000Y-82660000D01*
D16*
X151290000Y-82010000D02*
G75*
G03*
X151290000Y-82010000I-100000J0D01*
G01*
D15*
%TO.C,Q8*%
X152690000Y-83150000D02*
X157690000Y-83150000D01*
X152690000Y-88250000D02*
X157690000Y-88250000D01*
D16*
X151290000Y-87600000D02*
G75*
G03*
X151290000Y-87600000I-100000J0D01*
G01*
D15*
%TO.C,Q18*%
X134000000Y-108300000D02*
X129000000Y-108300000D01*
X134000000Y-103200000D02*
X129000000Y-103200000D01*
D16*
X135600000Y-103850000D02*
G75*
G03*
X135600000Y-103850000I-100000J0D01*
G01*
D15*
%TO.C,Q16*%
X127310000Y-99440000D02*
X122310000Y-99440000D01*
X127310000Y-94340000D02*
X122310000Y-94340000D01*
D16*
X128910000Y-94990000D02*
G75*
G03*
X128910000Y-94990000I-100000J0D01*
G01*
D15*
%TO.C,Q14*%
X127310000Y-93850000D02*
X122310000Y-93850000D01*
X127310000Y-88750000D02*
X122310000Y-88750000D01*
D16*
X128910000Y-89400000D02*
G75*
G03*
X128910000Y-89400000I-100000J0D01*
G01*
D14*
%TO.C,C44*%
X130760000Y-86547221D02*
X130760000Y-86872779D01*
X131780000Y-86547221D02*
X131780000Y-86872779D01*
%TO.C,C43*%
X130750000Y-82387221D02*
X130750000Y-82712779D01*
X131770000Y-82387221D02*
X131770000Y-82712779D01*
%TO.C,C42*%
X130750000Y-78197221D02*
X130750000Y-78522779D01*
X131770000Y-78197221D02*
X131770000Y-78522779D01*
%TO.C,C6*%
X149240000Y-90452779D02*
X149240000Y-90127221D01*
X148220000Y-90452779D02*
X148220000Y-90127221D01*
%TO.C,C3*%
X149250000Y-94612779D02*
X149250000Y-94287221D01*
X148230000Y-94612779D02*
X148230000Y-94287221D01*
%TO.C,C2*%
X149250000Y-98802779D02*
X149250000Y-98477221D01*
X148230000Y-98802779D02*
X148230000Y-98477221D01*
%TO.C,C29*%
X149250000Y-84142779D02*
X149250000Y-83817221D01*
X148230000Y-84142779D02*
X148230000Y-83817221D01*
%TO.C,C30*%
X149250000Y-79952779D02*
X149250000Y-79627221D01*
X148230000Y-79952779D02*
X148230000Y-79627221D01*
%TO.C,C31*%
X149240000Y-75792779D02*
X149240000Y-75467221D01*
X148220000Y-75792779D02*
X148220000Y-75467221D01*
%TO.C,C40*%
X130760000Y-101207221D02*
X130760000Y-101532779D01*
X131780000Y-101207221D02*
X131780000Y-101532779D01*
%TO.C,C39*%
X130640000Y-97047221D02*
X130640000Y-97372779D01*
X131660000Y-97047221D02*
X131660000Y-97372779D01*
%TO.C,C38*%
X130750000Y-92857221D02*
X130750000Y-93182779D01*
X131770000Y-92857221D02*
X131770000Y-93182779D01*
%TO.C,U11*%
X133025000Y-82680000D02*
X132550000Y-82680000D01*
X132550000Y-82680000D02*
X132550000Y-83155000D01*
X136295000Y-86900000D02*
X136770000Y-86900000D01*
X136770000Y-86900000D02*
X136770000Y-86425000D01*
X133025000Y-86900000D02*
X132550000Y-86900000D01*
X132550000Y-86900000D02*
X132550000Y-86425000D01*
X136295000Y-82680000D02*
X136770000Y-82680000D01*
%TO.C,FB4*%
X136707221Y-73797500D02*
X137032779Y-73797500D01*
X136707221Y-72777500D02*
X137032779Y-72777500D01*
%TO.C,D12*%
X131890000Y-84030000D02*
X131890000Y-85230000D01*
X130040000Y-84030000D02*
X131890000Y-84030000D01*
X130040000Y-85230000D02*
X131890000Y-85230000D01*
%TO.C,D11*%
X131890000Y-79840000D02*
X131890000Y-81040000D01*
X130040000Y-79840000D02*
X131890000Y-79840000D01*
X130040000Y-81040000D02*
X131890000Y-81040000D01*
%TO.C,D10*%
X131640000Y-75680000D02*
X131640000Y-76880000D01*
X129790000Y-75680000D02*
X131640000Y-75680000D01*
X129790000Y-76880000D02*
X131640000Y-76880000D01*
%TO.C,U1*%
X146975000Y-94320000D02*
X147450000Y-94320000D01*
X147450000Y-94320000D02*
X147450000Y-93845000D01*
X143705000Y-90100000D02*
X143230000Y-90100000D01*
X143230000Y-90100000D02*
X143230000Y-90575000D01*
X146975000Y-90100000D02*
X147450000Y-90100000D01*
X147450000Y-90100000D02*
X147450000Y-90575000D01*
X143705000Y-94320000D02*
X143230000Y-94320000D01*
%TO.C,FB1*%
X143292779Y-103202500D02*
X142967221Y-103202500D01*
X143292779Y-104222500D02*
X142967221Y-104222500D01*
%TO.C,D4*%
X148110000Y-92970000D02*
X148110000Y-91770000D01*
X149960000Y-92970000D02*
X148110000Y-92970000D01*
X149960000Y-91770000D02*
X148110000Y-91770000D01*
%TO.C,D3*%
X148110000Y-97160000D02*
X148110000Y-95960000D01*
X149960000Y-97160000D02*
X148110000Y-97160000D01*
X149960000Y-95960000D02*
X148110000Y-95960000D01*
%TO.C,D2*%
X148360000Y-101320000D02*
X148360000Y-100120000D01*
X150210000Y-101320000D02*
X148360000Y-101320000D01*
X150210000Y-100120000D02*
X148360000Y-100120000D01*
%TO.C,U8*%
X146975000Y-79660000D02*
X147450000Y-79660000D01*
X147450000Y-79660000D02*
X147450000Y-79185000D01*
X143705000Y-75440000D02*
X143230000Y-75440000D01*
X143230000Y-75440000D02*
X143230000Y-75915000D01*
X146975000Y-75440000D02*
X147450000Y-75440000D01*
X147450000Y-75440000D02*
X147450000Y-75915000D01*
X143705000Y-79660000D02*
X143230000Y-79660000D01*
%TO.C,FB2*%
X144092779Y-88460000D02*
X143767221Y-88460000D01*
X144092779Y-89480000D02*
X143767221Y-89480000D01*
%TO.C,D6*%
X148110000Y-78310000D02*
X148110000Y-77110000D01*
X149960000Y-78310000D02*
X148110000Y-78310000D01*
X149960000Y-77110000D02*
X148110000Y-77110000D01*
%TO.C,D5*%
X148220000Y-82500000D02*
X148220000Y-81300000D01*
X150070000Y-82500000D02*
X148220000Y-82500000D01*
X150070000Y-81300000D02*
X148220000Y-81300000D01*
%TO.C,D1*%
X148510000Y-86660000D02*
X148510000Y-85460000D01*
X150360000Y-86660000D02*
X148510000Y-86660000D01*
X150360000Y-85460000D02*
X148510000Y-85460000D01*
%TO.C,U10*%
X133025000Y-97340000D02*
X132550000Y-97340000D01*
X132550000Y-97340000D02*
X132550000Y-97815000D01*
X136295000Y-101560000D02*
X136770000Y-101560000D01*
X136770000Y-101560000D02*
X136770000Y-101085000D01*
X133025000Y-101560000D02*
X132550000Y-101560000D01*
X132550000Y-101560000D02*
X132550000Y-101085000D01*
X136295000Y-97340000D02*
X136770000Y-97340000D01*
%TO.C,FB3*%
X136007221Y-88540000D02*
X136332779Y-88540000D01*
X136007221Y-87520000D02*
X136332779Y-87520000D01*
%TO.C,D9*%
X131890000Y-98690000D02*
X131890000Y-99890000D01*
X130040000Y-98690000D02*
X131890000Y-98690000D01*
X130040000Y-99890000D02*
X131890000Y-99890000D01*
%TO.C,D8*%
X131890000Y-94500000D02*
X131890000Y-95700000D01*
X130040000Y-94500000D02*
X131890000Y-94500000D01*
X130040000Y-95700000D02*
X131890000Y-95700000D01*
%TO.C,D7*%
X131640000Y-90340000D02*
X131640000Y-91540000D01*
X129790000Y-90340000D02*
X131640000Y-90340000D01*
X129790000Y-91540000D02*
X131640000Y-91540000D01*
%TD*%
M02*
