%TF.GenerationSoftware,KiCad,Pcbnew,(5.1.6-0-10_14)*%
%TF.CreationDate,2021-04-11T14:49:43-04:00*%
%TF.ProjectId,F051_ESC-4in1-V2,46303531-5f45-4534-932d-34696e312d56,rev?*%
%TF.SameCoordinates,Original*%
%TF.FileFunction,Soldermask,Top*%
%TF.FilePolarity,Negative*%
%FSLAX46Y46*%
G04 Gerber Fmt 4.6, Leading zero omitted, Abs format (unit mm)*
G04 Created by KiCad (PCBNEW (5.1.6-0-10_14)) date 2021-04-11 14:49:43*
%MOMM*%
%LPD*%
G01*
G04 APERTURE LIST*
%ADD10C,0.100000*%
%ADD11R,1.501600X0.671600*%
%ADD12R,0.671600X1.501600*%
%ADD13R,0.991600X2.541600*%
%ADD14R,5.701600X2.541600*%
%ADD15R,3.501600X1.081600*%
%ADD16R,1.551600X0.951600*%
%ADD17R,1.151600X0.951600*%
%ADD18R,3.851600X4.801600*%
%ADD19R,1.801600X2.601600*%
%ADD20R,1.161600X0.751600*%
%ADD21R,0.751600X1.161600*%
%ADD22R,1.201600X1.201600*%
%ADD23C,4.101600*%
G04 APERTURE END LIST*
%TO.C,J2*%
G36*
G01*
X134840800Y-62964932D02*
X134840800Y-64325068D01*
G75*
G02*
X134570068Y-64595800I-270732J0D01*
G01*
X133809932Y-64595800D01*
G75*
G02*
X133539200Y-64325068I0J270732D01*
G01*
X133539200Y-62964932D01*
G75*
G02*
X133809932Y-62694200I270732J0D01*
G01*
X134570068Y-62694200D01*
G75*
G02*
X134840800Y-62964932I0J-270732D01*
G01*
G37*
G36*
G01*
X146440800Y-62964932D02*
X146440800Y-64325068D01*
G75*
G02*
X146170068Y-64595800I-270732J0D01*
G01*
X145409932Y-64595800D01*
G75*
G02*
X145139200Y-64325068I0J270732D01*
G01*
X145139200Y-62964932D01*
G75*
G02*
X145409932Y-62694200I270732J0D01*
G01*
X146170068Y-62694200D01*
G75*
G02*
X146440800Y-62964932I0J-270732D01*
G01*
G37*
G36*
G01*
X135840800Y-66869600D02*
X135840800Y-68170400D01*
G75*
G02*
X135665400Y-68345800I-175400J0D01*
G01*
X135314600Y-68345800D01*
G75*
G02*
X135139200Y-68170400I0J175400D01*
G01*
X135139200Y-66869600D01*
G75*
G02*
X135314600Y-66694200I175400J0D01*
G01*
X135665400Y-66694200D01*
G75*
G02*
X135840800Y-66869600I0J-175400D01*
G01*
G37*
G36*
G01*
X136840800Y-66869600D02*
X136840800Y-68170400D01*
G75*
G02*
X136665400Y-68345800I-175400J0D01*
G01*
X136314600Y-68345800D01*
G75*
G02*
X136139200Y-68170400I0J175400D01*
G01*
X136139200Y-66869600D01*
G75*
G02*
X136314600Y-66694200I175400J0D01*
G01*
X136665400Y-66694200D01*
G75*
G02*
X136840800Y-66869600I0J-175400D01*
G01*
G37*
G36*
G01*
X137840800Y-66869600D02*
X137840800Y-68170400D01*
G75*
G02*
X137665400Y-68345800I-175400J0D01*
G01*
X137314600Y-68345800D01*
G75*
G02*
X137139200Y-68170400I0J175400D01*
G01*
X137139200Y-66869600D01*
G75*
G02*
X137314600Y-66694200I175400J0D01*
G01*
X137665400Y-66694200D01*
G75*
G02*
X137840800Y-66869600I0J-175400D01*
G01*
G37*
G36*
G01*
X138840800Y-66869600D02*
X138840800Y-68170400D01*
G75*
G02*
X138665400Y-68345800I-175400J0D01*
G01*
X138314600Y-68345800D01*
G75*
G02*
X138139200Y-68170400I0J175400D01*
G01*
X138139200Y-66869600D01*
G75*
G02*
X138314600Y-66694200I175400J0D01*
G01*
X138665400Y-66694200D01*
G75*
G02*
X138840800Y-66869600I0J-175400D01*
G01*
G37*
G36*
G01*
X139840800Y-66869600D02*
X139840800Y-68170400D01*
G75*
G02*
X139665400Y-68345800I-175400J0D01*
G01*
X139314600Y-68345800D01*
G75*
G02*
X139139200Y-68170400I0J175400D01*
G01*
X139139200Y-66869600D01*
G75*
G02*
X139314600Y-66694200I175400J0D01*
G01*
X139665400Y-66694200D01*
G75*
G02*
X139840800Y-66869600I0J-175400D01*
G01*
G37*
G36*
G01*
X140840800Y-66869600D02*
X140840800Y-68170400D01*
G75*
G02*
X140665400Y-68345800I-175400J0D01*
G01*
X140314600Y-68345800D01*
G75*
G02*
X140139200Y-68170400I0J175400D01*
G01*
X140139200Y-66869600D01*
G75*
G02*
X140314600Y-66694200I175400J0D01*
G01*
X140665400Y-66694200D01*
G75*
G02*
X140840800Y-66869600I0J-175400D01*
G01*
G37*
G36*
G01*
X141840800Y-66869600D02*
X141840800Y-68170400D01*
G75*
G02*
X141665400Y-68345800I-175400J0D01*
G01*
X141314600Y-68345800D01*
G75*
G02*
X141139200Y-68170400I0J175400D01*
G01*
X141139200Y-66869600D01*
G75*
G02*
X141314600Y-66694200I175400J0D01*
G01*
X141665400Y-66694200D01*
G75*
G02*
X141840800Y-66869600I0J-175400D01*
G01*
G37*
G36*
G01*
X142840800Y-66869600D02*
X142840800Y-68170400D01*
G75*
G02*
X142665400Y-68345800I-175400J0D01*
G01*
X142314600Y-68345800D01*
G75*
G02*
X142139200Y-68170400I0J175400D01*
G01*
X142139200Y-66869600D01*
G75*
G02*
X142314600Y-66694200I175400J0D01*
G01*
X142665400Y-66694200D01*
G75*
G02*
X142840800Y-66869600I0J-175400D01*
G01*
G37*
G36*
G01*
X143840800Y-66869600D02*
X143840800Y-68170400D01*
G75*
G02*
X143665400Y-68345800I-175400J0D01*
G01*
X143314600Y-68345800D01*
G75*
G02*
X143139200Y-68170400I0J175400D01*
G01*
X143139200Y-66869600D01*
G75*
G02*
X143314600Y-66694200I175400J0D01*
G01*
X143665400Y-66694200D01*
G75*
G02*
X143840800Y-66869600I0J-175400D01*
G01*
G37*
G36*
G01*
X144840800Y-66869600D02*
X144840800Y-68170400D01*
G75*
G02*
X144665400Y-68345800I-175400J0D01*
G01*
X144314600Y-68345800D01*
G75*
G02*
X144139200Y-68170400I0J175400D01*
G01*
X144139200Y-66869600D01*
G75*
G02*
X144314600Y-66694200I175400J0D01*
G01*
X144665400Y-66694200D01*
G75*
G02*
X144840800Y-66869600I0J-175400D01*
G01*
G37*
%TD*%
%TO.C,J10*%
G36*
G01*
X120085560Y-80050800D02*
X117914440Y-80050800D01*
G75*
G02*
X117449200Y-79585560I0J465240D01*
G01*
X117449200Y-77414440D01*
G75*
G02*
X117914440Y-76949200I465240J0D01*
G01*
X120085560Y-76949200D01*
G75*
G02*
X120550800Y-77414440I0J-465240D01*
G01*
X120550800Y-79585560D01*
G75*
G02*
X120085560Y-80050800I-465240J0D01*
G01*
G37*
G36*
G01*
X120085560Y-84050800D02*
X117914440Y-84050800D01*
G75*
G02*
X117449200Y-83585560I0J465240D01*
G01*
X117449200Y-81414440D01*
G75*
G02*
X117914440Y-80949200I465240J0D01*
G01*
X120085560Y-80949200D01*
G75*
G02*
X120550800Y-81414440I0J-465240D01*
G01*
X120550800Y-83585560D01*
G75*
G02*
X120085560Y-84050800I-465240J0D01*
G01*
G37*
G36*
G01*
X120085560Y-88050800D02*
X117914440Y-88050800D01*
G75*
G02*
X117449200Y-87585560I0J465240D01*
G01*
X117449200Y-85414440D01*
G75*
G02*
X117914440Y-84949200I465240J0D01*
G01*
X120085560Y-84949200D01*
G75*
G02*
X120550800Y-85414440I0J-465240D01*
G01*
X120550800Y-87585560D01*
G75*
G02*
X120085560Y-88050800I-465240J0D01*
G01*
G37*
%TD*%
%TO.C,J6*%
G36*
G01*
X159914440Y-96949200D02*
X162085560Y-96949200D01*
G75*
G02*
X162550800Y-97414440I0J-465240D01*
G01*
X162550800Y-99585560D01*
G75*
G02*
X162085560Y-100050800I-465240J0D01*
G01*
X159914440Y-100050800D01*
G75*
G02*
X159449200Y-99585560I0J465240D01*
G01*
X159449200Y-97414440D01*
G75*
G02*
X159914440Y-96949200I465240J0D01*
G01*
G37*
G36*
G01*
X159914440Y-92949200D02*
X162085560Y-92949200D01*
G75*
G02*
X162550800Y-93414440I0J-465240D01*
G01*
X162550800Y-95585560D01*
G75*
G02*
X162085560Y-96050800I-465240J0D01*
G01*
X159914440Y-96050800D01*
G75*
G02*
X159449200Y-95585560I0J465240D01*
G01*
X159449200Y-93414440D01*
G75*
G02*
X159914440Y-92949200I465240J0D01*
G01*
G37*
G36*
G01*
X159914440Y-88949200D02*
X162085560Y-88949200D01*
G75*
G02*
X162550800Y-89414440I0J-465240D01*
G01*
X162550800Y-91585560D01*
G75*
G02*
X162085560Y-92050800I-465240J0D01*
G01*
X159914440Y-92050800D01*
G75*
G02*
X159449200Y-91585560I0J465240D01*
G01*
X159449200Y-89414440D01*
G75*
G02*
X159914440Y-88949200I465240J0D01*
G01*
G37*
%TD*%
D10*
%TO.C,U13*%
G36*
X139619824Y-101109911D02*
G01*
X139616933Y-101119440D01*
X139612239Y-101128223D01*
X139605921Y-101135921D01*
X139598223Y-101142239D01*
X139589440Y-101146933D01*
X139579911Y-101149824D01*
X139570000Y-101150800D01*
X137120000Y-101150800D01*
X137110089Y-101149824D01*
X137100560Y-101146933D01*
X137091777Y-101142239D01*
X137084079Y-101135921D01*
X136423958Y-100475800D01*
X135220000Y-100475800D01*
X135210089Y-100474824D01*
X135200560Y-100471933D01*
X135191777Y-100467239D01*
X135184079Y-100460921D01*
X135177761Y-100453223D01*
X135173067Y-100444440D01*
X135170176Y-100434911D01*
X135169200Y-100425000D01*
X135169200Y-99775000D01*
X135170176Y-99765089D01*
X135173067Y-99755560D01*
X135177761Y-99746777D01*
X135184079Y-99739079D01*
X135191777Y-99732761D01*
X135200560Y-99728067D01*
X135210089Y-99725176D01*
X135220000Y-99724200D01*
X136433736Y-99724200D01*
X137083812Y-99064348D01*
X137091463Y-99057973D01*
X137100210Y-99053213D01*
X137109718Y-99050251D01*
X137120000Y-99049200D01*
X139570000Y-99049200D01*
X139579911Y-99050176D01*
X139589440Y-99053067D01*
X139598223Y-99057761D01*
X139605921Y-99064079D01*
X139612239Y-99071777D01*
X139616933Y-99080560D01*
X139619824Y-99090089D01*
X139620800Y-99100000D01*
X139620800Y-101100000D01*
X139619824Y-101109911D01*
G37*
D11*
X135920000Y-101595000D03*
X135920000Y-98605000D03*
%TD*%
D10*
%TO.C,U3*%
G36*
X141450089Y-103149824D02*
G01*
X141440560Y-103146933D01*
X141431777Y-103142239D01*
X141424079Y-103135921D01*
X141417761Y-103128223D01*
X141413067Y-103119440D01*
X141410176Y-103109911D01*
X141409200Y-103100000D01*
X141409200Y-100650000D01*
X141410176Y-100640089D01*
X141413067Y-100630560D01*
X141417761Y-100621777D01*
X141424079Y-100614079D01*
X142084200Y-99953958D01*
X142084200Y-98750000D01*
X142085176Y-98740089D01*
X142088067Y-98730560D01*
X142092761Y-98721777D01*
X142099079Y-98714079D01*
X142106777Y-98707761D01*
X142115560Y-98703067D01*
X142125089Y-98700176D01*
X142135000Y-98699200D01*
X142785000Y-98699200D01*
X142794911Y-98700176D01*
X142804440Y-98703067D01*
X142813223Y-98707761D01*
X142820921Y-98714079D01*
X142827239Y-98721777D01*
X142831933Y-98730560D01*
X142834824Y-98740089D01*
X142835800Y-98750000D01*
X142835800Y-99963736D01*
X143495652Y-100613812D01*
X143502027Y-100621463D01*
X143506787Y-100630210D01*
X143509749Y-100639718D01*
X143510800Y-100650000D01*
X143510800Y-103100000D01*
X143509824Y-103109911D01*
X143506933Y-103119440D01*
X143502239Y-103128223D01*
X143495921Y-103135921D01*
X143488223Y-103142239D01*
X143479440Y-103146933D01*
X143469911Y-103149824D01*
X143460000Y-103150800D01*
X141460000Y-103150800D01*
X141450089Y-103149824D01*
G37*
D12*
X140965000Y-99450000D03*
X143955000Y-99450000D03*
%TD*%
D13*
%TO.C,R1*%
X136750000Y-110520000D03*
X136750000Y-115480000D03*
D14*
X140890000Y-110520000D03*
X140890000Y-115480000D03*
%TD*%
D15*
%TO.C,L1*%
X141580000Y-76725000D03*
X141580000Y-74355000D03*
%TD*%
%TO.C,C55*%
G36*
G01*
X132225800Y-74464520D02*
X132225800Y-75775480D01*
G75*
G02*
X131955480Y-76045800I-270320J0D01*
G01*
X131144520Y-76045800D01*
G75*
G02*
X130874200Y-75775480I0J270320D01*
G01*
X130874200Y-74464520D01*
G75*
G02*
X131144520Y-74194200I270320J0D01*
G01*
X131955480Y-74194200D01*
G75*
G02*
X132225800Y-74464520I0J-270320D01*
G01*
G37*
G36*
G01*
X135025800Y-74464520D02*
X135025800Y-75775480D01*
G75*
G02*
X134755480Y-76045800I-270320J0D01*
G01*
X133944520Y-76045800D01*
G75*
G02*
X133674200Y-75775480I0J270320D01*
G01*
X133674200Y-74464520D01*
G75*
G02*
X133944520Y-74194200I270320J0D01*
G01*
X134755480Y-74194200D01*
G75*
G02*
X135025800Y-74464520I0J-270320D01*
G01*
G37*
%TD*%
%TO.C,C67*%
G36*
G01*
X128994520Y-96764200D02*
X130305480Y-96764200D01*
G75*
G02*
X130575800Y-97034520I0J-270320D01*
G01*
X130575800Y-97845480D01*
G75*
G02*
X130305480Y-98115800I-270320J0D01*
G01*
X128994520Y-98115800D01*
G75*
G02*
X128724200Y-97845480I0J270320D01*
G01*
X128724200Y-97034520D01*
G75*
G02*
X128994520Y-96764200I270320J0D01*
G01*
G37*
G36*
G01*
X128994520Y-93964200D02*
X130305480Y-93964200D01*
G75*
G02*
X130575800Y-94234520I0J-270320D01*
G01*
X130575800Y-95045480D01*
G75*
G02*
X130305480Y-95315800I-270320J0D01*
G01*
X128994520Y-95315800D01*
G75*
G02*
X128724200Y-95045480I0J270320D01*
G01*
X128724200Y-94234520D01*
G75*
G02*
X128994520Y-93964200I270320J0D01*
G01*
G37*
%TD*%
%TO.C,C66*%
G36*
G01*
X147494520Y-86944200D02*
X148805480Y-86944200D01*
G75*
G02*
X149075800Y-87214520I0J-270320D01*
G01*
X149075800Y-88025480D01*
G75*
G02*
X148805480Y-88295800I-270320J0D01*
G01*
X147494520Y-88295800D01*
G75*
G02*
X147224200Y-88025480I0J270320D01*
G01*
X147224200Y-87214520D01*
G75*
G02*
X147494520Y-86944200I270320J0D01*
G01*
G37*
G36*
G01*
X147494520Y-84144200D02*
X148805480Y-84144200D01*
G75*
G02*
X149075800Y-84414520I0J-270320D01*
G01*
X149075800Y-85225480D01*
G75*
G02*
X148805480Y-85495800I-270320J0D01*
G01*
X147494520Y-85495800D01*
G75*
G02*
X147224200Y-85225480I0J270320D01*
G01*
X147224200Y-84414520D01*
G75*
G02*
X147494520Y-84144200I270320J0D01*
G01*
G37*
%TD*%
%TO.C,C65*%
G36*
G01*
X149005480Y-80245800D02*
X147694520Y-80245800D01*
G75*
G02*
X147424200Y-79975480I0J270320D01*
G01*
X147424200Y-79164520D01*
G75*
G02*
X147694520Y-78894200I270320J0D01*
G01*
X149005480Y-78894200D01*
G75*
G02*
X149275800Y-79164520I0J-270320D01*
G01*
X149275800Y-79975480D01*
G75*
G02*
X149005480Y-80245800I-270320J0D01*
G01*
G37*
G36*
G01*
X149005480Y-83045800D02*
X147694520Y-83045800D01*
G75*
G02*
X147424200Y-82775480I0J270320D01*
G01*
X147424200Y-81964520D01*
G75*
G02*
X147694520Y-81694200I270320J0D01*
G01*
X149005480Y-81694200D01*
G75*
G02*
X149275800Y-81964520I0J-270320D01*
G01*
X149275800Y-82775480D01*
G75*
G02*
X149005480Y-83045800I-270320J0D01*
G01*
G37*
%TD*%
%TO.C,C64*%
G36*
G01*
X131134520Y-96764200D02*
X132445480Y-96764200D01*
G75*
G02*
X132715800Y-97034520I0J-270320D01*
G01*
X132715800Y-97845480D01*
G75*
G02*
X132445480Y-98115800I-270320J0D01*
G01*
X131134520Y-98115800D01*
G75*
G02*
X130864200Y-97845480I0J270320D01*
G01*
X130864200Y-97034520D01*
G75*
G02*
X131134520Y-96764200I270320J0D01*
G01*
G37*
G36*
G01*
X131134520Y-93964200D02*
X132445480Y-93964200D01*
G75*
G02*
X132715800Y-94234520I0J-270320D01*
G01*
X132715800Y-95045480D01*
G75*
G02*
X132445480Y-95315800I-270320J0D01*
G01*
X131134520Y-95315800D01*
G75*
G02*
X130864200Y-95045480I0J270320D01*
G01*
X130864200Y-94234520D01*
G75*
G02*
X131134520Y-93964200I270320J0D01*
G01*
G37*
%TD*%
%TO.C,C63*%
G36*
G01*
X132305480Y-90045800D02*
X130994520Y-90045800D01*
G75*
G02*
X130724200Y-89775480I0J270320D01*
G01*
X130724200Y-88964520D01*
G75*
G02*
X130994520Y-88694200I270320J0D01*
G01*
X132305480Y-88694200D01*
G75*
G02*
X132575800Y-88964520I0J-270320D01*
G01*
X132575800Y-89775480D01*
G75*
G02*
X132305480Y-90045800I-270320J0D01*
G01*
G37*
G36*
G01*
X132305480Y-92845800D02*
X130994520Y-92845800D01*
G75*
G02*
X130724200Y-92575480I0J270320D01*
G01*
X130724200Y-91764520D01*
G75*
G02*
X130994520Y-91494200I270320J0D01*
G01*
X132305480Y-91494200D01*
G75*
G02*
X132575800Y-91764520I0J-270320D01*
G01*
X132575800Y-92575480D01*
G75*
G02*
X132305480Y-92845800I-270320J0D01*
G01*
G37*
%TD*%
%TO.C,C62*%
G36*
G01*
X149684520Y-96744200D02*
X150995480Y-96744200D01*
G75*
G02*
X151265800Y-97014520I0J-270320D01*
G01*
X151265800Y-97825480D01*
G75*
G02*
X150995480Y-98095800I-270320J0D01*
G01*
X149684520Y-98095800D01*
G75*
G02*
X149414200Y-97825480I0J270320D01*
G01*
X149414200Y-97014520D01*
G75*
G02*
X149684520Y-96744200I270320J0D01*
G01*
G37*
G36*
G01*
X149684520Y-93944200D02*
X150995480Y-93944200D01*
G75*
G02*
X151265800Y-94214520I0J-270320D01*
G01*
X151265800Y-95025480D01*
G75*
G02*
X150995480Y-95295800I-270320J0D01*
G01*
X149684520Y-95295800D01*
G75*
G02*
X149414200Y-95025480I0J270320D01*
G01*
X149414200Y-94214520D01*
G75*
G02*
X149684520Y-93944200I270320J0D01*
G01*
G37*
%TD*%
%TO.C,C61*%
G36*
G01*
X131965800Y-101224520D02*
X131965800Y-102535480D01*
G75*
G02*
X131695480Y-102805800I-270320J0D01*
G01*
X130884520Y-102805800D01*
G75*
G02*
X130614200Y-102535480I0J270320D01*
G01*
X130614200Y-101224520D01*
G75*
G02*
X130884520Y-100954200I270320J0D01*
G01*
X131695480Y-100954200D01*
G75*
G02*
X131965800Y-101224520I0J-270320D01*
G01*
G37*
G36*
G01*
X134765800Y-101224520D02*
X134765800Y-102535480D01*
G75*
G02*
X134495480Y-102805800I-270320J0D01*
G01*
X133684520Y-102805800D01*
G75*
G02*
X133414200Y-102535480I0J270320D01*
G01*
X133414200Y-101224520D01*
G75*
G02*
X133684520Y-100954200I270320J0D01*
G01*
X134495480Y-100954200D01*
G75*
G02*
X134765800Y-101224520I0J-270320D01*
G01*
G37*
%TD*%
%TO.C,C60*%
G36*
G01*
X148264200Y-102635480D02*
X148264200Y-101324520D01*
G75*
G02*
X148534520Y-101054200I270320J0D01*
G01*
X149345480Y-101054200D01*
G75*
G02*
X149615800Y-101324520I0J-270320D01*
G01*
X149615800Y-102635480D01*
G75*
G02*
X149345480Y-102905800I-270320J0D01*
G01*
X148534520Y-102905800D01*
G75*
G02*
X148264200Y-102635480I0J270320D01*
G01*
G37*
G36*
G01*
X145464200Y-102635480D02*
X145464200Y-101324520D01*
G75*
G02*
X145734520Y-101054200I270320J0D01*
G01*
X146545480Y-101054200D01*
G75*
G02*
X146815800Y-101324520I0J-270320D01*
G01*
X146815800Y-102635480D01*
G75*
G02*
X146545480Y-102905800I-270320J0D01*
G01*
X145734520Y-102905800D01*
G75*
G02*
X145464200Y-102635480I0J270320D01*
G01*
G37*
%TD*%
%TO.C,C59*%
G36*
G01*
X132605480Y-80235800D02*
X131294520Y-80235800D01*
G75*
G02*
X131024200Y-79965480I0J270320D01*
G01*
X131024200Y-79154520D01*
G75*
G02*
X131294520Y-78884200I270320J0D01*
G01*
X132605480Y-78884200D01*
G75*
G02*
X132875800Y-79154520I0J-270320D01*
G01*
X132875800Y-79965480D01*
G75*
G02*
X132605480Y-80235800I-270320J0D01*
G01*
G37*
G36*
G01*
X132605480Y-83035800D02*
X131294520Y-83035800D01*
G75*
G02*
X131024200Y-82765480I0J270320D01*
G01*
X131024200Y-81954520D01*
G75*
G02*
X131294520Y-81684200I270320J0D01*
G01*
X132605480Y-81684200D01*
G75*
G02*
X132875800Y-81954520I0J-270320D01*
G01*
X132875800Y-82765480D01*
G75*
G02*
X132605480Y-83035800I-270320J0D01*
G01*
G37*
%TD*%
%TO.C,C58*%
G36*
G01*
X148264200Y-100175480D02*
X148264200Y-98864520D01*
G75*
G02*
X148534520Y-98594200I270320J0D01*
G01*
X149345480Y-98594200D01*
G75*
G02*
X149615800Y-98864520I0J-270320D01*
G01*
X149615800Y-100175480D01*
G75*
G02*
X149345480Y-100445800I-270320J0D01*
G01*
X148534520Y-100445800D01*
G75*
G02*
X148264200Y-100175480I0J270320D01*
G01*
G37*
G36*
G01*
X145464200Y-100175480D02*
X145464200Y-98864520D01*
G75*
G02*
X145734520Y-98594200I270320J0D01*
G01*
X146545480Y-98594200D01*
G75*
G02*
X146815800Y-98864520I0J-270320D01*
G01*
X146815800Y-100175480D01*
G75*
G02*
X146545480Y-100445800I-270320J0D01*
G01*
X145734520Y-100445800D01*
G75*
G02*
X145464200Y-100175480I0J270320D01*
G01*
G37*
%TD*%
%TO.C,C57*%
G36*
G01*
X130315480Y-80235800D02*
X129004520Y-80235800D01*
G75*
G02*
X128734200Y-79965480I0J270320D01*
G01*
X128734200Y-79154520D01*
G75*
G02*
X129004520Y-78884200I270320J0D01*
G01*
X130315480Y-78884200D01*
G75*
G02*
X130585800Y-79154520I0J-270320D01*
G01*
X130585800Y-79965480D01*
G75*
G02*
X130315480Y-80235800I-270320J0D01*
G01*
G37*
G36*
G01*
X130315480Y-83035800D02*
X129004520Y-83035800D01*
G75*
G02*
X128734200Y-82765480I0J270320D01*
G01*
X128734200Y-81954520D01*
G75*
G02*
X129004520Y-81684200I270320J0D01*
G01*
X130315480Y-81684200D01*
G75*
G02*
X130585800Y-81954520I0J-270320D01*
G01*
X130585800Y-82765480D01*
G75*
G02*
X130315480Y-83035800I-270320J0D01*
G01*
G37*
%TD*%
%TO.C,C56*%
G36*
G01*
X130215480Y-90045800D02*
X128904520Y-90045800D01*
G75*
G02*
X128634200Y-89775480I0J270320D01*
G01*
X128634200Y-88964520D01*
G75*
G02*
X128904520Y-88694200I270320J0D01*
G01*
X130215480Y-88694200D01*
G75*
G02*
X130485800Y-88964520I0J-270320D01*
G01*
X130485800Y-89775480D01*
G75*
G02*
X130215480Y-90045800I-270320J0D01*
G01*
G37*
G36*
G01*
X130215480Y-92845800D02*
X128904520Y-92845800D01*
G75*
G02*
X128634200Y-92575480I0J270320D01*
G01*
X128634200Y-91764520D01*
G75*
G02*
X128904520Y-91494200I270320J0D01*
G01*
X130215480Y-91494200D01*
G75*
G02*
X130485800Y-91764520I0J-270320D01*
G01*
X130485800Y-92575480D01*
G75*
G02*
X130215480Y-92845800I-270320J0D01*
G01*
G37*
%TD*%
%TO.C,C54*%
G36*
G01*
X128964520Y-86984200D02*
X130275480Y-86984200D01*
G75*
G02*
X130545800Y-87254520I0J-270320D01*
G01*
X130545800Y-88065480D01*
G75*
G02*
X130275480Y-88335800I-270320J0D01*
G01*
X128964520Y-88335800D01*
G75*
G02*
X128694200Y-88065480I0J270320D01*
G01*
X128694200Y-87254520D01*
G75*
G02*
X128964520Y-86984200I270320J0D01*
G01*
G37*
G36*
G01*
X128964520Y-84184200D02*
X130275480Y-84184200D01*
G75*
G02*
X130545800Y-84454520I0J-270320D01*
G01*
X130545800Y-85265480D01*
G75*
G02*
X130275480Y-85535800I-270320J0D01*
G01*
X128964520Y-85535800D01*
G75*
G02*
X128694200Y-85265480I0J270320D01*
G01*
X128694200Y-84454520D01*
G75*
G02*
X128964520Y-84184200I270320J0D01*
G01*
G37*
%TD*%
%TO.C,C53*%
G36*
G01*
X131965800Y-98934520D02*
X131965800Y-100245480D01*
G75*
G02*
X131695480Y-100515800I-270320J0D01*
G01*
X130884520Y-100515800D01*
G75*
G02*
X130614200Y-100245480I0J270320D01*
G01*
X130614200Y-98934520D01*
G75*
G02*
X130884520Y-98664200I270320J0D01*
G01*
X131695480Y-98664200D01*
G75*
G02*
X131965800Y-98934520I0J-270320D01*
G01*
G37*
G36*
G01*
X134765800Y-98934520D02*
X134765800Y-100245480D01*
G75*
G02*
X134495480Y-100515800I-270320J0D01*
G01*
X133684520Y-100515800D01*
G75*
G02*
X133414200Y-100245480I0J270320D01*
G01*
X133414200Y-98934520D01*
G75*
G02*
X133684520Y-98664200I270320J0D01*
G01*
X134495480Y-98664200D01*
G75*
G02*
X134765800Y-98934520I0J-270320D01*
G01*
G37*
%TD*%
%TO.C,C52*%
G36*
G01*
X132225800Y-76754520D02*
X132225800Y-78065480D01*
G75*
G02*
X131955480Y-78335800I-270320J0D01*
G01*
X131144520Y-78335800D01*
G75*
G02*
X130874200Y-78065480I0J270320D01*
G01*
X130874200Y-76754520D01*
G75*
G02*
X131144520Y-76484200I270320J0D01*
G01*
X131955480Y-76484200D01*
G75*
G02*
X132225800Y-76754520I0J-270320D01*
G01*
G37*
G36*
G01*
X135025800Y-76754520D02*
X135025800Y-78065480D01*
G75*
G02*
X134755480Y-78335800I-270320J0D01*
G01*
X133944520Y-78335800D01*
G75*
G02*
X133674200Y-78065480I0J270320D01*
G01*
X133674200Y-76754520D01*
G75*
G02*
X133944520Y-76484200I270320J0D01*
G01*
X134755480Y-76484200D01*
G75*
G02*
X135025800Y-76754520I0J-270320D01*
G01*
G37*
%TD*%
%TO.C,C51*%
G36*
G01*
X147394520Y-96744200D02*
X148705480Y-96744200D01*
G75*
G02*
X148975800Y-97014520I0J-270320D01*
G01*
X148975800Y-97825480D01*
G75*
G02*
X148705480Y-98095800I-270320J0D01*
G01*
X147394520Y-98095800D01*
G75*
G02*
X147124200Y-97825480I0J270320D01*
G01*
X147124200Y-97014520D01*
G75*
G02*
X147394520Y-96744200I270320J0D01*
G01*
G37*
G36*
G01*
X147394520Y-93944200D02*
X148705480Y-93944200D01*
G75*
G02*
X148975800Y-94214520I0J-270320D01*
G01*
X148975800Y-95025480D01*
G75*
G02*
X148705480Y-95295800I-270320J0D01*
G01*
X147394520Y-95295800D01*
G75*
G02*
X147124200Y-95025480I0J270320D01*
G01*
X147124200Y-94214520D01*
G75*
G02*
X147394520Y-93944200I270320J0D01*
G01*
G37*
%TD*%
%TO.C,C50*%
G36*
G01*
X131054520Y-86984200D02*
X132365480Y-86984200D01*
G75*
G02*
X132635800Y-87254520I0J-270320D01*
G01*
X132635800Y-88065480D01*
G75*
G02*
X132365480Y-88335800I-270320J0D01*
G01*
X131054520Y-88335800D01*
G75*
G02*
X130784200Y-88065480I0J270320D01*
G01*
X130784200Y-87254520D01*
G75*
G02*
X131054520Y-86984200I270320J0D01*
G01*
G37*
G36*
G01*
X131054520Y-84184200D02*
X132365480Y-84184200D01*
G75*
G02*
X132635800Y-84454520I0J-270320D01*
G01*
X132635800Y-85265480D01*
G75*
G02*
X132365480Y-85535800I-270320J0D01*
G01*
X131054520Y-85535800D01*
G75*
G02*
X130784200Y-85265480I0J270320D01*
G01*
X130784200Y-84454520D01*
G75*
G02*
X131054520Y-84184200I270320J0D01*
G01*
G37*
%TD*%
%TO.C,C21*%
G36*
G01*
X149684520Y-86944200D02*
X150995480Y-86944200D01*
G75*
G02*
X151265800Y-87214520I0J-270320D01*
G01*
X151265800Y-88025480D01*
G75*
G02*
X150995480Y-88295800I-270320J0D01*
G01*
X149684520Y-88295800D01*
G75*
G02*
X149414200Y-88025480I0J270320D01*
G01*
X149414200Y-87214520D01*
G75*
G02*
X149684520Y-86944200I270320J0D01*
G01*
G37*
G36*
G01*
X149684520Y-84144200D02*
X150995480Y-84144200D01*
G75*
G02*
X151265800Y-84414520I0J-270320D01*
G01*
X151265800Y-85225480D01*
G75*
G02*
X150995480Y-85495800I-270320J0D01*
G01*
X149684520Y-85495800D01*
G75*
G02*
X149414200Y-85225480I0J270320D01*
G01*
X149414200Y-84414520D01*
G75*
G02*
X149684520Y-84144200I270320J0D01*
G01*
G37*
%TD*%
%TO.C,C20*%
G36*
G01*
X147784200Y-78065480D02*
X147784200Y-76754520D01*
G75*
G02*
X148054520Y-76484200I270320J0D01*
G01*
X148865480Y-76484200D01*
G75*
G02*
X149135800Y-76754520I0J-270320D01*
G01*
X149135800Y-78065480D01*
G75*
G02*
X148865480Y-78335800I-270320J0D01*
G01*
X148054520Y-78335800D01*
G75*
G02*
X147784200Y-78065480I0J270320D01*
G01*
G37*
G36*
G01*
X144984200Y-78065480D02*
X144984200Y-76754520D01*
G75*
G02*
X145254520Y-76484200I270320J0D01*
G01*
X146065480Y-76484200D01*
G75*
G02*
X146335800Y-76754520I0J-270320D01*
G01*
X146335800Y-78065480D01*
G75*
G02*
X146065480Y-78335800I-270320J0D01*
G01*
X145254520Y-78335800D01*
G75*
G02*
X144984200Y-78065480I0J270320D01*
G01*
G37*
%TD*%
%TO.C,C19*%
G36*
G01*
X151105480Y-90005800D02*
X149794520Y-90005800D01*
G75*
G02*
X149524200Y-89735480I0J270320D01*
G01*
X149524200Y-88924520D01*
G75*
G02*
X149794520Y-88654200I270320J0D01*
G01*
X151105480Y-88654200D01*
G75*
G02*
X151375800Y-88924520I0J-270320D01*
G01*
X151375800Y-89735480D01*
G75*
G02*
X151105480Y-90005800I-270320J0D01*
G01*
G37*
G36*
G01*
X151105480Y-92805800D02*
X149794520Y-92805800D01*
G75*
G02*
X149524200Y-92535480I0J270320D01*
G01*
X149524200Y-91724520D01*
G75*
G02*
X149794520Y-91454200I270320J0D01*
G01*
X151105480Y-91454200D01*
G75*
G02*
X151375800Y-91724520I0J-270320D01*
G01*
X151375800Y-92535480D01*
G75*
G02*
X151105480Y-92805800I-270320J0D01*
G01*
G37*
%TD*%
%TO.C,C18*%
G36*
G01*
X151045480Y-80245800D02*
X149734520Y-80245800D01*
G75*
G02*
X149464200Y-79975480I0J270320D01*
G01*
X149464200Y-79164520D01*
G75*
G02*
X149734520Y-78894200I270320J0D01*
G01*
X151045480Y-78894200D01*
G75*
G02*
X151315800Y-79164520I0J-270320D01*
G01*
X151315800Y-79975480D01*
G75*
G02*
X151045480Y-80245800I-270320J0D01*
G01*
G37*
G36*
G01*
X151045480Y-83045800D02*
X149734520Y-83045800D01*
G75*
G02*
X149464200Y-82775480I0J270320D01*
G01*
X149464200Y-81964520D01*
G75*
G02*
X149734520Y-81694200I270320J0D01*
G01*
X151045480Y-81694200D01*
G75*
G02*
X151315800Y-81964520I0J-270320D01*
G01*
X151315800Y-82775480D01*
G75*
G02*
X151045480Y-83045800I-270320J0D01*
G01*
G37*
%TD*%
%TO.C,C17*%
G36*
G01*
X147784200Y-75775480D02*
X147784200Y-74464520D01*
G75*
G02*
X148054520Y-74194200I270320J0D01*
G01*
X148865480Y-74194200D01*
G75*
G02*
X149135800Y-74464520I0J-270320D01*
G01*
X149135800Y-75775480D01*
G75*
G02*
X148865480Y-76045800I-270320J0D01*
G01*
X148054520Y-76045800D01*
G75*
G02*
X147784200Y-75775480I0J270320D01*
G01*
G37*
G36*
G01*
X144984200Y-75775480D02*
X144984200Y-74464520D01*
G75*
G02*
X145254520Y-74194200I270320J0D01*
G01*
X146065480Y-74194200D01*
G75*
G02*
X146335800Y-74464520I0J-270320D01*
G01*
X146335800Y-75775480D01*
G75*
G02*
X146065480Y-76045800I-270320J0D01*
G01*
X145254520Y-76045800D01*
G75*
G02*
X144984200Y-75775480I0J270320D01*
G01*
G37*
%TD*%
%TO.C,C16*%
G36*
G01*
X148895480Y-90005800D02*
X147584520Y-90005800D01*
G75*
G02*
X147314200Y-89735480I0J270320D01*
G01*
X147314200Y-88924520D01*
G75*
G02*
X147584520Y-88654200I270320J0D01*
G01*
X148895480Y-88654200D01*
G75*
G02*
X149165800Y-88924520I0J-270320D01*
G01*
X149165800Y-89735480D01*
G75*
G02*
X148895480Y-90005800I-270320J0D01*
G01*
G37*
G36*
G01*
X148895480Y-92805800D02*
X147584520Y-92805800D01*
G75*
G02*
X147314200Y-92535480I0J270320D01*
G01*
X147314200Y-91724520D01*
G75*
G02*
X147584520Y-91454200I270320J0D01*
G01*
X148895480Y-91454200D01*
G75*
G02*
X149165800Y-91724520I0J-270320D01*
G01*
X149165800Y-92535480D01*
G75*
G02*
X148895480Y-92805800I-270320J0D01*
G01*
G37*
%TD*%
D16*
%TO.C,Q23*%
X122060000Y-83790000D03*
X122060000Y-85060000D03*
X122060000Y-86330000D03*
X122060000Y-87600000D03*
D17*
X127760000Y-87600000D03*
X127760000Y-86330000D03*
X127760000Y-85060000D03*
X127760000Y-83790000D03*
D18*
X125360000Y-85695000D03*
%TD*%
D16*
%TO.C,Q21*%
X122060000Y-78205000D03*
X122060000Y-79475000D03*
X122060000Y-80745000D03*
X122060000Y-82015000D03*
D17*
X127760000Y-82015000D03*
X127760000Y-80745000D03*
X127760000Y-79475000D03*
X127760000Y-78205000D03*
D18*
X125360000Y-80110000D03*
%TD*%
D16*
%TO.C,Q19*%
X128750000Y-69345000D03*
X128750000Y-70615000D03*
X128750000Y-71885000D03*
X128750000Y-73155000D03*
D17*
X134450000Y-73155000D03*
X134450000Y-71885000D03*
X134450000Y-70615000D03*
X134450000Y-69345000D03*
D18*
X132050000Y-71250000D03*
%TD*%
D16*
%TO.C,Q5*%
X157940000Y-93205000D03*
X157940000Y-91935000D03*
X157940000Y-90665000D03*
X157940000Y-89395000D03*
D17*
X152240000Y-89395000D03*
X152240000Y-90665000D03*
X152240000Y-91935000D03*
X152240000Y-93205000D03*
D18*
X154640000Y-91300000D03*
%TD*%
D16*
%TO.C,Q3*%
X157940000Y-98795000D03*
X157940000Y-97525000D03*
X157940000Y-96255000D03*
X157940000Y-94985000D03*
D17*
X152240000Y-94985000D03*
X152240000Y-96255000D03*
X152240000Y-97525000D03*
X152240000Y-98795000D03*
D18*
X154640000Y-96890000D03*
%TD*%
D16*
%TO.C,Q1*%
X151250000Y-107655000D03*
X151250000Y-106385000D03*
X151250000Y-105115000D03*
X151250000Y-103845000D03*
D17*
X145550000Y-103845000D03*
X145550000Y-105115000D03*
X145550000Y-106385000D03*
X145550000Y-107655000D03*
D18*
X147950000Y-105750000D03*
%TD*%
D16*
%TO.C,Q11*%
X151250000Y-73155000D03*
X151250000Y-71885000D03*
X151250000Y-70615000D03*
X151250000Y-69345000D03*
D17*
X145550000Y-69345000D03*
X145550000Y-70615000D03*
X145550000Y-71885000D03*
X145550000Y-73155000D03*
D18*
X147950000Y-71250000D03*
%TD*%
D16*
%TO.C,Q9*%
X157940000Y-82015000D03*
X157940000Y-80745000D03*
X157940000Y-79475000D03*
X157940000Y-78205000D03*
D17*
X152240000Y-78205000D03*
X152240000Y-79475000D03*
X152240000Y-80745000D03*
X152240000Y-82015000D03*
D18*
X154640000Y-80110000D03*
%TD*%
D16*
%TO.C,Q7*%
X157940000Y-87605000D03*
X157940000Y-86335000D03*
X157940000Y-85065000D03*
X157940000Y-83795000D03*
D17*
X152240000Y-83795000D03*
X152240000Y-85065000D03*
X152240000Y-86335000D03*
X152240000Y-87605000D03*
D18*
X154640000Y-85700000D03*
%TD*%
D16*
%TO.C,Q17*%
X128750000Y-103845000D03*
X128750000Y-105115000D03*
X128750000Y-106385000D03*
X128750000Y-107655000D03*
D17*
X134450000Y-107655000D03*
X134450000Y-106385000D03*
X134450000Y-105115000D03*
X134450000Y-103845000D03*
D18*
X132050000Y-105750000D03*
%TD*%
D16*
%TO.C,Q15*%
X122060000Y-94985000D03*
X122060000Y-96255000D03*
X122060000Y-97525000D03*
X122060000Y-98795000D03*
D17*
X127760000Y-98795000D03*
X127760000Y-97525000D03*
X127760000Y-96255000D03*
X127760000Y-94985000D03*
D18*
X125360000Y-96890000D03*
%TD*%
D16*
%TO.C,Q13*%
X122060000Y-89395000D03*
X122060000Y-90665000D03*
X122060000Y-91935000D03*
X122060000Y-93205000D03*
D17*
X127760000Y-93205000D03*
X127760000Y-91935000D03*
X127760000Y-90665000D03*
X127760000Y-89395000D03*
D18*
X125360000Y-91300000D03*
%TD*%
%TO.C,C73*%
G36*
G01*
X136413300Y-72628350D02*
X136413300Y-73191650D01*
G75*
G02*
X136169150Y-73435800I-244150J0D01*
G01*
X135680850Y-73435800D01*
G75*
G02*
X135436700Y-73191650I0J244150D01*
G01*
X135436700Y-72628350D01*
G75*
G02*
X135680850Y-72384200I244150J0D01*
G01*
X136169150Y-72384200D01*
G75*
G02*
X136413300Y-72628350I0J-244150D01*
G01*
G37*
G36*
G01*
X137988300Y-72628350D02*
X137988300Y-73191650D01*
G75*
G02*
X137744150Y-73435800I-244150J0D01*
G01*
X137255850Y-73435800D01*
G75*
G02*
X137011700Y-73191650I0J244150D01*
G01*
X137011700Y-72628350D01*
G75*
G02*
X137255850Y-72384200I244150J0D01*
G01*
X137744150Y-72384200D01*
G75*
G02*
X137988300Y-72628350I0J-244150D01*
G01*
G37*
%TD*%
%TO.C,C72*%
G36*
G01*
X136410800Y-71168350D02*
X136410800Y-71731650D01*
G75*
G02*
X136166650Y-71975800I-244150J0D01*
G01*
X135678350Y-71975800D01*
G75*
G02*
X135434200Y-71731650I0J244150D01*
G01*
X135434200Y-71168350D01*
G75*
G02*
X135678350Y-70924200I244150J0D01*
G01*
X136166650Y-70924200D01*
G75*
G02*
X136410800Y-71168350I0J-244150D01*
G01*
G37*
G36*
G01*
X137985800Y-71168350D02*
X137985800Y-71731650D01*
G75*
G02*
X137741650Y-71975800I-244150J0D01*
G01*
X137253350Y-71975800D01*
G75*
G02*
X137009200Y-71731650I0J244150D01*
G01*
X137009200Y-71168350D01*
G75*
G02*
X137253350Y-70924200I244150J0D01*
G01*
X137741650Y-70924200D01*
G75*
G02*
X137985800Y-71168350I0J-244150D01*
G01*
G37*
%TD*%
%TO.C,C71*%
G36*
G01*
X137803300Y-77378350D02*
X137803300Y-77941650D01*
G75*
G02*
X137559150Y-78185800I-244150J0D01*
G01*
X137070850Y-78185800D01*
G75*
G02*
X136826700Y-77941650I0J244150D01*
G01*
X136826700Y-77378350D01*
G75*
G02*
X137070850Y-77134200I244150J0D01*
G01*
X137559150Y-77134200D01*
G75*
G02*
X137803300Y-77378350I0J-244150D01*
G01*
G37*
G36*
G01*
X139378300Y-77378350D02*
X139378300Y-77941650D01*
G75*
G02*
X139134150Y-78185800I-244150J0D01*
G01*
X138645850Y-78185800D01*
G75*
G02*
X138401700Y-77941650I0J244150D01*
G01*
X138401700Y-77378350D01*
G75*
G02*
X138645850Y-77134200I244150J0D01*
G01*
X139134150Y-77134200D01*
G75*
G02*
X139378300Y-77378350I0J-244150D01*
G01*
G37*
%TD*%
%TO.C,C69*%
G36*
G01*
X136999200Y-97101650D02*
X136999200Y-96538350D01*
G75*
G02*
X137243350Y-96294200I244150J0D01*
G01*
X137731650Y-96294200D01*
G75*
G02*
X137975800Y-96538350I0J-244150D01*
G01*
X137975800Y-97101650D01*
G75*
G02*
X137731650Y-97345800I-244150J0D01*
G01*
X137243350Y-97345800D01*
G75*
G02*
X136999200Y-97101650I0J244150D01*
G01*
G37*
G36*
G01*
X135424200Y-97101650D02*
X135424200Y-96538350D01*
G75*
G02*
X135668350Y-96294200I244150J0D01*
G01*
X136156650Y-96294200D01*
G75*
G02*
X136400800Y-96538350I0J-244150D01*
G01*
X136400800Y-97101650D01*
G75*
G02*
X136156650Y-97345800I-244150J0D01*
G01*
X135668350Y-97345800D01*
G75*
G02*
X135424200Y-97101650I0J244150D01*
G01*
G37*
%TD*%
%TO.C,C68*%
G36*
G01*
X136999200Y-103611650D02*
X136999200Y-103048350D01*
G75*
G02*
X137243350Y-102804200I244150J0D01*
G01*
X137731650Y-102804200D01*
G75*
G02*
X137975800Y-103048350I0J-244150D01*
G01*
X137975800Y-103611650D01*
G75*
G02*
X137731650Y-103855800I-244150J0D01*
G01*
X137243350Y-103855800D01*
G75*
G02*
X136999200Y-103611650I0J244150D01*
G01*
G37*
G36*
G01*
X135424200Y-103611650D02*
X135424200Y-103048350D01*
G75*
G02*
X135668350Y-102804200I244150J0D01*
G01*
X136156650Y-102804200D01*
G75*
G02*
X136400800Y-103048350I0J-244150D01*
G01*
X136400800Y-103611650D01*
G75*
G02*
X136156650Y-103855800I-244150J0D01*
G01*
X135668350Y-103855800D01*
G75*
G02*
X135424200Y-103611650I0J244150D01*
G01*
G37*
%TD*%
%TO.C,C24*%
G36*
G01*
X144191650Y-79613300D02*
X143628350Y-79613300D01*
G75*
G02*
X143384200Y-79369150I0J244150D01*
G01*
X143384200Y-78880850D01*
G75*
G02*
X143628350Y-78636700I244150J0D01*
G01*
X144191650Y-78636700D01*
G75*
G02*
X144435800Y-78880850I0J-244150D01*
G01*
X144435800Y-79369150D01*
G75*
G02*
X144191650Y-79613300I-244150J0D01*
G01*
G37*
G36*
G01*
X144191650Y-81188300D02*
X143628350Y-81188300D01*
G75*
G02*
X143384200Y-80944150I0J244150D01*
G01*
X143384200Y-80455850D01*
G75*
G02*
X143628350Y-80211700I244150J0D01*
G01*
X144191650Y-80211700D01*
G75*
G02*
X144435800Y-80455850I0J-244150D01*
G01*
X144435800Y-80944150D01*
G75*
G02*
X144191650Y-81188300I-244150J0D01*
G01*
G37*
%TD*%
%TO.C,C5*%
G36*
G01*
X143589200Y-98051650D02*
X143589200Y-97488350D01*
G75*
G02*
X143833350Y-97244200I244150J0D01*
G01*
X144321650Y-97244200D01*
G75*
G02*
X144565800Y-97488350I0J-244150D01*
G01*
X144565800Y-98051650D01*
G75*
G02*
X144321650Y-98295800I-244150J0D01*
G01*
X143833350Y-98295800D01*
G75*
G02*
X143589200Y-98051650I0J244150D01*
G01*
G37*
G36*
G01*
X142014200Y-98051650D02*
X142014200Y-97488350D01*
G75*
G02*
X142258350Y-97244200I244150J0D01*
G01*
X142746650Y-97244200D01*
G75*
G02*
X142990800Y-97488350I0J-244150D01*
G01*
X142990800Y-98051650D01*
G75*
G02*
X142746650Y-98295800I-244150J0D01*
G01*
X142258350Y-98295800D01*
G75*
G02*
X142014200Y-98051650I0J244150D01*
G01*
G37*
%TD*%
%TO.C,C4*%
G36*
G01*
X139410800Y-96538350D02*
X139410800Y-97101650D01*
G75*
G02*
X139166650Y-97345800I-244150J0D01*
G01*
X138678350Y-97345800D01*
G75*
G02*
X138434200Y-97101650I0J244150D01*
G01*
X138434200Y-96538350D01*
G75*
G02*
X138678350Y-96294200I244150J0D01*
G01*
X139166650Y-96294200D01*
G75*
G02*
X139410800Y-96538350I0J-244150D01*
G01*
G37*
G36*
G01*
X140985800Y-96538350D02*
X140985800Y-97101650D01*
G75*
G02*
X140741650Y-97345800I-244150J0D01*
G01*
X140253350Y-97345800D01*
G75*
G02*
X140009200Y-97101650I0J244150D01*
G01*
X140009200Y-96538350D01*
G75*
G02*
X140253350Y-96294200I244150J0D01*
G01*
X140741650Y-96294200D01*
G75*
G02*
X140985800Y-96538350I0J-244150D01*
G01*
G37*
%TD*%
%TO.C,R77*%
G36*
G01*
X143752100Y-73769200D02*
X144147900Y-73769200D01*
G75*
G02*
X144320800Y-73942100I0J-172900D01*
G01*
X144320800Y-74287900D01*
G75*
G02*
X144147900Y-74460800I-172900J0D01*
G01*
X143752100Y-74460800D01*
G75*
G02*
X143579200Y-74287900I0J172900D01*
G01*
X143579200Y-73942100D01*
G75*
G02*
X143752100Y-73769200I172900J0D01*
G01*
G37*
G36*
G01*
X143752100Y-72799200D02*
X144147900Y-72799200D01*
G75*
G02*
X144320800Y-72972100I0J-172900D01*
G01*
X144320800Y-73317900D01*
G75*
G02*
X144147900Y-73490800I-172900J0D01*
G01*
X143752100Y-73490800D01*
G75*
G02*
X143579200Y-73317900I0J172900D01*
G01*
X143579200Y-72972100D01*
G75*
G02*
X143752100Y-72799200I172900J0D01*
G01*
G37*
%TD*%
%TO.C,R76*%
G36*
G01*
X137120800Y-70052100D02*
X137120800Y-70447900D01*
G75*
G02*
X136947900Y-70620800I-172900J0D01*
G01*
X136602100Y-70620800D01*
G75*
G02*
X136429200Y-70447900I0J172900D01*
G01*
X136429200Y-70052100D01*
G75*
G02*
X136602100Y-69879200I172900J0D01*
G01*
X136947900Y-69879200D01*
G75*
G02*
X137120800Y-70052100I0J-172900D01*
G01*
G37*
G36*
G01*
X138090800Y-70052100D02*
X138090800Y-70447900D01*
G75*
G02*
X137917900Y-70620800I-172900J0D01*
G01*
X137572100Y-70620800D01*
G75*
G02*
X137399200Y-70447900I0J172900D01*
G01*
X137399200Y-70052100D01*
G75*
G02*
X137572100Y-69879200I172900J0D01*
G01*
X137917900Y-69879200D01*
G75*
G02*
X138090800Y-70052100I0J-172900D01*
G01*
G37*
%TD*%
%TO.C,R74*%
G36*
G01*
X141360800Y-69472100D02*
X141360800Y-69867900D01*
G75*
G02*
X141187900Y-70040800I-172900J0D01*
G01*
X140842100Y-70040800D01*
G75*
G02*
X140669200Y-69867900I0J172900D01*
G01*
X140669200Y-69472100D01*
G75*
G02*
X140842100Y-69299200I172900J0D01*
G01*
X141187900Y-69299200D01*
G75*
G02*
X141360800Y-69472100I0J-172900D01*
G01*
G37*
G36*
G01*
X142330800Y-69472100D02*
X142330800Y-69867900D01*
G75*
G02*
X142157900Y-70040800I-172900J0D01*
G01*
X141812100Y-70040800D01*
G75*
G02*
X141639200Y-69867900I0J172900D01*
G01*
X141639200Y-69472100D01*
G75*
G02*
X141812100Y-69299200I172900J0D01*
G01*
X142157900Y-69299200D01*
G75*
G02*
X142330800Y-69472100I0J-172900D01*
G01*
G37*
%TD*%
%TO.C,R73*%
G36*
G01*
X143220800Y-70152100D02*
X143220800Y-70547900D01*
G75*
G02*
X143047900Y-70720800I-172900J0D01*
G01*
X142702100Y-70720800D01*
G75*
G02*
X142529200Y-70547900I0J172900D01*
G01*
X142529200Y-70152100D01*
G75*
G02*
X142702100Y-69979200I172900J0D01*
G01*
X143047900Y-69979200D01*
G75*
G02*
X143220800Y-70152100I0J-172900D01*
G01*
G37*
G36*
G01*
X144190800Y-70152100D02*
X144190800Y-70547900D01*
G75*
G02*
X144017900Y-70720800I-172900J0D01*
G01*
X143672100Y-70720800D01*
G75*
G02*
X143499200Y-70547900I0J172900D01*
G01*
X143499200Y-70152100D01*
G75*
G02*
X143672100Y-69979200I172900J0D01*
G01*
X144017900Y-69979200D01*
G75*
G02*
X144190800Y-70152100I0J-172900D01*
G01*
G37*
%TD*%
%TO.C,R3*%
G36*
G01*
X142929200Y-104927900D02*
X142929200Y-104532100D01*
G75*
G02*
X143102100Y-104359200I172900J0D01*
G01*
X143447900Y-104359200D01*
G75*
G02*
X143620800Y-104532100I0J-172900D01*
G01*
X143620800Y-104927900D01*
G75*
G02*
X143447900Y-105100800I-172900J0D01*
G01*
X143102100Y-105100800D01*
G75*
G02*
X142929200Y-104927900I0J172900D01*
G01*
G37*
G36*
G01*
X141959200Y-104927900D02*
X141959200Y-104532100D01*
G75*
G02*
X142132100Y-104359200I172900J0D01*
G01*
X142477900Y-104359200D01*
G75*
G02*
X142650800Y-104532100I0J-172900D01*
G01*
X142650800Y-104927900D01*
G75*
G02*
X142477900Y-105100800I-172900J0D01*
G01*
X142132100Y-105100800D01*
G75*
G02*
X141959200Y-104927900I0J172900D01*
G01*
G37*
%TD*%
%TO.C,R2*%
G36*
G01*
X138930800Y-104332100D02*
X138930800Y-104727900D01*
G75*
G02*
X138757900Y-104900800I-172900J0D01*
G01*
X138412100Y-104900800D01*
G75*
G02*
X138239200Y-104727900I0J172900D01*
G01*
X138239200Y-104332100D01*
G75*
G02*
X138412100Y-104159200I172900J0D01*
G01*
X138757900Y-104159200D01*
G75*
G02*
X138930800Y-104332100I0J-172900D01*
G01*
G37*
G36*
G01*
X139900800Y-104332100D02*
X139900800Y-104727900D01*
G75*
G02*
X139727900Y-104900800I-172900J0D01*
G01*
X139382100Y-104900800D01*
G75*
G02*
X139209200Y-104727900I0J172900D01*
G01*
X139209200Y-104332100D01*
G75*
G02*
X139382100Y-104159200I172900J0D01*
G01*
X139727900Y-104159200D01*
G75*
G02*
X139900800Y-104332100I0J-172900D01*
G01*
G37*
%TD*%
%TO.C,J8*%
G36*
G01*
X159914440Y-84949200D02*
X162085560Y-84949200D01*
G75*
G02*
X162550800Y-85414440I0J-465240D01*
G01*
X162550800Y-87585560D01*
G75*
G02*
X162085560Y-88050800I-465240J0D01*
G01*
X159914440Y-88050800D01*
G75*
G02*
X159449200Y-87585560I0J465240D01*
G01*
X159449200Y-85414440D01*
G75*
G02*
X159914440Y-84949200I465240J0D01*
G01*
G37*
G36*
G01*
X159914440Y-80949200D02*
X162085560Y-80949200D01*
G75*
G02*
X162550800Y-81414440I0J-465240D01*
G01*
X162550800Y-83585560D01*
G75*
G02*
X162085560Y-84050800I-465240J0D01*
G01*
X159914440Y-84050800D01*
G75*
G02*
X159449200Y-83585560I0J465240D01*
G01*
X159449200Y-81414440D01*
G75*
G02*
X159914440Y-80949200I465240J0D01*
G01*
G37*
G36*
G01*
X159914440Y-76949200D02*
X162085560Y-76949200D01*
G75*
G02*
X162550800Y-77414440I0J-465240D01*
G01*
X162550800Y-79585560D01*
G75*
G02*
X162085560Y-80050800I-465240J0D01*
G01*
X159914440Y-80050800D01*
G75*
G02*
X159449200Y-79585560I0J465240D01*
G01*
X159449200Y-77414440D01*
G75*
G02*
X159914440Y-76949200I465240J0D01*
G01*
G37*
%TD*%
%TO.C,C70*%
G36*
G01*
X138510800Y-73912100D02*
X138510800Y-74307900D01*
G75*
G02*
X138337900Y-74480800I-172900J0D01*
G01*
X137992100Y-74480800D01*
G75*
G02*
X137819200Y-74307900I0J172900D01*
G01*
X137819200Y-73912100D01*
G75*
G02*
X137992100Y-73739200I172900J0D01*
G01*
X138337900Y-73739200D01*
G75*
G02*
X138510800Y-73912100I0J-172900D01*
G01*
G37*
G36*
G01*
X139480800Y-73912100D02*
X139480800Y-74307900D01*
G75*
G02*
X139307900Y-74480800I-172900J0D01*
G01*
X138962100Y-74480800D01*
G75*
G02*
X138789200Y-74307900I0J172900D01*
G01*
X138789200Y-73912100D01*
G75*
G02*
X138962100Y-73739200I172900J0D01*
G01*
X139307900Y-73739200D01*
G75*
G02*
X139480800Y-73912100I0J-172900D01*
G01*
G37*
%TD*%
D19*
%TO.C,U14*%
X140310000Y-71890000D03*
G36*
G01*
X139310800Y-72802100D02*
X139310800Y-72977900D01*
G75*
G02*
X139222900Y-73065800I-87900J0D01*
G01*
X138472100Y-73065800D01*
G75*
G02*
X138384200Y-72977900I0J87900D01*
G01*
X138384200Y-72802100D01*
G75*
G02*
X138472100Y-72714200I87900J0D01*
G01*
X139222900Y-72714200D01*
G75*
G02*
X139310800Y-72802100I0J-87900D01*
G01*
G37*
G36*
G01*
X139310800Y-72302100D02*
X139310800Y-72477900D01*
G75*
G02*
X139222900Y-72565800I-87900J0D01*
G01*
X138472100Y-72565800D01*
G75*
G02*
X138384200Y-72477900I0J87900D01*
G01*
X138384200Y-72302100D01*
G75*
G02*
X138472100Y-72214200I87900J0D01*
G01*
X139222900Y-72214200D01*
G75*
G02*
X139310800Y-72302100I0J-87900D01*
G01*
G37*
G36*
G01*
X139310800Y-71802100D02*
X139310800Y-71977900D01*
G75*
G02*
X139222900Y-72065800I-87900J0D01*
G01*
X138472100Y-72065800D01*
G75*
G02*
X138384200Y-71977900I0J87900D01*
G01*
X138384200Y-71802100D01*
G75*
G02*
X138472100Y-71714200I87900J0D01*
G01*
X139222900Y-71714200D01*
G75*
G02*
X139310800Y-71802100I0J-87900D01*
G01*
G37*
G36*
G01*
X139310800Y-71302100D02*
X139310800Y-71477900D01*
G75*
G02*
X139222900Y-71565800I-87900J0D01*
G01*
X138472100Y-71565800D01*
G75*
G02*
X138384200Y-71477900I0J87900D01*
G01*
X138384200Y-71302100D01*
G75*
G02*
X138472100Y-71214200I87900J0D01*
G01*
X139222900Y-71214200D01*
G75*
G02*
X139310800Y-71302100I0J-87900D01*
G01*
G37*
G36*
G01*
X139310800Y-70802100D02*
X139310800Y-70977900D01*
G75*
G02*
X139222900Y-71065800I-87900J0D01*
G01*
X138472100Y-71065800D01*
G75*
G02*
X138384200Y-70977900I0J87900D01*
G01*
X138384200Y-70802100D01*
G75*
G02*
X138472100Y-70714200I87900J0D01*
G01*
X139222900Y-70714200D01*
G75*
G02*
X139310800Y-70802100I0J-87900D01*
G01*
G37*
G36*
G01*
X142235800Y-70802100D02*
X142235800Y-70977900D01*
G75*
G02*
X142147900Y-71065800I-87900J0D01*
G01*
X141397100Y-71065800D01*
G75*
G02*
X141309200Y-70977900I0J87900D01*
G01*
X141309200Y-70802100D01*
G75*
G02*
X141397100Y-70714200I87900J0D01*
G01*
X142147900Y-70714200D01*
G75*
G02*
X142235800Y-70802100I0J-87900D01*
G01*
G37*
G36*
G01*
X142235800Y-71302100D02*
X142235800Y-71477900D01*
G75*
G02*
X142147900Y-71565800I-87900J0D01*
G01*
X141397100Y-71565800D01*
G75*
G02*
X141309200Y-71477900I0J87900D01*
G01*
X141309200Y-71302100D01*
G75*
G02*
X141397100Y-71214200I87900J0D01*
G01*
X142147900Y-71214200D01*
G75*
G02*
X142235800Y-71302100I0J-87900D01*
G01*
G37*
G36*
G01*
X142235800Y-71802100D02*
X142235800Y-71977900D01*
G75*
G02*
X142147900Y-72065800I-87900J0D01*
G01*
X141397100Y-72065800D01*
G75*
G02*
X141309200Y-71977900I0J87900D01*
G01*
X141309200Y-71802100D01*
G75*
G02*
X141397100Y-71714200I87900J0D01*
G01*
X142147900Y-71714200D01*
G75*
G02*
X142235800Y-71802100I0J-87900D01*
G01*
G37*
G36*
G01*
X142235800Y-72302100D02*
X142235800Y-72477900D01*
G75*
G02*
X142147900Y-72565800I-87900J0D01*
G01*
X141397100Y-72565800D01*
G75*
G02*
X141309200Y-72477900I0J87900D01*
G01*
X141309200Y-72302100D01*
G75*
G02*
X141397100Y-72214200I87900J0D01*
G01*
X142147900Y-72214200D01*
G75*
G02*
X142235800Y-72302100I0J-87900D01*
G01*
G37*
G36*
G01*
X142235800Y-72802100D02*
X142235800Y-72977900D01*
G75*
G02*
X142147900Y-73065800I-87900J0D01*
G01*
X141397100Y-73065800D01*
G75*
G02*
X141309200Y-72977900I0J87900D01*
G01*
X141309200Y-72802100D01*
G75*
G02*
X141397100Y-72714200I87900J0D01*
G01*
X142147900Y-72714200D01*
G75*
G02*
X142235800Y-72802100I0J-87900D01*
G01*
G37*
%TD*%
D20*
%TO.C,U7*%
X140720000Y-107950000D03*
X140720000Y-106050000D03*
X142920000Y-106050000D03*
X142920000Y-107000000D03*
X142920000Y-107950000D03*
%TD*%
D21*
%TO.C,U5*%
X139060000Y-108000000D03*
X137160000Y-108000000D03*
X137160000Y-105800000D03*
X138110000Y-105800000D03*
X139060000Y-105800000D03*
%TD*%
%TO.C,U4*%
X142330000Y-80590000D03*
X140430000Y-80590000D03*
X140430000Y-78390000D03*
X141380000Y-78390000D03*
X142330000Y-78390000D03*
%TD*%
D22*
%TO.C,D13*%
X135980000Y-75580000D03*
X138780000Y-75580000D03*
%TD*%
%TO.C,C76*%
G36*
G01*
X143499200Y-71487900D02*
X143499200Y-71092100D01*
G75*
G02*
X143672100Y-70919200I172900J0D01*
G01*
X144017900Y-70919200D01*
G75*
G02*
X144190800Y-71092100I0J-172900D01*
G01*
X144190800Y-71487900D01*
G75*
G02*
X144017900Y-71660800I-172900J0D01*
G01*
X143672100Y-71660800D01*
G75*
G02*
X143499200Y-71487900I0J172900D01*
G01*
G37*
G36*
G01*
X142529200Y-71487900D02*
X142529200Y-71092100D01*
G75*
G02*
X142702100Y-70919200I172900J0D01*
G01*
X143047900Y-70919200D01*
G75*
G02*
X143220800Y-71092100I0J-172900D01*
G01*
X143220800Y-71487900D01*
G75*
G02*
X143047900Y-71660800I-172900J0D01*
G01*
X142702100Y-71660800D01*
G75*
G02*
X142529200Y-71487900I0J172900D01*
G01*
G37*
%TD*%
%TO.C,C75*%
G36*
G01*
X143499200Y-72427900D02*
X143499200Y-72032100D01*
G75*
G02*
X143672100Y-71859200I172900J0D01*
G01*
X144017900Y-71859200D01*
G75*
G02*
X144190800Y-72032100I0J-172900D01*
G01*
X144190800Y-72427900D01*
G75*
G02*
X144017900Y-72600800I-172900J0D01*
G01*
X143672100Y-72600800D01*
G75*
G02*
X143499200Y-72427900I0J172900D01*
G01*
G37*
G36*
G01*
X142529200Y-72427900D02*
X142529200Y-72032100D01*
G75*
G02*
X142702100Y-71859200I172900J0D01*
G01*
X143047900Y-71859200D01*
G75*
G02*
X143220800Y-72032100I0J-172900D01*
G01*
X143220800Y-72427900D01*
G75*
G02*
X143047900Y-72600800I-172900J0D01*
G01*
X142702100Y-72600800D01*
G75*
G02*
X142529200Y-72427900I0J172900D01*
G01*
G37*
%TD*%
%TO.C,C74*%
G36*
G01*
X136650800Y-73912100D02*
X136650800Y-74307900D01*
G75*
G02*
X136477900Y-74480800I-172900J0D01*
G01*
X136132100Y-74480800D01*
G75*
G02*
X135959200Y-74307900I0J172900D01*
G01*
X135959200Y-73912100D01*
G75*
G02*
X136132100Y-73739200I172900J0D01*
G01*
X136477900Y-73739200D01*
G75*
G02*
X136650800Y-73912100I0J-172900D01*
G01*
G37*
G36*
G01*
X137620800Y-73912100D02*
X137620800Y-74307900D01*
G75*
G02*
X137447900Y-74480800I-172900J0D01*
G01*
X137102100Y-74480800D01*
G75*
G02*
X136929200Y-74307900I0J172900D01*
G01*
X136929200Y-73912100D01*
G75*
G02*
X137102100Y-73739200I172900J0D01*
G01*
X137447900Y-73739200D01*
G75*
G02*
X137620800Y-73912100I0J-172900D01*
G01*
G37*
%TD*%
%TO.C,C23*%
G36*
G01*
X139307900Y-79880800D02*
X138912100Y-79880800D01*
G75*
G02*
X138739200Y-79707900I0J172900D01*
G01*
X138739200Y-79362100D01*
G75*
G02*
X138912100Y-79189200I172900J0D01*
G01*
X139307900Y-79189200D01*
G75*
G02*
X139480800Y-79362100I0J-172900D01*
G01*
X139480800Y-79707900D01*
G75*
G02*
X139307900Y-79880800I-172900J0D01*
G01*
G37*
G36*
G01*
X139307900Y-80850800D02*
X138912100Y-80850800D01*
G75*
G02*
X138739200Y-80677900I0J172900D01*
G01*
X138739200Y-80332100D01*
G75*
G02*
X138912100Y-80159200I172900J0D01*
G01*
X139307900Y-80159200D01*
G75*
G02*
X139480800Y-80332100I0J-172900D01*
G01*
X139480800Y-80677900D01*
G75*
G02*
X139307900Y-80850800I-172900J0D01*
G01*
G37*
%TD*%
%TO.C,C22*%
G36*
G01*
X144099200Y-78157900D02*
X144099200Y-77762100D01*
G75*
G02*
X144272100Y-77589200I172900J0D01*
G01*
X144617900Y-77589200D01*
G75*
G02*
X144790800Y-77762100I0J-172900D01*
G01*
X144790800Y-78157900D01*
G75*
G02*
X144617900Y-78330800I-172900J0D01*
G01*
X144272100Y-78330800D01*
G75*
G02*
X144099200Y-78157900I0J172900D01*
G01*
G37*
G36*
G01*
X143129200Y-78157900D02*
X143129200Y-77762100D01*
G75*
G02*
X143302100Y-77589200I172900J0D01*
G01*
X143647900Y-77589200D01*
G75*
G02*
X143820800Y-77762100I0J-172900D01*
G01*
X143820800Y-78157900D01*
G75*
G02*
X143647900Y-78330800I-172900J0D01*
G01*
X143302100Y-78330800D01*
G75*
G02*
X143129200Y-78157900I0J172900D01*
G01*
G37*
%TD*%
%TO.C,C8*%
G36*
G01*
X141069200Y-104927900D02*
X141069200Y-104532100D01*
G75*
G02*
X141242100Y-104359200I172900J0D01*
G01*
X141587900Y-104359200D01*
G75*
G02*
X141760800Y-104532100I0J-172900D01*
G01*
X141760800Y-104927900D01*
G75*
G02*
X141587900Y-105100800I-172900J0D01*
G01*
X141242100Y-105100800D01*
G75*
G02*
X141069200Y-104927900I0J172900D01*
G01*
G37*
G36*
G01*
X140099200Y-104927900D02*
X140099200Y-104532100D01*
G75*
G02*
X140272100Y-104359200I172900J0D01*
G01*
X140617900Y-104359200D01*
G75*
G02*
X140790800Y-104532100I0J-172900D01*
G01*
X140790800Y-104927900D01*
G75*
G02*
X140617900Y-105100800I-172900J0D01*
G01*
X140272100Y-105100800D01*
G75*
G02*
X140099200Y-104927900I0J172900D01*
G01*
G37*
%TD*%
%TO.C,C7*%
G36*
G01*
X137070800Y-104332100D02*
X137070800Y-104727900D01*
G75*
G02*
X136897900Y-104900800I-172900J0D01*
G01*
X136552100Y-104900800D01*
G75*
G02*
X136379200Y-104727900I0J172900D01*
G01*
X136379200Y-104332100D01*
G75*
G02*
X136552100Y-104159200I172900J0D01*
G01*
X136897900Y-104159200D01*
G75*
G02*
X137070800Y-104332100I0J-172900D01*
G01*
G37*
G36*
G01*
X138040800Y-104332100D02*
X138040800Y-104727900D01*
G75*
G02*
X137867900Y-104900800I-172900J0D01*
G01*
X137522100Y-104900800D01*
G75*
G02*
X137349200Y-104727900I0J172900D01*
G01*
X137349200Y-104332100D01*
G75*
G02*
X137522100Y-104159200I172900J0D01*
G01*
X137867900Y-104159200D01*
G75*
G02*
X138040800Y-104332100I0J-172900D01*
G01*
G37*
%TD*%
D23*
%TO.C,H4*%
X124750000Y-73250000D03*
%TD*%
%TO.C,J1*%
G36*
G01*
X150050800Y-110724600D02*
X150050800Y-115275400D01*
G75*
G02*
X148775400Y-116550800I-1275400J0D01*
G01*
X146224600Y-116550800D01*
G75*
G02*
X144949200Y-115275400I0J1275400D01*
G01*
X144949200Y-110724600D01*
G75*
G02*
X146224600Y-109449200I1275400J0D01*
G01*
X148775400Y-109449200D01*
G75*
G02*
X150050800Y-110724600I0J-1275400D01*
G01*
G37*
G36*
G01*
X135050800Y-110724600D02*
X135050800Y-115275400D01*
G75*
G02*
X133775400Y-116550800I-1275400J0D01*
G01*
X131224600Y-116550800D01*
G75*
G02*
X129949200Y-115275400I0J1275400D01*
G01*
X129949200Y-110724600D01*
G75*
G02*
X131224600Y-109449200I1275400J0D01*
G01*
X133775400Y-109449200D01*
G75*
G02*
X135050800Y-110724600I0J-1275400D01*
G01*
G37*
%TD*%
%TO.C,H3*%
X124750000Y-103750000D03*
%TD*%
%TO.C,H2*%
X155250000Y-73250000D03*
%TD*%
%TO.C,H1*%
X155250000Y-103750000D03*
%TD*%
%TO.C,J11*%
G36*
G01*
X120085560Y-92050800D02*
X117914440Y-92050800D01*
G75*
G02*
X117449200Y-91585560I0J465240D01*
G01*
X117449200Y-89414440D01*
G75*
G02*
X117914440Y-88949200I465240J0D01*
G01*
X120085560Y-88949200D01*
G75*
G02*
X120550800Y-89414440I0J-465240D01*
G01*
X120550800Y-91585560D01*
G75*
G02*
X120085560Y-92050800I-465240J0D01*
G01*
G37*
G36*
G01*
X120085560Y-96050800D02*
X117914440Y-96050800D01*
G75*
G02*
X117449200Y-95585560I0J465240D01*
G01*
X117449200Y-93414440D01*
G75*
G02*
X117914440Y-92949200I465240J0D01*
G01*
X120085560Y-92949200D01*
G75*
G02*
X120550800Y-93414440I0J-465240D01*
G01*
X120550800Y-95585560D01*
G75*
G02*
X120085560Y-96050800I-465240J0D01*
G01*
G37*
G36*
G01*
X120085560Y-100050800D02*
X117914440Y-100050800D01*
G75*
G02*
X117449200Y-99585560I0J465240D01*
G01*
X117449200Y-97414440D01*
G75*
G02*
X117914440Y-96949200I465240J0D01*
G01*
X120085560Y-96949200D01*
G75*
G02*
X120550800Y-97414440I0J-465240D01*
G01*
X120550800Y-99585560D01*
G75*
G02*
X120085560Y-100050800I-465240J0D01*
G01*
G37*
%TD*%
M02*
