M48
; DRILL file {KiCad (5.1.6-0-10_14)} date Sunday, April 11, 2021 at 02:49:44 PM
; FORMAT={-:-/ absolute / inch / decimal}
; #@! TF.CreationDate,2021-04-11T14:49:44-04:00
; #@! TF.GenerationSoftware,Kicad,Pcbnew,(5.1.6-0-10_14)
FMAT,2
INCH
T1C0.0079
T2C0.0100
T3C0.1575
%
G90
G05
T1
X4.6457Y-3.0512
X4.6457Y-3.0906
X4.6457Y-3.1299
X4.6457Y-3.2087
X4.6457Y-3.248
X4.6457Y-3.2874
X4.6457Y-3.3661
X4.6457Y-3.4055
X4.6457Y-3.4449
X4.6457Y-3.5236
X4.6457Y-3.563
X4.6457Y-3.6024
X4.6457Y-3.6811
X4.6457Y-3.7205
X4.6457Y-3.7598
X4.6457Y-3.8386
X4.6457Y-3.878
X4.6457Y-3.9173
X4.6654Y-3.0709
X4.6654Y-3.1102
X4.6654Y-3.2283
X4.6654Y-3.2677
X4.6654Y-3.3858
X4.6654Y-3.4252
X4.6654Y-3.5433
X4.6654Y-3.5827
X4.6654Y-3.7008
X4.6654Y-3.7402
X4.6654Y-3.8583
X4.6654Y-3.8976
X4.685Y-3.0512
X4.685Y-3.0906
X4.685Y-3.1299
X4.685Y-3.2087
X4.685Y-3.248
X4.685Y-3.2874
X4.685Y-3.3661
X4.685Y-3.4055
X4.685Y-3.4449
X4.685Y-3.5236
X4.685Y-3.563
X4.685Y-3.6024
X4.685Y-3.6811
X4.685Y-3.7205
X4.685Y-3.7598
X4.685Y-3.8386
X4.685Y-3.878
X4.685Y-3.9173
X4.7047Y-3.0709
X4.7047Y-3.1102
X4.7047Y-3.2283
X4.7047Y-3.2677
X4.7047Y-3.3858
X4.7047Y-3.4252
X4.7047Y-3.5433
X4.7047Y-3.5827
X4.7047Y-3.7008
X4.7047Y-3.7402
X4.7047Y-3.8583
X4.7047Y-3.8976
X4.7244Y-3.0512
X4.7244Y-3.0906
X4.7244Y-3.1299
X4.7244Y-3.2087
X4.7244Y-3.248
X4.7244Y-3.2874
X4.7244Y-3.3661
X4.7244Y-3.4055
X4.7244Y-3.4449
X4.7244Y-3.5236
X4.7244Y-3.563
X4.7244Y-3.6024
X4.7244Y-3.6811
X4.7244Y-3.7205
X4.7244Y-3.7598
X4.7244Y-3.8386
X4.7244Y-3.878
X4.7244Y-3.9173
X4.9803Y-3.0669
X4.9803Y-3.1063
X4.9803Y-3.1457
X4.9803Y-3.185
X4.9803Y-3.2244
X4.9803Y-3.2874
X4.9803Y-3.3268
X4.9803Y-3.3661
X4.9803Y-3.4055
X4.9803Y-3.4449
X4.9803Y-3.5118
X4.9803Y-3.5512
X4.9803Y-3.5906
X4.9803Y-3.6299
X4.9803Y-3.6693
X4.9803Y-3.7323
X4.9803Y-3.7717
X4.9803Y-3.811
X4.9803Y-3.8504
X4.9803Y-3.8898
X5.0605Y-3.8647
X5.0614Y-3.3732
X5.0618Y-3.1028
X5.0634Y-3.6744
X5.0638Y-3.1681
X5.0642Y-3.7618
X5.0646Y-3.785
X5.0657Y-3.3224
X5.0669Y-3.3488
X5.0673Y-3.3962
X5.0693Y-3.7429
X5.0736Y-3.7248
X5.0752Y-3.2232
X5.0787Y-3.1953
X5.0894Y-3.6311
X5.0949Y-3.6138
X5.0961Y-3.8083
X5.0965Y-3.8504
X5.0986Y-3.8864
X5.0988Y-3.6465
X5.1008Y-3.0865
X5.1098Y-3.0035
X5.1106Y-3.5803
X5.1177Y-2.9571
X5.1197Y-3.9091
X5.1201Y-3.1713
X5.1205Y-3.9886
X5.1213Y-3.7646
X5.1268Y-3.2236
X5.1303Y-3.4138
X5.1331Y-3.0236
X5.1358Y-3.2866
X5.1366Y-4.0106
X5.1429Y-3.3563
X5.1433Y-3.3083
X5.1433Y-3.7209
X5.1447Y-3.8691
X5.1453Y-3.9331
X5.1476Y-3.7398
X5.1476Y-3.9146
X5.1484Y-3.337
X5.1555Y-3.0992
X5.1603Y-3.6871
X5.1614Y-3.2059
X5.1654Y-3.5803
X5.1661Y-2.9264
X5.1677Y-3.281
X5.1862Y-3.0256
X5.1953Y-3.9323
X5.1957Y-3.3547
X5.2008Y-3.2248
X5.202Y-4.0091
X5.2161Y-3.2343
X5.2177Y-3.8307
X5.2177Y-3.8484
X5.2197Y-2.9366
X5.2201Y-3.2524
X5.2209Y-3.0807
X5.2243Y-3.9252
X5.2248Y-2.6988
X5.226Y-4.2693
X5.2354Y-3.348
X5.2354Y-3.8669
X5.2356Y-3.3079
X5.2394Y-3.6614
X5.2394Y-3.9878
X5.2406Y-3.1016
X5.2406Y-3.6835
X5.2429Y-2.935
X5.2445Y-2.6988
X5.2457Y-4.2693
X5.2496Y-3.5169
X5.2509Y-3.2049
X5.2524Y-3.0143
X5.2524Y-3.4154
X5.2524Y-3.5955
X5.2543Y-3.7815
X5.2598Y-3.311
X5.2598Y-3.3346
X5.2598Y-3.3661
X5.2642Y-2.6988
X5.2654Y-4.2693
X5.2694Y-3.8189
X5.272Y-3.261
X5.2725Y-3.2062
X5.274Y-3.7724
X5.2795Y-3.1654
X5.2835Y-3.311
X5.2835Y-3.3346
X5.2835Y-3.3661
X5.2839Y-2.6988
X5.285Y-4.2693
X5.2854Y-3.5126
X5.2854Y-3.55
X5.2913Y-3.685
X5.2913Y-3.7087
X5.3031Y-3.1417
X5.3031Y-3.1654
X5.3035Y-2.6988
X5.3047Y-4.2693
X5.3071Y-3.311
X5.3071Y-3.3346
X5.315Y-3.7087
X5.3268Y-3.1181
X5.3268Y-3.1417
X5.3268Y-3.1654
X5.3268Y-3.6339
X5.3343Y-2.6545
X5.348Y-2.8496
X5.3504Y-2.8146
X5.3504Y-3.1181
X5.3504Y-3.1417
X5.3504Y-3.1654
X5.3504Y-3.6339
X5.3504Y-3.6575
X5.3528Y-2.9717
X5.3634Y-2.9563
X5.3701Y-4.311
X5.3701Y-4.3504
X5.3701Y-4.3898
X5.3709Y-3.826
X5.3723Y-3.5628
X5.3736Y-2.6545
X5.374Y-3.1181
X5.374Y-3.1417
X5.374Y-3.1654
X5.374Y-3.6339
X5.3788Y-3.348
X5.3879Y-2.8941
X5.3886Y-3.0021
X5.3888Y-3.5948
X5.3898Y-4.3307
X5.3898Y-4.3701
X5.3902Y-3.7764
X5.3941Y-3.4256
X5.3969Y-2.8531
X5.3984Y-3.5508
X5.4Y-2.9673
X5.4043Y-2.8024
X5.4053Y-3.2528
X5.4062Y-3.2284
X5.4081Y-3.1983
X5.4082Y-3.017
X5.4083Y-3.6043
X5.4114Y-3.8055
X5.413Y-2.6545
X5.4144Y-2.9962
X5.4165Y-3.4921
X5.4193Y-3.8886
X5.4209Y-4.1161
X5.422Y-2.8228
X5.4256Y-2.8524
X5.4274Y-3.2241
X5.4311Y-3.8161
X5.4319Y-3.7906
X5.4335Y-3.437
X5.437Y-3.998
X5.4386Y-4.1646
X5.4488Y-4.311
X5.4488Y-4.3504
X5.4488Y-4.3898
X5.4524Y-2.6545
X5.4551Y-4.1157
X5.4614Y-2.8933
X5.4638Y-3.589
X5.4657Y-3.3736
X5.4663Y-3.4797
X5.4685Y-4.3307
X5.4685Y-4.3701
X5.4701Y-3.2862
X5.4701Y-3.3335
X5.4823Y-4.0093
X5.4843Y-3.411
X5.4871Y-3.1695
X5.4871Y-3.2228
X5.4882Y-3.2012
X5.4882Y-4.311
X5.4882Y-4.3504
X5.4882Y-4.3898
X5.4917Y-2.6545
X5.5024Y-3.1228
X5.5024Y-3.2516
X5.5079Y-4.3307
X5.5079Y-4.3701
X5.5098Y-3.5161
X5.5106Y-3.7083
X5.5146Y-3.4528
X5.515Y-3.7441
X5.5168Y-4.0733
X5.5187Y-3.9556
X5.5189Y-4.0024
X5.522Y-4.0358
X5.5232Y-3.802
X5.5256Y-3.9205
X5.5272Y-2.8953
X5.5276Y-4.311
X5.5276Y-4.3504
X5.5276Y-4.3898
X5.5374Y-3.8173
X5.5382Y-3.7429
X5.5383Y-3.7646
X5.5402Y-4.25
X5.5472Y-4.3307
X5.5472Y-4.3701
X5.5488Y-2.8953
X5.5524Y-3.5445
X5.5524Y-3.5917
X5.5524Y-3.639
X5.5524Y-3.6862
X5.5547Y-2.972
X5.564Y-3.3795
X5.5669Y-4.311
X5.5669Y-4.3504
X5.5669Y-4.3898
X5.5675Y-4.1232
X5.5705Y-2.8953
X5.578Y-3.163
X5.578Y-3.098
X5.5793Y-2.9823
X5.5846Y-3.9602
X5.5866Y-4.3307
X5.5866Y-4.3701
X5.5921Y-2.8953
X5.5941Y-3.7398
X5.6Y-3.5996
X5.6008Y-3.9449
X5.604Y-4.0832
X5.6043Y-3.5163
X5.6063Y-4.311
X5.6063Y-4.3504
X5.6063Y-4.3898
X5.6098Y-2.6545
X5.6119Y-3.4316
X5.6134Y-3.7713
X5.6156Y-3.3642
X5.6187Y-3.7382
X5.6244Y-3.7067
X5.626Y-4.3307
X5.626Y-4.3701
X5.6276Y-4.2134
X5.6331Y-3.3811
X5.6335Y-3.1812
X5.6343Y-4.085
X5.6421Y-3.6208
X5.6457Y-3.3346
X5.6457Y-4.311
X5.6457Y-4.3504
X5.6457Y-4.3898
X5.6559Y-3.0413
X5.6602Y-3.4937
X5.6626Y-3.4177
X5.6634Y-2.8063
X5.6634Y-2.9118
X5.6693Y-3.311
X5.6693Y-3.3346
X5.6803Y-4.0413
X5.6811Y-3.6417
X5.6811Y-3.6693
X5.689Y-2.635
X5.689Y-2.6537
X5.689Y-2.6736
X5.689Y-3.0472
X5.689Y-3.0945
X5.6921Y-3.8858
X5.6929Y-3.3346
X5.6988Y-3.9118
X5.7059Y-3.8398
X5.7059Y-3.865
X5.7087Y-3.0709
X5.7087Y-3.2717
X5.7087Y-3.6417
X5.7087Y-3.6693
X5.7138Y-3.8941
X5.7201Y-4.2693
X5.7205Y-2.6992
X5.7244Y-3.8488
X5.7283Y-3.0472
X5.7283Y-3.0945
X5.7283Y-3.8693
X5.7323Y-3.248
X5.7323Y-3.2717
X5.7362Y-3.6417
X5.7362Y-3.6693
X5.7362Y-4.0441
X5.7386Y-3.4193
X5.739Y-3.4551
X5.7398Y-4.2693
X5.7402Y-2.6992
X5.7445Y-3.798
X5.748Y-3.0709
X5.7501Y-3.1889
X5.7516Y-3.7623
X5.7528Y-4.0299
X5.7559Y-3.2244
X5.7559Y-3.248
X5.7575Y-3.7323
X5.7594Y-4.2693
X5.7598Y-2.6992
X5.761Y-3.8138
X5.7638Y-3.6417
X5.7638Y-3.6693
X5.7713Y-3.3776
X5.7713Y-3.5531
X5.7724Y-3.7681
X5.7732Y-3.4516
X5.7736Y-3.1812
X5.7764Y-2.478
X5.7764Y-2.5
X5.7791Y-4.2693
X5.7795Y-2.6992
X5.7799Y-2.5217
X5.7839Y-4.0362
X5.788Y-3.0437
X5.788Y-3.6618
X5.7882Y-3.1016
X5.7882Y-3.6205
X5.7882Y-3.8665
X5.7889Y-3.3072
X5.79Y-2.9852
X5.7943Y-3.0807
X5.7988Y-4.2693
X5.7992Y-2.6992
X5.7992Y-3.8878
X5.7997Y-3.2884
X5.811Y-3.4098
X5.8185Y-3.1437
X5.8213Y-4.0031
X5.8217Y-4.0366
X5.8268Y-3.3559
X5.828Y-3.0366
X5.828Y-3.6134
X5.828Y-3.8937
X5.8311Y-3.3016
X5.8319Y-3.3736
X5.8374Y-3.9429
X5.8417Y-3.4488
X5.8484Y-4.0335
X5.8516Y-3.2866
X5.8531Y-3.1941
X5.8571Y-3.678
X5.8626Y-3.3882
X5.8661Y-4.0421
X5.8669Y-3.7622
X5.8734Y-3.7873
X5.8736Y-3.0626
X5.878Y-3.6598
X5.8803Y-3.2114
X5.8803Y-3.2311
X5.8803Y-3.9402
X5.8831Y-3.0823
X5.8835Y-4.0346
X5.8882Y-3.1654
X5.8888Y-3.2924
X5.889Y-2.9594
X5.8902Y-3.6866
X5.8927Y-3.5544
X5.8976Y-3.0539
X5.8988Y-3.7445
X5.9035Y-3.7976
X5.9039Y-3.2016
X5.9051Y-3.9713
X5.9059Y-4.0114
X5.9067Y-3.086
X5.9169Y-3.3886
X5.9252Y-3.3413
X5.928Y-3.8705
X5.9295Y-3.939
X5.9307Y-3.5012
X5.9329Y-3.8919
X5.9346Y-3.4508
X5.9409Y-3.3547
X5.9433Y-3.7768
X5.9437Y-3.7976
X5.9437Y-3.8205
X5.9441Y-3.4311
X5.9465Y-3.7445
X5.9476Y-3.2256
X5.9476Y-3.2445
X5.9476Y-3.5126
X5.9547Y-3.3413
X5.9567Y-3.587
X5.9579Y-3.6098
X5.9579Y-3.6374
X5.9598Y-3.2114
X5.9602Y-3.7874
X5.9626Y-3.7638
X6.0433Y-3.0787
X6.0433Y-3.1181
X6.0433Y-3.1575
X6.0433Y-3.1969
X6.0433Y-3.2362
X6.0433Y-3.2992
X6.0433Y-3.3386
X6.0433Y-3.378
X6.0433Y-3.4173
X6.0433Y-3.4567
X6.0433Y-3.5157
X6.0433Y-3.5591
X6.0433Y-3.5984
X6.0433Y-3.6378
X6.0433Y-3.6772
X6.0433Y-3.7402
X6.0433Y-3.7795
X6.0433Y-3.8189
X6.0433Y-3.8583
X6.0433Y-3.8976
X6.2992Y-3.0512
X6.2992Y-3.0906
X6.2992Y-3.1299
X6.2992Y-3.2087
X6.2992Y-3.248
X6.2992Y-3.2874
X6.2992Y-3.3661
X6.2992Y-3.4055
X6.2992Y-3.4449
X6.2992Y-3.5236
X6.2992Y-3.563
X6.2992Y-3.6024
X6.2992Y-3.6811
X6.2992Y-3.7205
X6.2992Y-3.7598
X6.2992Y-3.8386
X6.2992Y-3.878
X6.2992Y-3.9173
X6.3189Y-3.0709
X6.3189Y-3.1102
X6.3189Y-3.2283
X6.3189Y-3.2677
X6.3189Y-3.3858
X6.3189Y-3.4252
X6.3189Y-3.5433
X6.3189Y-3.5827
X6.3189Y-3.7008
X6.3189Y-3.7402
X6.3189Y-3.8583
X6.3189Y-3.8976
X6.3386Y-3.0512
X6.3386Y-3.0906
X6.3386Y-3.1299
X6.3386Y-3.2087
X6.3386Y-3.248
X6.3386Y-3.2874
X6.3386Y-3.3661
X6.3386Y-3.4055
X6.3386Y-3.4449
X6.3386Y-3.5236
X6.3386Y-3.563
X6.3386Y-3.6024
X6.3386Y-3.6811
X6.3386Y-3.7205
X6.3386Y-3.7598
X6.3386Y-3.8386
X6.3386Y-3.878
X6.3386Y-3.9173
X6.3583Y-3.0709
X6.3583Y-3.1102
X6.3583Y-3.2283
X6.3583Y-3.2677
X6.3583Y-3.3858
X6.3583Y-3.4252
X6.3583Y-3.5433
X6.3583Y-3.5827
X6.3583Y-3.7008
X6.3583Y-3.7402
X6.3583Y-3.8583
X6.3583Y-3.8976
X6.378Y-3.0512
X6.378Y-3.0906
X6.378Y-3.1299
X6.378Y-3.2087
X6.378Y-3.248
X6.378Y-3.2874
X6.378Y-3.3661
X6.378Y-3.4055
X6.378Y-3.4449
X6.378Y-3.5236
X6.378Y-3.563
X6.378Y-3.6024
X6.378Y-3.6811
X6.378Y-3.7205
X6.378Y-3.7598
X6.378Y-3.8386
X6.378Y-3.878
X6.378Y-3.9173
T2
X5.1283Y-4.3602
X5.1283Y-4.4193
X5.1283Y-4.4783
X5.1283Y-4.5374
X5.1579Y-4.3307
X5.1579Y-4.3898
X5.1579Y-4.4488
X5.1579Y-4.5079
X5.1579Y-4.5669
X5.1874Y-4.3602
X5.1874Y-4.4193
X5.1874Y-4.4783
X5.1874Y-4.5374
X5.2165Y-4.4488
X5.2169Y-4.3307
X5.2169Y-4.3898
X5.2169Y-4.5079
X5.2169Y-4.5669
X5.2465Y-4.3602
X5.2465Y-4.4193
X5.2465Y-4.4783
X5.2465Y-4.5374
X5.276Y-4.3307
X5.276Y-4.3898
X5.276Y-4.4488
X5.276Y-4.5079
X5.276Y-4.5669
X5.3055Y-4.3602
X5.3055Y-4.4193
X5.3055Y-4.4783
X5.3055Y-4.5374
X5.7181Y-4.3602
X5.7181Y-4.4193
X5.7181Y-4.4783
X5.7181Y-4.5374
X5.7476Y-4.3307
X5.7476Y-4.3898
X5.7476Y-4.4488
X5.7476Y-4.5079
X5.7476Y-4.5669
X5.7772Y-4.3602
X5.7772Y-4.4193
X5.7772Y-4.4783
X5.7772Y-4.5374
X5.8067Y-4.3307
X5.8067Y-4.3898
X5.8067Y-4.5079
X5.8067Y-4.5669
X5.8071Y-4.4488
X5.8362Y-4.3602
X5.8362Y-4.4193
X5.8362Y-4.4783
X5.8362Y-4.5374
X5.8657Y-4.3307
X5.8657Y-4.3898
X5.8657Y-4.4488
X5.8657Y-4.5079
X5.8657Y-4.5669
X5.8953Y-4.3602
X5.8953Y-4.4193
X5.8953Y-4.4783
X5.8953Y-4.5374
X6.3386Y-3.0906
X6.3386Y-3.248
X6.3386Y-3.4055
X4.685Y-3.0906
X4.685Y-3.248
X4.685Y-3.4055
X5.2165Y-4.4488
X5.8071Y-4.4488
X6.3386Y-3.563
X6.3386Y-3.7205
X6.3386Y-3.878
X4.685Y-3.563
X4.685Y-3.7205
X4.685Y-3.878
T3
X4.9114Y-2.8839
X4.9114Y-4.0846
X6.1122Y-2.8839
X6.1122Y-4.0846
T0
M30
