%TF.GenerationSoftware,KiCad,Pcbnew,(5.1.6-0-10_14)*%
%TF.CreationDate,2021-04-11T14:49:43-04:00*%
%TF.ProjectId,F051_ESC-4in1-V2,46303531-5f45-4534-932d-34696e312d56,rev?*%
%TF.SameCoordinates,Original*%
%TF.FileFunction,Paste,Bot*%
%TF.FilePolarity,Positive*%
%FSLAX46Y46*%
G04 Gerber Fmt 4.6, Leading zero omitted, Abs format (unit mm)*
G04 Created by KiCad (PCBNEW (5.1.6-0-10_14)) date 2021-04-11 14:49:43*
%MOMM*%
%LPD*%
G01*
G04 APERTURE LIST*
%ADD10C,0.010000*%
%ADD11C,1.000000*%
%ADD12R,1.450000X0.850000*%
%ADD13R,1.050000X0.850000*%
%ADD14R,0.600000X0.700000*%
G04 APERTURE END LIST*
D10*
%TO.C,Q24*%
G36*
X125750000Y-84509000D02*
G01*
X122770000Y-84509000D01*
X122770000Y-86881000D01*
X125750000Y-86881000D01*
X125750000Y-84509000D01*
G37*
X125750000Y-84509000D02*
X122770000Y-84509000D01*
X122770000Y-86881000D01*
X125750000Y-86881000D01*
X125750000Y-84509000D01*
%TO.C,Q22*%
G36*
X125750000Y-78924000D02*
G01*
X122770000Y-78924000D01*
X122770000Y-81296000D01*
X125750000Y-81296000D01*
X125750000Y-78924000D01*
G37*
X125750000Y-78924000D02*
X122770000Y-78924000D01*
X122770000Y-81296000D01*
X125750000Y-81296000D01*
X125750000Y-78924000D01*
%TO.C,Q20*%
G36*
X132440000Y-70064000D02*
G01*
X129460000Y-70064000D01*
X129460000Y-72436000D01*
X132440000Y-72436000D01*
X132440000Y-70064000D01*
G37*
X132440000Y-70064000D02*
X129460000Y-70064000D01*
X129460000Y-72436000D01*
X132440000Y-72436000D01*
X132440000Y-70064000D01*
%TO.C,Q6*%
G36*
X154250000Y-92486000D02*
G01*
X157230000Y-92486000D01*
X157230000Y-90114000D01*
X154250000Y-90114000D01*
X154250000Y-92486000D01*
G37*
X154250000Y-92486000D02*
X157230000Y-92486000D01*
X157230000Y-90114000D01*
X154250000Y-90114000D01*
X154250000Y-92486000D01*
%TO.C,Q4*%
G36*
X154250000Y-98076000D02*
G01*
X157230000Y-98076000D01*
X157230000Y-95704000D01*
X154250000Y-95704000D01*
X154250000Y-98076000D01*
G37*
X154250000Y-98076000D02*
X157230000Y-98076000D01*
X157230000Y-95704000D01*
X154250000Y-95704000D01*
X154250000Y-98076000D01*
%TO.C,Q2*%
G36*
X147560000Y-106936000D02*
G01*
X150540000Y-106936000D01*
X150540000Y-104564000D01*
X147560000Y-104564000D01*
X147560000Y-106936000D01*
G37*
X147560000Y-106936000D02*
X150540000Y-106936000D01*
X150540000Y-104564000D01*
X147560000Y-104564000D01*
X147560000Y-106936000D01*
%TO.C,Q12*%
G36*
X147560000Y-72436000D02*
G01*
X150540000Y-72436000D01*
X150540000Y-70064000D01*
X147560000Y-70064000D01*
X147560000Y-72436000D01*
G37*
X147560000Y-72436000D02*
X150540000Y-72436000D01*
X150540000Y-70064000D01*
X147560000Y-70064000D01*
X147560000Y-72436000D01*
%TO.C,Q10*%
G36*
X154250000Y-81296000D02*
G01*
X157230000Y-81296000D01*
X157230000Y-78924000D01*
X154250000Y-78924000D01*
X154250000Y-81296000D01*
G37*
X154250000Y-81296000D02*
X157230000Y-81296000D01*
X157230000Y-78924000D01*
X154250000Y-78924000D01*
X154250000Y-81296000D01*
%TO.C,Q8*%
G36*
X154250000Y-86886000D02*
G01*
X157230000Y-86886000D01*
X157230000Y-84514000D01*
X154250000Y-84514000D01*
X154250000Y-86886000D01*
G37*
X154250000Y-86886000D02*
X157230000Y-86886000D01*
X157230000Y-84514000D01*
X154250000Y-84514000D01*
X154250000Y-86886000D01*
%TO.C,Q18*%
G36*
X132440000Y-104564000D02*
G01*
X129460000Y-104564000D01*
X129460000Y-106936000D01*
X132440000Y-106936000D01*
X132440000Y-104564000D01*
G37*
X132440000Y-104564000D02*
X129460000Y-104564000D01*
X129460000Y-106936000D01*
X132440000Y-106936000D01*
X132440000Y-104564000D01*
%TO.C,Q16*%
G36*
X125750000Y-95704000D02*
G01*
X122770000Y-95704000D01*
X122770000Y-98076000D01*
X125750000Y-98076000D01*
X125750000Y-95704000D01*
G37*
X125750000Y-95704000D02*
X122770000Y-95704000D01*
X122770000Y-98076000D01*
X125750000Y-98076000D01*
X125750000Y-95704000D01*
%TO.C,Q14*%
G36*
X125750000Y-90114000D02*
G01*
X122770000Y-90114000D01*
X122770000Y-92486000D01*
X125750000Y-92486000D01*
X125750000Y-90114000D01*
G37*
X125750000Y-90114000D02*
X122770000Y-90114000D01*
X122770000Y-92486000D01*
X125750000Y-92486000D01*
X125750000Y-90114000D01*
%TD*%
%TO.C,U12*%
G36*
G01*
X136077500Y-79685000D02*
X136542500Y-79685000D01*
G75*
G02*
X136775000Y-79917500I0J-232500D01*
G01*
X136775000Y-80382500D01*
G75*
G02*
X136542500Y-80615000I-232500J0D01*
G01*
X136077500Y-80615000D01*
G75*
G02*
X135845000Y-80382500I0J232500D01*
G01*
X135845000Y-79917500D01*
G75*
G02*
X136077500Y-79685000I232500J0D01*
G01*
G37*
G36*
G01*
X134927500Y-79685000D02*
X135392500Y-79685000D01*
G75*
G02*
X135625000Y-79917500I0J-232500D01*
G01*
X135625000Y-80382500D01*
G75*
G02*
X135392500Y-80615000I-232500J0D01*
G01*
X134927500Y-80615000D01*
G75*
G02*
X134695000Y-80382500I0J232500D01*
G01*
X134695000Y-79917500D01*
G75*
G02*
X134927500Y-79685000I232500J0D01*
G01*
G37*
G36*
G01*
X133777500Y-79685000D02*
X134242500Y-79685000D01*
G75*
G02*
X134475000Y-79917500I0J-232500D01*
G01*
X134475000Y-80382500D01*
G75*
G02*
X134242500Y-80615000I-232500J0D01*
G01*
X133777500Y-80615000D01*
G75*
G02*
X133545000Y-80382500I0J232500D01*
G01*
X133545000Y-79917500D01*
G75*
G02*
X133777500Y-79685000I232500J0D01*
G01*
G37*
G36*
G01*
X136077500Y-78535000D02*
X136542500Y-78535000D01*
G75*
G02*
X136775000Y-78767500I0J-232500D01*
G01*
X136775000Y-79232500D01*
G75*
G02*
X136542500Y-79465000I-232500J0D01*
G01*
X136077500Y-79465000D01*
G75*
G02*
X135845000Y-79232500I0J232500D01*
G01*
X135845000Y-78767500D01*
G75*
G02*
X136077500Y-78535000I232500J0D01*
G01*
G37*
G36*
G01*
X134927500Y-78535000D02*
X135392500Y-78535000D01*
G75*
G02*
X135625000Y-78767500I0J-232500D01*
G01*
X135625000Y-79232500D01*
G75*
G02*
X135392500Y-79465000I-232500J0D01*
G01*
X134927500Y-79465000D01*
G75*
G02*
X134695000Y-79232500I0J232500D01*
G01*
X134695000Y-78767500D01*
G75*
G02*
X134927500Y-78535000I232500J0D01*
G01*
G37*
G36*
G01*
X133777500Y-78535000D02*
X134242500Y-78535000D01*
G75*
G02*
X134475000Y-78767500I0J-232500D01*
G01*
X134475000Y-79232500D01*
G75*
G02*
X134242500Y-79465000I-232500J0D01*
G01*
X133777500Y-79465000D01*
G75*
G02*
X133545000Y-79232500I0J232500D01*
G01*
X133545000Y-78767500D01*
G75*
G02*
X133777500Y-78535000I232500J0D01*
G01*
G37*
G36*
G01*
X136077500Y-77385000D02*
X136542500Y-77385000D01*
G75*
G02*
X136775000Y-77617500I0J-232500D01*
G01*
X136775000Y-78082500D01*
G75*
G02*
X136542500Y-78315000I-232500J0D01*
G01*
X136077500Y-78315000D01*
G75*
G02*
X135845000Y-78082500I0J232500D01*
G01*
X135845000Y-77617500D01*
G75*
G02*
X136077500Y-77385000I232500J0D01*
G01*
G37*
G36*
G01*
X134927500Y-77385000D02*
X135392500Y-77385000D01*
G75*
G02*
X135625000Y-77617500I0J-232500D01*
G01*
X135625000Y-78082500D01*
G75*
G02*
X135392500Y-78315000I-232500J0D01*
G01*
X134927500Y-78315000D01*
G75*
G02*
X134695000Y-78082500I0J232500D01*
G01*
X134695000Y-77617500D01*
G75*
G02*
X134927500Y-77385000I232500J0D01*
G01*
G37*
G36*
G01*
X133777500Y-77385000D02*
X134242500Y-77385000D01*
G75*
G02*
X134475000Y-77617500I0J-232500D01*
G01*
X134475000Y-78082500D01*
G75*
G02*
X134242500Y-78315000I-232500J0D01*
G01*
X133777500Y-78315000D01*
G75*
G02*
X133545000Y-78082500I0J232500D01*
G01*
X133545000Y-77617500D01*
G75*
G02*
X133777500Y-77385000I232500J0D01*
G01*
G37*
G36*
G01*
X132347500Y-77125000D02*
X133097500Y-77125000D01*
G75*
G02*
X133160000Y-77187500I0J-62500D01*
G01*
X133160000Y-77312500D01*
G75*
G02*
X133097500Y-77375000I-62500J0D01*
G01*
X132347500Y-77375000D01*
G75*
G02*
X132285000Y-77312500I0J62500D01*
G01*
X132285000Y-77187500D01*
G75*
G02*
X132347500Y-77125000I62500J0D01*
G01*
G37*
G36*
G01*
X132347500Y-77625000D02*
X133097500Y-77625000D01*
G75*
G02*
X133160000Y-77687500I0J-62500D01*
G01*
X133160000Y-77812500D01*
G75*
G02*
X133097500Y-77875000I-62500J0D01*
G01*
X132347500Y-77875000D01*
G75*
G02*
X132285000Y-77812500I0J62500D01*
G01*
X132285000Y-77687500D01*
G75*
G02*
X132347500Y-77625000I62500J0D01*
G01*
G37*
G36*
G01*
X132347500Y-78125000D02*
X133097500Y-78125000D01*
G75*
G02*
X133160000Y-78187500I0J-62500D01*
G01*
X133160000Y-78312500D01*
G75*
G02*
X133097500Y-78375000I-62500J0D01*
G01*
X132347500Y-78375000D01*
G75*
G02*
X132285000Y-78312500I0J62500D01*
G01*
X132285000Y-78187500D01*
G75*
G02*
X132347500Y-78125000I62500J0D01*
G01*
G37*
G36*
G01*
X132347500Y-78625000D02*
X133097500Y-78625000D01*
G75*
G02*
X133160000Y-78687500I0J-62500D01*
G01*
X133160000Y-78812500D01*
G75*
G02*
X133097500Y-78875000I-62500J0D01*
G01*
X132347500Y-78875000D01*
G75*
G02*
X132285000Y-78812500I0J62500D01*
G01*
X132285000Y-78687500D01*
G75*
G02*
X132347500Y-78625000I62500J0D01*
G01*
G37*
G36*
G01*
X132347500Y-79125000D02*
X133097500Y-79125000D01*
G75*
G02*
X133160000Y-79187500I0J-62500D01*
G01*
X133160000Y-79312500D01*
G75*
G02*
X133097500Y-79375000I-62500J0D01*
G01*
X132347500Y-79375000D01*
G75*
G02*
X132285000Y-79312500I0J62500D01*
G01*
X132285000Y-79187500D01*
G75*
G02*
X132347500Y-79125000I62500J0D01*
G01*
G37*
G36*
G01*
X132347500Y-79625000D02*
X133097500Y-79625000D01*
G75*
G02*
X133160000Y-79687500I0J-62500D01*
G01*
X133160000Y-79812500D01*
G75*
G02*
X133097500Y-79875000I-62500J0D01*
G01*
X132347500Y-79875000D01*
G75*
G02*
X132285000Y-79812500I0J62500D01*
G01*
X132285000Y-79687500D01*
G75*
G02*
X132347500Y-79625000I62500J0D01*
G01*
G37*
G36*
G01*
X132347500Y-80125000D02*
X133097500Y-80125000D01*
G75*
G02*
X133160000Y-80187500I0J-62500D01*
G01*
X133160000Y-80312500D01*
G75*
G02*
X133097500Y-80375000I-62500J0D01*
G01*
X132347500Y-80375000D01*
G75*
G02*
X132285000Y-80312500I0J62500D01*
G01*
X132285000Y-80187500D01*
G75*
G02*
X132347500Y-80125000I62500J0D01*
G01*
G37*
G36*
G01*
X132347500Y-80625000D02*
X133097500Y-80625000D01*
G75*
G02*
X133160000Y-80687500I0J-62500D01*
G01*
X133160000Y-80812500D01*
G75*
G02*
X133097500Y-80875000I-62500J0D01*
G01*
X132347500Y-80875000D01*
G75*
G02*
X132285000Y-80812500I0J62500D01*
G01*
X132285000Y-80687500D01*
G75*
G02*
X132347500Y-80625000I62500J0D01*
G01*
G37*
G36*
G01*
X133347500Y-81000000D02*
X133472500Y-81000000D01*
G75*
G02*
X133535000Y-81062500I0J-62500D01*
G01*
X133535000Y-81812500D01*
G75*
G02*
X133472500Y-81875000I-62500J0D01*
G01*
X133347500Y-81875000D01*
G75*
G02*
X133285000Y-81812500I0J62500D01*
G01*
X133285000Y-81062500D01*
G75*
G02*
X133347500Y-81000000I62500J0D01*
G01*
G37*
G36*
G01*
X133847500Y-81000000D02*
X133972500Y-81000000D01*
G75*
G02*
X134035000Y-81062500I0J-62500D01*
G01*
X134035000Y-81812500D01*
G75*
G02*
X133972500Y-81875000I-62500J0D01*
G01*
X133847500Y-81875000D01*
G75*
G02*
X133785000Y-81812500I0J62500D01*
G01*
X133785000Y-81062500D01*
G75*
G02*
X133847500Y-81000000I62500J0D01*
G01*
G37*
G36*
G01*
X134347500Y-81000000D02*
X134472500Y-81000000D01*
G75*
G02*
X134535000Y-81062500I0J-62500D01*
G01*
X134535000Y-81812500D01*
G75*
G02*
X134472500Y-81875000I-62500J0D01*
G01*
X134347500Y-81875000D01*
G75*
G02*
X134285000Y-81812500I0J62500D01*
G01*
X134285000Y-81062500D01*
G75*
G02*
X134347500Y-81000000I62500J0D01*
G01*
G37*
G36*
G01*
X134847500Y-81000000D02*
X134972500Y-81000000D01*
G75*
G02*
X135035000Y-81062500I0J-62500D01*
G01*
X135035000Y-81812500D01*
G75*
G02*
X134972500Y-81875000I-62500J0D01*
G01*
X134847500Y-81875000D01*
G75*
G02*
X134785000Y-81812500I0J62500D01*
G01*
X134785000Y-81062500D01*
G75*
G02*
X134847500Y-81000000I62500J0D01*
G01*
G37*
G36*
G01*
X135347500Y-81000000D02*
X135472500Y-81000000D01*
G75*
G02*
X135535000Y-81062500I0J-62500D01*
G01*
X135535000Y-81812500D01*
G75*
G02*
X135472500Y-81875000I-62500J0D01*
G01*
X135347500Y-81875000D01*
G75*
G02*
X135285000Y-81812500I0J62500D01*
G01*
X135285000Y-81062500D01*
G75*
G02*
X135347500Y-81000000I62500J0D01*
G01*
G37*
G36*
G01*
X135847500Y-81000000D02*
X135972500Y-81000000D01*
G75*
G02*
X136035000Y-81062500I0J-62500D01*
G01*
X136035000Y-81812500D01*
G75*
G02*
X135972500Y-81875000I-62500J0D01*
G01*
X135847500Y-81875000D01*
G75*
G02*
X135785000Y-81812500I0J62500D01*
G01*
X135785000Y-81062500D01*
G75*
G02*
X135847500Y-81000000I62500J0D01*
G01*
G37*
G36*
G01*
X136347500Y-81000000D02*
X136472500Y-81000000D01*
G75*
G02*
X136535000Y-81062500I0J-62500D01*
G01*
X136535000Y-81812500D01*
G75*
G02*
X136472500Y-81875000I-62500J0D01*
G01*
X136347500Y-81875000D01*
G75*
G02*
X136285000Y-81812500I0J62500D01*
G01*
X136285000Y-81062500D01*
G75*
G02*
X136347500Y-81000000I62500J0D01*
G01*
G37*
G36*
G01*
X136847500Y-81000000D02*
X136972500Y-81000000D01*
G75*
G02*
X137035000Y-81062500I0J-62500D01*
G01*
X137035000Y-81812500D01*
G75*
G02*
X136972500Y-81875000I-62500J0D01*
G01*
X136847500Y-81875000D01*
G75*
G02*
X136785000Y-81812500I0J62500D01*
G01*
X136785000Y-81062500D01*
G75*
G02*
X136847500Y-81000000I62500J0D01*
G01*
G37*
G36*
G01*
X137222500Y-80625000D02*
X137972500Y-80625000D01*
G75*
G02*
X138035000Y-80687500I0J-62500D01*
G01*
X138035000Y-80812500D01*
G75*
G02*
X137972500Y-80875000I-62500J0D01*
G01*
X137222500Y-80875000D01*
G75*
G02*
X137160000Y-80812500I0J62500D01*
G01*
X137160000Y-80687500D01*
G75*
G02*
X137222500Y-80625000I62500J0D01*
G01*
G37*
G36*
G01*
X137222500Y-80125000D02*
X137972500Y-80125000D01*
G75*
G02*
X138035000Y-80187500I0J-62500D01*
G01*
X138035000Y-80312500D01*
G75*
G02*
X137972500Y-80375000I-62500J0D01*
G01*
X137222500Y-80375000D01*
G75*
G02*
X137160000Y-80312500I0J62500D01*
G01*
X137160000Y-80187500D01*
G75*
G02*
X137222500Y-80125000I62500J0D01*
G01*
G37*
G36*
G01*
X137222500Y-79625000D02*
X137972500Y-79625000D01*
G75*
G02*
X138035000Y-79687500I0J-62500D01*
G01*
X138035000Y-79812500D01*
G75*
G02*
X137972500Y-79875000I-62500J0D01*
G01*
X137222500Y-79875000D01*
G75*
G02*
X137160000Y-79812500I0J62500D01*
G01*
X137160000Y-79687500D01*
G75*
G02*
X137222500Y-79625000I62500J0D01*
G01*
G37*
G36*
G01*
X137222500Y-79125000D02*
X137972500Y-79125000D01*
G75*
G02*
X138035000Y-79187500I0J-62500D01*
G01*
X138035000Y-79312500D01*
G75*
G02*
X137972500Y-79375000I-62500J0D01*
G01*
X137222500Y-79375000D01*
G75*
G02*
X137160000Y-79312500I0J62500D01*
G01*
X137160000Y-79187500D01*
G75*
G02*
X137222500Y-79125000I62500J0D01*
G01*
G37*
G36*
G01*
X137222500Y-78625000D02*
X137972500Y-78625000D01*
G75*
G02*
X138035000Y-78687500I0J-62500D01*
G01*
X138035000Y-78812500D01*
G75*
G02*
X137972500Y-78875000I-62500J0D01*
G01*
X137222500Y-78875000D01*
G75*
G02*
X137160000Y-78812500I0J62500D01*
G01*
X137160000Y-78687500D01*
G75*
G02*
X137222500Y-78625000I62500J0D01*
G01*
G37*
G36*
G01*
X137222500Y-78125000D02*
X137972500Y-78125000D01*
G75*
G02*
X138035000Y-78187500I0J-62500D01*
G01*
X138035000Y-78312500D01*
G75*
G02*
X137972500Y-78375000I-62500J0D01*
G01*
X137222500Y-78375000D01*
G75*
G02*
X137160000Y-78312500I0J62500D01*
G01*
X137160000Y-78187500D01*
G75*
G02*
X137222500Y-78125000I62500J0D01*
G01*
G37*
G36*
G01*
X137222500Y-77625000D02*
X137972500Y-77625000D01*
G75*
G02*
X138035000Y-77687500I0J-62500D01*
G01*
X138035000Y-77812500D01*
G75*
G02*
X137972500Y-77875000I-62500J0D01*
G01*
X137222500Y-77875000D01*
G75*
G02*
X137160000Y-77812500I0J62500D01*
G01*
X137160000Y-77687500D01*
G75*
G02*
X137222500Y-77625000I62500J0D01*
G01*
G37*
G36*
G01*
X137222500Y-77125000D02*
X137972500Y-77125000D01*
G75*
G02*
X138035000Y-77187500I0J-62500D01*
G01*
X138035000Y-77312500D01*
G75*
G02*
X137972500Y-77375000I-62500J0D01*
G01*
X137222500Y-77375000D01*
G75*
G02*
X137160000Y-77312500I0J62500D01*
G01*
X137160000Y-77187500D01*
G75*
G02*
X137222500Y-77125000I62500J0D01*
G01*
G37*
G36*
G01*
X136847500Y-76125000D02*
X136972500Y-76125000D01*
G75*
G02*
X137035000Y-76187500I0J-62500D01*
G01*
X137035000Y-76937500D01*
G75*
G02*
X136972500Y-77000000I-62500J0D01*
G01*
X136847500Y-77000000D01*
G75*
G02*
X136785000Y-76937500I0J62500D01*
G01*
X136785000Y-76187500D01*
G75*
G02*
X136847500Y-76125000I62500J0D01*
G01*
G37*
G36*
G01*
X136347500Y-76125000D02*
X136472500Y-76125000D01*
G75*
G02*
X136535000Y-76187500I0J-62500D01*
G01*
X136535000Y-76937500D01*
G75*
G02*
X136472500Y-77000000I-62500J0D01*
G01*
X136347500Y-77000000D01*
G75*
G02*
X136285000Y-76937500I0J62500D01*
G01*
X136285000Y-76187500D01*
G75*
G02*
X136347500Y-76125000I62500J0D01*
G01*
G37*
G36*
G01*
X135847500Y-76125000D02*
X135972500Y-76125000D01*
G75*
G02*
X136035000Y-76187500I0J-62500D01*
G01*
X136035000Y-76937500D01*
G75*
G02*
X135972500Y-77000000I-62500J0D01*
G01*
X135847500Y-77000000D01*
G75*
G02*
X135785000Y-76937500I0J62500D01*
G01*
X135785000Y-76187500D01*
G75*
G02*
X135847500Y-76125000I62500J0D01*
G01*
G37*
G36*
G01*
X135347500Y-76125000D02*
X135472500Y-76125000D01*
G75*
G02*
X135535000Y-76187500I0J-62500D01*
G01*
X135535000Y-76937500D01*
G75*
G02*
X135472500Y-77000000I-62500J0D01*
G01*
X135347500Y-77000000D01*
G75*
G02*
X135285000Y-76937500I0J62500D01*
G01*
X135285000Y-76187500D01*
G75*
G02*
X135347500Y-76125000I62500J0D01*
G01*
G37*
G36*
G01*
X134847500Y-76125000D02*
X134972500Y-76125000D01*
G75*
G02*
X135035000Y-76187500I0J-62500D01*
G01*
X135035000Y-76937500D01*
G75*
G02*
X134972500Y-77000000I-62500J0D01*
G01*
X134847500Y-77000000D01*
G75*
G02*
X134785000Y-76937500I0J62500D01*
G01*
X134785000Y-76187500D01*
G75*
G02*
X134847500Y-76125000I62500J0D01*
G01*
G37*
G36*
G01*
X134347500Y-76125000D02*
X134472500Y-76125000D01*
G75*
G02*
X134535000Y-76187500I0J-62500D01*
G01*
X134535000Y-76937500D01*
G75*
G02*
X134472500Y-77000000I-62500J0D01*
G01*
X134347500Y-77000000D01*
G75*
G02*
X134285000Y-76937500I0J62500D01*
G01*
X134285000Y-76187500D01*
G75*
G02*
X134347500Y-76125000I62500J0D01*
G01*
G37*
G36*
G01*
X133847500Y-76125000D02*
X133972500Y-76125000D01*
G75*
G02*
X134035000Y-76187500I0J-62500D01*
G01*
X134035000Y-76937500D01*
G75*
G02*
X133972500Y-77000000I-62500J0D01*
G01*
X133847500Y-77000000D01*
G75*
G02*
X133785000Y-76937500I0J62500D01*
G01*
X133785000Y-76187500D01*
G75*
G02*
X133847500Y-76125000I62500J0D01*
G01*
G37*
G36*
G01*
X133347500Y-76125000D02*
X133472500Y-76125000D01*
G75*
G02*
X133535000Y-76187500I0J-62500D01*
G01*
X133535000Y-76937500D01*
G75*
G02*
X133472500Y-77000000I-62500J0D01*
G01*
X133347500Y-77000000D01*
G75*
G02*
X133285000Y-76937500I0J62500D01*
G01*
X133285000Y-76187500D01*
G75*
G02*
X133347500Y-76125000I62500J0D01*
G01*
G37*
%TD*%
%TO.C,R65*%
G36*
G01*
X139450000Y-73652500D02*
X139450000Y-73307500D01*
G75*
G02*
X139597500Y-73160000I147500J0D01*
G01*
X139892500Y-73160000D01*
G75*
G02*
X140040000Y-73307500I0J-147500D01*
G01*
X140040000Y-73652500D01*
G75*
G02*
X139892500Y-73800000I-147500J0D01*
G01*
X139597500Y-73800000D01*
G75*
G02*
X139450000Y-73652500I0J147500D01*
G01*
G37*
G36*
G01*
X138480000Y-73652500D02*
X138480000Y-73307500D01*
G75*
G02*
X138627500Y-73160000I147500J0D01*
G01*
X138922500Y-73160000D01*
G75*
G02*
X139070000Y-73307500I0J-147500D01*
G01*
X139070000Y-73652500D01*
G75*
G02*
X138922500Y-73800000I-147500J0D01*
G01*
X138627500Y-73800000D01*
G75*
G02*
X138480000Y-73652500I0J147500D01*
G01*
G37*
%TD*%
%TO.C,U9*%
G36*
G01*
X136077500Y-94445000D02*
X136542500Y-94445000D01*
G75*
G02*
X136775000Y-94677500I0J-232500D01*
G01*
X136775000Y-95142500D01*
G75*
G02*
X136542500Y-95375000I-232500J0D01*
G01*
X136077500Y-95375000D01*
G75*
G02*
X135845000Y-95142500I0J232500D01*
G01*
X135845000Y-94677500D01*
G75*
G02*
X136077500Y-94445000I232500J0D01*
G01*
G37*
G36*
G01*
X134927500Y-94445000D02*
X135392500Y-94445000D01*
G75*
G02*
X135625000Y-94677500I0J-232500D01*
G01*
X135625000Y-95142500D01*
G75*
G02*
X135392500Y-95375000I-232500J0D01*
G01*
X134927500Y-95375000D01*
G75*
G02*
X134695000Y-95142500I0J232500D01*
G01*
X134695000Y-94677500D01*
G75*
G02*
X134927500Y-94445000I232500J0D01*
G01*
G37*
G36*
G01*
X133777500Y-94445000D02*
X134242500Y-94445000D01*
G75*
G02*
X134475000Y-94677500I0J-232500D01*
G01*
X134475000Y-95142500D01*
G75*
G02*
X134242500Y-95375000I-232500J0D01*
G01*
X133777500Y-95375000D01*
G75*
G02*
X133545000Y-95142500I0J232500D01*
G01*
X133545000Y-94677500D01*
G75*
G02*
X133777500Y-94445000I232500J0D01*
G01*
G37*
G36*
G01*
X136077500Y-93295000D02*
X136542500Y-93295000D01*
G75*
G02*
X136775000Y-93527500I0J-232500D01*
G01*
X136775000Y-93992500D01*
G75*
G02*
X136542500Y-94225000I-232500J0D01*
G01*
X136077500Y-94225000D01*
G75*
G02*
X135845000Y-93992500I0J232500D01*
G01*
X135845000Y-93527500D01*
G75*
G02*
X136077500Y-93295000I232500J0D01*
G01*
G37*
G36*
G01*
X134927500Y-93295000D02*
X135392500Y-93295000D01*
G75*
G02*
X135625000Y-93527500I0J-232500D01*
G01*
X135625000Y-93992500D01*
G75*
G02*
X135392500Y-94225000I-232500J0D01*
G01*
X134927500Y-94225000D01*
G75*
G02*
X134695000Y-93992500I0J232500D01*
G01*
X134695000Y-93527500D01*
G75*
G02*
X134927500Y-93295000I232500J0D01*
G01*
G37*
G36*
G01*
X133777500Y-93295000D02*
X134242500Y-93295000D01*
G75*
G02*
X134475000Y-93527500I0J-232500D01*
G01*
X134475000Y-93992500D01*
G75*
G02*
X134242500Y-94225000I-232500J0D01*
G01*
X133777500Y-94225000D01*
G75*
G02*
X133545000Y-93992500I0J232500D01*
G01*
X133545000Y-93527500D01*
G75*
G02*
X133777500Y-93295000I232500J0D01*
G01*
G37*
G36*
G01*
X136077500Y-92145000D02*
X136542500Y-92145000D01*
G75*
G02*
X136775000Y-92377500I0J-232500D01*
G01*
X136775000Y-92842500D01*
G75*
G02*
X136542500Y-93075000I-232500J0D01*
G01*
X136077500Y-93075000D01*
G75*
G02*
X135845000Y-92842500I0J232500D01*
G01*
X135845000Y-92377500D01*
G75*
G02*
X136077500Y-92145000I232500J0D01*
G01*
G37*
G36*
G01*
X134927500Y-92145000D02*
X135392500Y-92145000D01*
G75*
G02*
X135625000Y-92377500I0J-232500D01*
G01*
X135625000Y-92842500D01*
G75*
G02*
X135392500Y-93075000I-232500J0D01*
G01*
X134927500Y-93075000D01*
G75*
G02*
X134695000Y-92842500I0J232500D01*
G01*
X134695000Y-92377500D01*
G75*
G02*
X134927500Y-92145000I232500J0D01*
G01*
G37*
G36*
G01*
X133777500Y-92145000D02*
X134242500Y-92145000D01*
G75*
G02*
X134475000Y-92377500I0J-232500D01*
G01*
X134475000Y-92842500D01*
G75*
G02*
X134242500Y-93075000I-232500J0D01*
G01*
X133777500Y-93075000D01*
G75*
G02*
X133545000Y-92842500I0J232500D01*
G01*
X133545000Y-92377500D01*
G75*
G02*
X133777500Y-92145000I232500J0D01*
G01*
G37*
G36*
G01*
X132347500Y-91885000D02*
X133097500Y-91885000D01*
G75*
G02*
X133160000Y-91947500I0J-62500D01*
G01*
X133160000Y-92072500D01*
G75*
G02*
X133097500Y-92135000I-62500J0D01*
G01*
X132347500Y-92135000D01*
G75*
G02*
X132285000Y-92072500I0J62500D01*
G01*
X132285000Y-91947500D01*
G75*
G02*
X132347500Y-91885000I62500J0D01*
G01*
G37*
G36*
G01*
X132347500Y-92385000D02*
X133097500Y-92385000D01*
G75*
G02*
X133160000Y-92447500I0J-62500D01*
G01*
X133160000Y-92572500D01*
G75*
G02*
X133097500Y-92635000I-62500J0D01*
G01*
X132347500Y-92635000D01*
G75*
G02*
X132285000Y-92572500I0J62500D01*
G01*
X132285000Y-92447500D01*
G75*
G02*
X132347500Y-92385000I62500J0D01*
G01*
G37*
G36*
G01*
X132347500Y-92885000D02*
X133097500Y-92885000D01*
G75*
G02*
X133160000Y-92947500I0J-62500D01*
G01*
X133160000Y-93072500D01*
G75*
G02*
X133097500Y-93135000I-62500J0D01*
G01*
X132347500Y-93135000D01*
G75*
G02*
X132285000Y-93072500I0J62500D01*
G01*
X132285000Y-92947500D01*
G75*
G02*
X132347500Y-92885000I62500J0D01*
G01*
G37*
G36*
G01*
X132347500Y-93385000D02*
X133097500Y-93385000D01*
G75*
G02*
X133160000Y-93447500I0J-62500D01*
G01*
X133160000Y-93572500D01*
G75*
G02*
X133097500Y-93635000I-62500J0D01*
G01*
X132347500Y-93635000D01*
G75*
G02*
X132285000Y-93572500I0J62500D01*
G01*
X132285000Y-93447500D01*
G75*
G02*
X132347500Y-93385000I62500J0D01*
G01*
G37*
G36*
G01*
X132347500Y-93885000D02*
X133097500Y-93885000D01*
G75*
G02*
X133160000Y-93947500I0J-62500D01*
G01*
X133160000Y-94072500D01*
G75*
G02*
X133097500Y-94135000I-62500J0D01*
G01*
X132347500Y-94135000D01*
G75*
G02*
X132285000Y-94072500I0J62500D01*
G01*
X132285000Y-93947500D01*
G75*
G02*
X132347500Y-93885000I62500J0D01*
G01*
G37*
G36*
G01*
X132347500Y-94385000D02*
X133097500Y-94385000D01*
G75*
G02*
X133160000Y-94447500I0J-62500D01*
G01*
X133160000Y-94572500D01*
G75*
G02*
X133097500Y-94635000I-62500J0D01*
G01*
X132347500Y-94635000D01*
G75*
G02*
X132285000Y-94572500I0J62500D01*
G01*
X132285000Y-94447500D01*
G75*
G02*
X132347500Y-94385000I62500J0D01*
G01*
G37*
G36*
G01*
X132347500Y-94885000D02*
X133097500Y-94885000D01*
G75*
G02*
X133160000Y-94947500I0J-62500D01*
G01*
X133160000Y-95072500D01*
G75*
G02*
X133097500Y-95135000I-62500J0D01*
G01*
X132347500Y-95135000D01*
G75*
G02*
X132285000Y-95072500I0J62500D01*
G01*
X132285000Y-94947500D01*
G75*
G02*
X132347500Y-94885000I62500J0D01*
G01*
G37*
G36*
G01*
X132347500Y-95385000D02*
X133097500Y-95385000D01*
G75*
G02*
X133160000Y-95447500I0J-62500D01*
G01*
X133160000Y-95572500D01*
G75*
G02*
X133097500Y-95635000I-62500J0D01*
G01*
X132347500Y-95635000D01*
G75*
G02*
X132285000Y-95572500I0J62500D01*
G01*
X132285000Y-95447500D01*
G75*
G02*
X132347500Y-95385000I62500J0D01*
G01*
G37*
G36*
G01*
X133347500Y-95760000D02*
X133472500Y-95760000D01*
G75*
G02*
X133535000Y-95822500I0J-62500D01*
G01*
X133535000Y-96572500D01*
G75*
G02*
X133472500Y-96635000I-62500J0D01*
G01*
X133347500Y-96635000D01*
G75*
G02*
X133285000Y-96572500I0J62500D01*
G01*
X133285000Y-95822500D01*
G75*
G02*
X133347500Y-95760000I62500J0D01*
G01*
G37*
G36*
G01*
X133847500Y-95760000D02*
X133972500Y-95760000D01*
G75*
G02*
X134035000Y-95822500I0J-62500D01*
G01*
X134035000Y-96572500D01*
G75*
G02*
X133972500Y-96635000I-62500J0D01*
G01*
X133847500Y-96635000D01*
G75*
G02*
X133785000Y-96572500I0J62500D01*
G01*
X133785000Y-95822500D01*
G75*
G02*
X133847500Y-95760000I62500J0D01*
G01*
G37*
G36*
G01*
X134347500Y-95760000D02*
X134472500Y-95760000D01*
G75*
G02*
X134535000Y-95822500I0J-62500D01*
G01*
X134535000Y-96572500D01*
G75*
G02*
X134472500Y-96635000I-62500J0D01*
G01*
X134347500Y-96635000D01*
G75*
G02*
X134285000Y-96572500I0J62500D01*
G01*
X134285000Y-95822500D01*
G75*
G02*
X134347500Y-95760000I62500J0D01*
G01*
G37*
G36*
G01*
X134847500Y-95760000D02*
X134972500Y-95760000D01*
G75*
G02*
X135035000Y-95822500I0J-62500D01*
G01*
X135035000Y-96572500D01*
G75*
G02*
X134972500Y-96635000I-62500J0D01*
G01*
X134847500Y-96635000D01*
G75*
G02*
X134785000Y-96572500I0J62500D01*
G01*
X134785000Y-95822500D01*
G75*
G02*
X134847500Y-95760000I62500J0D01*
G01*
G37*
G36*
G01*
X135347500Y-95760000D02*
X135472500Y-95760000D01*
G75*
G02*
X135535000Y-95822500I0J-62500D01*
G01*
X135535000Y-96572500D01*
G75*
G02*
X135472500Y-96635000I-62500J0D01*
G01*
X135347500Y-96635000D01*
G75*
G02*
X135285000Y-96572500I0J62500D01*
G01*
X135285000Y-95822500D01*
G75*
G02*
X135347500Y-95760000I62500J0D01*
G01*
G37*
G36*
G01*
X135847500Y-95760000D02*
X135972500Y-95760000D01*
G75*
G02*
X136035000Y-95822500I0J-62500D01*
G01*
X136035000Y-96572500D01*
G75*
G02*
X135972500Y-96635000I-62500J0D01*
G01*
X135847500Y-96635000D01*
G75*
G02*
X135785000Y-96572500I0J62500D01*
G01*
X135785000Y-95822500D01*
G75*
G02*
X135847500Y-95760000I62500J0D01*
G01*
G37*
G36*
G01*
X136347500Y-95760000D02*
X136472500Y-95760000D01*
G75*
G02*
X136535000Y-95822500I0J-62500D01*
G01*
X136535000Y-96572500D01*
G75*
G02*
X136472500Y-96635000I-62500J0D01*
G01*
X136347500Y-96635000D01*
G75*
G02*
X136285000Y-96572500I0J62500D01*
G01*
X136285000Y-95822500D01*
G75*
G02*
X136347500Y-95760000I62500J0D01*
G01*
G37*
G36*
G01*
X136847500Y-95760000D02*
X136972500Y-95760000D01*
G75*
G02*
X137035000Y-95822500I0J-62500D01*
G01*
X137035000Y-96572500D01*
G75*
G02*
X136972500Y-96635000I-62500J0D01*
G01*
X136847500Y-96635000D01*
G75*
G02*
X136785000Y-96572500I0J62500D01*
G01*
X136785000Y-95822500D01*
G75*
G02*
X136847500Y-95760000I62500J0D01*
G01*
G37*
G36*
G01*
X137222500Y-95385000D02*
X137972500Y-95385000D01*
G75*
G02*
X138035000Y-95447500I0J-62500D01*
G01*
X138035000Y-95572500D01*
G75*
G02*
X137972500Y-95635000I-62500J0D01*
G01*
X137222500Y-95635000D01*
G75*
G02*
X137160000Y-95572500I0J62500D01*
G01*
X137160000Y-95447500D01*
G75*
G02*
X137222500Y-95385000I62500J0D01*
G01*
G37*
G36*
G01*
X137222500Y-94885000D02*
X137972500Y-94885000D01*
G75*
G02*
X138035000Y-94947500I0J-62500D01*
G01*
X138035000Y-95072500D01*
G75*
G02*
X137972500Y-95135000I-62500J0D01*
G01*
X137222500Y-95135000D01*
G75*
G02*
X137160000Y-95072500I0J62500D01*
G01*
X137160000Y-94947500D01*
G75*
G02*
X137222500Y-94885000I62500J0D01*
G01*
G37*
G36*
G01*
X137222500Y-94385000D02*
X137972500Y-94385000D01*
G75*
G02*
X138035000Y-94447500I0J-62500D01*
G01*
X138035000Y-94572500D01*
G75*
G02*
X137972500Y-94635000I-62500J0D01*
G01*
X137222500Y-94635000D01*
G75*
G02*
X137160000Y-94572500I0J62500D01*
G01*
X137160000Y-94447500D01*
G75*
G02*
X137222500Y-94385000I62500J0D01*
G01*
G37*
G36*
G01*
X137222500Y-93885000D02*
X137972500Y-93885000D01*
G75*
G02*
X138035000Y-93947500I0J-62500D01*
G01*
X138035000Y-94072500D01*
G75*
G02*
X137972500Y-94135000I-62500J0D01*
G01*
X137222500Y-94135000D01*
G75*
G02*
X137160000Y-94072500I0J62500D01*
G01*
X137160000Y-93947500D01*
G75*
G02*
X137222500Y-93885000I62500J0D01*
G01*
G37*
G36*
G01*
X137222500Y-93385000D02*
X137972500Y-93385000D01*
G75*
G02*
X138035000Y-93447500I0J-62500D01*
G01*
X138035000Y-93572500D01*
G75*
G02*
X137972500Y-93635000I-62500J0D01*
G01*
X137222500Y-93635000D01*
G75*
G02*
X137160000Y-93572500I0J62500D01*
G01*
X137160000Y-93447500D01*
G75*
G02*
X137222500Y-93385000I62500J0D01*
G01*
G37*
G36*
G01*
X137222500Y-92885000D02*
X137972500Y-92885000D01*
G75*
G02*
X138035000Y-92947500I0J-62500D01*
G01*
X138035000Y-93072500D01*
G75*
G02*
X137972500Y-93135000I-62500J0D01*
G01*
X137222500Y-93135000D01*
G75*
G02*
X137160000Y-93072500I0J62500D01*
G01*
X137160000Y-92947500D01*
G75*
G02*
X137222500Y-92885000I62500J0D01*
G01*
G37*
G36*
G01*
X137222500Y-92385000D02*
X137972500Y-92385000D01*
G75*
G02*
X138035000Y-92447500I0J-62500D01*
G01*
X138035000Y-92572500D01*
G75*
G02*
X137972500Y-92635000I-62500J0D01*
G01*
X137222500Y-92635000D01*
G75*
G02*
X137160000Y-92572500I0J62500D01*
G01*
X137160000Y-92447500D01*
G75*
G02*
X137222500Y-92385000I62500J0D01*
G01*
G37*
G36*
G01*
X137222500Y-91885000D02*
X137972500Y-91885000D01*
G75*
G02*
X138035000Y-91947500I0J-62500D01*
G01*
X138035000Y-92072500D01*
G75*
G02*
X137972500Y-92135000I-62500J0D01*
G01*
X137222500Y-92135000D01*
G75*
G02*
X137160000Y-92072500I0J62500D01*
G01*
X137160000Y-91947500D01*
G75*
G02*
X137222500Y-91885000I62500J0D01*
G01*
G37*
G36*
G01*
X136847500Y-90885000D02*
X136972500Y-90885000D01*
G75*
G02*
X137035000Y-90947500I0J-62500D01*
G01*
X137035000Y-91697500D01*
G75*
G02*
X136972500Y-91760000I-62500J0D01*
G01*
X136847500Y-91760000D01*
G75*
G02*
X136785000Y-91697500I0J62500D01*
G01*
X136785000Y-90947500D01*
G75*
G02*
X136847500Y-90885000I62500J0D01*
G01*
G37*
G36*
G01*
X136347500Y-90885000D02*
X136472500Y-90885000D01*
G75*
G02*
X136535000Y-90947500I0J-62500D01*
G01*
X136535000Y-91697500D01*
G75*
G02*
X136472500Y-91760000I-62500J0D01*
G01*
X136347500Y-91760000D01*
G75*
G02*
X136285000Y-91697500I0J62500D01*
G01*
X136285000Y-90947500D01*
G75*
G02*
X136347500Y-90885000I62500J0D01*
G01*
G37*
G36*
G01*
X135847500Y-90885000D02*
X135972500Y-90885000D01*
G75*
G02*
X136035000Y-90947500I0J-62500D01*
G01*
X136035000Y-91697500D01*
G75*
G02*
X135972500Y-91760000I-62500J0D01*
G01*
X135847500Y-91760000D01*
G75*
G02*
X135785000Y-91697500I0J62500D01*
G01*
X135785000Y-90947500D01*
G75*
G02*
X135847500Y-90885000I62500J0D01*
G01*
G37*
G36*
G01*
X135347500Y-90885000D02*
X135472500Y-90885000D01*
G75*
G02*
X135535000Y-90947500I0J-62500D01*
G01*
X135535000Y-91697500D01*
G75*
G02*
X135472500Y-91760000I-62500J0D01*
G01*
X135347500Y-91760000D01*
G75*
G02*
X135285000Y-91697500I0J62500D01*
G01*
X135285000Y-90947500D01*
G75*
G02*
X135347500Y-90885000I62500J0D01*
G01*
G37*
G36*
G01*
X134847500Y-90885000D02*
X134972500Y-90885000D01*
G75*
G02*
X135035000Y-90947500I0J-62500D01*
G01*
X135035000Y-91697500D01*
G75*
G02*
X134972500Y-91760000I-62500J0D01*
G01*
X134847500Y-91760000D01*
G75*
G02*
X134785000Y-91697500I0J62500D01*
G01*
X134785000Y-90947500D01*
G75*
G02*
X134847500Y-90885000I62500J0D01*
G01*
G37*
G36*
G01*
X134347500Y-90885000D02*
X134472500Y-90885000D01*
G75*
G02*
X134535000Y-90947500I0J-62500D01*
G01*
X134535000Y-91697500D01*
G75*
G02*
X134472500Y-91760000I-62500J0D01*
G01*
X134347500Y-91760000D01*
G75*
G02*
X134285000Y-91697500I0J62500D01*
G01*
X134285000Y-90947500D01*
G75*
G02*
X134347500Y-90885000I62500J0D01*
G01*
G37*
G36*
G01*
X133847500Y-90885000D02*
X133972500Y-90885000D01*
G75*
G02*
X134035000Y-90947500I0J-62500D01*
G01*
X134035000Y-91697500D01*
G75*
G02*
X133972500Y-91760000I-62500J0D01*
G01*
X133847500Y-91760000D01*
G75*
G02*
X133785000Y-91697500I0J62500D01*
G01*
X133785000Y-90947500D01*
G75*
G02*
X133847500Y-90885000I62500J0D01*
G01*
G37*
G36*
G01*
X133347500Y-90885000D02*
X133472500Y-90885000D01*
G75*
G02*
X133535000Y-90947500I0J-62500D01*
G01*
X133535000Y-91697500D01*
G75*
G02*
X133472500Y-91760000I-62500J0D01*
G01*
X133347500Y-91760000D01*
G75*
G02*
X133285000Y-91697500I0J62500D01*
G01*
X133285000Y-90947500D01*
G75*
G02*
X133347500Y-90885000I62500J0D01*
G01*
G37*
%TD*%
%TO.C,U6*%
G36*
G01*
X143922500Y-82555000D02*
X143457500Y-82555000D01*
G75*
G02*
X143225000Y-82322500I0J232500D01*
G01*
X143225000Y-81857500D01*
G75*
G02*
X143457500Y-81625000I232500J0D01*
G01*
X143922500Y-81625000D01*
G75*
G02*
X144155000Y-81857500I0J-232500D01*
G01*
X144155000Y-82322500D01*
G75*
G02*
X143922500Y-82555000I-232500J0D01*
G01*
G37*
G36*
G01*
X145072500Y-82555000D02*
X144607500Y-82555000D01*
G75*
G02*
X144375000Y-82322500I0J232500D01*
G01*
X144375000Y-81857500D01*
G75*
G02*
X144607500Y-81625000I232500J0D01*
G01*
X145072500Y-81625000D01*
G75*
G02*
X145305000Y-81857500I0J-232500D01*
G01*
X145305000Y-82322500D01*
G75*
G02*
X145072500Y-82555000I-232500J0D01*
G01*
G37*
G36*
G01*
X146222500Y-82555000D02*
X145757500Y-82555000D01*
G75*
G02*
X145525000Y-82322500I0J232500D01*
G01*
X145525000Y-81857500D01*
G75*
G02*
X145757500Y-81625000I232500J0D01*
G01*
X146222500Y-81625000D01*
G75*
G02*
X146455000Y-81857500I0J-232500D01*
G01*
X146455000Y-82322500D01*
G75*
G02*
X146222500Y-82555000I-232500J0D01*
G01*
G37*
G36*
G01*
X143922500Y-83705000D02*
X143457500Y-83705000D01*
G75*
G02*
X143225000Y-83472500I0J232500D01*
G01*
X143225000Y-83007500D01*
G75*
G02*
X143457500Y-82775000I232500J0D01*
G01*
X143922500Y-82775000D01*
G75*
G02*
X144155000Y-83007500I0J-232500D01*
G01*
X144155000Y-83472500D01*
G75*
G02*
X143922500Y-83705000I-232500J0D01*
G01*
G37*
G36*
G01*
X145072500Y-83705000D02*
X144607500Y-83705000D01*
G75*
G02*
X144375000Y-83472500I0J232500D01*
G01*
X144375000Y-83007500D01*
G75*
G02*
X144607500Y-82775000I232500J0D01*
G01*
X145072500Y-82775000D01*
G75*
G02*
X145305000Y-83007500I0J-232500D01*
G01*
X145305000Y-83472500D01*
G75*
G02*
X145072500Y-83705000I-232500J0D01*
G01*
G37*
G36*
G01*
X146222500Y-83705000D02*
X145757500Y-83705000D01*
G75*
G02*
X145525000Y-83472500I0J232500D01*
G01*
X145525000Y-83007500D01*
G75*
G02*
X145757500Y-82775000I232500J0D01*
G01*
X146222500Y-82775000D01*
G75*
G02*
X146455000Y-83007500I0J-232500D01*
G01*
X146455000Y-83472500D01*
G75*
G02*
X146222500Y-83705000I-232500J0D01*
G01*
G37*
G36*
G01*
X143922500Y-84855000D02*
X143457500Y-84855000D01*
G75*
G02*
X143225000Y-84622500I0J232500D01*
G01*
X143225000Y-84157500D01*
G75*
G02*
X143457500Y-83925000I232500J0D01*
G01*
X143922500Y-83925000D01*
G75*
G02*
X144155000Y-84157500I0J-232500D01*
G01*
X144155000Y-84622500D01*
G75*
G02*
X143922500Y-84855000I-232500J0D01*
G01*
G37*
G36*
G01*
X145072500Y-84855000D02*
X144607500Y-84855000D01*
G75*
G02*
X144375000Y-84622500I0J232500D01*
G01*
X144375000Y-84157500D01*
G75*
G02*
X144607500Y-83925000I232500J0D01*
G01*
X145072500Y-83925000D01*
G75*
G02*
X145305000Y-84157500I0J-232500D01*
G01*
X145305000Y-84622500D01*
G75*
G02*
X145072500Y-84855000I-232500J0D01*
G01*
G37*
G36*
G01*
X146222500Y-84855000D02*
X145757500Y-84855000D01*
G75*
G02*
X145525000Y-84622500I0J232500D01*
G01*
X145525000Y-84157500D01*
G75*
G02*
X145757500Y-83925000I232500J0D01*
G01*
X146222500Y-83925000D01*
G75*
G02*
X146455000Y-84157500I0J-232500D01*
G01*
X146455000Y-84622500D01*
G75*
G02*
X146222500Y-84855000I-232500J0D01*
G01*
G37*
G36*
G01*
X147652500Y-85115000D02*
X146902500Y-85115000D01*
G75*
G02*
X146840000Y-85052500I0J62500D01*
G01*
X146840000Y-84927500D01*
G75*
G02*
X146902500Y-84865000I62500J0D01*
G01*
X147652500Y-84865000D01*
G75*
G02*
X147715000Y-84927500I0J-62500D01*
G01*
X147715000Y-85052500D01*
G75*
G02*
X147652500Y-85115000I-62500J0D01*
G01*
G37*
G36*
G01*
X147652500Y-84615000D02*
X146902500Y-84615000D01*
G75*
G02*
X146840000Y-84552500I0J62500D01*
G01*
X146840000Y-84427500D01*
G75*
G02*
X146902500Y-84365000I62500J0D01*
G01*
X147652500Y-84365000D01*
G75*
G02*
X147715000Y-84427500I0J-62500D01*
G01*
X147715000Y-84552500D01*
G75*
G02*
X147652500Y-84615000I-62500J0D01*
G01*
G37*
G36*
G01*
X147652500Y-84115000D02*
X146902500Y-84115000D01*
G75*
G02*
X146840000Y-84052500I0J62500D01*
G01*
X146840000Y-83927500D01*
G75*
G02*
X146902500Y-83865000I62500J0D01*
G01*
X147652500Y-83865000D01*
G75*
G02*
X147715000Y-83927500I0J-62500D01*
G01*
X147715000Y-84052500D01*
G75*
G02*
X147652500Y-84115000I-62500J0D01*
G01*
G37*
G36*
G01*
X147652500Y-83615000D02*
X146902500Y-83615000D01*
G75*
G02*
X146840000Y-83552500I0J62500D01*
G01*
X146840000Y-83427500D01*
G75*
G02*
X146902500Y-83365000I62500J0D01*
G01*
X147652500Y-83365000D01*
G75*
G02*
X147715000Y-83427500I0J-62500D01*
G01*
X147715000Y-83552500D01*
G75*
G02*
X147652500Y-83615000I-62500J0D01*
G01*
G37*
G36*
G01*
X147652500Y-83115000D02*
X146902500Y-83115000D01*
G75*
G02*
X146840000Y-83052500I0J62500D01*
G01*
X146840000Y-82927500D01*
G75*
G02*
X146902500Y-82865000I62500J0D01*
G01*
X147652500Y-82865000D01*
G75*
G02*
X147715000Y-82927500I0J-62500D01*
G01*
X147715000Y-83052500D01*
G75*
G02*
X147652500Y-83115000I-62500J0D01*
G01*
G37*
G36*
G01*
X147652500Y-82615000D02*
X146902500Y-82615000D01*
G75*
G02*
X146840000Y-82552500I0J62500D01*
G01*
X146840000Y-82427500D01*
G75*
G02*
X146902500Y-82365000I62500J0D01*
G01*
X147652500Y-82365000D01*
G75*
G02*
X147715000Y-82427500I0J-62500D01*
G01*
X147715000Y-82552500D01*
G75*
G02*
X147652500Y-82615000I-62500J0D01*
G01*
G37*
G36*
G01*
X147652500Y-82115000D02*
X146902500Y-82115000D01*
G75*
G02*
X146840000Y-82052500I0J62500D01*
G01*
X146840000Y-81927500D01*
G75*
G02*
X146902500Y-81865000I62500J0D01*
G01*
X147652500Y-81865000D01*
G75*
G02*
X147715000Y-81927500I0J-62500D01*
G01*
X147715000Y-82052500D01*
G75*
G02*
X147652500Y-82115000I-62500J0D01*
G01*
G37*
G36*
G01*
X147652500Y-81615000D02*
X146902500Y-81615000D01*
G75*
G02*
X146840000Y-81552500I0J62500D01*
G01*
X146840000Y-81427500D01*
G75*
G02*
X146902500Y-81365000I62500J0D01*
G01*
X147652500Y-81365000D01*
G75*
G02*
X147715000Y-81427500I0J-62500D01*
G01*
X147715000Y-81552500D01*
G75*
G02*
X147652500Y-81615000I-62500J0D01*
G01*
G37*
G36*
G01*
X146652500Y-81240000D02*
X146527500Y-81240000D01*
G75*
G02*
X146465000Y-81177500I0J62500D01*
G01*
X146465000Y-80427500D01*
G75*
G02*
X146527500Y-80365000I62500J0D01*
G01*
X146652500Y-80365000D01*
G75*
G02*
X146715000Y-80427500I0J-62500D01*
G01*
X146715000Y-81177500D01*
G75*
G02*
X146652500Y-81240000I-62500J0D01*
G01*
G37*
G36*
G01*
X146152500Y-81240000D02*
X146027500Y-81240000D01*
G75*
G02*
X145965000Y-81177500I0J62500D01*
G01*
X145965000Y-80427500D01*
G75*
G02*
X146027500Y-80365000I62500J0D01*
G01*
X146152500Y-80365000D01*
G75*
G02*
X146215000Y-80427500I0J-62500D01*
G01*
X146215000Y-81177500D01*
G75*
G02*
X146152500Y-81240000I-62500J0D01*
G01*
G37*
G36*
G01*
X145652500Y-81240000D02*
X145527500Y-81240000D01*
G75*
G02*
X145465000Y-81177500I0J62500D01*
G01*
X145465000Y-80427500D01*
G75*
G02*
X145527500Y-80365000I62500J0D01*
G01*
X145652500Y-80365000D01*
G75*
G02*
X145715000Y-80427500I0J-62500D01*
G01*
X145715000Y-81177500D01*
G75*
G02*
X145652500Y-81240000I-62500J0D01*
G01*
G37*
G36*
G01*
X145152500Y-81240000D02*
X145027500Y-81240000D01*
G75*
G02*
X144965000Y-81177500I0J62500D01*
G01*
X144965000Y-80427500D01*
G75*
G02*
X145027500Y-80365000I62500J0D01*
G01*
X145152500Y-80365000D01*
G75*
G02*
X145215000Y-80427500I0J-62500D01*
G01*
X145215000Y-81177500D01*
G75*
G02*
X145152500Y-81240000I-62500J0D01*
G01*
G37*
G36*
G01*
X144652500Y-81240000D02*
X144527500Y-81240000D01*
G75*
G02*
X144465000Y-81177500I0J62500D01*
G01*
X144465000Y-80427500D01*
G75*
G02*
X144527500Y-80365000I62500J0D01*
G01*
X144652500Y-80365000D01*
G75*
G02*
X144715000Y-80427500I0J-62500D01*
G01*
X144715000Y-81177500D01*
G75*
G02*
X144652500Y-81240000I-62500J0D01*
G01*
G37*
G36*
G01*
X144152500Y-81240000D02*
X144027500Y-81240000D01*
G75*
G02*
X143965000Y-81177500I0J62500D01*
G01*
X143965000Y-80427500D01*
G75*
G02*
X144027500Y-80365000I62500J0D01*
G01*
X144152500Y-80365000D01*
G75*
G02*
X144215000Y-80427500I0J-62500D01*
G01*
X144215000Y-81177500D01*
G75*
G02*
X144152500Y-81240000I-62500J0D01*
G01*
G37*
G36*
G01*
X143652500Y-81240000D02*
X143527500Y-81240000D01*
G75*
G02*
X143465000Y-81177500I0J62500D01*
G01*
X143465000Y-80427500D01*
G75*
G02*
X143527500Y-80365000I62500J0D01*
G01*
X143652500Y-80365000D01*
G75*
G02*
X143715000Y-80427500I0J-62500D01*
G01*
X143715000Y-81177500D01*
G75*
G02*
X143652500Y-81240000I-62500J0D01*
G01*
G37*
G36*
G01*
X143152500Y-81240000D02*
X143027500Y-81240000D01*
G75*
G02*
X142965000Y-81177500I0J62500D01*
G01*
X142965000Y-80427500D01*
G75*
G02*
X143027500Y-80365000I62500J0D01*
G01*
X143152500Y-80365000D01*
G75*
G02*
X143215000Y-80427500I0J-62500D01*
G01*
X143215000Y-81177500D01*
G75*
G02*
X143152500Y-81240000I-62500J0D01*
G01*
G37*
G36*
G01*
X142777500Y-81615000D02*
X142027500Y-81615000D01*
G75*
G02*
X141965000Y-81552500I0J62500D01*
G01*
X141965000Y-81427500D01*
G75*
G02*
X142027500Y-81365000I62500J0D01*
G01*
X142777500Y-81365000D01*
G75*
G02*
X142840000Y-81427500I0J-62500D01*
G01*
X142840000Y-81552500D01*
G75*
G02*
X142777500Y-81615000I-62500J0D01*
G01*
G37*
G36*
G01*
X142777500Y-82115000D02*
X142027500Y-82115000D01*
G75*
G02*
X141965000Y-82052500I0J62500D01*
G01*
X141965000Y-81927500D01*
G75*
G02*
X142027500Y-81865000I62500J0D01*
G01*
X142777500Y-81865000D01*
G75*
G02*
X142840000Y-81927500I0J-62500D01*
G01*
X142840000Y-82052500D01*
G75*
G02*
X142777500Y-82115000I-62500J0D01*
G01*
G37*
G36*
G01*
X142777500Y-82615000D02*
X142027500Y-82615000D01*
G75*
G02*
X141965000Y-82552500I0J62500D01*
G01*
X141965000Y-82427500D01*
G75*
G02*
X142027500Y-82365000I62500J0D01*
G01*
X142777500Y-82365000D01*
G75*
G02*
X142840000Y-82427500I0J-62500D01*
G01*
X142840000Y-82552500D01*
G75*
G02*
X142777500Y-82615000I-62500J0D01*
G01*
G37*
G36*
G01*
X142777500Y-83115000D02*
X142027500Y-83115000D01*
G75*
G02*
X141965000Y-83052500I0J62500D01*
G01*
X141965000Y-82927500D01*
G75*
G02*
X142027500Y-82865000I62500J0D01*
G01*
X142777500Y-82865000D01*
G75*
G02*
X142840000Y-82927500I0J-62500D01*
G01*
X142840000Y-83052500D01*
G75*
G02*
X142777500Y-83115000I-62500J0D01*
G01*
G37*
G36*
G01*
X142777500Y-83615000D02*
X142027500Y-83615000D01*
G75*
G02*
X141965000Y-83552500I0J62500D01*
G01*
X141965000Y-83427500D01*
G75*
G02*
X142027500Y-83365000I62500J0D01*
G01*
X142777500Y-83365000D01*
G75*
G02*
X142840000Y-83427500I0J-62500D01*
G01*
X142840000Y-83552500D01*
G75*
G02*
X142777500Y-83615000I-62500J0D01*
G01*
G37*
G36*
G01*
X142777500Y-84115000D02*
X142027500Y-84115000D01*
G75*
G02*
X141965000Y-84052500I0J62500D01*
G01*
X141965000Y-83927500D01*
G75*
G02*
X142027500Y-83865000I62500J0D01*
G01*
X142777500Y-83865000D01*
G75*
G02*
X142840000Y-83927500I0J-62500D01*
G01*
X142840000Y-84052500D01*
G75*
G02*
X142777500Y-84115000I-62500J0D01*
G01*
G37*
G36*
G01*
X142777500Y-84615000D02*
X142027500Y-84615000D01*
G75*
G02*
X141965000Y-84552500I0J62500D01*
G01*
X141965000Y-84427500D01*
G75*
G02*
X142027500Y-84365000I62500J0D01*
G01*
X142777500Y-84365000D01*
G75*
G02*
X142840000Y-84427500I0J-62500D01*
G01*
X142840000Y-84552500D01*
G75*
G02*
X142777500Y-84615000I-62500J0D01*
G01*
G37*
G36*
G01*
X142777500Y-85115000D02*
X142027500Y-85115000D01*
G75*
G02*
X141965000Y-85052500I0J62500D01*
G01*
X141965000Y-84927500D01*
G75*
G02*
X142027500Y-84865000I62500J0D01*
G01*
X142777500Y-84865000D01*
G75*
G02*
X142840000Y-84927500I0J-62500D01*
G01*
X142840000Y-85052500D01*
G75*
G02*
X142777500Y-85115000I-62500J0D01*
G01*
G37*
G36*
G01*
X143152500Y-86115000D02*
X143027500Y-86115000D01*
G75*
G02*
X142965000Y-86052500I0J62500D01*
G01*
X142965000Y-85302500D01*
G75*
G02*
X143027500Y-85240000I62500J0D01*
G01*
X143152500Y-85240000D01*
G75*
G02*
X143215000Y-85302500I0J-62500D01*
G01*
X143215000Y-86052500D01*
G75*
G02*
X143152500Y-86115000I-62500J0D01*
G01*
G37*
G36*
G01*
X143652500Y-86115000D02*
X143527500Y-86115000D01*
G75*
G02*
X143465000Y-86052500I0J62500D01*
G01*
X143465000Y-85302500D01*
G75*
G02*
X143527500Y-85240000I62500J0D01*
G01*
X143652500Y-85240000D01*
G75*
G02*
X143715000Y-85302500I0J-62500D01*
G01*
X143715000Y-86052500D01*
G75*
G02*
X143652500Y-86115000I-62500J0D01*
G01*
G37*
G36*
G01*
X144152500Y-86115000D02*
X144027500Y-86115000D01*
G75*
G02*
X143965000Y-86052500I0J62500D01*
G01*
X143965000Y-85302500D01*
G75*
G02*
X144027500Y-85240000I62500J0D01*
G01*
X144152500Y-85240000D01*
G75*
G02*
X144215000Y-85302500I0J-62500D01*
G01*
X144215000Y-86052500D01*
G75*
G02*
X144152500Y-86115000I-62500J0D01*
G01*
G37*
G36*
G01*
X144652500Y-86115000D02*
X144527500Y-86115000D01*
G75*
G02*
X144465000Y-86052500I0J62500D01*
G01*
X144465000Y-85302500D01*
G75*
G02*
X144527500Y-85240000I62500J0D01*
G01*
X144652500Y-85240000D01*
G75*
G02*
X144715000Y-85302500I0J-62500D01*
G01*
X144715000Y-86052500D01*
G75*
G02*
X144652500Y-86115000I-62500J0D01*
G01*
G37*
G36*
G01*
X145152500Y-86115000D02*
X145027500Y-86115000D01*
G75*
G02*
X144965000Y-86052500I0J62500D01*
G01*
X144965000Y-85302500D01*
G75*
G02*
X145027500Y-85240000I62500J0D01*
G01*
X145152500Y-85240000D01*
G75*
G02*
X145215000Y-85302500I0J-62500D01*
G01*
X145215000Y-86052500D01*
G75*
G02*
X145152500Y-86115000I-62500J0D01*
G01*
G37*
G36*
G01*
X145652500Y-86115000D02*
X145527500Y-86115000D01*
G75*
G02*
X145465000Y-86052500I0J62500D01*
G01*
X145465000Y-85302500D01*
G75*
G02*
X145527500Y-85240000I62500J0D01*
G01*
X145652500Y-85240000D01*
G75*
G02*
X145715000Y-85302500I0J-62500D01*
G01*
X145715000Y-86052500D01*
G75*
G02*
X145652500Y-86115000I-62500J0D01*
G01*
G37*
G36*
G01*
X146152500Y-86115000D02*
X146027500Y-86115000D01*
G75*
G02*
X145965000Y-86052500I0J62500D01*
G01*
X145965000Y-85302500D01*
G75*
G02*
X146027500Y-85240000I62500J0D01*
G01*
X146152500Y-85240000D01*
G75*
G02*
X146215000Y-85302500I0J-62500D01*
G01*
X146215000Y-86052500D01*
G75*
G02*
X146152500Y-86115000I-62500J0D01*
G01*
G37*
G36*
G01*
X146652500Y-86115000D02*
X146527500Y-86115000D01*
G75*
G02*
X146465000Y-86052500I0J62500D01*
G01*
X146465000Y-85302500D01*
G75*
G02*
X146527500Y-85240000I62500J0D01*
G01*
X146652500Y-85240000D01*
G75*
G02*
X146715000Y-85302500I0J-62500D01*
G01*
X146715000Y-86052500D01*
G75*
G02*
X146652500Y-86115000I-62500J0D01*
G01*
G37*
%TD*%
%TO.C,R25*%
G36*
G01*
X141280000Y-88547500D02*
X141280000Y-88892500D01*
G75*
G02*
X141132500Y-89040000I-147500J0D01*
G01*
X140837500Y-89040000D01*
G75*
G02*
X140690000Y-88892500I0J147500D01*
G01*
X140690000Y-88547500D01*
G75*
G02*
X140837500Y-88400000I147500J0D01*
G01*
X141132500Y-88400000D01*
G75*
G02*
X141280000Y-88547500I0J-147500D01*
G01*
G37*
G36*
G01*
X142250000Y-88547500D02*
X142250000Y-88892500D01*
G75*
G02*
X142102500Y-89040000I-147500J0D01*
G01*
X141807500Y-89040000D01*
G75*
G02*
X141660000Y-88892500I0J147500D01*
G01*
X141660000Y-88547500D01*
G75*
G02*
X141807500Y-88400000I147500J0D01*
G01*
X142102500Y-88400000D01*
G75*
G02*
X142250000Y-88547500I0J-147500D01*
G01*
G37*
%TD*%
%TO.C,U2*%
G36*
G01*
X143922500Y-97315000D02*
X143457500Y-97315000D01*
G75*
G02*
X143225000Y-97082500I0J232500D01*
G01*
X143225000Y-96617500D01*
G75*
G02*
X143457500Y-96385000I232500J0D01*
G01*
X143922500Y-96385000D01*
G75*
G02*
X144155000Y-96617500I0J-232500D01*
G01*
X144155000Y-97082500D01*
G75*
G02*
X143922500Y-97315000I-232500J0D01*
G01*
G37*
G36*
G01*
X145072500Y-97315000D02*
X144607500Y-97315000D01*
G75*
G02*
X144375000Y-97082500I0J232500D01*
G01*
X144375000Y-96617500D01*
G75*
G02*
X144607500Y-96385000I232500J0D01*
G01*
X145072500Y-96385000D01*
G75*
G02*
X145305000Y-96617500I0J-232500D01*
G01*
X145305000Y-97082500D01*
G75*
G02*
X145072500Y-97315000I-232500J0D01*
G01*
G37*
G36*
G01*
X146222500Y-97315000D02*
X145757500Y-97315000D01*
G75*
G02*
X145525000Y-97082500I0J232500D01*
G01*
X145525000Y-96617500D01*
G75*
G02*
X145757500Y-96385000I232500J0D01*
G01*
X146222500Y-96385000D01*
G75*
G02*
X146455000Y-96617500I0J-232500D01*
G01*
X146455000Y-97082500D01*
G75*
G02*
X146222500Y-97315000I-232500J0D01*
G01*
G37*
G36*
G01*
X143922500Y-98465000D02*
X143457500Y-98465000D01*
G75*
G02*
X143225000Y-98232500I0J232500D01*
G01*
X143225000Y-97767500D01*
G75*
G02*
X143457500Y-97535000I232500J0D01*
G01*
X143922500Y-97535000D01*
G75*
G02*
X144155000Y-97767500I0J-232500D01*
G01*
X144155000Y-98232500D01*
G75*
G02*
X143922500Y-98465000I-232500J0D01*
G01*
G37*
G36*
G01*
X145072500Y-98465000D02*
X144607500Y-98465000D01*
G75*
G02*
X144375000Y-98232500I0J232500D01*
G01*
X144375000Y-97767500D01*
G75*
G02*
X144607500Y-97535000I232500J0D01*
G01*
X145072500Y-97535000D01*
G75*
G02*
X145305000Y-97767500I0J-232500D01*
G01*
X145305000Y-98232500D01*
G75*
G02*
X145072500Y-98465000I-232500J0D01*
G01*
G37*
G36*
G01*
X146222500Y-98465000D02*
X145757500Y-98465000D01*
G75*
G02*
X145525000Y-98232500I0J232500D01*
G01*
X145525000Y-97767500D01*
G75*
G02*
X145757500Y-97535000I232500J0D01*
G01*
X146222500Y-97535000D01*
G75*
G02*
X146455000Y-97767500I0J-232500D01*
G01*
X146455000Y-98232500D01*
G75*
G02*
X146222500Y-98465000I-232500J0D01*
G01*
G37*
G36*
G01*
X143922500Y-99615000D02*
X143457500Y-99615000D01*
G75*
G02*
X143225000Y-99382500I0J232500D01*
G01*
X143225000Y-98917500D01*
G75*
G02*
X143457500Y-98685000I232500J0D01*
G01*
X143922500Y-98685000D01*
G75*
G02*
X144155000Y-98917500I0J-232500D01*
G01*
X144155000Y-99382500D01*
G75*
G02*
X143922500Y-99615000I-232500J0D01*
G01*
G37*
G36*
G01*
X145072500Y-99615000D02*
X144607500Y-99615000D01*
G75*
G02*
X144375000Y-99382500I0J232500D01*
G01*
X144375000Y-98917500D01*
G75*
G02*
X144607500Y-98685000I232500J0D01*
G01*
X145072500Y-98685000D01*
G75*
G02*
X145305000Y-98917500I0J-232500D01*
G01*
X145305000Y-99382500D01*
G75*
G02*
X145072500Y-99615000I-232500J0D01*
G01*
G37*
G36*
G01*
X146222500Y-99615000D02*
X145757500Y-99615000D01*
G75*
G02*
X145525000Y-99382500I0J232500D01*
G01*
X145525000Y-98917500D01*
G75*
G02*
X145757500Y-98685000I232500J0D01*
G01*
X146222500Y-98685000D01*
G75*
G02*
X146455000Y-98917500I0J-232500D01*
G01*
X146455000Y-99382500D01*
G75*
G02*
X146222500Y-99615000I-232500J0D01*
G01*
G37*
G36*
G01*
X147652500Y-99875000D02*
X146902500Y-99875000D01*
G75*
G02*
X146840000Y-99812500I0J62500D01*
G01*
X146840000Y-99687500D01*
G75*
G02*
X146902500Y-99625000I62500J0D01*
G01*
X147652500Y-99625000D01*
G75*
G02*
X147715000Y-99687500I0J-62500D01*
G01*
X147715000Y-99812500D01*
G75*
G02*
X147652500Y-99875000I-62500J0D01*
G01*
G37*
G36*
G01*
X147652500Y-99375000D02*
X146902500Y-99375000D01*
G75*
G02*
X146840000Y-99312500I0J62500D01*
G01*
X146840000Y-99187500D01*
G75*
G02*
X146902500Y-99125000I62500J0D01*
G01*
X147652500Y-99125000D01*
G75*
G02*
X147715000Y-99187500I0J-62500D01*
G01*
X147715000Y-99312500D01*
G75*
G02*
X147652500Y-99375000I-62500J0D01*
G01*
G37*
G36*
G01*
X147652500Y-98875000D02*
X146902500Y-98875000D01*
G75*
G02*
X146840000Y-98812500I0J62500D01*
G01*
X146840000Y-98687500D01*
G75*
G02*
X146902500Y-98625000I62500J0D01*
G01*
X147652500Y-98625000D01*
G75*
G02*
X147715000Y-98687500I0J-62500D01*
G01*
X147715000Y-98812500D01*
G75*
G02*
X147652500Y-98875000I-62500J0D01*
G01*
G37*
G36*
G01*
X147652500Y-98375000D02*
X146902500Y-98375000D01*
G75*
G02*
X146840000Y-98312500I0J62500D01*
G01*
X146840000Y-98187500D01*
G75*
G02*
X146902500Y-98125000I62500J0D01*
G01*
X147652500Y-98125000D01*
G75*
G02*
X147715000Y-98187500I0J-62500D01*
G01*
X147715000Y-98312500D01*
G75*
G02*
X147652500Y-98375000I-62500J0D01*
G01*
G37*
G36*
G01*
X147652500Y-97875000D02*
X146902500Y-97875000D01*
G75*
G02*
X146840000Y-97812500I0J62500D01*
G01*
X146840000Y-97687500D01*
G75*
G02*
X146902500Y-97625000I62500J0D01*
G01*
X147652500Y-97625000D01*
G75*
G02*
X147715000Y-97687500I0J-62500D01*
G01*
X147715000Y-97812500D01*
G75*
G02*
X147652500Y-97875000I-62500J0D01*
G01*
G37*
G36*
G01*
X147652500Y-97375000D02*
X146902500Y-97375000D01*
G75*
G02*
X146840000Y-97312500I0J62500D01*
G01*
X146840000Y-97187500D01*
G75*
G02*
X146902500Y-97125000I62500J0D01*
G01*
X147652500Y-97125000D01*
G75*
G02*
X147715000Y-97187500I0J-62500D01*
G01*
X147715000Y-97312500D01*
G75*
G02*
X147652500Y-97375000I-62500J0D01*
G01*
G37*
G36*
G01*
X147652500Y-96875000D02*
X146902500Y-96875000D01*
G75*
G02*
X146840000Y-96812500I0J62500D01*
G01*
X146840000Y-96687500D01*
G75*
G02*
X146902500Y-96625000I62500J0D01*
G01*
X147652500Y-96625000D01*
G75*
G02*
X147715000Y-96687500I0J-62500D01*
G01*
X147715000Y-96812500D01*
G75*
G02*
X147652500Y-96875000I-62500J0D01*
G01*
G37*
G36*
G01*
X147652500Y-96375000D02*
X146902500Y-96375000D01*
G75*
G02*
X146840000Y-96312500I0J62500D01*
G01*
X146840000Y-96187500D01*
G75*
G02*
X146902500Y-96125000I62500J0D01*
G01*
X147652500Y-96125000D01*
G75*
G02*
X147715000Y-96187500I0J-62500D01*
G01*
X147715000Y-96312500D01*
G75*
G02*
X147652500Y-96375000I-62500J0D01*
G01*
G37*
G36*
G01*
X146652500Y-96000000D02*
X146527500Y-96000000D01*
G75*
G02*
X146465000Y-95937500I0J62500D01*
G01*
X146465000Y-95187500D01*
G75*
G02*
X146527500Y-95125000I62500J0D01*
G01*
X146652500Y-95125000D01*
G75*
G02*
X146715000Y-95187500I0J-62500D01*
G01*
X146715000Y-95937500D01*
G75*
G02*
X146652500Y-96000000I-62500J0D01*
G01*
G37*
G36*
G01*
X146152500Y-96000000D02*
X146027500Y-96000000D01*
G75*
G02*
X145965000Y-95937500I0J62500D01*
G01*
X145965000Y-95187500D01*
G75*
G02*
X146027500Y-95125000I62500J0D01*
G01*
X146152500Y-95125000D01*
G75*
G02*
X146215000Y-95187500I0J-62500D01*
G01*
X146215000Y-95937500D01*
G75*
G02*
X146152500Y-96000000I-62500J0D01*
G01*
G37*
G36*
G01*
X145652500Y-96000000D02*
X145527500Y-96000000D01*
G75*
G02*
X145465000Y-95937500I0J62500D01*
G01*
X145465000Y-95187500D01*
G75*
G02*
X145527500Y-95125000I62500J0D01*
G01*
X145652500Y-95125000D01*
G75*
G02*
X145715000Y-95187500I0J-62500D01*
G01*
X145715000Y-95937500D01*
G75*
G02*
X145652500Y-96000000I-62500J0D01*
G01*
G37*
G36*
G01*
X145152500Y-96000000D02*
X145027500Y-96000000D01*
G75*
G02*
X144965000Y-95937500I0J62500D01*
G01*
X144965000Y-95187500D01*
G75*
G02*
X145027500Y-95125000I62500J0D01*
G01*
X145152500Y-95125000D01*
G75*
G02*
X145215000Y-95187500I0J-62500D01*
G01*
X145215000Y-95937500D01*
G75*
G02*
X145152500Y-96000000I-62500J0D01*
G01*
G37*
G36*
G01*
X144652500Y-96000000D02*
X144527500Y-96000000D01*
G75*
G02*
X144465000Y-95937500I0J62500D01*
G01*
X144465000Y-95187500D01*
G75*
G02*
X144527500Y-95125000I62500J0D01*
G01*
X144652500Y-95125000D01*
G75*
G02*
X144715000Y-95187500I0J-62500D01*
G01*
X144715000Y-95937500D01*
G75*
G02*
X144652500Y-96000000I-62500J0D01*
G01*
G37*
G36*
G01*
X144152500Y-96000000D02*
X144027500Y-96000000D01*
G75*
G02*
X143965000Y-95937500I0J62500D01*
G01*
X143965000Y-95187500D01*
G75*
G02*
X144027500Y-95125000I62500J0D01*
G01*
X144152500Y-95125000D01*
G75*
G02*
X144215000Y-95187500I0J-62500D01*
G01*
X144215000Y-95937500D01*
G75*
G02*
X144152500Y-96000000I-62500J0D01*
G01*
G37*
G36*
G01*
X143652500Y-96000000D02*
X143527500Y-96000000D01*
G75*
G02*
X143465000Y-95937500I0J62500D01*
G01*
X143465000Y-95187500D01*
G75*
G02*
X143527500Y-95125000I62500J0D01*
G01*
X143652500Y-95125000D01*
G75*
G02*
X143715000Y-95187500I0J-62500D01*
G01*
X143715000Y-95937500D01*
G75*
G02*
X143652500Y-96000000I-62500J0D01*
G01*
G37*
G36*
G01*
X143152500Y-96000000D02*
X143027500Y-96000000D01*
G75*
G02*
X142965000Y-95937500I0J62500D01*
G01*
X142965000Y-95187500D01*
G75*
G02*
X143027500Y-95125000I62500J0D01*
G01*
X143152500Y-95125000D01*
G75*
G02*
X143215000Y-95187500I0J-62500D01*
G01*
X143215000Y-95937500D01*
G75*
G02*
X143152500Y-96000000I-62500J0D01*
G01*
G37*
G36*
G01*
X142777500Y-96375000D02*
X142027500Y-96375000D01*
G75*
G02*
X141965000Y-96312500I0J62500D01*
G01*
X141965000Y-96187500D01*
G75*
G02*
X142027500Y-96125000I62500J0D01*
G01*
X142777500Y-96125000D01*
G75*
G02*
X142840000Y-96187500I0J-62500D01*
G01*
X142840000Y-96312500D01*
G75*
G02*
X142777500Y-96375000I-62500J0D01*
G01*
G37*
G36*
G01*
X142777500Y-96875000D02*
X142027500Y-96875000D01*
G75*
G02*
X141965000Y-96812500I0J62500D01*
G01*
X141965000Y-96687500D01*
G75*
G02*
X142027500Y-96625000I62500J0D01*
G01*
X142777500Y-96625000D01*
G75*
G02*
X142840000Y-96687500I0J-62500D01*
G01*
X142840000Y-96812500D01*
G75*
G02*
X142777500Y-96875000I-62500J0D01*
G01*
G37*
G36*
G01*
X142777500Y-97375000D02*
X142027500Y-97375000D01*
G75*
G02*
X141965000Y-97312500I0J62500D01*
G01*
X141965000Y-97187500D01*
G75*
G02*
X142027500Y-97125000I62500J0D01*
G01*
X142777500Y-97125000D01*
G75*
G02*
X142840000Y-97187500I0J-62500D01*
G01*
X142840000Y-97312500D01*
G75*
G02*
X142777500Y-97375000I-62500J0D01*
G01*
G37*
G36*
G01*
X142777500Y-97875000D02*
X142027500Y-97875000D01*
G75*
G02*
X141965000Y-97812500I0J62500D01*
G01*
X141965000Y-97687500D01*
G75*
G02*
X142027500Y-97625000I62500J0D01*
G01*
X142777500Y-97625000D01*
G75*
G02*
X142840000Y-97687500I0J-62500D01*
G01*
X142840000Y-97812500D01*
G75*
G02*
X142777500Y-97875000I-62500J0D01*
G01*
G37*
G36*
G01*
X142777500Y-98375000D02*
X142027500Y-98375000D01*
G75*
G02*
X141965000Y-98312500I0J62500D01*
G01*
X141965000Y-98187500D01*
G75*
G02*
X142027500Y-98125000I62500J0D01*
G01*
X142777500Y-98125000D01*
G75*
G02*
X142840000Y-98187500I0J-62500D01*
G01*
X142840000Y-98312500D01*
G75*
G02*
X142777500Y-98375000I-62500J0D01*
G01*
G37*
G36*
G01*
X142777500Y-98875000D02*
X142027500Y-98875000D01*
G75*
G02*
X141965000Y-98812500I0J62500D01*
G01*
X141965000Y-98687500D01*
G75*
G02*
X142027500Y-98625000I62500J0D01*
G01*
X142777500Y-98625000D01*
G75*
G02*
X142840000Y-98687500I0J-62500D01*
G01*
X142840000Y-98812500D01*
G75*
G02*
X142777500Y-98875000I-62500J0D01*
G01*
G37*
G36*
G01*
X142777500Y-99375000D02*
X142027500Y-99375000D01*
G75*
G02*
X141965000Y-99312500I0J62500D01*
G01*
X141965000Y-99187500D01*
G75*
G02*
X142027500Y-99125000I62500J0D01*
G01*
X142777500Y-99125000D01*
G75*
G02*
X142840000Y-99187500I0J-62500D01*
G01*
X142840000Y-99312500D01*
G75*
G02*
X142777500Y-99375000I-62500J0D01*
G01*
G37*
G36*
G01*
X142777500Y-99875000D02*
X142027500Y-99875000D01*
G75*
G02*
X141965000Y-99812500I0J62500D01*
G01*
X141965000Y-99687500D01*
G75*
G02*
X142027500Y-99625000I62500J0D01*
G01*
X142777500Y-99625000D01*
G75*
G02*
X142840000Y-99687500I0J-62500D01*
G01*
X142840000Y-99812500D01*
G75*
G02*
X142777500Y-99875000I-62500J0D01*
G01*
G37*
G36*
G01*
X143152500Y-100875000D02*
X143027500Y-100875000D01*
G75*
G02*
X142965000Y-100812500I0J62500D01*
G01*
X142965000Y-100062500D01*
G75*
G02*
X143027500Y-100000000I62500J0D01*
G01*
X143152500Y-100000000D01*
G75*
G02*
X143215000Y-100062500I0J-62500D01*
G01*
X143215000Y-100812500D01*
G75*
G02*
X143152500Y-100875000I-62500J0D01*
G01*
G37*
G36*
G01*
X143652500Y-100875000D02*
X143527500Y-100875000D01*
G75*
G02*
X143465000Y-100812500I0J62500D01*
G01*
X143465000Y-100062500D01*
G75*
G02*
X143527500Y-100000000I62500J0D01*
G01*
X143652500Y-100000000D01*
G75*
G02*
X143715000Y-100062500I0J-62500D01*
G01*
X143715000Y-100812500D01*
G75*
G02*
X143652500Y-100875000I-62500J0D01*
G01*
G37*
G36*
G01*
X144152500Y-100875000D02*
X144027500Y-100875000D01*
G75*
G02*
X143965000Y-100812500I0J62500D01*
G01*
X143965000Y-100062500D01*
G75*
G02*
X144027500Y-100000000I62500J0D01*
G01*
X144152500Y-100000000D01*
G75*
G02*
X144215000Y-100062500I0J-62500D01*
G01*
X144215000Y-100812500D01*
G75*
G02*
X144152500Y-100875000I-62500J0D01*
G01*
G37*
G36*
G01*
X144652500Y-100875000D02*
X144527500Y-100875000D01*
G75*
G02*
X144465000Y-100812500I0J62500D01*
G01*
X144465000Y-100062500D01*
G75*
G02*
X144527500Y-100000000I62500J0D01*
G01*
X144652500Y-100000000D01*
G75*
G02*
X144715000Y-100062500I0J-62500D01*
G01*
X144715000Y-100812500D01*
G75*
G02*
X144652500Y-100875000I-62500J0D01*
G01*
G37*
G36*
G01*
X145152500Y-100875000D02*
X145027500Y-100875000D01*
G75*
G02*
X144965000Y-100812500I0J62500D01*
G01*
X144965000Y-100062500D01*
G75*
G02*
X145027500Y-100000000I62500J0D01*
G01*
X145152500Y-100000000D01*
G75*
G02*
X145215000Y-100062500I0J-62500D01*
G01*
X145215000Y-100812500D01*
G75*
G02*
X145152500Y-100875000I-62500J0D01*
G01*
G37*
G36*
G01*
X145652500Y-100875000D02*
X145527500Y-100875000D01*
G75*
G02*
X145465000Y-100812500I0J62500D01*
G01*
X145465000Y-100062500D01*
G75*
G02*
X145527500Y-100000000I62500J0D01*
G01*
X145652500Y-100000000D01*
G75*
G02*
X145715000Y-100062500I0J-62500D01*
G01*
X145715000Y-100812500D01*
G75*
G02*
X145652500Y-100875000I-62500J0D01*
G01*
G37*
G36*
G01*
X146152500Y-100875000D02*
X146027500Y-100875000D01*
G75*
G02*
X145965000Y-100812500I0J62500D01*
G01*
X145965000Y-100062500D01*
G75*
G02*
X146027500Y-100000000I62500J0D01*
G01*
X146152500Y-100000000D01*
G75*
G02*
X146215000Y-100062500I0J-62500D01*
G01*
X146215000Y-100812500D01*
G75*
G02*
X146152500Y-100875000I-62500J0D01*
G01*
G37*
G36*
G01*
X146652500Y-100875000D02*
X146527500Y-100875000D01*
G75*
G02*
X146465000Y-100812500I0J62500D01*
G01*
X146465000Y-100062500D01*
G75*
G02*
X146527500Y-100000000I62500J0D01*
G01*
X146652500Y-100000000D01*
G75*
G02*
X146715000Y-100062500I0J-62500D01*
G01*
X146715000Y-100812500D01*
G75*
G02*
X146652500Y-100875000I-62500J0D01*
G01*
G37*
%TD*%
D11*
%TO.C,J7*%
X140860000Y-75520000D03*
X140860000Y-76720000D03*
X140860000Y-77920000D03*
X140860000Y-79120000D03*
%TD*%
%TO.C,J5*%
X138940000Y-87070000D03*
X138940000Y-85870000D03*
X138940000Y-84670000D03*
X138940000Y-83470000D03*
%TD*%
%TO.C,J4*%
X141030000Y-90050000D03*
X141030000Y-91250000D03*
X141030000Y-92450000D03*
X141030000Y-93650000D03*
%TD*%
%TO.C,J3*%
X138930000Y-101630000D03*
X138930000Y-100430000D03*
X138930000Y-99230000D03*
X138930000Y-98030000D03*
%TD*%
D12*
%TO.C,Q24*%
X127560000Y-83790000D03*
X127560000Y-85060000D03*
X127560000Y-86330000D03*
X127560000Y-87600000D03*
D13*
X121860000Y-87600000D03*
X121860000Y-86330000D03*
X121860000Y-85060000D03*
X121860000Y-83790000D03*
%TD*%
D12*
%TO.C,Q22*%
X127560000Y-78205000D03*
X127560000Y-79475000D03*
X127560000Y-80745000D03*
X127560000Y-82015000D03*
D13*
X121860000Y-82015000D03*
X121860000Y-80745000D03*
X121860000Y-79475000D03*
X121860000Y-78205000D03*
%TD*%
D12*
%TO.C,Q20*%
X134250000Y-69345000D03*
X134250000Y-70615000D03*
X134250000Y-71885000D03*
X134250000Y-73155000D03*
D13*
X128550000Y-73155000D03*
X128550000Y-71885000D03*
X128550000Y-70615000D03*
X128550000Y-69345000D03*
%TD*%
D12*
%TO.C,Q6*%
X152440000Y-93205000D03*
X152440000Y-91935000D03*
X152440000Y-90665000D03*
X152440000Y-89395000D03*
D13*
X158140000Y-89395000D03*
X158140000Y-90665000D03*
X158140000Y-91935000D03*
X158140000Y-93205000D03*
%TD*%
D12*
%TO.C,Q4*%
X152440000Y-98795000D03*
X152440000Y-97525000D03*
X152440000Y-96255000D03*
X152440000Y-94985000D03*
D13*
X158140000Y-94985000D03*
X158140000Y-96255000D03*
X158140000Y-97525000D03*
X158140000Y-98795000D03*
%TD*%
D12*
%TO.C,Q2*%
X145750000Y-107655000D03*
X145750000Y-106385000D03*
X145750000Y-105115000D03*
X145750000Y-103845000D03*
D13*
X151450000Y-103845000D03*
X151450000Y-105115000D03*
X151450000Y-106385000D03*
X151450000Y-107655000D03*
%TD*%
D12*
%TO.C,Q12*%
X145750000Y-73155000D03*
X145750000Y-71885000D03*
X145750000Y-70615000D03*
X145750000Y-69345000D03*
D13*
X151450000Y-69345000D03*
X151450000Y-70615000D03*
X151450000Y-71885000D03*
X151450000Y-73155000D03*
%TD*%
D12*
%TO.C,Q10*%
X152440000Y-82015000D03*
X152440000Y-80745000D03*
X152440000Y-79475000D03*
X152440000Y-78205000D03*
D13*
X158140000Y-78205000D03*
X158140000Y-79475000D03*
X158140000Y-80745000D03*
X158140000Y-82015000D03*
%TD*%
D12*
%TO.C,Q8*%
X152440000Y-87605000D03*
X152440000Y-86335000D03*
X152440000Y-85065000D03*
X152440000Y-83795000D03*
D13*
X158140000Y-83795000D03*
X158140000Y-85065000D03*
X158140000Y-86335000D03*
X158140000Y-87605000D03*
%TD*%
D12*
%TO.C,Q18*%
X134250000Y-103845000D03*
X134250000Y-105115000D03*
X134250000Y-106385000D03*
X134250000Y-107655000D03*
D13*
X128550000Y-107655000D03*
X128550000Y-106385000D03*
X128550000Y-105115000D03*
X128550000Y-103845000D03*
%TD*%
D12*
%TO.C,Q16*%
X127560000Y-94985000D03*
X127560000Y-96255000D03*
X127560000Y-97525000D03*
X127560000Y-98795000D03*
D13*
X121860000Y-98795000D03*
X121860000Y-97525000D03*
X121860000Y-96255000D03*
X121860000Y-94985000D03*
%TD*%
D12*
%TO.C,Q14*%
X127560000Y-89395000D03*
X127560000Y-90665000D03*
X127560000Y-91935000D03*
X127560000Y-93205000D03*
D13*
X121860000Y-93205000D03*
X121860000Y-91935000D03*
X121860000Y-90665000D03*
X121860000Y-89395000D03*
%TD*%
%TO.C,C44*%
G36*
G01*
X131013750Y-87060000D02*
X131526250Y-87060000D01*
G75*
G02*
X131745000Y-87278750I0J-218750D01*
G01*
X131745000Y-87716250D01*
G75*
G02*
X131526250Y-87935000I-218750J0D01*
G01*
X131013750Y-87935000D01*
G75*
G02*
X130795000Y-87716250I0J218750D01*
G01*
X130795000Y-87278750D01*
G75*
G02*
X131013750Y-87060000I218750J0D01*
G01*
G37*
G36*
G01*
X131013750Y-85485000D02*
X131526250Y-85485000D01*
G75*
G02*
X131745000Y-85703750I0J-218750D01*
G01*
X131745000Y-86141250D01*
G75*
G02*
X131526250Y-86360000I-218750J0D01*
G01*
X131013750Y-86360000D01*
G75*
G02*
X130795000Y-86141250I0J218750D01*
G01*
X130795000Y-85703750D01*
G75*
G02*
X131013750Y-85485000I218750J0D01*
G01*
G37*
%TD*%
%TO.C,C43*%
G36*
G01*
X131003750Y-82900000D02*
X131516250Y-82900000D01*
G75*
G02*
X131735000Y-83118750I0J-218750D01*
G01*
X131735000Y-83556250D01*
G75*
G02*
X131516250Y-83775000I-218750J0D01*
G01*
X131003750Y-83775000D01*
G75*
G02*
X130785000Y-83556250I0J218750D01*
G01*
X130785000Y-83118750D01*
G75*
G02*
X131003750Y-82900000I218750J0D01*
G01*
G37*
G36*
G01*
X131003750Y-81325000D02*
X131516250Y-81325000D01*
G75*
G02*
X131735000Y-81543750I0J-218750D01*
G01*
X131735000Y-81981250D01*
G75*
G02*
X131516250Y-82200000I-218750J0D01*
G01*
X131003750Y-82200000D01*
G75*
G02*
X130785000Y-81981250I0J218750D01*
G01*
X130785000Y-81543750D01*
G75*
G02*
X131003750Y-81325000I218750J0D01*
G01*
G37*
%TD*%
%TO.C,C42*%
G36*
G01*
X131003750Y-78710000D02*
X131516250Y-78710000D01*
G75*
G02*
X131735000Y-78928750I0J-218750D01*
G01*
X131735000Y-79366250D01*
G75*
G02*
X131516250Y-79585000I-218750J0D01*
G01*
X131003750Y-79585000D01*
G75*
G02*
X130785000Y-79366250I0J218750D01*
G01*
X130785000Y-78928750D01*
G75*
G02*
X131003750Y-78710000I218750J0D01*
G01*
G37*
G36*
G01*
X131003750Y-77135000D02*
X131516250Y-77135000D01*
G75*
G02*
X131735000Y-77353750I0J-218750D01*
G01*
X131735000Y-77791250D01*
G75*
G02*
X131516250Y-78010000I-218750J0D01*
G01*
X131003750Y-78010000D01*
G75*
G02*
X130785000Y-77791250I0J218750D01*
G01*
X130785000Y-77353750D01*
G75*
G02*
X131003750Y-77135000I218750J0D01*
G01*
G37*
%TD*%
%TO.C,C6*%
G36*
G01*
X148986250Y-89940000D02*
X148473750Y-89940000D01*
G75*
G02*
X148255000Y-89721250I0J218750D01*
G01*
X148255000Y-89283750D01*
G75*
G02*
X148473750Y-89065000I218750J0D01*
G01*
X148986250Y-89065000D01*
G75*
G02*
X149205000Y-89283750I0J-218750D01*
G01*
X149205000Y-89721250D01*
G75*
G02*
X148986250Y-89940000I-218750J0D01*
G01*
G37*
G36*
G01*
X148986250Y-91515000D02*
X148473750Y-91515000D01*
G75*
G02*
X148255000Y-91296250I0J218750D01*
G01*
X148255000Y-90858750D01*
G75*
G02*
X148473750Y-90640000I218750J0D01*
G01*
X148986250Y-90640000D01*
G75*
G02*
X149205000Y-90858750I0J-218750D01*
G01*
X149205000Y-91296250D01*
G75*
G02*
X148986250Y-91515000I-218750J0D01*
G01*
G37*
%TD*%
%TO.C,C3*%
G36*
G01*
X148996250Y-94100000D02*
X148483750Y-94100000D01*
G75*
G02*
X148265000Y-93881250I0J218750D01*
G01*
X148265000Y-93443750D01*
G75*
G02*
X148483750Y-93225000I218750J0D01*
G01*
X148996250Y-93225000D01*
G75*
G02*
X149215000Y-93443750I0J-218750D01*
G01*
X149215000Y-93881250D01*
G75*
G02*
X148996250Y-94100000I-218750J0D01*
G01*
G37*
G36*
G01*
X148996250Y-95675000D02*
X148483750Y-95675000D01*
G75*
G02*
X148265000Y-95456250I0J218750D01*
G01*
X148265000Y-95018750D01*
G75*
G02*
X148483750Y-94800000I218750J0D01*
G01*
X148996250Y-94800000D01*
G75*
G02*
X149215000Y-95018750I0J-218750D01*
G01*
X149215000Y-95456250D01*
G75*
G02*
X148996250Y-95675000I-218750J0D01*
G01*
G37*
%TD*%
%TO.C,C2*%
G36*
G01*
X148996250Y-98290000D02*
X148483750Y-98290000D01*
G75*
G02*
X148265000Y-98071250I0J218750D01*
G01*
X148265000Y-97633750D01*
G75*
G02*
X148483750Y-97415000I218750J0D01*
G01*
X148996250Y-97415000D01*
G75*
G02*
X149215000Y-97633750I0J-218750D01*
G01*
X149215000Y-98071250D01*
G75*
G02*
X148996250Y-98290000I-218750J0D01*
G01*
G37*
G36*
G01*
X148996250Y-99865000D02*
X148483750Y-99865000D01*
G75*
G02*
X148265000Y-99646250I0J218750D01*
G01*
X148265000Y-99208750D01*
G75*
G02*
X148483750Y-98990000I218750J0D01*
G01*
X148996250Y-98990000D01*
G75*
G02*
X149215000Y-99208750I0J-218750D01*
G01*
X149215000Y-99646250D01*
G75*
G02*
X148996250Y-99865000I-218750J0D01*
G01*
G37*
%TD*%
%TO.C,C29*%
G36*
G01*
X148996250Y-83630000D02*
X148483750Y-83630000D01*
G75*
G02*
X148265000Y-83411250I0J218750D01*
G01*
X148265000Y-82973750D01*
G75*
G02*
X148483750Y-82755000I218750J0D01*
G01*
X148996250Y-82755000D01*
G75*
G02*
X149215000Y-82973750I0J-218750D01*
G01*
X149215000Y-83411250D01*
G75*
G02*
X148996250Y-83630000I-218750J0D01*
G01*
G37*
G36*
G01*
X148996250Y-85205000D02*
X148483750Y-85205000D01*
G75*
G02*
X148265000Y-84986250I0J218750D01*
G01*
X148265000Y-84548750D01*
G75*
G02*
X148483750Y-84330000I218750J0D01*
G01*
X148996250Y-84330000D01*
G75*
G02*
X149215000Y-84548750I0J-218750D01*
G01*
X149215000Y-84986250D01*
G75*
G02*
X148996250Y-85205000I-218750J0D01*
G01*
G37*
%TD*%
%TO.C,C30*%
G36*
G01*
X148996250Y-79440000D02*
X148483750Y-79440000D01*
G75*
G02*
X148265000Y-79221250I0J218750D01*
G01*
X148265000Y-78783750D01*
G75*
G02*
X148483750Y-78565000I218750J0D01*
G01*
X148996250Y-78565000D01*
G75*
G02*
X149215000Y-78783750I0J-218750D01*
G01*
X149215000Y-79221250D01*
G75*
G02*
X148996250Y-79440000I-218750J0D01*
G01*
G37*
G36*
G01*
X148996250Y-81015000D02*
X148483750Y-81015000D01*
G75*
G02*
X148265000Y-80796250I0J218750D01*
G01*
X148265000Y-80358750D01*
G75*
G02*
X148483750Y-80140000I218750J0D01*
G01*
X148996250Y-80140000D01*
G75*
G02*
X149215000Y-80358750I0J-218750D01*
G01*
X149215000Y-80796250D01*
G75*
G02*
X148996250Y-81015000I-218750J0D01*
G01*
G37*
%TD*%
%TO.C,C31*%
G36*
G01*
X148986250Y-75280000D02*
X148473750Y-75280000D01*
G75*
G02*
X148255000Y-75061250I0J218750D01*
G01*
X148255000Y-74623750D01*
G75*
G02*
X148473750Y-74405000I218750J0D01*
G01*
X148986250Y-74405000D01*
G75*
G02*
X149205000Y-74623750I0J-218750D01*
G01*
X149205000Y-75061250D01*
G75*
G02*
X148986250Y-75280000I-218750J0D01*
G01*
G37*
G36*
G01*
X148986250Y-76855000D02*
X148473750Y-76855000D01*
G75*
G02*
X148255000Y-76636250I0J218750D01*
G01*
X148255000Y-76198750D01*
G75*
G02*
X148473750Y-75980000I218750J0D01*
G01*
X148986250Y-75980000D01*
G75*
G02*
X149205000Y-76198750I0J-218750D01*
G01*
X149205000Y-76636250D01*
G75*
G02*
X148986250Y-76855000I-218750J0D01*
G01*
G37*
%TD*%
%TO.C,C40*%
G36*
G01*
X131013750Y-101720000D02*
X131526250Y-101720000D01*
G75*
G02*
X131745000Y-101938750I0J-218750D01*
G01*
X131745000Y-102376250D01*
G75*
G02*
X131526250Y-102595000I-218750J0D01*
G01*
X131013750Y-102595000D01*
G75*
G02*
X130795000Y-102376250I0J218750D01*
G01*
X130795000Y-101938750D01*
G75*
G02*
X131013750Y-101720000I218750J0D01*
G01*
G37*
G36*
G01*
X131013750Y-100145000D02*
X131526250Y-100145000D01*
G75*
G02*
X131745000Y-100363750I0J-218750D01*
G01*
X131745000Y-100801250D01*
G75*
G02*
X131526250Y-101020000I-218750J0D01*
G01*
X131013750Y-101020000D01*
G75*
G02*
X130795000Y-100801250I0J218750D01*
G01*
X130795000Y-100363750D01*
G75*
G02*
X131013750Y-100145000I218750J0D01*
G01*
G37*
%TD*%
%TO.C,C39*%
G36*
G01*
X130893750Y-97560000D02*
X131406250Y-97560000D01*
G75*
G02*
X131625000Y-97778750I0J-218750D01*
G01*
X131625000Y-98216250D01*
G75*
G02*
X131406250Y-98435000I-218750J0D01*
G01*
X130893750Y-98435000D01*
G75*
G02*
X130675000Y-98216250I0J218750D01*
G01*
X130675000Y-97778750D01*
G75*
G02*
X130893750Y-97560000I218750J0D01*
G01*
G37*
G36*
G01*
X130893750Y-95985000D02*
X131406250Y-95985000D01*
G75*
G02*
X131625000Y-96203750I0J-218750D01*
G01*
X131625000Y-96641250D01*
G75*
G02*
X131406250Y-96860000I-218750J0D01*
G01*
X130893750Y-96860000D01*
G75*
G02*
X130675000Y-96641250I0J218750D01*
G01*
X130675000Y-96203750D01*
G75*
G02*
X130893750Y-95985000I218750J0D01*
G01*
G37*
%TD*%
%TO.C,C38*%
G36*
G01*
X131003750Y-93370000D02*
X131516250Y-93370000D01*
G75*
G02*
X131735000Y-93588750I0J-218750D01*
G01*
X131735000Y-94026250D01*
G75*
G02*
X131516250Y-94245000I-218750J0D01*
G01*
X131003750Y-94245000D01*
G75*
G02*
X130785000Y-94026250I0J218750D01*
G01*
X130785000Y-93588750D01*
G75*
G02*
X131003750Y-93370000I218750J0D01*
G01*
G37*
G36*
G01*
X131003750Y-91795000D02*
X131516250Y-91795000D01*
G75*
G02*
X131735000Y-92013750I0J-218750D01*
G01*
X131735000Y-92451250D01*
G75*
G02*
X131516250Y-92670000I-218750J0D01*
G01*
X131003750Y-92670000D01*
G75*
G02*
X130785000Y-92451250I0J218750D01*
G01*
X130785000Y-92013750D01*
G75*
G02*
X131003750Y-91795000I218750J0D01*
G01*
G37*
%TD*%
%TO.C,R71*%
G36*
G01*
X130320000Y-74937500D02*
X130320000Y-75282500D01*
G75*
G02*
X130172500Y-75430000I-147500J0D01*
G01*
X129877500Y-75430000D01*
G75*
G02*
X129730000Y-75282500I0J147500D01*
G01*
X129730000Y-74937500D01*
G75*
G02*
X129877500Y-74790000I147500J0D01*
G01*
X130172500Y-74790000D01*
G75*
G02*
X130320000Y-74937500I0J-147500D01*
G01*
G37*
G36*
G01*
X131290000Y-74937500D02*
X131290000Y-75282500D01*
G75*
G02*
X131142500Y-75430000I-147500J0D01*
G01*
X130847500Y-75430000D01*
G75*
G02*
X130700000Y-75282500I0J147500D01*
G01*
X130700000Y-74937500D01*
G75*
G02*
X130847500Y-74790000I147500J0D01*
G01*
X131142500Y-74790000D01*
G75*
G02*
X131290000Y-74937500I0J-147500D01*
G01*
G37*
%TD*%
%TO.C,R70*%
G36*
G01*
X136102500Y-74757500D02*
X135757500Y-74757500D01*
G75*
G02*
X135610000Y-74610000I0J147500D01*
G01*
X135610000Y-74315000D01*
G75*
G02*
X135757500Y-74167500I147500J0D01*
G01*
X136102500Y-74167500D01*
G75*
G02*
X136250000Y-74315000I0J-147500D01*
G01*
X136250000Y-74610000D01*
G75*
G02*
X136102500Y-74757500I-147500J0D01*
G01*
G37*
G36*
G01*
X136102500Y-75727500D02*
X135757500Y-75727500D01*
G75*
G02*
X135610000Y-75580000I0J147500D01*
G01*
X135610000Y-75285000D01*
G75*
G02*
X135757500Y-75137500I147500J0D01*
G01*
X136102500Y-75137500D01*
G75*
G02*
X136250000Y-75285000I0J-147500D01*
G01*
X136250000Y-75580000D01*
G75*
G02*
X136102500Y-75727500I-147500J0D01*
G01*
G37*
%TD*%
%TO.C,R69*%
G36*
G01*
X139070000Y-74295000D02*
X139070000Y-74640000D01*
G75*
G02*
X138922500Y-74787500I-147500J0D01*
G01*
X138627500Y-74787500D01*
G75*
G02*
X138480000Y-74640000I0J147500D01*
G01*
X138480000Y-74295000D01*
G75*
G02*
X138627500Y-74147500I147500J0D01*
G01*
X138922500Y-74147500D01*
G75*
G02*
X139070000Y-74295000I0J-147500D01*
G01*
G37*
G36*
G01*
X140040000Y-74295000D02*
X140040000Y-74640000D01*
G75*
G02*
X139892500Y-74787500I-147500J0D01*
G01*
X139597500Y-74787500D01*
G75*
G02*
X139450000Y-74640000I0J147500D01*
G01*
X139450000Y-74295000D01*
G75*
G02*
X139597500Y-74147500I147500J0D01*
G01*
X139892500Y-74147500D01*
G75*
G02*
X140040000Y-74295000I0J-147500D01*
G01*
G37*
%TD*%
%TO.C,R68*%
G36*
G01*
X139070000Y-79195000D02*
X139070000Y-79540000D01*
G75*
G02*
X138922500Y-79687500I-147500J0D01*
G01*
X138627500Y-79687500D01*
G75*
G02*
X138480000Y-79540000I0J147500D01*
G01*
X138480000Y-79195000D01*
G75*
G02*
X138627500Y-79047500I147500J0D01*
G01*
X138922500Y-79047500D01*
G75*
G02*
X139070000Y-79195000I0J-147500D01*
G01*
G37*
G36*
G01*
X140040000Y-79195000D02*
X140040000Y-79540000D01*
G75*
G02*
X139892500Y-79687500I-147500J0D01*
G01*
X139597500Y-79687500D01*
G75*
G02*
X139450000Y-79540000I0J147500D01*
G01*
X139450000Y-79195000D01*
G75*
G02*
X139597500Y-79047500I147500J0D01*
G01*
X139892500Y-79047500D01*
G75*
G02*
X140040000Y-79195000I0J-147500D01*
G01*
G37*
%TD*%
%TO.C,R67*%
G36*
G01*
X137637500Y-75137500D02*
X137982500Y-75137500D01*
G75*
G02*
X138130000Y-75285000I0J-147500D01*
G01*
X138130000Y-75580000D01*
G75*
G02*
X137982500Y-75727500I-147500J0D01*
G01*
X137637500Y-75727500D01*
G75*
G02*
X137490000Y-75580000I0J147500D01*
G01*
X137490000Y-75285000D01*
G75*
G02*
X137637500Y-75137500I147500J0D01*
G01*
G37*
G36*
G01*
X137637500Y-74167500D02*
X137982500Y-74167500D01*
G75*
G02*
X138130000Y-74315000I0J-147500D01*
G01*
X138130000Y-74610000D01*
G75*
G02*
X137982500Y-74757500I-147500J0D01*
G01*
X137637500Y-74757500D01*
G75*
G02*
X137490000Y-74610000I0J147500D01*
G01*
X137490000Y-74315000D01*
G75*
G02*
X137637500Y-74167500I147500J0D01*
G01*
G37*
%TD*%
%TO.C,R66*%
G36*
G01*
X136697500Y-75137500D02*
X137042500Y-75137500D01*
G75*
G02*
X137190000Y-75285000I0J-147500D01*
G01*
X137190000Y-75580000D01*
G75*
G02*
X137042500Y-75727500I-147500J0D01*
G01*
X136697500Y-75727500D01*
G75*
G02*
X136550000Y-75580000I0J147500D01*
G01*
X136550000Y-75285000D01*
G75*
G02*
X136697500Y-75137500I147500J0D01*
G01*
G37*
G36*
G01*
X136697500Y-74167500D02*
X137042500Y-74167500D01*
G75*
G02*
X137190000Y-74315000I0J-147500D01*
G01*
X137190000Y-74610000D01*
G75*
G02*
X137042500Y-74757500I-147500J0D01*
G01*
X136697500Y-74757500D01*
G75*
G02*
X136550000Y-74610000I0J147500D01*
G01*
X136550000Y-74315000D01*
G75*
G02*
X136697500Y-74167500I147500J0D01*
G01*
G37*
%TD*%
%TO.C,R64*%
G36*
G01*
X139450000Y-75582500D02*
X139450000Y-75237500D01*
G75*
G02*
X139597500Y-75090000I147500J0D01*
G01*
X139892500Y-75090000D01*
G75*
G02*
X140040000Y-75237500I0J-147500D01*
G01*
X140040000Y-75582500D01*
G75*
G02*
X139892500Y-75730000I-147500J0D01*
G01*
X139597500Y-75730000D01*
G75*
G02*
X139450000Y-75582500I0J147500D01*
G01*
G37*
G36*
G01*
X138480000Y-75582500D02*
X138480000Y-75237500D01*
G75*
G02*
X138627500Y-75090000I147500J0D01*
G01*
X138922500Y-75090000D01*
G75*
G02*
X139070000Y-75237500I0J-147500D01*
G01*
X139070000Y-75582500D01*
G75*
G02*
X138922500Y-75730000I-147500J0D01*
G01*
X138627500Y-75730000D01*
G75*
G02*
X138480000Y-75582500I0J147500D01*
G01*
G37*
%TD*%
%TO.C,R63*%
G36*
G01*
X139070000Y-76227500D02*
X139070000Y-76572500D01*
G75*
G02*
X138922500Y-76720000I-147500J0D01*
G01*
X138627500Y-76720000D01*
G75*
G02*
X138480000Y-76572500I0J147500D01*
G01*
X138480000Y-76227500D01*
G75*
G02*
X138627500Y-76080000I147500J0D01*
G01*
X138922500Y-76080000D01*
G75*
G02*
X139070000Y-76227500I0J-147500D01*
G01*
G37*
G36*
G01*
X140040000Y-76227500D02*
X140040000Y-76572500D01*
G75*
G02*
X139892500Y-76720000I-147500J0D01*
G01*
X139597500Y-76720000D01*
G75*
G02*
X139450000Y-76572500I0J147500D01*
G01*
X139450000Y-76227500D01*
G75*
G02*
X139597500Y-76080000I147500J0D01*
G01*
X139892500Y-76080000D01*
G75*
G02*
X140040000Y-76227500I0J-147500D01*
G01*
G37*
%TD*%
%TO.C,R62*%
G36*
G01*
X139450000Y-78550000D02*
X139450000Y-78205000D01*
G75*
G02*
X139597500Y-78057500I147500J0D01*
G01*
X139892500Y-78057500D01*
G75*
G02*
X140040000Y-78205000I0J-147500D01*
G01*
X140040000Y-78550000D01*
G75*
G02*
X139892500Y-78697500I-147500J0D01*
G01*
X139597500Y-78697500D01*
G75*
G02*
X139450000Y-78550000I0J147500D01*
G01*
G37*
G36*
G01*
X138480000Y-78550000D02*
X138480000Y-78205000D01*
G75*
G02*
X138627500Y-78057500I147500J0D01*
G01*
X138922500Y-78057500D01*
G75*
G02*
X139070000Y-78205000I0J-147500D01*
G01*
X139070000Y-78550000D01*
G75*
G02*
X138922500Y-78697500I-147500J0D01*
G01*
X138627500Y-78697500D01*
G75*
G02*
X138480000Y-78550000I0J147500D01*
G01*
G37*
%TD*%
%TO.C,R61*%
G36*
G01*
X139070000Y-77215000D02*
X139070000Y-77560000D01*
G75*
G02*
X138922500Y-77707500I-147500J0D01*
G01*
X138627500Y-77707500D01*
G75*
G02*
X138480000Y-77560000I0J147500D01*
G01*
X138480000Y-77215000D01*
G75*
G02*
X138627500Y-77067500I147500J0D01*
G01*
X138922500Y-77067500D01*
G75*
G02*
X139070000Y-77215000I0J-147500D01*
G01*
G37*
G36*
G01*
X140040000Y-77215000D02*
X140040000Y-77560000D01*
G75*
G02*
X139892500Y-77707500I-147500J0D01*
G01*
X139597500Y-77707500D01*
G75*
G02*
X139450000Y-77560000I0J147500D01*
G01*
X139450000Y-77215000D01*
G75*
G02*
X139597500Y-77067500I147500J0D01*
G01*
X139892500Y-77067500D01*
G75*
G02*
X140040000Y-77215000I0J-147500D01*
G01*
G37*
%TD*%
%TO.C,R60*%
G36*
G01*
X133950000Y-88462500D02*
X133950000Y-88117500D01*
G75*
G02*
X134097500Y-87970000I147500J0D01*
G01*
X134392500Y-87970000D01*
G75*
G02*
X134540000Y-88117500I0J-147500D01*
G01*
X134540000Y-88462500D01*
G75*
G02*
X134392500Y-88610000I-147500J0D01*
G01*
X134097500Y-88610000D01*
G75*
G02*
X133950000Y-88462500I0J147500D01*
G01*
G37*
G36*
G01*
X132980000Y-88462500D02*
X132980000Y-88117500D01*
G75*
G02*
X133127500Y-87970000I147500J0D01*
G01*
X133422500Y-87970000D01*
G75*
G02*
X133570000Y-88117500I0J-147500D01*
G01*
X133570000Y-88462500D01*
G75*
G02*
X133422500Y-88610000I-147500J0D01*
G01*
X133127500Y-88610000D01*
G75*
G02*
X132980000Y-88462500I0J147500D01*
G01*
G37*
%TD*%
%TO.C,R59*%
G36*
G01*
X130242500Y-86020000D02*
X129897500Y-86020000D01*
G75*
G02*
X129750000Y-85872500I0J147500D01*
G01*
X129750000Y-85577500D01*
G75*
G02*
X129897500Y-85430000I147500J0D01*
G01*
X130242500Y-85430000D01*
G75*
G02*
X130390000Y-85577500I0J-147500D01*
G01*
X130390000Y-85872500D01*
G75*
G02*
X130242500Y-86020000I-147500J0D01*
G01*
G37*
G36*
G01*
X130242500Y-86990000D02*
X129897500Y-86990000D01*
G75*
G02*
X129750000Y-86842500I0J147500D01*
G01*
X129750000Y-86547500D01*
G75*
G02*
X129897500Y-86400000I147500J0D01*
G01*
X130242500Y-86400000D01*
G75*
G02*
X130390000Y-86547500I0J-147500D01*
G01*
X130390000Y-86842500D01*
G75*
G02*
X130242500Y-86990000I-147500J0D01*
G01*
G37*
%TD*%
%TO.C,R58*%
G36*
G01*
X128787500Y-83190000D02*
X129132500Y-83190000D01*
G75*
G02*
X129280000Y-83337500I0J-147500D01*
G01*
X129280000Y-83632500D01*
G75*
G02*
X129132500Y-83780000I-147500J0D01*
G01*
X128787500Y-83780000D01*
G75*
G02*
X128640000Y-83632500I0J147500D01*
G01*
X128640000Y-83337500D01*
G75*
G02*
X128787500Y-83190000I147500J0D01*
G01*
G37*
G36*
G01*
X128787500Y-82220000D02*
X129132500Y-82220000D01*
G75*
G02*
X129280000Y-82367500I0J-147500D01*
G01*
X129280000Y-82662500D01*
G75*
G02*
X129132500Y-82810000I-147500J0D01*
G01*
X128787500Y-82810000D01*
G75*
G02*
X128640000Y-82662500I0J147500D01*
G01*
X128640000Y-82367500D01*
G75*
G02*
X128787500Y-82220000I147500J0D01*
G01*
G37*
%TD*%
%TO.C,R57*%
G36*
G01*
X130232500Y-82810000D02*
X129887500Y-82810000D01*
G75*
G02*
X129740000Y-82662500I0J147500D01*
G01*
X129740000Y-82367500D01*
G75*
G02*
X129887500Y-82220000I147500J0D01*
G01*
X130232500Y-82220000D01*
G75*
G02*
X130380000Y-82367500I0J-147500D01*
G01*
X130380000Y-82662500D01*
G75*
G02*
X130232500Y-82810000I-147500J0D01*
G01*
G37*
G36*
G01*
X130232500Y-83780000D02*
X129887500Y-83780000D01*
G75*
G02*
X129740000Y-83632500I0J147500D01*
G01*
X129740000Y-83337500D01*
G75*
G02*
X129887500Y-83190000I147500J0D01*
G01*
X130232500Y-83190000D01*
G75*
G02*
X130380000Y-83337500I0J-147500D01*
G01*
X130380000Y-83632500D01*
G75*
G02*
X130232500Y-83780000I-147500J0D01*
G01*
G37*
%TD*%
%TO.C,R56*%
G36*
G01*
X129790000Y-79482500D02*
X129790000Y-79137500D01*
G75*
G02*
X129937500Y-78990000I147500J0D01*
G01*
X130232500Y-78990000D01*
G75*
G02*
X130380000Y-79137500I0J-147500D01*
G01*
X130380000Y-79482500D01*
G75*
G02*
X130232500Y-79630000I-147500J0D01*
G01*
X129937500Y-79630000D01*
G75*
G02*
X129790000Y-79482500I0J147500D01*
G01*
G37*
G36*
G01*
X128820000Y-79482500D02*
X128820000Y-79137500D01*
G75*
G02*
X128967500Y-78990000I147500J0D01*
G01*
X129262500Y-78990000D01*
G75*
G02*
X129410000Y-79137500I0J-147500D01*
G01*
X129410000Y-79482500D01*
G75*
G02*
X129262500Y-79630000I-147500J0D01*
G01*
X128967500Y-79630000D01*
G75*
G02*
X128820000Y-79482500I0J147500D01*
G01*
G37*
%TD*%
%TO.C,R55*%
G36*
G01*
X130232500Y-77720000D02*
X129887500Y-77720000D01*
G75*
G02*
X129740000Y-77572500I0J147500D01*
G01*
X129740000Y-77277500D01*
G75*
G02*
X129887500Y-77130000I147500J0D01*
G01*
X130232500Y-77130000D01*
G75*
G02*
X130380000Y-77277500I0J-147500D01*
G01*
X130380000Y-77572500D01*
G75*
G02*
X130232500Y-77720000I-147500J0D01*
G01*
G37*
G36*
G01*
X130232500Y-78690000D02*
X129887500Y-78690000D01*
G75*
G02*
X129740000Y-78542500I0J147500D01*
G01*
X129740000Y-78247500D01*
G75*
G02*
X129887500Y-78100000I147500J0D01*
G01*
X130232500Y-78100000D01*
G75*
G02*
X130380000Y-78247500I0J-147500D01*
G01*
X130380000Y-78542500D01*
G75*
G02*
X130232500Y-78690000I-147500J0D01*
G01*
G37*
%TD*%
%TO.C,R24*%
G36*
G01*
X149680000Y-102062500D02*
X149680000Y-101717500D01*
G75*
G02*
X149827500Y-101570000I147500J0D01*
G01*
X150122500Y-101570000D01*
G75*
G02*
X150270000Y-101717500I0J-147500D01*
G01*
X150270000Y-102062500D01*
G75*
G02*
X150122500Y-102210000I-147500J0D01*
G01*
X149827500Y-102210000D01*
G75*
G02*
X149680000Y-102062500I0J147500D01*
G01*
G37*
G36*
G01*
X148710000Y-102062500D02*
X148710000Y-101717500D01*
G75*
G02*
X148857500Y-101570000I147500J0D01*
G01*
X149152500Y-101570000D01*
G75*
G02*
X149300000Y-101717500I0J-147500D01*
G01*
X149300000Y-102062500D01*
G75*
G02*
X149152500Y-102210000I-147500J0D01*
G01*
X148857500Y-102210000D01*
G75*
G02*
X148710000Y-102062500I0J147500D01*
G01*
G37*
%TD*%
%TO.C,R23*%
G36*
G01*
X144272500Y-101860000D02*
X143927500Y-101860000D01*
G75*
G02*
X143780000Y-101712500I0J147500D01*
G01*
X143780000Y-101417500D01*
G75*
G02*
X143927500Y-101270000I147500J0D01*
G01*
X144272500Y-101270000D01*
G75*
G02*
X144420000Y-101417500I0J-147500D01*
G01*
X144420000Y-101712500D01*
G75*
G02*
X144272500Y-101860000I-147500J0D01*
G01*
G37*
G36*
G01*
X144272500Y-102830000D02*
X143927500Y-102830000D01*
G75*
G02*
X143780000Y-102682500I0J147500D01*
G01*
X143780000Y-102387500D01*
G75*
G02*
X143927500Y-102240000I147500J0D01*
G01*
X144272500Y-102240000D01*
G75*
G02*
X144420000Y-102387500I0J-147500D01*
G01*
X144420000Y-102682500D01*
G75*
G02*
X144272500Y-102830000I-147500J0D01*
G01*
G37*
%TD*%
%TO.C,R21*%
G36*
G01*
X140930000Y-102705000D02*
X140930000Y-102360000D01*
G75*
G02*
X141077500Y-102212500I147500J0D01*
G01*
X141372500Y-102212500D01*
G75*
G02*
X141520000Y-102360000I0J-147500D01*
G01*
X141520000Y-102705000D01*
G75*
G02*
X141372500Y-102852500I-147500J0D01*
G01*
X141077500Y-102852500D01*
G75*
G02*
X140930000Y-102705000I0J147500D01*
G01*
G37*
G36*
G01*
X139960000Y-102705000D02*
X139960000Y-102360000D01*
G75*
G02*
X140107500Y-102212500I147500J0D01*
G01*
X140402500Y-102212500D01*
G75*
G02*
X140550000Y-102360000I0J-147500D01*
G01*
X140550000Y-102705000D01*
G75*
G02*
X140402500Y-102852500I-147500J0D01*
G01*
X140107500Y-102852500D01*
G75*
G02*
X139960000Y-102705000I0J147500D01*
G01*
G37*
%TD*%
%TO.C,R20*%
G36*
G01*
X140930000Y-97805000D02*
X140930000Y-97460000D01*
G75*
G02*
X141077500Y-97312500I147500J0D01*
G01*
X141372500Y-97312500D01*
G75*
G02*
X141520000Y-97460000I0J-147500D01*
G01*
X141520000Y-97805000D01*
G75*
G02*
X141372500Y-97952500I-147500J0D01*
G01*
X141077500Y-97952500D01*
G75*
G02*
X140930000Y-97805000I0J147500D01*
G01*
G37*
G36*
G01*
X139960000Y-97805000D02*
X139960000Y-97460000D01*
G75*
G02*
X140107500Y-97312500I147500J0D01*
G01*
X140402500Y-97312500D01*
G75*
G02*
X140550000Y-97460000I0J-147500D01*
G01*
X140550000Y-97805000D01*
G75*
G02*
X140402500Y-97952500I-147500J0D01*
G01*
X140107500Y-97952500D01*
G75*
G02*
X139960000Y-97805000I0J147500D01*
G01*
G37*
%TD*%
%TO.C,R19*%
G36*
G01*
X142460000Y-101417500D02*
X142460000Y-101762500D01*
G75*
G02*
X142312500Y-101910000I-147500J0D01*
G01*
X142017500Y-101910000D01*
G75*
G02*
X141870000Y-101762500I0J147500D01*
G01*
X141870000Y-101417500D01*
G75*
G02*
X142017500Y-101270000I147500J0D01*
G01*
X142312500Y-101270000D01*
G75*
G02*
X142460000Y-101417500I0J-147500D01*
G01*
G37*
G36*
G01*
X143430000Y-101417500D02*
X143430000Y-101762500D01*
G75*
G02*
X143282500Y-101910000I-147500J0D01*
G01*
X142987500Y-101910000D01*
G75*
G02*
X142840000Y-101762500I0J147500D01*
G01*
X142840000Y-101417500D01*
G75*
G02*
X142987500Y-101270000I147500J0D01*
G01*
X143282500Y-101270000D01*
G75*
G02*
X143430000Y-101417500I0J-147500D01*
G01*
G37*
%TD*%
%TO.C,R18*%
G36*
G01*
X142460000Y-102357500D02*
X142460000Y-102702500D01*
G75*
G02*
X142312500Y-102850000I-147500J0D01*
G01*
X142017500Y-102850000D01*
G75*
G02*
X141870000Y-102702500I0J147500D01*
G01*
X141870000Y-102357500D01*
G75*
G02*
X142017500Y-102210000I147500J0D01*
G01*
X142312500Y-102210000D01*
G75*
G02*
X142460000Y-102357500I0J-147500D01*
G01*
G37*
G36*
G01*
X143430000Y-102357500D02*
X143430000Y-102702500D01*
G75*
G02*
X143282500Y-102850000I-147500J0D01*
G01*
X142987500Y-102850000D01*
G75*
G02*
X142840000Y-102702500I0J147500D01*
G01*
X142840000Y-102357500D01*
G75*
G02*
X142987500Y-102210000I147500J0D01*
G01*
X143282500Y-102210000D01*
G75*
G02*
X143430000Y-102357500I0J-147500D01*
G01*
G37*
%TD*%
%TO.C,R17*%
G36*
G01*
X140550000Y-101417500D02*
X140550000Y-101762500D01*
G75*
G02*
X140402500Y-101910000I-147500J0D01*
G01*
X140107500Y-101910000D01*
G75*
G02*
X139960000Y-101762500I0J147500D01*
G01*
X139960000Y-101417500D01*
G75*
G02*
X140107500Y-101270000I147500J0D01*
G01*
X140402500Y-101270000D01*
G75*
G02*
X140550000Y-101417500I0J-147500D01*
G01*
G37*
G36*
G01*
X141520000Y-101417500D02*
X141520000Y-101762500D01*
G75*
G02*
X141372500Y-101910000I-147500J0D01*
G01*
X141077500Y-101910000D01*
G75*
G02*
X140930000Y-101762500I0J147500D01*
G01*
X140930000Y-101417500D01*
G75*
G02*
X141077500Y-101270000I147500J0D01*
G01*
X141372500Y-101270000D01*
G75*
G02*
X141520000Y-101417500I0J-147500D01*
G01*
G37*
%TD*%
%TO.C,R16*%
G36*
G01*
X140550000Y-100427500D02*
X140550000Y-100772500D01*
G75*
G02*
X140402500Y-100920000I-147500J0D01*
G01*
X140107500Y-100920000D01*
G75*
G02*
X139960000Y-100772500I0J147500D01*
G01*
X139960000Y-100427500D01*
G75*
G02*
X140107500Y-100280000I147500J0D01*
G01*
X140402500Y-100280000D01*
G75*
G02*
X140550000Y-100427500I0J-147500D01*
G01*
G37*
G36*
G01*
X141520000Y-100427500D02*
X141520000Y-100772500D01*
G75*
G02*
X141372500Y-100920000I-147500J0D01*
G01*
X141077500Y-100920000D01*
G75*
G02*
X140930000Y-100772500I0J147500D01*
G01*
X140930000Y-100427500D01*
G75*
G02*
X141077500Y-100280000I147500J0D01*
G01*
X141372500Y-100280000D01*
G75*
G02*
X141520000Y-100427500I0J-147500D01*
G01*
G37*
%TD*%
%TO.C,R15*%
G36*
G01*
X140530000Y-103347500D02*
X140530000Y-103692500D01*
G75*
G02*
X140382500Y-103840000I-147500J0D01*
G01*
X140087500Y-103840000D01*
G75*
G02*
X139940000Y-103692500I0J147500D01*
G01*
X139940000Y-103347500D01*
G75*
G02*
X140087500Y-103200000I147500J0D01*
G01*
X140382500Y-103200000D01*
G75*
G02*
X140530000Y-103347500I0J-147500D01*
G01*
G37*
G36*
G01*
X141500000Y-103347500D02*
X141500000Y-103692500D01*
G75*
G02*
X141352500Y-103840000I-147500J0D01*
G01*
X141057500Y-103840000D01*
G75*
G02*
X140910000Y-103692500I0J147500D01*
G01*
X140910000Y-103347500D01*
G75*
G02*
X141057500Y-103200000I147500J0D01*
G01*
X141352500Y-103200000D01*
G75*
G02*
X141500000Y-103347500I0J-147500D01*
G01*
G37*
%TD*%
%TO.C,R14*%
G36*
G01*
X140550000Y-98450000D02*
X140550000Y-98795000D01*
G75*
G02*
X140402500Y-98942500I-147500J0D01*
G01*
X140107500Y-98942500D01*
G75*
G02*
X139960000Y-98795000I0J147500D01*
G01*
X139960000Y-98450000D01*
G75*
G02*
X140107500Y-98302500I147500J0D01*
G01*
X140402500Y-98302500D01*
G75*
G02*
X140550000Y-98450000I0J-147500D01*
G01*
G37*
G36*
G01*
X141520000Y-98450000D02*
X141520000Y-98795000D01*
G75*
G02*
X141372500Y-98942500I-147500J0D01*
G01*
X141077500Y-98942500D01*
G75*
G02*
X140930000Y-98795000I0J147500D01*
G01*
X140930000Y-98450000D01*
G75*
G02*
X141077500Y-98302500I147500J0D01*
G01*
X141372500Y-98302500D01*
G75*
G02*
X141520000Y-98450000I0J-147500D01*
G01*
G37*
%TD*%
%TO.C,R13*%
G36*
G01*
X140550000Y-99440000D02*
X140550000Y-99785000D01*
G75*
G02*
X140402500Y-99932500I-147500J0D01*
G01*
X140107500Y-99932500D01*
G75*
G02*
X139960000Y-99785000I0J147500D01*
G01*
X139960000Y-99440000D01*
G75*
G02*
X140107500Y-99292500I147500J0D01*
G01*
X140402500Y-99292500D01*
G75*
G02*
X140550000Y-99440000I0J-147500D01*
G01*
G37*
G36*
G01*
X141520000Y-99440000D02*
X141520000Y-99785000D01*
G75*
G02*
X141372500Y-99932500I-147500J0D01*
G01*
X141077500Y-99932500D01*
G75*
G02*
X140930000Y-99785000I0J147500D01*
G01*
X140930000Y-99440000D01*
G75*
G02*
X141077500Y-99292500I147500J0D01*
G01*
X141372500Y-99292500D01*
G75*
G02*
X141520000Y-99440000I0J-147500D01*
G01*
G37*
%TD*%
%TO.C,R12*%
G36*
G01*
X146380000Y-88537500D02*
X146380000Y-88882500D01*
G75*
G02*
X146232500Y-89030000I-147500J0D01*
G01*
X145937500Y-89030000D01*
G75*
G02*
X145790000Y-88882500I0J147500D01*
G01*
X145790000Y-88537500D01*
G75*
G02*
X145937500Y-88390000I147500J0D01*
G01*
X146232500Y-88390000D01*
G75*
G02*
X146380000Y-88537500I0J-147500D01*
G01*
G37*
G36*
G01*
X147350000Y-88537500D02*
X147350000Y-88882500D01*
G75*
G02*
X147202500Y-89030000I-147500J0D01*
G01*
X146907500Y-89030000D01*
G75*
G02*
X146760000Y-88882500I0J147500D01*
G01*
X146760000Y-88537500D01*
G75*
G02*
X146907500Y-88390000I147500J0D01*
G01*
X147202500Y-88390000D01*
G75*
G02*
X147350000Y-88537500I0J-147500D01*
G01*
G37*
%TD*%
%TO.C,R11*%
G36*
G01*
X149757500Y-90980000D02*
X150102500Y-90980000D01*
G75*
G02*
X150250000Y-91127500I0J-147500D01*
G01*
X150250000Y-91422500D01*
G75*
G02*
X150102500Y-91570000I-147500J0D01*
G01*
X149757500Y-91570000D01*
G75*
G02*
X149610000Y-91422500I0J147500D01*
G01*
X149610000Y-91127500D01*
G75*
G02*
X149757500Y-90980000I147500J0D01*
G01*
G37*
G36*
G01*
X149757500Y-90010000D02*
X150102500Y-90010000D01*
G75*
G02*
X150250000Y-90157500I0J-147500D01*
G01*
X150250000Y-90452500D01*
G75*
G02*
X150102500Y-90600000I-147500J0D01*
G01*
X149757500Y-90600000D01*
G75*
G02*
X149610000Y-90452500I0J147500D01*
G01*
X149610000Y-90157500D01*
G75*
G02*
X149757500Y-90010000I147500J0D01*
G01*
G37*
%TD*%
%TO.C,R10*%
G36*
G01*
X151212500Y-93810000D02*
X150867500Y-93810000D01*
G75*
G02*
X150720000Y-93662500I0J147500D01*
G01*
X150720000Y-93367500D01*
G75*
G02*
X150867500Y-93220000I147500J0D01*
G01*
X151212500Y-93220000D01*
G75*
G02*
X151360000Y-93367500I0J-147500D01*
G01*
X151360000Y-93662500D01*
G75*
G02*
X151212500Y-93810000I-147500J0D01*
G01*
G37*
G36*
G01*
X151212500Y-94780000D02*
X150867500Y-94780000D01*
G75*
G02*
X150720000Y-94632500I0J147500D01*
G01*
X150720000Y-94337500D01*
G75*
G02*
X150867500Y-94190000I147500J0D01*
G01*
X151212500Y-94190000D01*
G75*
G02*
X151360000Y-94337500I0J-147500D01*
G01*
X151360000Y-94632500D01*
G75*
G02*
X151212500Y-94780000I-147500J0D01*
G01*
G37*
%TD*%
%TO.C,R9*%
G36*
G01*
X149767500Y-94190000D02*
X150112500Y-94190000D01*
G75*
G02*
X150260000Y-94337500I0J-147500D01*
G01*
X150260000Y-94632500D01*
G75*
G02*
X150112500Y-94780000I-147500J0D01*
G01*
X149767500Y-94780000D01*
G75*
G02*
X149620000Y-94632500I0J147500D01*
G01*
X149620000Y-94337500D01*
G75*
G02*
X149767500Y-94190000I147500J0D01*
G01*
G37*
G36*
G01*
X149767500Y-93220000D02*
X150112500Y-93220000D01*
G75*
G02*
X150260000Y-93367500I0J-147500D01*
G01*
X150260000Y-93662500D01*
G75*
G02*
X150112500Y-93810000I-147500J0D01*
G01*
X149767500Y-93810000D01*
G75*
G02*
X149620000Y-93662500I0J147500D01*
G01*
X149620000Y-93367500D01*
G75*
G02*
X149767500Y-93220000I147500J0D01*
G01*
G37*
%TD*%
%TO.C,R8*%
G36*
G01*
X150210000Y-97517500D02*
X150210000Y-97862500D01*
G75*
G02*
X150062500Y-98010000I-147500J0D01*
G01*
X149767500Y-98010000D01*
G75*
G02*
X149620000Y-97862500I0J147500D01*
G01*
X149620000Y-97517500D01*
G75*
G02*
X149767500Y-97370000I147500J0D01*
G01*
X150062500Y-97370000D01*
G75*
G02*
X150210000Y-97517500I0J-147500D01*
G01*
G37*
G36*
G01*
X151180000Y-97517500D02*
X151180000Y-97862500D01*
G75*
G02*
X151032500Y-98010000I-147500J0D01*
G01*
X150737500Y-98010000D01*
G75*
G02*
X150590000Y-97862500I0J147500D01*
G01*
X150590000Y-97517500D01*
G75*
G02*
X150737500Y-97370000I147500J0D01*
G01*
X151032500Y-97370000D01*
G75*
G02*
X151180000Y-97517500I0J-147500D01*
G01*
G37*
%TD*%
%TO.C,R7*%
G36*
G01*
X149767500Y-99280000D02*
X150112500Y-99280000D01*
G75*
G02*
X150260000Y-99427500I0J-147500D01*
G01*
X150260000Y-99722500D01*
G75*
G02*
X150112500Y-99870000I-147500J0D01*
G01*
X149767500Y-99870000D01*
G75*
G02*
X149620000Y-99722500I0J147500D01*
G01*
X149620000Y-99427500D01*
G75*
G02*
X149767500Y-99280000I147500J0D01*
G01*
G37*
G36*
G01*
X149767500Y-98310000D02*
X150112500Y-98310000D01*
G75*
G02*
X150260000Y-98457500I0J-147500D01*
G01*
X150260000Y-98752500D01*
G75*
G02*
X150112500Y-98900000I-147500J0D01*
G01*
X149767500Y-98900000D01*
G75*
G02*
X149620000Y-98752500I0J147500D01*
G01*
X149620000Y-98457500D01*
G75*
G02*
X149767500Y-98310000I147500J0D01*
G01*
G37*
%TD*%
%TO.C,R37*%
G36*
G01*
X144770000Y-74287500D02*
X144770000Y-74632500D01*
G75*
G02*
X144622500Y-74780000I-147500J0D01*
G01*
X144327500Y-74780000D01*
G75*
G02*
X144180000Y-74632500I0J147500D01*
G01*
X144180000Y-74287500D01*
G75*
G02*
X144327500Y-74140000I147500J0D01*
G01*
X144622500Y-74140000D01*
G75*
G02*
X144770000Y-74287500I0J-147500D01*
G01*
G37*
G36*
G01*
X145740000Y-74287500D02*
X145740000Y-74632500D01*
G75*
G02*
X145592500Y-74780000I-147500J0D01*
G01*
X145297500Y-74780000D01*
G75*
G02*
X145150000Y-74632500I0J147500D01*
G01*
X145150000Y-74287500D01*
G75*
G02*
X145297500Y-74140000I147500J0D01*
G01*
X145592500Y-74140000D01*
G75*
G02*
X145740000Y-74287500I0J-147500D01*
G01*
G37*
%TD*%
%TO.C,R36*%
G36*
G01*
X149757500Y-76370000D02*
X150102500Y-76370000D01*
G75*
G02*
X150250000Y-76517500I0J-147500D01*
G01*
X150250000Y-76812500D01*
G75*
G02*
X150102500Y-76960000I-147500J0D01*
G01*
X149757500Y-76960000D01*
G75*
G02*
X149610000Y-76812500I0J147500D01*
G01*
X149610000Y-76517500D01*
G75*
G02*
X149757500Y-76370000I147500J0D01*
G01*
G37*
G36*
G01*
X149757500Y-75400000D02*
X150102500Y-75400000D01*
G75*
G02*
X150250000Y-75547500I0J-147500D01*
G01*
X150250000Y-75842500D01*
G75*
G02*
X150102500Y-75990000I-147500J0D01*
G01*
X149757500Y-75990000D01*
G75*
G02*
X149610000Y-75842500I0J147500D01*
G01*
X149610000Y-75547500D01*
G75*
G02*
X149757500Y-75400000I147500J0D01*
G01*
G37*
%TD*%
%TO.C,R35*%
G36*
G01*
X151212500Y-78800000D02*
X150867500Y-78800000D01*
G75*
G02*
X150720000Y-78652500I0J147500D01*
G01*
X150720000Y-78357500D01*
G75*
G02*
X150867500Y-78210000I147500J0D01*
G01*
X151212500Y-78210000D01*
G75*
G02*
X151360000Y-78357500I0J-147500D01*
G01*
X151360000Y-78652500D01*
G75*
G02*
X151212500Y-78800000I-147500J0D01*
G01*
G37*
G36*
G01*
X151212500Y-79770000D02*
X150867500Y-79770000D01*
G75*
G02*
X150720000Y-79622500I0J147500D01*
G01*
X150720000Y-79327500D01*
G75*
G02*
X150867500Y-79180000I147500J0D01*
G01*
X151212500Y-79180000D01*
G75*
G02*
X151360000Y-79327500I0J-147500D01*
G01*
X151360000Y-79622500D01*
G75*
G02*
X151212500Y-79770000I-147500J0D01*
G01*
G37*
%TD*%
%TO.C,R34*%
G36*
G01*
X149767500Y-79530000D02*
X150112500Y-79530000D01*
G75*
G02*
X150260000Y-79677500I0J-147500D01*
G01*
X150260000Y-79972500D01*
G75*
G02*
X150112500Y-80120000I-147500J0D01*
G01*
X149767500Y-80120000D01*
G75*
G02*
X149620000Y-79972500I0J147500D01*
G01*
X149620000Y-79677500D01*
G75*
G02*
X149767500Y-79530000I147500J0D01*
G01*
G37*
G36*
G01*
X149767500Y-78560000D02*
X150112500Y-78560000D01*
G75*
G02*
X150260000Y-78707500I0J-147500D01*
G01*
X150260000Y-79002500D01*
G75*
G02*
X150112500Y-79150000I-147500J0D01*
G01*
X149767500Y-79150000D01*
G75*
G02*
X149620000Y-79002500I0J147500D01*
G01*
X149620000Y-78707500D01*
G75*
G02*
X149767500Y-78560000I147500J0D01*
G01*
G37*
%TD*%
%TO.C,R33*%
G36*
G01*
X151152500Y-83340000D02*
X150807500Y-83340000D01*
G75*
G02*
X150660000Y-83192500I0J147500D01*
G01*
X150660000Y-82897500D01*
G75*
G02*
X150807500Y-82750000I147500J0D01*
G01*
X151152500Y-82750000D01*
G75*
G02*
X151300000Y-82897500I0J-147500D01*
G01*
X151300000Y-83192500D01*
G75*
G02*
X151152500Y-83340000I-147500J0D01*
G01*
G37*
G36*
G01*
X151152500Y-84310000D02*
X150807500Y-84310000D01*
G75*
G02*
X150660000Y-84162500I0J147500D01*
G01*
X150660000Y-83867500D01*
G75*
G02*
X150807500Y-83720000I147500J0D01*
G01*
X151152500Y-83720000D01*
G75*
G02*
X151300000Y-83867500I0J-147500D01*
G01*
X151300000Y-84162500D01*
G75*
G02*
X151152500Y-84310000I-147500J0D01*
G01*
G37*
%TD*%
%TO.C,R32*%
G36*
G01*
X150212500Y-83340000D02*
X149867500Y-83340000D01*
G75*
G02*
X149720000Y-83192500I0J147500D01*
G01*
X149720000Y-82897500D01*
G75*
G02*
X149867500Y-82750000I147500J0D01*
G01*
X150212500Y-82750000D01*
G75*
G02*
X150360000Y-82897500I0J-147500D01*
G01*
X150360000Y-83192500D01*
G75*
G02*
X150212500Y-83340000I-147500J0D01*
G01*
G37*
G36*
G01*
X150212500Y-84310000D02*
X149867500Y-84310000D01*
G75*
G02*
X149720000Y-84162500I0J147500D01*
G01*
X149720000Y-83867500D01*
G75*
G02*
X149867500Y-83720000I147500J0D01*
G01*
X150212500Y-83720000D01*
G75*
G02*
X150360000Y-83867500I0J-147500D01*
G01*
X150360000Y-84162500D01*
G75*
G02*
X150212500Y-84310000I-147500J0D01*
G01*
G37*
%TD*%
%TO.C,R31*%
G36*
G01*
X149680000Y-87402500D02*
X149680000Y-87057500D01*
G75*
G02*
X149827500Y-86910000I147500J0D01*
G01*
X150122500Y-86910000D01*
G75*
G02*
X150270000Y-87057500I0J-147500D01*
G01*
X150270000Y-87402500D01*
G75*
G02*
X150122500Y-87550000I-147500J0D01*
G01*
X149827500Y-87550000D01*
G75*
G02*
X149680000Y-87402500I0J147500D01*
G01*
G37*
G36*
G01*
X148710000Y-87402500D02*
X148710000Y-87057500D01*
G75*
G02*
X148857500Y-86910000I147500J0D01*
G01*
X149152500Y-86910000D01*
G75*
G02*
X149300000Y-87057500I0J-147500D01*
G01*
X149300000Y-87402500D01*
G75*
G02*
X149152500Y-87550000I-147500J0D01*
G01*
X148857500Y-87550000D01*
G75*
G02*
X148710000Y-87402500I0J147500D01*
G01*
G37*
%TD*%
%TO.C,R30*%
G36*
G01*
X143647500Y-87482500D02*
X143992500Y-87482500D01*
G75*
G02*
X144140000Y-87630000I0J-147500D01*
G01*
X144140000Y-87925000D01*
G75*
G02*
X143992500Y-88072500I-147500J0D01*
G01*
X143647500Y-88072500D01*
G75*
G02*
X143500000Y-87925000I0J147500D01*
G01*
X143500000Y-87630000D01*
G75*
G02*
X143647500Y-87482500I147500J0D01*
G01*
G37*
G36*
G01*
X143647500Y-86512500D02*
X143992500Y-86512500D01*
G75*
G02*
X144140000Y-86660000I0J-147500D01*
G01*
X144140000Y-86955000D01*
G75*
G02*
X143992500Y-87102500I-147500J0D01*
G01*
X143647500Y-87102500D01*
G75*
G02*
X143500000Y-86955000I0J147500D01*
G01*
X143500000Y-86660000D01*
G75*
G02*
X143647500Y-86512500I147500J0D01*
G01*
G37*
%TD*%
%TO.C,R29*%
G36*
G01*
X140680000Y-87945000D02*
X140680000Y-87600000D01*
G75*
G02*
X140827500Y-87452500I147500J0D01*
G01*
X141122500Y-87452500D01*
G75*
G02*
X141270000Y-87600000I0J-147500D01*
G01*
X141270000Y-87945000D01*
G75*
G02*
X141122500Y-88092500I-147500J0D01*
G01*
X140827500Y-88092500D01*
G75*
G02*
X140680000Y-87945000I0J147500D01*
G01*
G37*
G36*
G01*
X139710000Y-87945000D02*
X139710000Y-87600000D01*
G75*
G02*
X139857500Y-87452500I147500J0D01*
G01*
X140152500Y-87452500D01*
G75*
G02*
X140300000Y-87600000I0J-147500D01*
G01*
X140300000Y-87945000D01*
G75*
G02*
X140152500Y-88092500I-147500J0D01*
G01*
X139857500Y-88092500D01*
G75*
G02*
X139710000Y-87945000I0J147500D01*
G01*
G37*
%TD*%
%TO.C,R28*%
G36*
G01*
X140930000Y-83045000D02*
X140930000Y-82700000D01*
G75*
G02*
X141077500Y-82552500I147500J0D01*
G01*
X141372500Y-82552500D01*
G75*
G02*
X141520000Y-82700000I0J-147500D01*
G01*
X141520000Y-83045000D01*
G75*
G02*
X141372500Y-83192500I-147500J0D01*
G01*
X141077500Y-83192500D01*
G75*
G02*
X140930000Y-83045000I0J147500D01*
G01*
G37*
G36*
G01*
X139960000Y-83045000D02*
X139960000Y-82700000D01*
G75*
G02*
X140107500Y-82552500I147500J0D01*
G01*
X140402500Y-82552500D01*
G75*
G02*
X140550000Y-82700000I0J-147500D01*
G01*
X140550000Y-83045000D01*
G75*
G02*
X140402500Y-83192500I-147500J0D01*
G01*
X140107500Y-83192500D01*
G75*
G02*
X139960000Y-83045000I0J147500D01*
G01*
G37*
%TD*%
%TO.C,R27*%
G36*
G01*
X142112500Y-87102500D02*
X141767500Y-87102500D01*
G75*
G02*
X141620000Y-86955000I0J147500D01*
G01*
X141620000Y-86660000D01*
G75*
G02*
X141767500Y-86512500I147500J0D01*
G01*
X142112500Y-86512500D01*
G75*
G02*
X142260000Y-86660000I0J-147500D01*
G01*
X142260000Y-86955000D01*
G75*
G02*
X142112500Y-87102500I-147500J0D01*
G01*
G37*
G36*
G01*
X142112500Y-88072500D02*
X141767500Y-88072500D01*
G75*
G02*
X141620000Y-87925000I0J147500D01*
G01*
X141620000Y-87630000D01*
G75*
G02*
X141767500Y-87482500I147500J0D01*
G01*
X142112500Y-87482500D01*
G75*
G02*
X142260000Y-87630000I0J-147500D01*
G01*
X142260000Y-87925000D01*
G75*
G02*
X142112500Y-88072500I-147500J0D01*
G01*
G37*
%TD*%
%TO.C,R26*%
G36*
G01*
X143052500Y-87102500D02*
X142707500Y-87102500D01*
G75*
G02*
X142560000Y-86955000I0J147500D01*
G01*
X142560000Y-86660000D01*
G75*
G02*
X142707500Y-86512500I147500J0D01*
G01*
X143052500Y-86512500D01*
G75*
G02*
X143200000Y-86660000I0J-147500D01*
G01*
X143200000Y-86955000D01*
G75*
G02*
X143052500Y-87102500I-147500J0D01*
G01*
G37*
G36*
G01*
X143052500Y-88072500D02*
X142707500Y-88072500D01*
G75*
G02*
X142560000Y-87925000I0J147500D01*
G01*
X142560000Y-87630000D01*
G75*
G02*
X142707500Y-87482500I147500J0D01*
G01*
X143052500Y-87482500D01*
G75*
G02*
X143200000Y-87630000I0J-147500D01*
G01*
X143200000Y-87925000D01*
G75*
G02*
X143052500Y-88072500I-147500J0D01*
G01*
G37*
%TD*%
%TO.C,R22*%
G36*
G01*
X140300000Y-86660000D02*
X140300000Y-87005000D01*
G75*
G02*
X140152500Y-87152500I-147500J0D01*
G01*
X139857500Y-87152500D01*
G75*
G02*
X139710000Y-87005000I0J147500D01*
G01*
X139710000Y-86660000D01*
G75*
G02*
X139857500Y-86512500I147500J0D01*
G01*
X140152500Y-86512500D01*
G75*
G02*
X140300000Y-86660000I0J-147500D01*
G01*
G37*
G36*
G01*
X141270000Y-86660000D02*
X141270000Y-87005000D01*
G75*
G02*
X141122500Y-87152500I-147500J0D01*
G01*
X140827500Y-87152500D01*
G75*
G02*
X140680000Y-87005000I0J147500D01*
G01*
X140680000Y-86660000D01*
G75*
G02*
X140827500Y-86512500I147500J0D01*
G01*
X141122500Y-86512500D01*
G75*
G02*
X141270000Y-86660000I0J-147500D01*
G01*
G37*
%TD*%
%TO.C,R6*%
G36*
G01*
X140930000Y-86015000D02*
X140930000Y-85670000D01*
G75*
G02*
X141077500Y-85522500I147500J0D01*
G01*
X141372500Y-85522500D01*
G75*
G02*
X141520000Y-85670000I0J-147500D01*
G01*
X141520000Y-86015000D01*
G75*
G02*
X141372500Y-86162500I-147500J0D01*
G01*
X141077500Y-86162500D01*
G75*
G02*
X140930000Y-86015000I0J147500D01*
G01*
G37*
G36*
G01*
X139960000Y-86015000D02*
X139960000Y-85670000D01*
G75*
G02*
X140107500Y-85522500I147500J0D01*
G01*
X140402500Y-85522500D01*
G75*
G02*
X140550000Y-85670000I0J-147500D01*
G01*
X140550000Y-86015000D01*
G75*
G02*
X140402500Y-86162500I-147500J0D01*
G01*
X140107500Y-86162500D01*
G75*
G02*
X139960000Y-86015000I0J147500D01*
G01*
G37*
%TD*%
%TO.C,R5*%
G36*
G01*
X140550000Y-83690000D02*
X140550000Y-84035000D01*
G75*
G02*
X140402500Y-84182500I-147500J0D01*
G01*
X140107500Y-84182500D01*
G75*
G02*
X139960000Y-84035000I0J147500D01*
G01*
X139960000Y-83690000D01*
G75*
G02*
X140107500Y-83542500I147500J0D01*
G01*
X140402500Y-83542500D01*
G75*
G02*
X140550000Y-83690000I0J-147500D01*
G01*
G37*
G36*
G01*
X141520000Y-83690000D02*
X141520000Y-84035000D01*
G75*
G02*
X141372500Y-84182500I-147500J0D01*
G01*
X141077500Y-84182500D01*
G75*
G02*
X140930000Y-84035000I0J147500D01*
G01*
X140930000Y-83690000D01*
G75*
G02*
X141077500Y-83542500I147500J0D01*
G01*
X141372500Y-83542500D01*
G75*
G02*
X141520000Y-83690000I0J-147500D01*
G01*
G37*
%TD*%
%TO.C,R4*%
G36*
G01*
X140930000Y-85025000D02*
X140930000Y-84680000D01*
G75*
G02*
X141077500Y-84532500I147500J0D01*
G01*
X141372500Y-84532500D01*
G75*
G02*
X141520000Y-84680000I0J-147500D01*
G01*
X141520000Y-85025000D01*
G75*
G02*
X141372500Y-85172500I-147500J0D01*
G01*
X141077500Y-85172500D01*
G75*
G02*
X140930000Y-85025000I0J147500D01*
G01*
G37*
G36*
G01*
X139960000Y-85025000D02*
X139960000Y-84680000D01*
G75*
G02*
X140107500Y-84532500I147500J0D01*
G01*
X140402500Y-84532500D01*
G75*
G02*
X140550000Y-84680000I0J-147500D01*
G01*
X140550000Y-85025000D01*
G75*
G02*
X140402500Y-85172500I-147500J0D01*
G01*
X140107500Y-85172500D01*
G75*
G02*
X139960000Y-85025000I0J147500D01*
G01*
G37*
%TD*%
%TO.C,R49*%
G36*
G01*
X130232500Y-92380000D02*
X129887500Y-92380000D01*
G75*
G02*
X129740000Y-92232500I0J147500D01*
G01*
X129740000Y-91937500D01*
G75*
G02*
X129887500Y-91790000I147500J0D01*
G01*
X130232500Y-91790000D01*
G75*
G02*
X130380000Y-91937500I0J-147500D01*
G01*
X130380000Y-92232500D01*
G75*
G02*
X130232500Y-92380000I-147500J0D01*
G01*
G37*
G36*
G01*
X130232500Y-93350000D02*
X129887500Y-93350000D01*
G75*
G02*
X129740000Y-93202500I0J147500D01*
G01*
X129740000Y-92907500D01*
G75*
G02*
X129887500Y-92760000I147500J0D01*
G01*
X130232500Y-92760000D01*
G75*
G02*
X130380000Y-92907500I0J-147500D01*
G01*
X130380000Y-93202500D01*
G75*
G02*
X130232500Y-93350000I-147500J0D01*
G01*
G37*
%TD*%
%TO.C,R54*%
G36*
G01*
X136070000Y-102367500D02*
X136070000Y-102712500D01*
G75*
G02*
X135922500Y-102860000I-147500J0D01*
G01*
X135627500Y-102860000D01*
G75*
G02*
X135480000Y-102712500I0J147500D01*
G01*
X135480000Y-102367500D01*
G75*
G02*
X135627500Y-102220000I147500J0D01*
G01*
X135922500Y-102220000D01*
G75*
G02*
X136070000Y-102367500I0J-147500D01*
G01*
G37*
G36*
G01*
X137040000Y-102367500D02*
X137040000Y-102712500D01*
G75*
G02*
X136892500Y-102860000I-147500J0D01*
G01*
X136597500Y-102860000D01*
G75*
G02*
X136450000Y-102712500I0J147500D01*
G01*
X136450000Y-102367500D01*
G75*
G02*
X136597500Y-102220000I147500J0D01*
G01*
X136892500Y-102220000D01*
G75*
G02*
X137040000Y-102367500I0J-147500D01*
G01*
G37*
%TD*%
%TO.C,R53*%
G36*
G01*
X130242500Y-100630000D02*
X129897500Y-100630000D01*
G75*
G02*
X129750000Y-100482500I0J147500D01*
G01*
X129750000Y-100187500D01*
G75*
G02*
X129897500Y-100040000I147500J0D01*
G01*
X130242500Y-100040000D01*
G75*
G02*
X130390000Y-100187500I0J-147500D01*
G01*
X130390000Y-100482500D01*
G75*
G02*
X130242500Y-100630000I-147500J0D01*
G01*
G37*
G36*
G01*
X130242500Y-101600000D02*
X129897500Y-101600000D01*
G75*
G02*
X129750000Y-101452500I0J147500D01*
G01*
X129750000Y-101157500D01*
G75*
G02*
X129897500Y-101010000I147500J0D01*
G01*
X130242500Y-101010000D01*
G75*
G02*
X130390000Y-101157500I0J-147500D01*
G01*
X130390000Y-101452500D01*
G75*
G02*
X130242500Y-101600000I-147500J0D01*
G01*
G37*
%TD*%
%TO.C,R52*%
G36*
G01*
X134590000Y-102732500D02*
X134590000Y-102387500D01*
G75*
G02*
X134737500Y-102240000I147500J0D01*
G01*
X135032500Y-102240000D01*
G75*
G02*
X135180000Y-102387500I0J-147500D01*
G01*
X135180000Y-102732500D01*
G75*
G02*
X135032500Y-102880000I-147500J0D01*
G01*
X134737500Y-102880000D01*
G75*
G02*
X134590000Y-102732500I0J147500D01*
G01*
G37*
G36*
G01*
X133620000Y-102732500D02*
X133620000Y-102387500D01*
G75*
G02*
X133767500Y-102240000I147500J0D01*
G01*
X134062500Y-102240000D01*
G75*
G02*
X134210000Y-102387500I0J-147500D01*
G01*
X134210000Y-102732500D01*
G75*
G02*
X134062500Y-102880000I-147500J0D01*
G01*
X133767500Y-102880000D01*
G75*
G02*
X133620000Y-102732500I0J147500D01*
G01*
G37*
%TD*%
%TO.C,R51*%
G36*
G01*
X130122500Y-96540000D02*
X129777500Y-96540000D01*
G75*
G02*
X129630000Y-96392500I0J147500D01*
G01*
X129630000Y-96097500D01*
G75*
G02*
X129777500Y-95950000I147500J0D01*
G01*
X130122500Y-95950000D01*
G75*
G02*
X130270000Y-96097500I0J-147500D01*
G01*
X130270000Y-96392500D01*
G75*
G02*
X130122500Y-96540000I-147500J0D01*
G01*
G37*
G36*
G01*
X130122500Y-97510000D02*
X129777500Y-97510000D01*
G75*
G02*
X129630000Y-97362500I0J147500D01*
G01*
X129630000Y-97067500D01*
G75*
G02*
X129777500Y-96920000I147500J0D01*
G01*
X130122500Y-96920000D01*
G75*
G02*
X130270000Y-97067500I0J-147500D01*
G01*
X130270000Y-97362500D01*
G75*
G02*
X130122500Y-97510000I-147500J0D01*
G01*
G37*
%TD*%
%TO.C,R50*%
G36*
G01*
X129790000Y-94142500D02*
X129790000Y-93797500D01*
G75*
G02*
X129937500Y-93650000I147500J0D01*
G01*
X130232500Y-93650000D01*
G75*
G02*
X130380000Y-93797500I0J-147500D01*
G01*
X130380000Y-94142500D01*
G75*
G02*
X130232500Y-94290000I-147500J0D01*
G01*
X129937500Y-94290000D01*
G75*
G02*
X129790000Y-94142500I0J147500D01*
G01*
G37*
G36*
G01*
X128820000Y-94142500D02*
X128820000Y-93797500D01*
G75*
G02*
X128967500Y-93650000I147500J0D01*
G01*
X129262500Y-93650000D01*
G75*
G02*
X129410000Y-93797500I0J-147500D01*
G01*
X129410000Y-94142500D01*
G75*
G02*
X129262500Y-94290000I-147500J0D01*
G01*
X128967500Y-94290000D01*
G75*
G02*
X128820000Y-94142500I0J147500D01*
G01*
G37*
%TD*%
%TO.C,R48*%
G36*
G01*
X130570000Y-89597500D02*
X130570000Y-89942500D01*
G75*
G02*
X130422500Y-90090000I-147500J0D01*
G01*
X130127500Y-90090000D01*
G75*
G02*
X129980000Y-89942500I0J147500D01*
G01*
X129980000Y-89597500D01*
G75*
G02*
X130127500Y-89450000I147500J0D01*
G01*
X130422500Y-89450000D01*
G75*
G02*
X130570000Y-89597500I0J-147500D01*
G01*
G37*
G36*
G01*
X131540000Y-89597500D02*
X131540000Y-89942500D01*
G75*
G02*
X131392500Y-90090000I-147500J0D01*
G01*
X131097500Y-90090000D01*
G75*
G02*
X130950000Y-89942500I0J147500D01*
G01*
X130950000Y-89597500D01*
G75*
G02*
X131097500Y-89450000I147500J0D01*
G01*
X131392500Y-89450000D01*
G75*
G02*
X131540000Y-89597500I0J-147500D01*
G01*
G37*
%TD*%
%TO.C,R47*%
G36*
G01*
X136352500Y-89520000D02*
X136007500Y-89520000D01*
G75*
G02*
X135860000Y-89372500I0J147500D01*
G01*
X135860000Y-89077500D01*
G75*
G02*
X136007500Y-88930000I147500J0D01*
G01*
X136352500Y-88930000D01*
G75*
G02*
X136500000Y-89077500I0J-147500D01*
G01*
X136500000Y-89372500D01*
G75*
G02*
X136352500Y-89520000I-147500J0D01*
G01*
G37*
G36*
G01*
X136352500Y-90490000D02*
X136007500Y-90490000D01*
G75*
G02*
X135860000Y-90342500I0J147500D01*
G01*
X135860000Y-90047500D01*
G75*
G02*
X136007500Y-89900000I147500J0D01*
G01*
X136352500Y-89900000D01*
G75*
G02*
X136500000Y-90047500I0J-147500D01*
G01*
X136500000Y-90342500D01*
G75*
G02*
X136352500Y-90490000I-147500J0D01*
G01*
G37*
%TD*%
%TO.C,R46*%
G36*
G01*
X139320000Y-89057500D02*
X139320000Y-89402500D01*
G75*
G02*
X139172500Y-89550000I-147500J0D01*
G01*
X138877500Y-89550000D01*
G75*
G02*
X138730000Y-89402500I0J147500D01*
G01*
X138730000Y-89057500D01*
G75*
G02*
X138877500Y-88910000I147500J0D01*
G01*
X139172500Y-88910000D01*
G75*
G02*
X139320000Y-89057500I0J-147500D01*
G01*
G37*
G36*
G01*
X140290000Y-89057500D02*
X140290000Y-89402500D01*
G75*
G02*
X140142500Y-89550000I-147500J0D01*
G01*
X139847500Y-89550000D01*
G75*
G02*
X139700000Y-89402500I0J147500D01*
G01*
X139700000Y-89057500D01*
G75*
G02*
X139847500Y-88910000I147500J0D01*
G01*
X140142500Y-88910000D01*
G75*
G02*
X140290000Y-89057500I0J-147500D01*
G01*
G37*
%TD*%
%TO.C,R45*%
G36*
G01*
X139070000Y-93957500D02*
X139070000Y-94302500D01*
G75*
G02*
X138922500Y-94450000I-147500J0D01*
G01*
X138627500Y-94450000D01*
G75*
G02*
X138480000Y-94302500I0J147500D01*
G01*
X138480000Y-93957500D01*
G75*
G02*
X138627500Y-93810000I147500J0D01*
G01*
X138922500Y-93810000D01*
G75*
G02*
X139070000Y-93957500I0J-147500D01*
G01*
G37*
G36*
G01*
X140040000Y-93957500D02*
X140040000Y-94302500D01*
G75*
G02*
X139892500Y-94450000I-147500J0D01*
G01*
X139597500Y-94450000D01*
G75*
G02*
X139450000Y-94302500I0J147500D01*
G01*
X139450000Y-93957500D01*
G75*
G02*
X139597500Y-93810000I147500J0D01*
G01*
X139892500Y-93810000D01*
G75*
G02*
X140040000Y-93957500I0J-147500D01*
G01*
G37*
%TD*%
%TO.C,R44*%
G36*
G01*
X137887500Y-89900000D02*
X138232500Y-89900000D01*
G75*
G02*
X138380000Y-90047500I0J-147500D01*
G01*
X138380000Y-90342500D01*
G75*
G02*
X138232500Y-90490000I-147500J0D01*
G01*
X137887500Y-90490000D01*
G75*
G02*
X137740000Y-90342500I0J147500D01*
G01*
X137740000Y-90047500D01*
G75*
G02*
X137887500Y-89900000I147500J0D01*
G01*
G37*
G36*
G01*
X137887500Y-88930000D02*
X138232500Y-88930000D01*
G75*
G02*
X138380000Y-89077500I0J-147500D01*
G01*
X138380000Y-89372500D01*
G75*
G02*
X138232500Y-89520000I-147500J0D01*
G01*
X137887500Y-89520000D01*
G75*
G02*
X137740000Y-89372500I0J147500D01*
G01*
X137740000Y-89077500D01*
G75*
G02*
X137887500Y-88930000I147500J0D01*
G01*
G37*
%TD*%
%TO.C,R43*%
G36*
G01*
X136947500Y-89900000D02*
X137292500Y-89900000D01*
G75*
G02*
X137440000Y-90047500I0J-147500D01*
G01*
X137440000Y-90342500D01*
G75*
G02*
X137292500Y-90490000I-147500J0D01*
G01*
X136947500Y-90490000D01*
G75*
G02*
X136800000Y-90342500I0J147500D01*
G01*
X136800000Y-90047500D01*
G75*
G02*
X136947500Y-89900000I147500J0D01*
G01*
G37*
G36*
G01*
X136947500Y-88930000D02*
X137292500Y-88930000D01*
G75*
G02*
X137440000Y-89077500I0J-147500D01*
G01*
X137440000Y-89372500D01*
G75*
G02*
X137292500Y-89520000I-147500J0D01*
G01*
X136947500Y-89520000D01*
G75*
G02*
X136800000Y-89372500I0J147500D01*
G01*
X136800000Y-89077500D01*
G75*
G02*
X136947500Y-88930000I147500J0D01*
G01*
G37*
%TD*%
%TO.C,R42*%
G36*
G01*
X138770000Y-88452500D02*
X138770000Y-88107500D01*
G75*
G02*
X138917500Y-87960000I147500J0D01*
G01*
X139212500Y-87960000D01*
G75*
G02*
X139360000Y-88107500I0J-147500D01*
G01*
X139360000Y-88452500D01*
G75*
G02*
X139212500Y-88600000I-147500J0D01*
G01*
X138917500Y-88600000D01*
G75*
G02*
X138770000Y-88452500I0J147500D01*
G01*
G37*
G36*
G01*
X137800000Y-88452500D02*
X137800000Y-88107500D01*
G75*
G02*
X137947500Y-87960000I147500J0D01*
G01*
X138242500Y-87960000D01*
G75*
G02*
X138390000Y-88107500I0J-147500D01*
G01*
X138390000Y-88452500D01*
G75*
G02*
X138242500Y-88600000I-147500J0D01*
G01*
X137947500Y-88600000D01*
G75*
G02*
X137800000Y-88452500I0J147500D01*
G01*
G37*
%TD*%
%TO.C,R41*%
G36*
G01*
X139700000Y-90342500D02*
X139700000Y-89997500D01*
G75*
G02*
X139847500Y-89850000I147500J0D01*
G01*
X140142500Y-89850000D01*
G75*
G02*
X140290000Y-89997500I0J-147500D01*
G01*
X140290000Y-90342500D01*
G75*
G02*
X140142500Y-90490000I-147500J0D01*
G01*
X139847500Y-90490000D01*
G75*
G02*
X139700000Y-90342500I0J147500D01*
G01*
G37*
G36*
G01*
X138730000Y-90342500D02*
X138730000Y-89997500D01*
G75*
G02*
X138877500Y-89850000I147500J0D01*
G01*
X139172500Y-89850000D01*
G75*
G02*
X139320000Y-89997500I0J-147500D01*
G01*
X139320000Y-90342500D01*
G75*
G02*
X139172500Y-90490000I-147500J0D01*
G01*
X138877500Y-90490000D01*
G75*
G02*
X138730000Y-90342500I0J147500D01*
G01*
G37*
%TD*%
%TO.C,R40*%
G36*
G01*
X139070000Y-90987500D02*
X139070000Y-91332500D01*
G75*
G02*
X138922500Y-91480000I-147500J0D01*
G01*
X138627500Y-91480000D01*
G75*
G02*
X138480000Y-91332500I0J147500D01*
G01*
X138480000Y-90987500D01*
G75*
G02*
X138627500Y-90840000I147500J0D01*
G01*
X138922500Y-90840000D01*
G75*
G02*
X139070000Y-90987500I0J-147500D01*
G01*
G37*
G36*
G01*
X140040000Y-90987500D02*
X140040000Y-91332500D01*
G75*
G02*
X139892500Y-91480000I-147500J0D01*
G01*
X139597500Y-91480000D01*
G75*
G02*
X139450000Y-91332500I0J147500D01*
G01*
X139450000Y-90987500D01*
G75*
G02*
X139597500Y-90840000I147500J0D01*
G01*
X139892500Y-90840000D01*
G75*
G02*
X140040000Y-90987500I0J-147500D01*
G01*
G37*
%TD*%
%TO.C,R39*%
G36*
G01*
X139450000Y-93312500D02*
X139450000Y-92967500D01*
G75*
G02*
X139597500Y-92820000I147500J0D01*
G01*
X139892500Y-92820000D01*
G75*
G02*
X140040000Y-92967500I0J-147500D01*
G01*
X140040000Y-93312500D01*
G75*
G02*
X139892500Y-93460000I-147500J0D01*
G01*
X139597500Y-93460000D01*
G75*
G02*
X139450000Y-93312500I0J147500D01*
G01*
G37*
G36*
G01*
X138480000Y-93312500D02*
X138480000Y-92967500D01*
G75*
G02*
X138627500Y-92820000I147500J0D01*
G01*
X138922500Y-92820000D01*
G75*
G02*
X139070000Y-92967500I0J-147500D01*
G01*
X139070000Y-93312500D01*
G75*
G02*
X138922500Y-93460000I-147500J0D01*
G01*
X138627500Y-93460000D01*
G75*
G02*
X138480000Y-93312500I0J147500D01*
G01*
G37*
%TD*%
%TO.C,R38*%
G36*
G01*
X139070000Y-91977500D02*
X139070000Y-92322500D01*
G75*
G02*
X138922500Y-92470000I-147500J0D01*
G01*
X138627500Y-92470000D01*
G75*
G02*
X138480000Y-92322500I0J147500D01*
G01*
X138480000Y-91977500D01*
G75*
G02*
X138627500Y-91830000I147500J0D01*
G01*
X138922500Y-91830000D01*
G75*
G02*
X139070000Y-91977500I0J-147500D01*
G01*
G37*
G36*
G01*
X140040000Y-91977500D02*
X140040000Y-92322500D01*
G75*
G02*
X139892500Y-92470000I-147500J0D01*
G01*
X139597500Y-92470000D01*
G75*
G02*
X139450000Y-92322500I0J147500D01*
G01*
X139450000Y-91977500D01*
G75*
G02*
X139597500Y-91830000I147500J0D01*
G01*
X139892500Y-91830000D01*
G75*
G02*
X140040000Y-91977500I0J-147500D01*
G01*
G37*
%TD*%
%TO.C,U11*%
G36*
G01*
X134530000Y-85170000D02*
X134530000Y-85760000D01*
G75*
G02*
X134280000Y-86010000I-250000J0D01*
G01*
X133690000Y-86010000D01*
G75*
G02*
X133440000Y-85760000I0J250000D01*
G01*
X133440000Y-85170000D01*
G75*
G02*
X133690000Y-84920000I250000J0D01*
G01*
X134280000Y-84920000D01*
G75*
G02*
X134530000Y-85170000I0J-250000D01*
G01*
G37*
G36*
G01*
X134530000Y-83820000D02*
X134530000Y-84410000D01*
G75*
G02*
X134280000Y-84660000I-250000J0D01*
G01*
X133690000Y-84660000D01*
G75*
G02*
X133440000Y-84410000I0J250000D01*
G01*
X133440000Y-83820000D01*
G75*
G02*
X133690000Y-83570000I250000J0D01*
G01*
X134280000Y-83570000D01*
G75*
G02*
X134530000Y-83820000I0J-250000D01*
G01*
G37*
G36*
G01*
X135880000Y-85170000D02*
X135880000Y-85760000D01*
G75*
G02*
X135630000Y-86010000I-250000J0D01*
G01*
X135040000Y-86010000D01*
G75*
G02*
X134790000Y-85760000I0J250000D01*
G01*
X134790000Y-85170000D01*
G75*
G02*
X135040000Y-84920000I250000J0D01*
G01*
X135630000Y-84920000D01*
G75*
G02*
X135880000Y-85170000I0J-250000D01*
G01*
G37*
G36*
G01*
X135880000Y-83820000D02*
X135880000Y-84410000D01*
G75*
G02*
X135630000Y-84660000I-250000J0D01*
G01*
X135040000Y-84660000D01*
G75*
G02*
X134790000Y-84410000I0J250000D01*
G01*
X134790000Y-83820000D01*
G75*
G02*
X135040000Y-83570000I250000J0D01*
G01*
X135630000Y-83570000D01*
G75*
G02*
X135880000Y-83820000I0J-250000D01*
G01*
G37*
G36*
G01*
X136035000Y-82477500D02*
X136035000Y-83177500D01*
G75*
G02*
X135972500Y-83240000I-62500J0D01*
G01*
X135847500Y-83240000D01*
G75*
G02*
X135785000Y-83177500I0J62500D01*
G01*
X135785000Y-82477500D01*
G75*
G02*
X135847500Y-82415000I62500J0D01*
G01*
X135972500Y-82415000D01*
G75*
G02*
X136035000Y-82477500I0J-62500D01*
G01*
G37*
G36*
G01*
X135535000Y-82477500D02*
X135535000Y-83177500D01*
G75*
G02*
X135472500Y-83240000I-62500J0D01*
G01*
X135347500Y-83240000D01*
G75*
G02*
X135285000Y-83177500I0J62500D01*
G01*
X135285000Y-82477500D01*
G75*
G02*
X135347500Y-82415000I62500J0D01*
G01*
X135472500Y-82415000D01*
G75*
G02*
X135535000Y-82477500I0J-62500D01*
G01*
G37*
G36*
G01*
X135035000Y-82477500D02*
X135035000Y-83177500D01*
G75*
G02*
X134972500Y-83240000I-62500J0D01*
G01*
X134847500Y-83240000D01*
G75*
G02*
X134785000Y-83177500I0J62500D01*
G01*
X134785000Y-82477500D01*
G75*
G02*
X134847500Y-82415000I62500J0D01*
G01*
X134972500Y-82415000D01*
G75*
G02*
X135035000Y-82477500I0J-62500D01*
G01*
G37*
G36*
G01*
X134535000Y-82477500D02*
X134535000Y-83177500D01*
G75*
G02*
X134472500Y-83240000I-62500J0D01*
G01*
X134347500Y-83240000D01*
G75*
G02*
X134285000Y-83177500I0J62500D01*
G01*
X134285000Y-82477500D01*
G75*
G02*
X134347500Y-82415000I62500J0D01*
G01*
X134472500Y-82415000D01*
G75*
G02*
X134535000Y-82477500I0J-62500D01*
G01*
G37*
G36*
G01*
X134035000Y-82477500D02*
X134035000Y-83177500D01*
G75*
G02*
X133972500Y-83240000I-62500J0D01*
G01*
X133847500Y-83240000D01*
G75*
G02*
X133785000Y-83177500I0J62500D01*
G01*
X133785000Y-82477500D01*
G75*
G02*
X133847500Y-82415000I62500J0D01*
G01*
X133972500Y-82415000D01*
G75*
G02*
X134035000Y-82477500I0J-62500D01*
G01*
G37*
G36*
G01*
X133535000Y-82477500D02*
X133535000Y-83177500D01*
G75*
G02*
X133472500Y-83240000I-62500J0D01*
G01*
X133347500Y-83240000D01*
G75*
G02*
X133285000Y-83177500I0J62500D01*
G01*
X133285000Y-82477500D01*
G75*
G02*
X133347500Y-82415000I62500J0D01*
G01*
X133472500Y-82415000D01*
G75*
G02*
X133535000Y-82477500I0J-62500D01*
G01*
G37*
G36*
G01*
X133110000Y-83477500D02*
X133110000Y-83602500D01*
G75*
G02*
X133047500Y-83665000I-62500J0D01*
G01*
X132347500Y-83665000D01*
G75*
G02*
X132285000Y-83602500I0J62500D01*
G01*
X132285000Y-83477500D01*
G75*
G02*
X132347500Y-83415000I62500J0D01*
G01*
X133047500Y-83415000D01*
G75*
G02*
X133110000Y-83477500I0J-62500D01*
G01*
G37*
G36*
G01*
X133110000Y-83977500D02*
X133110000Y-84102500D01*
G75*
G02*
X133047500Y-84165000I-62500J0D01*
G01*
X132347500Y-84165000D01*
G75*
G02*
X132285000Y-84102500I0J62500D01*
G01*
X132285000Y-83977500D01*
G75*
G02*
X132347500Y-83915000I62500J0D01*
G01*
X133047500Y-83915000D01*
G75*
G02*
X133110000Y-83977500I0J-62500D01*
G01*
G37*
G36*
G01*
X133110000Y-84477500D02*
X133110000Y-84602500D01*
G75*
G02*
X133047500Y-84665000I-62500J0D01*
G01*
X132347500Y-84665000D01*
G75*
G02*
X132285000Y-84602500I0J62500D01*
G01*
X132285000Y-84477500D01*
G75*
G02*
X132347500Y-84415000I62500J0D01*
G01*
X133047500Y-84415000D01*
G75*
G02*
X133110000Y-84477500I0J-62500D01*
G01*
G37*
G36*
G01*
X133110000Y-84977500D02*
X133110000Y-85102500D01*
G75*
G02*
X133047500Y-85165000I-62500J0D01*
G01*
X132347500Y-85165000D01*
G75*
G02*
X132285000Y-85102500I0J62500D01*
G01*
X132285000Y-84977500D01*
G75*
G02*
X132347500Y-84915000I62500J0D01*
G01*
X133047500Y-84915000D01*
G75*
G02*
X133110000Y-84977500I0J-62500D01*
G01*
G37*
G36*
G01*
X133110000Y-85477500D02*
X133110000Y-85602500D01*
G75*
G02*
X133047500Y-85665000I-62500J0D01*
G01*
X132347500Y-85665000D01*
G75*
G02*
X132285000Y-85602500I0J62500D01*
G01*
X132285000Y-85477500D01*
G75*
G02*
X132347500Y-85415000I62500J0D01*
G01*
X133047500Y-85415000D01*
G75*
G02*
X133110000Y-85477500I0J-62500D01*
G01*
G37*
G36*
G01*
X133110000Y-85977500D02*
X133110000Y-86102500D01*
G75*
G02*
X133047500Y-86165000I-62500J0D01*
G01*
X132347500Y-86165000D01*
G75*
G02*
X132285000Y-86102500I0J62500D01*
G01*
X132285000Y-85977500D01*
G75*
G02*
X132347500Y-85915000I62500J0D01*
G01*
X133047500Y-85915000D01*
G75*
G02*
X133110000Y-85977500I0J-62500D01*
G01*
G37*
G36*
G01*
X133535000Y-86402500D02*
X133535000Y-87102500D01*
G75*
G02*
X133472500Y-87165000I-62500J0D01*
G01*
X133347500Y-87165000D01*
G75*
G02*
X133285000Y-87102500I0J62500D01*
G01*
X133285000Y-86402500D01*
G75*
G02*
X133347500Y-86340000I62500J0D01*
G01*
X133472500Y-86340000D01*
G75*
G02*
X133535000Y-86402500I0J-62500D01*
G01*
G37*
G36*
G01*
X134035000Y-86402500D02*
X134035000Y-87102500D01*
G75*
G02*
X133972500Y-87165000I-62500J0D01*
G01*
X133847500Y-87165000D01*
G75*
G02*
X133785000Y-87102500I0J62500D01*
G01*
X133785000Y-86402500D01*
G75*
G02*
X133847500Y-86340000I62500J0D01*
G01*
X133972500Y-86340000D01*
G75*
G02*
X134035000Y-86402500I0J-62500D01*
G01*
G37*
G36*
G01*
X134535000Y-86402500D02*
X134535000Y-87102500D01*
G75*
G02*
X134472500Y-87165000I-62500J0D01*
G01*
X134347500Y-87165000D01*
G75*
G02*
X134285000Y-87102500I0J62500D01*
G01*
X134285000Y-86402500D01*
G75*
G02*
X134347500Y-86340000I62500J0D01*
G01*
X134472500Y-86340000D01*
G75*
G02*
X134535000Y-86402500I0J-62500D01*
G01*
G37*
G36*
G01*
X135035000Y-86402500D02*
X135035000Y-87102500D01*
G75*
G02*
X134972500Y-87165000I-62500J0D01*
G01*
X134847500Y-87165000D01*
G75*
G02*
X134785000Y-87102500I0J62500D01*
G01*
X134785000Y-86402500D01*
G75*
G02*
X134847500Y-86340000I62500J0D01*
G01*
X134972500Y-86340000D01*
G75*
G02*
X135035000Y-86402500I0J-62500D01*
G01*
G37*
G36*
G01*
X135535000Y-86402500D02*
X135535000Y-87102500D01*
G75*
G02*
X135472500Y-87165000I-62500J0D01*
G01*
X135347500Y-87165000D01*
G75*
G02*
X135285000Y-87102500I0J62500D01*
G01*
X135285000Y-86402500D01*
G75*
G02*
X135347500Y-86340000I62500J0D01*
G01*
X135472500Y-86340000D01*
G75*
G02*
X135535000Y-86402500I0J-62500D01*
G01*
G37*
G36*
G01*
X136035000Y-86402500D02*
X136035000Y-87102500D01*
G75*
G02*
X135972500Y-87165000I-62500J0D01*
G01*
X135847500Y-87165000D01*
G75*
G02*
X135785000Y-87102500I0J62500D01*
G01*
X135785000Y-86402500D01*
G75*
G02*
X135847500Y-86340000I62500J0D01*
G01*
X135972500Y-86340000D01*
G75*
G02*
X136035000Y-86402500I0J-62500D01*
G01*
G37*
G36*
G01*
X137035000Y-85977500D02*
X137035000Y-86102500D01*
G75*
G02*
X136972500Y-86165000I-62500J0D01*
G01*
X136272500Y-86165000D01*
G75*
G02*
X136210000Y-86102500I0J62500D01*
G01*
X136210000Y-85977500D01*
G75*
G02*
X136272500Y-85915000I62500J0D01*
G01*
X136972500Y-85915000D01*
G75*
G02*
X137035000Y-85977500I0J-62500D01*
G01*
G37*
G36*
G01*
X137035000Y-85477500D02*
X137035000Y-85602500D01*
G75*
G02*
X136972500Y-85665000I-62500J0D01*
G01*
X136272500Y-85665000D01*
G75*
G02*
X136210000Y-85602500I0J62500D01*
G01*
X136210000Y-85477500D01*
G75*
G02*
X136272500Y-85415000I62500J0D01*
G01*
X136972500Y-85415000D01*
G75*
G02*
X137035000Y-85477500I0J-62500D01*
G01*
G37*
G36*
G01*
X137035000Y-84977500D02*
X137035000Y-85102500D01*
G75*
G02*
X136972500Y-85165000I-62500J0D01*
G01*
X136272500Y-85165000D01*
G75*
G02*
X136210000Y-85102500I0J62500D01*
G01*
X136210000Y-84977500D01*
G75*
G02*
X136272500Y-84915000I62500J0D01*
G01*
X136972500Y-84915000D01*
G75*
G02*
X137035000Y-84977500I0J-62500D01*
G01*
G37*
G36*
G01*
X137035000Y-84477500D02*
X137035000Y-84602500D01*
G75*
G02*
X136972500Y-84665000I-62500J0D01*
G01*
X136272500Y-84665000D01*
G75*
G02*
X136210000Y-84602500I0J62500D01*
G01*
X136210000Y-84477500D01*
G75*
G02*
X136272500Y-84415000I62500J0D01*
G01*
X136972500Y-84415000D01*
G75*
G02*
X137035000Y-84477500I0J-62500D01*
G01*
G37*
G36*
G01*
X137035000Y-83977500D02*
X137035000Y-84102500D01*
G75*
G02*
X136972500Y-84165000I-62500J0D01*
G01*
X136272500Y-84165000D01*
G75*
G02*
X136210000Y-84102500I0J62500D01*
G01*
X136210000Y-83977500D01*
G75*
G02*
X136272500Y-83915000I62500J0D01*
G01*
X136972500Y-83915000D01*
G75*
G02*
X137035000Y-83977500I0J-62500D01*
G01*
G37*
G36*
G01*
X137035000Y-83477500D02*
X137035000Y-83602500D01*
G75*
G02*
X136972500Y-83665000I-62500J0D01*
G01*
X136272500Y-83665000D01*
G75*
G02*
X136210000Y-83602500I0J62500D01*
G01*
X136210000Y-83477500D01*
G75*
G02*
X136272500Y-83415000I62500J0D01*
G01*
X136972500Y-83415000D01*
G75*
G02*
X137035000Y-83477500I0J-62500D01*
G01*
G37*
%TD*%
%TO.C,FB4*%
G36*
G01*
X137220000Y-73543750D02*
X137220000Y-73031250D01*
G75*
G02*
X137438750Y-72812500I218750J0D01*
G01*
X137876250Y-72812500D01*
G75*
G02*
X138095000Y-73031250I0J-218750D01*
G01*
X138095000Y-73543750D01*
G75*
G02*
X137876250Y-73762500I-218750J0D01*
G01*
X137438750Y-73762500D01*
G75*
G02*
X137220000Y-73543750I0J218750D01*
G01*
G37*
G36*
G01*
X135645000Y-73543750D02*
X135645000Y-73031250D01*
G75*
G02*
X135863750Y-72812500I218750J0D01*
G01*
X136301250Y-72812500D01*
G75*
G02*
X136520000Y-73031250I0J-218750D01*
G01*
X136520000Y-73543750D01*
G75*
G02*
X136301250Y-73762500I-218750J0D01*
G01*
X135863750Y-73762500D01*
G75*
G02*
X135645000Y-73543750I0J218750D01*
G01*
G37*
%TD*%
D14*
%TO.C,D12*%
X131440000Y-84630000D03*
X130040000Y-84630000D03*
%TD*%
%TO.C,D11*%
X131440000Y-80440000D03*
X130040000Y-80440000D03*
%TD*%
%TO.C,D10*%
X131190000Y-76280000D03*
X129790000Y-76280000D03*
%TD*%
%TO.C,C49*%
G36*
G01*
X133252500Y-74760000D02*
X132907500Y-74760000D01*
G75*
G02*
X132760000Y-74612500I0J147500D01*
G01*
X132760000Y-74317500D01*
G75*
G02*
X132907500Y-74170000I147500J0D01*
G01*
X133252500Y-74170000D01*
G75*
G02*
X133400000Y-74317500I0J-147500D01*
G01*
X133400000Y-74612500D01*
G75*
G02*
X133252500Y-74760000I-147500J0D01*
G01*
G37*
G36*
G01*
X133252500Y-75730000D02*
X132907500Y-75730000D01*
G75*
G02*
X132760000Y-75582500I0J147500D01*
G01*
X132760000Y-75287500D01*
G75*
G02*
X132907500Y-75140000I147500J0D01*
G01*
X133252500Y-75140000D01*
G75*
G02*
X133400000Y-75287500I0J-147500D01*
G01*
X133400000Y-75582500D01*
G75*
G02*
X133252500Y-75730000I-147500J0D01*
G01*
G37*
%TD*%
%TO.C,C48*%
G36*
G01*
X137936326Y-82347625D02*
X137692375Y-82103673D01*
G75*
G02*
X137692375Y-81895077I104298J104298D01*
G01*
X137900971Y-81686481D01*
G75*
G02*
X138109567Y-81686481I104298J-104298D01*
G01*
X138353519Y-81930433D01*
G75*
G02*
X138353519Y-82139029I-104298J-104298D01*
G01*
X138144923Y-82347625D01*
G75*
G02*
X137936327Y-82347625I-104298J104298D01*
G01*
G37*
G36*
G01*
X137250432Y-83033519D02*
X137006481Y-82789567D01*
G75*
G02*
X137006481Y-82580971I104298J104298D01*
G01*
X137215077Y-82372375D01*
G75*
G02*
X137423673Y-82372375I104298J-104298D01*
G01*
X137667625Y-82616327D01*
G75*
G02*
X137667625Y-82824923I-104298J-104298D01*
G01*
X137459029Y-83033519D01*
G75*
G02*
X137250433Y-83033519I-104298J104298D01*
G01*
G37*
%TD*%
%TO.C,C47*%
G36*
G01*
X132312500Y-74760000D02*
X131967500Y-74760000D01*
G75*
G02*
X131820000Y-74612500I0J147500D01*
G01*
X131820000Y-74317500D01*
G75*
G02*
X131967500Y-74170000I147500J0D01*
G01*
X132312500Y-74170000D01*
G75*
G02*
X132460000Y-74317500I0J-147500D01*
G01*
X132460000Y-74612500D01*
G75*
G02*
X132312500Y-74760000I-147500J0D01*
G01*
G37*
G36*
G01*
X132312500Y-75730000D02*
X131967500Y-75730000D01*
G75*
G02*
X131820000Y-75582500I0J147500D01*
G01*
X131820000Y-75287500D01*
G75*
G02*
X131967500Y-75140000I147500J0D01*
G01*
X132312500Y-75140000D01*
G75*
G02*
X132460000Y-75287500I0J-147500D01*
G01*
X132460000Y-75582500D01*
G75*
G02*
X132312500Y-75730000I-147500J0D01*
G01*
G37*
%TD*%
%TO.C,C46*%
G36*
G01*
X134290000Y-74295000D02*
X134290000Y-74640000D01*
G75*
G02*
X134142500Y-74787500I-147500J0D01*
G01*
X133847500Y-74787500D01*
G75*
G02*
X133700000Y-74640000I0J147500D01*
G01*
X133700000Y-74295000D01*
G75*
G02*
X133847500Y-74147500I147500J0D01*
G01*
X134142500Y-74147500D01*
G75*
G02*
X134290000Y-74295000I0J-147500D01*
G01*
G37*
G36*
G01*
X135260000Y-74295000D02*
X135260000Y-74640000D01*
G75*
G02*
X135112500Y-74787500I-147500J0D01*
G01*
X134817500Y-74787500D01*
G75*
G02*
X134670000Y-74640000I0J147500D01*
G01*
X134670000Y-74295000D01*
G75*
G02*
X134817500Y-74147500I147500J0D01*
G01*
X135112500Y-74147500D01*
G75*
G02*
X135260000Y-74295000I0J-147500D01*
G01*
G37*
%TD*%
%TO.C,C45*%
G36*
G01*
X134290000Y-75235000D02*
X134290000Y-75580000D01*
G75*
G02*
X134142500Y-75727500I-147500J0D01*
G01*
X133847500Y-75727500D01*
G75*
G02*
X133700000Y-75580000I0J147500D01*
G01*
X133700000Y-75235000D01*
G75*
G02*
X133847500Y-75087500I147500J0D01*
G01*
X134142500Y-75087500D01*
G75*
G02*
X134290000Y-75235000I0J-147500D01*
G01*
G37*
G36*
G01*
X135260000Y-75235000D02*
X135260000Y-75580000D01*
G75*
G02*
X135112500Y-75727500I-147500J0D01*
G01*
X134817500Y-75727500D01*
G75*
G02*
X134670000Y-75580000I0J147500D01*
G01*
X134670000Y-75235000D01*
G75*
G02*
X134817500Y-75087500I147500J0D01*
G01*
X135112500Y-75087500D01*
G75*
G02*
X135260000Y-75235000I0J-147500D01*
G01*
G37*
%TD*%
%TO.C,C41*%
G36*
G01*
X137577500Y-85670000D02*
X137922500Y-85670000D01*
G75*
G02*
X138070000Y-85817500I0J-147500D01*
G01*
X138070000Y-86112500D01*
G75*
G02*
X137922500Y-86260000I-147500J0D01*
G01*
X137577500Y-86260000D01*
G75*
G02*
X137430000Y-86112500I0J147500D01*
G01*
X137430000Y-85817500D01*
G75*
G02*
X137577500Y-85670000I147500J0D01*
G01*
G37*
G36*
G01*
X137577500Y-84700000D02*
X137922500Y-84700000D01*
G75*
G02*
X138070000Y-84847500I0J-147500D01*
G01*
X138070000Y-85142500D01*
G75*
G02*
X137922500Y-85290000I-147500J0D01*
G01*
X137577500Y-85290000D01*
G75*
G02*
X137430000Y-85142500I0J147500D01*
G01*
X137430000Y-84847500D01*
G75*
G02*
X137577500Y-84700000I147500J0D01*
G01*
G37*
%TD*%
%TO.C,U1*%
G36*
G01*
X145470000Y-91830000D02*
X145470000Y-91240000D01*
G75*
G02*
X145720000Y-90990000I250000J0D01*
G01*
X146310000Y-90990000D01*
G75*
G02*
X146560000Y-91240000I0J-250000D01*
G01*
X146560000Y-91830000D01*
G75*
G02*
X146310000Y-92080000I-250000J0D01*
G01*
X145720000Y-92080000D01*
G75*
G02*
X145470000Y-91830000I0J250000D01*
G01*
G37*
G36*
G01*
X145470000Y-93180000D02*
X145470000Y-92590000D01*
G75*
G02*
X145720000Y-92340000I250000J0D01*
G01*
X146310000Y-92340000D01*
G75*
G02*
X146560000Y-92590000I0J-250000D01*
G01*
X146560000Y-93180000D01*
G75*
G02*
X146310000Y-93430000I-250000J0D01*
G01*
X145720000Y-93430000D01*
G75*
G02*
X145470000Y-93180000I0J250000D01*
G01*
G37*
G36*
G01*
X144120000Y-91830000D02*
X144120000Y-91240000D01*
G75*
G02*
X144370000Y-90990000I250000J0D01*
G01*
X144960000Y-90990000D01*
G75*
G02*
X145210000Y-91240000I0J-250000D01*
G01*
X145210000Y-91830000D01*
G75*
G02*
X144960000Y-92080000I-250000J0D01*
G01*
X144370000Y-92080000D01*
G75*
G02*
X144120000Y-91830000I0J250000D01*
G01*
G37*
G36*
G01*
X144120000Y-93180000D02*
X144120000Y-92590000D01*
G75*
G02*
X144370000Y-92340000I250000J0D01*
G01*
X144960000Y-92340000D01*
G75*
G02*
X145210000Y-92590000I0J-250000D01*
G01*
X145210000Y-93180000D01*
G75*
G02*
X144960000Y-93430000I-250000J0D01*
G01*
X144370000Y-93430000D01*
G75*
G02*
X144120000Y-93180000I0J250000D01*
G01*
G37*
G36*
G01*
X143965000Y-94522500D02*
X143965000Y-93822500D01*
G75*
G02*
X144027500Y-93760000I62500J0D01*
G01*
X144152500Y-93760000D01*
G75*
G02*
X144215000Y-93822500I0J-62500D01*
G01*
X144215000Y-94522500D01*
G75*
G02*
X144152500Y-94585000I-62500J0D01*
G01*
X144027500Y-94585000D01*
G75*
G02*
X143965000Y-94522500I0J62500D01*
G01*
G37*
G36*
G01*
X144465000Y-94522500D02*
X144465000Y-93822500D01*
G75*
G02*
X144527500Y-93760000I62500J0D01*
G01*
X144652500Y-93760000D01*
G75*
G02*
X144715000Y-93822500I0J-62500D01*
G01*
X144715000Y-94522500D01*
G75*
G02*
X144652500Y-94585000I-62500J0D01*
G01*
X144527500Y-94585000D01*
G75*
G02*
X144465000Y-94522500I0J62500D01*
G01*
G37*
G36*
G01*
X144965000Y-94522500D02*
X144965000Y-93822500D01*
G75*
G02*
X145027500Y-93760000I62500J0D01*
G01*
X145152500Y-93760000D01*
G75*
G02*
X145215000Y-93822500I0J-62500D01*
G01*
X145215000Y-94522500D01*
G75*
G02*
X145152500Y-94585000I-62500J0D01*
G01*
X145027500Y-94585000D01*
G75*
G02*
X144965000Y-94522500I0J62500D01*
G01*
G37*
G36*
G01*
X145465000Y-94522500D02*
X145465000Y-93822500D01*
G75*
G02*
X145527500Y-93760000I62500J0D01*
G01*
X145652500Y-93760000D01*
G75*
G02*
X145715000Y-93822500I0J-62500D01*
G01*
X145715000Y-94522500D01*
G75*
G02*
X145652500Y-94585000I-62500J0D01*
G01*
X145527500Y-94585000D01*
G75*
G02*
X145465000Y-94522500I0J62500D01*
G01*
G37*
G36*
G01*
X145965000Y-94522500D02*
X145965000Y-93822500D01*
G75*
G02*
X146027500Y-93760000I62500J0D01*
G01*
X146152500Y-93760000D01*
G75*
G02*
X146215000Y-93822500I0J-62500D01*
G01*
X146215000Y-94522500D01*
G75*
G02*
X146152500Y-94585000I-62500J0D01*
G01*
X146027500Y-94585000D01*
G75*
G02*
X145965000Y-94522500I0J62500D01*
G01*
G37*
G36*
G01*
X146465000Y-94522500D02*
X146465000Y-93822500D01*
G75*
G02*
X146527500Y-93760000I62500J0D01*
G01*
X146652500Y-93760000D01*
G75*
G02*
X146715000Y-93822500I0J-62500D01*
G01*
X146715000Y-94522500D01*
G75*
G02*
X146652500Y-94585000I-62500J0D01*
G01*
X146527500Y-94585000D01*
G75*
G02*
X146465000Y-94522500I0J62500D01*
G01*
G37*
G36*
G01*
X146890000Y-93522500D02*
X146890000Y-93397500D01*
G75*
G02*
X146952500Y-93335000I62500J0D01*
G01*
X147652500Y-93335000D01*
G75*
G02*
X147715000Y-93397500I0J-62500D01*
G01*
X147715000Y-93522500D01*
G75*
G02*
X147652500Y-93585000I-62500J0D01*
G01*
X146952500Y-93585000D01*
G75*
G02*
X146890000Y-93522500I0J62500D01*
G01*
G37*
G36*
G01*
X146890000Y-93022500D02*
X146890000Y-92897500D01*
G75*
G02*
X146952500Y-92835000I62500J0D01*
G01*
X147652500Y-92835000D01*
G75*
G02*
X147715000Y-92897500I0J-62500D01*
G01*
X147715000Y-93022500D01*
G75*
G02*
X147652500Y-93085000I-62500J0D01*
G01*
X146952500Y-93085000D01*
G75*
G02*
X146890000Y-93022500I0J62500D01*
G01*
G37*
G36*
G01*
X146890000Y-92522500D02*
X146890000Y-92397500D01*
G75*
G02*
X146952500Y-92335000I62500J0D01*
G01*
X147652500Y-92335000D01*
G75*
G02*
X147715000Y-92397500I0J-62500D01*
G01*
X147715000Y-92522500D01*
G75*
G02*
X147652500Y-92585000I-62500J0D01*
G01*
X146952500Y-92585000D01*
G75*
G02*
X146890000Y-92522500I0J62500D01*
G01*
G37*
G36*
G01*
X146890000Y-92022500D02*
X146890000Y-91897500D01*
G75*
G02*
X146952500Y-91835000I62500J0D01*
G01*
X147652500Y-91835000D01*
G75*
G02*
X147715000Y-91897500I0J-62500D01*
G01*
X147715000Y-92022500D01*
G75*
G02*
X147652500Y-92085000I-62500J0D01*
G01*
X146952500Y-92085000D01*
G75*
G02*
X146890000Y-92022500I0J62500D01*
G01*
G37*
G36*
G01*
X146890000Y-91522500D02*
X146890000Y-91397500D01*
G75*
G02*
X146952500Y-91335000I62500J0D01*
G01*
X147652500Y-91335000D01*
G75*
G02*
X147715000Y-91397500I0J-62500D01*
G01*
X147715000Y-91522500D01*
G75*
G02*
X147652500Y-91585000I-62500J0D01*
G01*
X146952500Y-91585000D01*
G75*
G02*
X146890000Y-91522500I0J62500D01*
G01*
G37*
G36*
G01*
X146890000Y-91022500D02*
X146890000Y-90897500D01*
G75*
G02*
X146952500Y-90835000I62500J0D01*
G01*
X147652500Y-90835000D01*
G75*
G02*
X147715000Y-90897500I0J-62500D01*
G01*
X147715000Y-91022500D01*
G75*
G02*
X147652500Y-91085000I-62500J0D01*
G01*
X146952500Y-91085000D01*
G75*
G02*
X146890000Y-91022500I0J62500D01*
G01*
G37*
G36*
G01*
X146465000Y-90597500D02*
X146465000Y-89897500D01*
G75*
G02*
X146527500Y-89835000I62500J0D01*
G01*
X146652500Y-89835000D01*
G75*
G02*
X146715000Y-89897500I0J-62500D01*
G01*
X146715000Y-90597500D01*
G75*
G02*
X146652500Y-90660000I-62500J0D01*
G01*
X146527500Y-90660000D01*
G75*
G02*
X146465000Y-90597500I0J62500D01*
G01*
G37*
G36*
G01*
X145965000Y-90597500D02*
X145965000Y-89897500D01*
G75*
G02*
X146027500Y-89835000I62500J0D01*
G01*
X146152500Y-89835000D01*
G75*
G02*
X146215000Y-89897500I0J-62500D01*
G01*
X146215000Y-90597500D01*
G75*
G02*
X146152500Y-90660000I-62500J0D01*
G01*
X146027500Y-90660000D01*
G75*
G02*
X145965000Y-90597500I0J62500D01*
G01*
G37*
G36*
G01*
X145465000Y-90597500D02*
X145465000Y-89897500D01*
G75*
G02*
X145527500Y-89835000I62500J0D01*
G01*
X145652500Y-89835000D01*
G75*
G02*
X145715000Y-89897500I0J-62500D01*
G01*
X145715000Y-90597500D01*
G75*
G02*
X145652500Y-90660000I-62500J0D01*
G01*
X145527500Y-90660000D01*
G75*
G02*
X145465000Y-90597500I0J62500D01*
G01*
G37*
G36*
G01*
X144965000Y-90597500D02*
X144965000Y-89897500D01*
G75*
G02*
X145027500Y-89835000I62500J0D01*
G01*
X145152500Y-89835000D01*
G75*
G02*
X145215000Y-89897500I0J-62500D01*
G01*
X145215000Y-90597500D01*
G75*
G02*
X145152500Y-90660000I-62500J0D01*
G01*
X145027500Y-90660000D01*
G75*
G02*
X144965000Y-90597500I0J62500D01*
G01*
G37*
G36*
G01*
X144465000Y-90597500D02*
X144465000Y-89897500D01*
G75*
G02*
X144527500Y-89835000I62500J0D01*
G01*
X144652500Y-89835000D01*
G75*
G02*
X144715000Y-89897500I0J-62500D01*
G01*
X144715000Y-90597500D01*
G75*
G02*
X144652500Y-90660000I-62500J0D01*
G01*
X144527500Y-90660000D01*
G75*
G02*
X144465000Y-90597500I0J62500D01*
G01*
G37*
G36*
G01*
X143965000Y-90597500D02*
X143965000Y-89897500D01*
G75*
G02*
X144027500Y-89835000I62500J0D01*
G01*
X144152500Y-89835000D01*
G75*
G02*
X144215000Y-89897500I0J-62500D01*
G01*
X144215000Y-90597500D01*
G75*
G02*
X144152500Y-90660000I-62500J0D01*
G01*
X144027500Y-90660000D01*
G75*
G02*
X143965000Y-90597500I0J62500D01*
G01*
G37*
G36*
G01*
X142965000Y-91022500D02*
X142965000Y-90897500D01*
G75*
G02*
X143027500Y-90835000I62500J0D01*
G01*
X143727500Y-90835000D01*
G75*
G02*
X143790000Y-90897500I0J-62500D01*
G01*
X143790000Y-91022500D01*
G75*
G02*
X143727500Y-91085000I-62500J0D01*
G01*
X143027500Y-91085000D01*
G75*
G02*
X142965000Y-91022500I0J62500D01*
G01*
G37*
G36*
G01*
X142965000Y-91522500D02*
X142965000Y-91397500D01*
G75*
G02*
X143027500Y-91335000I62500J0D01*
G01*
X143727500Y-91335000D01*
G75*
G02*
X143790000Y-91397500I0J-62500D01*
G01*
X143790000Y-91522500D01*
G75*
G02*
X143727500Y-91585000I-62500J0D01*
G01*
X143027500Y-91585000D01*
G75*
G02*
X142965000Y-91522500I0J62500D01*
G01*
G37*
G36*
G01*
X142965000Y-92022500D02*
X142965000Y-91897500D01*
G75*
G02*
X143027500Y-91835000I62500J0D01*
G01*
X143727500Y-91835000D01*
G75*
G02*
X143790000Y-91897500I0J-62500D01*
G01*
X143790000Y-92022500D01*
G75*
G02*
X143727500Y-92085000I-62500J0D01*
G01*
X143027500Y-92085000D01*
G75*
G02*
X142965000Y-92022500I0J62500D01*
G01*
G37*
G36*
G01*
X142965000Y-92522500D02*
X142965000Y-92397500D01*
G75*
G02*
X143027500Y-92335000I62500J0D01*
G01*
X143727500Y-92335000D01*
G75*
G02*
X143790000Y-92397500I0J-62500D01*
G01*
X143790000Y-92522500D01*
G75*
G02*
X143727500Y-92585000I-62500J0D01*
G01*
X143027500Y-92585000D01*
G75*
G02*
X142965000Y-92522500I0J62500D01*
G01*
G37*
G36*
G01*
X142965000Y-93022500D02*
X142965000Y-92897500D01*
G75*
G02*
X143027500Y-92835000I62500J0D01*
G01*
X143727500Y-92835000D01*
G75*
G02*
X143790000Y-92897500I0J-62500D01*
G01*
X143790000Y-93022500D01*
G75*
G02*
X143727500Y-93085000I-62500J0D01*
G01*
X143027500Y-93085000D01*
G75*
G02*
X142965000Y-93022500I0J62500D01*
G01*
G37*
G36*
G01*
X142965000Y-93522500D02*
X142965000Y-93397500D01*
G75*
G02*
X143027500Y-93335000I62500J0D01*
G01*
X143727500Y-93335000D01*
G75*
G02*
X143790000Y-93397500I0J-62500D01*
G01*
X143790000Y-93522500D01*
G75*
G02*
X143727500Y-93585000I-62500J0D01*
G01*
X143027500Y-93585000D01*
G75*
G02*
X142965000Y-93522500I0J62500D01*
G01*
G37*
%TD*%
%TO.C,FB1*%
G36*
G01*
X142780000Y-103456250D02*
X142780000Y-103968750D01*
G75*
G02*
X142561250Y-104187500I-218750J0D01*
G01*
X142123750Y-104187500D01*
G75*
G02*
X141905000Y-103968750I0J218750D01*
G01*
X141905000Y-103456250D01*
G75*
G02*
X142123750Y-103237500I218750J0D01*
G01*
X142561250Y-103237500D01*
G75*
G02*
X142780000Y-103456250I0J-218750D01*
G01*
G37*
G36*
G01*
X144355000Y-103456250D02*
X144355000Y-103968750D01*
G75*
G02*
X144136250Y-104187500I-218750J0D01*
G01*
X143698750Y-104187500D01*
G75*
G02*
X143480000Y-103968750I0J218750D01*
G01*
X143480000Y-103456250D01*
G75*
G02*
X143698750Y-103237500I218750J0D01*
G01*
X144136250Y-103237500D01*
G75*
G02*
X144355000Y-103456250I0J-218750D01*
G01*
G37*
%TD*%
%TO.C,D4*%
X148560000Y-92370000D03*
X149960000Y-92370000D03*
%TD*%
%TO.C,D3*%
X148560000Y-96560000D03*
X149960000Y-96560000D03*
%TD*%
%TO.C,D2*%
X148810000Y-100720000D03*
X150210000Y-100720000D03*
%TD*%
%TO.C,C15*%
G36*
G01*
X146747500Y-102240000D02*
X147092500Y-102240000D01*
G75*
G02*
X147240000Y-102387500I0J-147500D01*
G01*
X147240000Y-102682500D01*
G75*
G02*
X147092500Y-102830000I-147500J0D01*
G01*
X146747500Y-102830000D01*
G75*
G02*
X146600000Y-102682500I0J147500D01*
G01*
X146600000Y-102387500D01*
G75*
G02*
X146747500Y-102240000I147500J0D01*
G01*
G37*
G36*
G01*
X146747500Y-101270000D02*
X147092500Y-101270000D01*
G75*
G02*
X147240000Y-101417500I0J-147500D01*
G01*
X147240000Y-101712500D01*
G75*
G02*
X147092500Y-101860000I-147500J0D01*
G01*
X146747500Y-101860000D01*
G75*
G02*
X146600000Y-101712500I0J147500D01*
G01*
X146600000Y-101417500D01*
G75*
G02*
X146747500Y-101270000I147500J0D01*
G01*
G37*
%TD*%
%TO.C,C14*%
G36*
G01*
X142093674Y-94602375D02*
X142337625Y-94846327D01*
G75*
G02*
X142337625Y-95054923I-104298J-104298D01*
G01*
X142129029Y-95263519D01*
G75*
G02*
X141920433Y-95263519I-104298J104298D01*
G01*
X141676481Y-95019567D01*
G75*
G02*
X141676481Y-94810971I104298J104298D01*
G01*
X141885077Y-94602375D01*
G75*
G02*
X142093673Y-94602375I104298J-104298D01*
G01*
G37*
G36*
G01*
X142779568Y-93916481D02*
X143023519Y-94160433D01*
G75*
G02*
X143023519Y-94369029I-104298J-104298D01*
G01*
X142814923Y-94577625D01*
G75*
G02*
X142606327Y-94577625I-104298J104298D01*
G01*
X142362375Y-94333673D01*
G75*
G02*
X142362375Y-94125077I104298J104298D01*
G01*
X142570971Y-93916481D01*
G75*
G02*
X142779567Y-93916481I104298J-104298D01*
G01*
G37*
%TD*%
%TO.C,C13*%
G36*
G01*
X147687500Y-102240000D02*
X148032500Y-102240000D01*
G75*
G02*
X148180000Y-102387500I0J-147500D01*
G01*
X148180000Y-102682500D01*
G75*
G02*
X148032500Y-102830000I-147500J0D01*
G01*
X147687500Y-102830000D01*
G75*
G02*
X147540000Y-102682500I0J147500D01*
G01*
X147540000Y-102387500D01*
G75*
G02*
X147687500Y-102240000I147500J0D01*
G01*
G37*
G36*
G01*
X147687500Y-101270000D02*
X148032500Y-101270000D01*
G75*
G02*
X148180000Y-101417500I0J-147500D01*
G01*
X148180000Y-101712500D01*
G75*
G02*
X148032500Y-101860000I-147500J0D01*
G01*
X147687500Y-101860000D01*
G75*
G02*
X147540000Y-101712500I0J147500D01*
G01*
X147540000Y-101417500D01*
G75*
G02*
X147687500Y-101270000I147500J0D01*
G01*
G37*
%TD*%
%TO.C,C12*%
G36*
G01*
X145710000Y-102705000D02*
X145710000Y-102360000D01*
G75*
G02*
X145857500Y-102212500I147500J0D01*
G01*
X146152500Y-102212500D01*
G75*
G02*
X146300000Y-102360000I0J-147500D01*
G01*
X146300000Y-102705000D01*
G75*
G02*
X146152500Y-102852500I-147500J0D01*
G01*
X145857500Y-102852500D01*
G75*
G02*
X145710000Y-102705000I0J147500D01*
G01*
G37*
G36*
G01*
X144740000Y-102705000D02*
X144740000Y-102360000D01*
G75*
G02*
X144887500Y-102212500I147500J0D01*
G01*
X145182500Y-102212500D01*
G75*
G02*
X145330000Y-102360000I0J-147500D01*
G01*
X145330000Y-102705000D01*
G75*
G02*
X145182500Y-102852500I-147500J0D01*
G01*
X144887500Y-102852500D01*
G75*
G02*
X144740000Y-102705000I0J147500D01*
G01*
G37*
%TD*%
%TO.C,C11*%
G36*
G01*
X145710000Y-101765000D02*
X145710000Y-101420000D01*
G75*
G02*
X145857500Y-101272500I147500J0D01*
G01*
X146152500Y-101272500D01*
G75*
G02*
X146300000Y-101420000I0J-147500D01*
G01*
X146300000Y-101765000D01*
G75*
G02*
X146152500Y-101912500I-147500J0D01*
G01*
X145857500Y-101912500D01*
G75*
G02*
X145710000Y-101765000I0J147500D01*
G01*
G37*
G36*
G01*
X144740000Y-101765000D02*
X144740000Y-101420000D01*
G75*
G02*
X144887500Y-101272500I147500J0D01*
G01*
X145182500Y-101272500D01*
G75*
G02*
X145330000Y-101420000I0J-147500D01*
G01*
X145330000Y-101765000D01*
G75*
G02*
X145182500Y-101912500I-147500J0D01*
G01*
X144887500Y-101912500D01*
G75*
G02*
X144740000Y-101765000I0J147500D01*
G01*
G37*
%TD*%
%TO.C,C1*%
G36*
G01*
X142422500Y-91720000D02*
X142077500Y-91720000D01*
G75*
G02*
X141930000Y-91572500I0J147500D01*
G01*
X141930000Y-91277500D01*
G75*
G02*
X142077500Y-91130000I147500J0D01*
G01*
X142422500Y-91130000D01*
G75*
G02*
X142570000Y-91277500I0J-147500D01*
G01*
X142570000Y-91572500D01*
G75*
G02*
X142422500Y-91720000I-147500J0D01*
G01*
G37*
G36*
G01*
X142422500Y-92690000D02*
X142077500Y-92690000D01*
G75*
G02*
X141930000Y-92542500I0J147500D01*
G01*
X141930000Y-92247500D01*
G75*
G02*
X142077500Y-92100000I147500J0D01*
G01*
X142422500Y-92100000D01*
G75*
G02*
X142570000Y-92247500I0J-147500D01*
G01*
X142570000Y-92542500D01*
G75*
G02*
X142422500Y-92690000I-147500J0D01*
G01*
G37*
%TD*%
%TO.C,C10*%
G36*
G01*
X145460000Y-87945000D02*
X145460000Y-87600000D01*
G75*
G02*
X145607500Y-87452500I147500J0D01*
G01*
X145902500Y-87452500D01*
G75*
G02*
X146050000Y-87600000I0J-147500D01*
G01*
X146050000Y-87945000D01*
G75*
G02*
X145902500Y-88092500I-147500J0D01*
G01*
X145607500Y-88092500D01*
G75*
G02*
X145460000Y-87945000I0J147500D01*
G01*
G37*
G36*
G01*
X144490000Y-87945000D02*
X144490000Y-87600000D01*
G75*
G02*
X144637500Y-87452500I147500J0D01*
G01*
X144932500Y-87452500D01*
G75*
G02*
X145080000Y-87600000I0J-147500D01*
G01*
X145080000Y-87945000D01*
G75*
G02*
X144932500Y-88092500I-147500J0D01*
G01*
X144637500Y-88092500D01*
G75*
G02*
X144490000Y-87945000I0J147500D01*
G01*
G37*
%TD*%
%TO.C,C25*%
G36*
G01*
X146940000Y-87500000D02*
X146940000Y-87845000D01*
G75*
G02*
X146792500Y-87992500I-147500J0D01*
G01*
X146497500Y-87992500D01*
G75*
G02*
X146350000Y-87845000I0J147500D01*
G01*
X146350000Y-87500000D01*
G75*
G02*
X146497500Y-87352500I147500J0D01*
G01*
X146792500Y-87352500D01*
G75*
G02*
X146940000Y-87500000I0J-147500D01*
G01*
G37*
G36*
G01*
X147910000Y-87500000D02*
X147910000Y-87845000D01*
G75*
G02*
X147762500Y-87992500I-147500J0D01*
G01*
X147467500Y-87992500D01*
G75*
G02*
X147320000Y-87845000I0J147500D01*
G01*
X147320000Y-87500000D01*
G75*
G02*
X147467500Y-87352500I147500J0D01*
G01*
X147762500Y-87352500D01*
G75*
G02*
X147910000Y-87500000I0J-147500D01*
G01*
G37*
%TD*%
%TO.C,C26*%
G36*
G01*
X142063674Y-79934875D02*
X142307625Y-80178827D01*
G75*
G02*
X142307625Y-80387423I-104298J-104298D01*
G01*
X142099029Y-80596019D01*
G75*
G02*
X141890433Y-80596019I-104298J104298D01*
G01*
X141646481Y-80352067D01*
G75*
G02*
X141646481Y-80143471I104298J104298D01*
G01*
X141855077Y-79934875D01*
G75*
G02*
X142063673Y-79934875I104298J-104298D01*
G01*
G37*
G36*
G01*
X142749568Y-79248981D02*
X142993519Y-79492933D01*
G75*
G02*
X142993519Y-79701529I-104298J-104298D01*
G01*
X142784923Y-79910125D01*
G75*
G02*
X142576327Y-79910125I-104298J104298D01*
G01*
X142332375Y-79666173D01*
G75*
G02*
X142332375Y-79457577I104298J104298D01*
G01*
X142540971Y-79248981D01*
G75*
G02*
X142749567Y-79248981I104298J-104298D01*
G01*
G37*
%TD*%
%TO.C,U8*%
G36*
G01*
X145470000Y-77170000D02*
X145470000Y-76580000D01*
G75*
G02*
X145720000Y-76330000I250000J0D01*
G01*
X146310000Y-76330000D01*
G75*
G02*
X146560000Y-76580000I0J-250000D01*
G01*
X146560000Y-77170000D01*
G75*
G02*
X146310000Y-77420000I-250000J0D01*
G01*
X145720000Y-77420000D01*
G75*
G02*
X145470000Y-77170000I0J250000D01*
G01*
G37*
G36*
G01*
X145470000Y-78520000D02*
X145470000Y-77930000D01*
G75*
G02*
X145720000Y-77680000I250000J0D01*
G01*
X146310000Y-77680000D01*
G75*
G02*
X146560000Y-77930000I0J-250000D01*
G01*
X146560000Y-78520000D01*
G75*
G02*
X146310000Y-78770000I-250000J0D01*
G01*
X145720000Y-78770000D01*
G75*
G02*
X145470000Y-78520000I0J250000D01*
G01*
G37*
G36*
G01*
X144120000Y-77170000D02*
X144120000Y-76580000D01*
G75*
G02*
X144370000Y-76330000I250000J0D01*
G01*
X144960000Y-76330000D01*
G75*
G02*
X145210000Y-76580000I0J-250000D01*
G01*
X145210000Y-77170000D01*
G75*
G02*
X144960000Y-77420000I-250000J0D01*
G01*
X144370000Y-77420000D01*
G75*
G02*
X144120000Y-77170000I0J250000D01*
G01*
G37*
G36*
G01*
X144120000Y-78520000D02*
X144120000Y-77930000D01*
G75*
G02*
X144370000Y-77680000I250000J0D01*
G01*
X144960000Y-77680000D01*
G75*
G02*
X145210000Y-77930000I0J-250000D01*
G01*
X145210000Y-78520000D01*
G75*
G02*
X144960000Y-78770000I-250000J0D01*
G01*
X144370000Y-78770000D01*
G75*
G02*
X144120000Y-78520000I0J250000D01*
G01*
G37*
G36*
G01*
X143965000Y-79862500D02*
X143965000Y-79162500D01*
G75*
G02*
X144027500Y-79100000I62500J0D01*
G01*
X144152500Y-79100000D01*
G75*
G02*
X144215000Y-79162500I0J-62500D01*
G01*
X144215000Y-79862500D01*
G75*
G02*
X144152500Y-79925000I-62500J0D01*
G01*
X144027500Y-79925000D01*
G75*
G02*
X143965000Y-79862500I0J62500D01*
G01*
G37*
G36*
G01*
X144465000Y-79862500D02*
X144465000Y-79162500D01*
G75*
G02*
X144527500Y-79100000I62500J0D01*
G01*
X144652500Y-79100000D01*
G75*
G02*
X144715000Y-79162500I0J-62500D01*
G01*
X144715000Y-79862500D01*
G75*
G02*
X144652500Y-79925000I-62500J0D01*
G01*
X144527500Y-79925000D01*
G75*
G02*
X144465000Y-79862500I0J62500D01*
G01*
G37*
G36*
G01*
X144965000Y-79862500D02*
X144965000Y-79162500D01*
G75*
G02*
X145027500Y-79100000I62500J0D01*
G01*
X145152500Y-79100000D01*
G75*
G02*
X145215000Y-79162500I0J-62500D01*
G01*
X145215000Y-79862500D01*
G75*
G02*
X145152500Y-79925000I-62500J0D01*
G01*
X145027500Y-79925000D01*
G75*
G02*
X144965000Y-79862500I0J62500D01*
G01*
G37*
G36*
G01*
X145465000Y-79862500D02*
X145465000Y-79162500D01*
G75*
G02*
X145527500Y-79100000I62500J0D01*
G01*
X145652500Y-79100000D01*
G75*
G02*
X145715000Y-79162500I0J-62500D01*
G01*
X145715000Y-79862500D01*
G75*
G02*
X145652500Y-79925000I-62500J0D01*
G01*
X145527500Y-79925000D01*
G75*
G02*
X145465000Y-79862500I0J62500D01*
G01*
G37*
G36*
G01*
X145965000Y-79862500D02*
X145965000Y-79162500D01*
G75*
G02*
X146027500Y-79100000I62500J0D01*
G01*
X146152500Y-79100000D01*
G75*
G02*
X146215000Y-79162500I0J-62500D01*
G01*
X146215000Y-79862500D01*
G75*
G02*
X146152500Y-79925000I-62500J0D01*
G01*
X146027500Y-79925000D01*
G75*
G02*
X145965000Y-79862500I0J62500D01*
G01*
G37*
G36*
G01*
X146465000Y-79862500D02*
X146465000Y-79162500D01*
G75*
G02*
X146527500Y-79100000I62500J0D01*
G01*
X146652500Y-79100000D01*
G75*
G02*
X146715000Y-79162500I0J-62500D01*
G01*
X146715000Y-79862500D01*
G75*
G02*
X146652500Y-79925000I-62500J0D01*
G01*
X146527500Y-79925000D01*
G75*
G02*
X146465000Y-79862500I0J62500D01*
G01*
G37*
G36*
G01*
X146890000Y-78862500D02*
X146890000Y-78737500D01*
G75*
G02*
X146952500Y-78675000I62500J0D01*
G01*
X147652500Y-78675000D01*
G75*
G02*
X147715000Y-78737500I0J-62500D01*
G01*
X147715000Y-78862500D01*
G75*
G02*
X147652500Y-78925000I-62500J0D01*
G01*
X146952500Y-78925000D01*
G75*
G02*
X146890000Y-78862500I0J62500D01*
G01*
G37*
G36*
G01*
X146890000Y-78362500D02*
X146890000Y-78237500D01*
G75*
G02*
X146952500Y-78175000I62500J0D01*
G01*
X147652500Y-78175000D01*
G75*
G02*
X147715000Y-78237500I0J-62500D01*
G01*
X147715000Y-78362500D01*
G75*
G02*
X147652500Y-78425000I-62500J0D01*
G01*
X146952500Y-78425000D01*
G75*
G02*
X146890000Y-78362500I0J62500D01*
G01*
G37*
G36*
G01*
X146890000Y-77862500D02*
X146890000Y-77737500D01*
G75*
G02*
X146952500Y-77675000I62500J0D01*
G01*
X147652500Y-77675000D01*
G75*
G02*
X147715000Y-77737500I0J-62500D01*
G01*
X147715000Y-77862500D01*
G75*
G02*
X147652500Y-77925000I-62500J0D01*
G01*
X146952500Y-77925000D01*
G75*
G02*
X146890000Y-77862500I0J62500D01*
G01*
G37*
G36*
G01*
X146890000Y-77362500D02*
X146890000Y-77237500D01*
G75*
G02*
X146952500Y-77175000I62500J0D01*
G01*
X147652500Y-77175000D01*
G75*
G02*
X147715000Y-77237500I0J-62500D01*
G01*
X147715000Y-77362500D01*
G75*
G02*
X147652500Y-77425000I-62500J0D01*
G01*
X146952500Y-77425000D01*
G75*
G02*
X146890000Y-77362500I0J62500D01*
G01*
G37*
G36*
G01*
X146890000Y-76862500D02*
X146890000Y-76737500D01*
G75*
G02*
X146952500Y-76675000I62500J0D01*
G01*
X147652500Y-76675000D01*
G75*
G02*
X147715000Y-76737500I0J-62500D01*
G01*
X147715000Y-76862500D01*
G75*
G02*
X147652500Y-76925000I-62500J0D01*
G01*
X146952500Y-76925000D01*
G75*
G02*
X146890000Y-76862500I0J62500D01*
G01*
G37*
G36*
G01*
X146890000Y-76362500D02*
X146890000Y-76237500D01*
G75*
G02*
X146952500Y-76175000I62500J0D01*
G01*
X147652500Y-76175000D01*
G75*
G02*
X147715000Y-76237500I0J-62500D01*
G01*
X147715000Y-76362500D01*
G75*
G02*
X147652500Y-76425000I-62500J0D01*
G01*
X146952500Y-76425000D01*
G75*
G02*
X146890000Y-76362500I0J62500D01*
G01*
G37*
G36*
G01*
X146465000Y-75937500D02*
X146465000Y-75237500D01*
G75*
G02*
X146527500Y-75175000I62500J0D01*
G01*
X146652500Y-75175000D01*
G75*
G02*
X146715000Y-75237500I0J-62500D01*
G01*
X146715000Y-75937500D01*
G75*
G02*
X146652500Y-76000000I-62500J0D01*
G01*
X146527500Y-76000000D01*
G75*
G02*
X146465000Y-75937500I0J62500D01*
G01*
G37*
G36*
G01*
X145965000Y-75937500D02*
X145965000Y-75237500D01*
G75*
G02*
X146027500Y-75175000I62500J0D01*
G01*
X146152500Y-75175000D01*
G75*
G02*
X146215000Y-75237500I0J-62500D01*
G01*
X146215000Y-75937500D01*
G75*
G02*
X146152500Y-76000000I-62500J0D01*
G01*
X146027500Y-76000000D01*
G75*
G02*
X145965000Y-75937500I0J62500D01*
G01*
G37*
G36*
G01*
X145465000Y-75937500D02*
X145465000Y-75237500D01*
G75*
G02*
X145527500Y-75175000I62500J0D01*
G01*
X145652500Y-75175000D01*
G75*
G02*
X145715000Y-75237500I0J-62500D01*
G01*
X145715000Y-75937500D01*
G75*
G02*
X145652500Y-76000000I-62500J0D01*
G01*
X145527500Y-76000000D01*
G75*
G02*
X145465000Y-75937500I0J62500D01*
G01*
G37*
G36*
G01*
X144965000Y-75937500D02*
X144965000Y-75237500D01*
G75*
G02*
X145027500Y-75175000I62500J0D01*
G01*
X145152500Y-75175000D01*
G75*
G02*
X145215000Y-75237500I0J-62500D01*
G01*
X145215000Y-75937500D01*
G75*
G02*
X145152500Y-76000000I-62500J0D01*
G01*
X145027500Y-76000000D01*
G75*
G02*
X144965000Y-75937500I0J62500D01*
G01*
G37*
G36*
G01*
X144465000Y-75937500D02*
X144465000Y-75237500D01*
G75*
G02*
X144527500Y-75175000I62500J0D01*
G01*
X144652500Y-75175000D01*
G75*
G02*
X144715000Y-75237500I0J-62500D01*
G01*
X144715000Y-75937500D01*
G75*
G02*
X144652500Y-76000000I-62500J0D01*
G01*
X144527500Y-76000000D01*
G75*
G02*
X144465000Y-75937500I0J62500D01*
G01*
G37*
G36*
G01*
X143965000Y-75937500D02*
X143965000Y-75237500D01*
G75*
G02*
X144027500Y-75175000I62500J0D01*
G01*
X144152500Y-75175000D01*
G75*
G02*
X144215000Y-75237500I0J-62500D01*
G01*
X144215000Y-75937500D01*
G75*
G02*
X144152500Y-76000000I-62500J0D01*
G01*
X144027500Y-76000000D01*
G75*
G02*
X143965000Y-75937500I0J62500D01*
G01*
G37*
G36*
G01*
X142965000Y-76362500D02*
X142965000Y-76237500D01*
G75*
G02*
X143027500Y-76175000I62500J0D01*
G01*
X143727500Y-76175000D01*
G75*
G02*
X143790000Y-76237500I0J-62500D01*
G01*
X143790000Y-76362500D01*
G75*
G02*
X143727500Y-76425000I-62500J0D01*
G01*
X143027500Y-76425000D01*
G75*
G02*
X142965000Y-76362500I0J62500D01*
G01*
G37*
G36*
G01*
X142965000Y-76862500D02*
X142965000Y-76737500D01*
G75*
G02*
X143027500Y-76675000I62500J0D01*
G01*
X143727500Y-76675000D01*
G75*
G02*
X143790000Y-76737500I0J-62500D01*
G01*
X143790000Y-76862500D01*
G75*
G02*
X143727500Y-76925000I-62500J0D01*
G01*
X143027500Y-76925000D01*
G75*
G02*
X142965000Y-76862500I0J62500D01*
G01*
G37*
G36*
G01*
X142965000Y-77362500D02*
X142965000Y-77237500D01*
G75*
G02*
X143027500Y-77175000I62500J0D01*
G01*
X143727500Y-77175000D01*
G75*
G02*
X143790000Y-77237500I0J-62500D01*
G01*
X143790000Y-77362500D01*
G75*
G02*
X143727500Y-77425000I-62500J0D01*
G01*
X143027500Y-77425000D01*
G75*
G02*
X142965000Y-77362500I0J62500D01*
G01*
G37*
G36*
G01*
X142965000Y-77862500D02*
X142965000Y-77737500D01*
G75*
G02*
X143027500Y-77675000I62500J0D01*
G01*
X143727500Y-77675000D01*
G75*
G02*
X143790000Y-77737500I0J-62500D01*
G01*
X143790000Y-77862500D01*
G75*
G02*
X143727500Y-77925000I-62500J0D01*
G01*
X143027500Y-77925000D01*
G75*
G02*
X142965000Y-77862500I0J62500D01*
G01*
G37*
G36*
G01*
X142965000Y-78362500D02*
X142965000Y-78237500D01*
G75*
G02*
X143027500Y-78175000I62500J0D01*
G01*
X143727500Y-78175000D01*
G75*
G02*
X143790000Y-78237500I0J-62500D01*
G01*
X143790000Y-78362500D01*
G75*
G02*
X143727500Y-78425000I-62500J0D01*
G01*
X143027500Y-78425000D01*
G75*
G02*
X142965000Y-78362500I0J62500D01*
G01*
G37*
G36*
G01*
X142965000Y-78862500D02*
X142965000Y-78737500D01*
G75*
G02*
X143027500Y-78675000I62500J0D01*
G01*
X143727500Y-78675000D01*
G75*
G02*
X143790000Y-78737500I0J-62500D01*
G01*
X143790000Y-78862500D01*
G75*
G02*
X143727500Y-78925000I-62500J0D01*
G01*
X143027500Y-78925000D01*
G75*
G02*
X142965000Y-78862500I0J62500D01*
G01*
G37*
%TD*%
%TO.C,FB2*%
G36*
G01*
X143580000Y-88713750D02*
X143580000Y-89226250D01*
G75*
G02*
X143361250Y-89445000I-218750J0D01*
G01*
X142923750Y-89445000D01*
G75*
G02*
X142705000Y-89226250I0J218750D01*
G01*
X142705000Y-88713750D01*
G75*
G02*
X142923750Y-88495000I218750J0D01*
G01*
X143361250Y-88495000D01*
G75*
G02*
X143580000Y-88713750I0J-218750D01*
G01*
G37*
G36*
G01*
X145155000Y-88713750D02*
X145155000Y-89226250D01*
G75*
G02*
X144936250Y-89445000I-218750J0D01*
G01*
X144498750Y-89445000D01*
G75*
G02*
X144280000Y-89226250I0J218750D01*
G01*
X144280000Y-88713750D01*
G75*
G02*
X144498750Y-88495000I218750J0D01*
G01*
X144936250Y-88495000D01*
G75*
G02*
X145155000Y-88713750I0J-218750D01*
G01*
G37*
%TD*%
%TO.C,D6*%
X148560000Y-77710000D03*
X149960000Y-77710000D03*
%TD*%
%TO.C,D5*%
X148670000Y-81900000D03*
X150070000Y-81900000D03*
%TD*%
%TO.C,D1*%
X148960000Y-86060000D03*
X150360000Y-86060000D03*
%TD*%
%TO.C,C28*%
G36*
G01*
X142422500Y-77060000D02*
X142077500Y-77060000D01*
G75*
G02*
X141930000Y-76912500I0J147500D01*
G01*
X141930000Y-76617500D01*
G75*
G02*
X142077500Y-76470000I147500J0D01*
G01*
X142422500Y-76470000D01*
G75*
G02*
X142570000Y-76617500I0J-147500D01*
G01*
X142570000Y-76912500D01*
G75*
G02*
X142422500Y-77060000I-147500J0D01*
G01*
G37*
G36*
G01*
X142422500Y-78030000D02*
X142077500Y-78030000D01*
G75*
G02*
X141930000Y-77882500I0J147500D01*
G01*
X141930000Y-77587500D01*
G75*
G02*
X142077500Y-77440000I147500J0D01*
G01*
X142422500Y-77440000D01*
G75*
G02*
X142570000Y-77587500I0J-147500D01*
G01*
X142570000Y-77882500D01*
G75*
G02*
X142422500Y-78030000I-147500J0D01*
G01*
G37*
%TD*%
%TO.C,C27*%
G36*
G01*
X147320000Y-86905000D02*
X147320000Y-86560000D01*
G75*
G02*
X147467500Y-86412500I147500J0D01*
G01*
X147762500Y-86412500D01*
G75*
G02*
X147910000Y-86560000I0J-147500D01*
G01*
X147910000Y-86905000D01*
G75*
G02*
X147762500Y-87052500I-147500J0D01*
G01*
X147467500Y-87052500D01*
G75*
G02*
X147320000Y-86905000I0J147500D01*
G01*
G37*
G36*
G01*
X146350000Y-86905000D02*
X146350000Y-86560000D01*
G75*
G02*
X146497500Y-86412500I147500J0D01*
G01*
X146792500Y-86412500D01*
G75*
G02*
X146940000Y-86560000I0J-147500D01*
G01*
X146940000Y-86905000D01*
G75*
G02*
X146792500Y-87052500I-147500J0D01*
G01*
X146497500Y-87052500D01*
G75*
G02*
X146350000Y-86905000I0J147500D01*
G01*
G37*
%TD*%
%TO.C,C9*%
G36*
G01*
X145460000Y-87005000D02*
X145460000Y-86660000D01*
G75*
G02*
X145607500Y-86512500I147500J0D01*
G01*
X145902500Y-86512500D01*
G75*
G02*
X146050000Y-86660000I0J-147500D01*
G01*
X146050000Y-87005000D01*
G75*
G02*
X145902500Y-87152500I-147500J0D01*
G01*
X145607500Y-87152500D01*
G75*
G02*
X145460000Y-87005000I0J147500D01*
G01*
G37*
G36*
G01*
X144490000Y-87005000D02*
X144490000Y-86660000D01*
G75*
G02*
X144637500Y-86512500I147500J0D01*
G01*
X144932500Y-86512500D01*
G75*
G02*
X145080000Y-86660000I0J-147500D01*
G01*
X145080000Y-87005000D01*
G75*
G02*
X144932500Y-87152500I-147500J0D01*
G01*
X144637500Y-87152500D01*
G75*
G02*
X144490000Y-87005000I0J147500D01*
G01*
G37*
%TD*%
%TO.C,U10*%
G36*
G01*
X134530000Y-99830000D02*
X134530000Y-100420000D01*
G75*
G02*
X134280000Y-100670000I-250000J0D01*
G01*
X133690000Y-100670000D01*
G75*
G02*
X133440000Y-100420000I0J250000D01*
G01*
X133440000Y-99830000D01*
G75*
G02*
X133690000Y-99580000I250000J0D01*
G01*
X134280000Y-99580000D01*
G75*
G02*
X134530000Y-99830000I0J-250000D01*
G01*
G37*
G36*
G01*
X134530000Y-98480000D02*
X134530000Y-99070000D01*
G75*
G02*
X134280000Y-99320000I-250000J0D01*
G01*
X133690000Y-99320000D01*
G75*
G02*
X133440000Y-99070000I0J250000D01*
G01*
X133440000Y-98480000D01*
G75*
G02*
X133690000Y-98230000I250000J0D01*
G01*
X134280000Y-98230000D01*
G75*
G02*
X134530000Y-98480000I0J-250000D01*
G01*
G37*
G36*
G01*
X135880000Y-99830000D02*
X135880000Y-100420000D01*
G75*
G02*
X135630000Y-100670000I-250000J0D01*
G01*
X135040000Y-100670000D01*
G75*
G02*
X134790000Y-100420000I0J250000D01*
G01*
X134790000Y-99830000D01*
G75*
G02*
X135040000Y-99580000I250000J0D01*
G01*
X135630000Y-99580000D01*
G75*
G02*
X135880000Y-99830000I0J-250000D01*
G01*
G37*
G36*
G01*
X135880000Y-98480000D02*
X135880000Y-99070000D01*
G75*
G02*
X135630000Y-99320000I-250000J0D01*
G01*
X135040000Y-99320000D01*
G75*
G02*
X134790000Y-99070000I0J250000D01*
G01*
X134790000Y-98480000D01*
G75*
G02*
X135040000Y-98230000I250000J0D01*
G01*
X135630000Y-98230000D01*
G75*
G02*
X135880000Y-98480000I0J-250000D01*
G01*
G37*
G36*
G01*
X136035000Y-97137500D02*
X136035000Y-97837500D01*
G75*
G02*
X135972500Y-97900000I-62500J0D01*
G01*
X135847500Y-97900000D01*
G75*
G02*
X135785000Y-97837500I0J62500D01*
G01*
X135785000Y-97137500D01*
G75*
G02*
X135847500Y-97075000I62500J0D01*
G01*
X135972500Y-97075000D01*
G75*
G02*
X136035000Y-97137500I0J-62500D01*
G01*
G37*
G36*
G01*
X135535000Y-97137500D02*
X135535000Y-97837500D01*
G75*
G02*
X135472500Y-97900000I-62500J0D01*
G01*
X135347500Y-97900000D01*
G75*
G02*
X135285000Y-97837500I0J62500D01*
G01*
X135285000Y-97137500D01*
G75*
G02*
X135347500Y-97075000I62500J0D01*
G01*
X135472500Y-97075000D01*
G75*
G02*
X135535000Y-97137500I0J-62500D01*
G01*
G37*
G36*
G01*
X135035000Y-97137500D02*
X135035000Y-97837500D01*
G75*
G02*
X134972500Y-97900000I-62500J0D01*
G01*
X134847500Y-97900000D01*
G75*
G02*
X134785000Y-97837500I0J62500D01*
G01*
X134785000Y-97137500D01*
G75*
G02*
X134847500Y-97075000I62500J0D01*
G01*
X134972500Y-97075000D01*
G75*
G02*
X135035000Y-97137500I0J-62500D01*
G01*
G37*
G36*
G01*
X134535000Y-97137500D02*
X134535000Y-97837500D01*
G75*
G02*
X134472500Y-97900000I-62500J0D01*
G01*
X134347500Y-97900000D01*
G75*
G02*
X134285000Y-97837500I0J62500D01*
G01*
X134285000Y-97137500D01*
G75*
G02*
X134347500Y-97075000I62500J0D01*
G01*
X134472500Y-97075000D01*
G75*
G02*
X134535000Y-97137500I0J-62500D01*
G01*
G37*
G36*
G01*
X134035000Y-97137500D02*
X134035000Y-97837500D01*
G75*
G02*
X133972500Y-97900000I-62500J0D01*
G01*
X133847500Y-97900000D01*
G75*
G02*
X133785000Y-97837500I0J62500D01*
G01*
X133785000Y-97137500D01*
G75*
G02*
X133847500Y-97075000I62500J0D01*
G01*
X133972500Y-97075000D01*
G75*
G02*
X134035000Y-97137500I0J-62500D01*
G01*
G37*
G36*
G01*
X133535000Y-97137500D02*
X133535000Y-97837500D01*
G75*
G02*
X133472500Y-97900000I-62500J0D01*
G01*
X133347500Y-97900000D01*
G75*
G02*
X133285000Y-97837500I0J62500D01*
G01*
X133285000Y-97137500D01*
G75*
G02*
X133347500Y-97075000I62500J0D01*
G01*
X133472500Y-97075000D01*
G75*
G02*
X133535000Y-97137500I0J-62500D01*
G01*
G37*
G36*
G01*
X133110000Y-98137500D02*
X133110000Y-98262500D01*
G75*
G02*
X133047500Y-98325000I-62500J0D01*
G01*
X132347500Y-98325000D01*
G75*
G02*
X132285000Y-98262500I0J62500D01*
G01*
X132285000Y-98137500D01*
G75*
G02*
X132347500Y-98075000I62500J0D01*
G01*
X133047500Y-98075000D01*
G75*
G02*
X133110000Y-98137500I0J-62500D01*
G01*
G37*
G36*
G01*
X133110000Y-98637500D02*
X133110000Y-98762500D01*
G75*
G02*
X133047500Y-98825000I-62500J0D01*
G01*
X132347500Y-98825000D01*
G75*
G02*
X132285000Y-98762500I0J62500D01*
G01*
X132285000Y-98637500D01*
G75*
G02*
X132347500Y-98575000I62500J0D01*
G01*
X133047500Y-98575000D01*
G75*
G02*
X133110000Y-98637500I0J-62500D01*
G01*
G37*
G36*
G01*
X133110000Y-99137500D02*
X133110000Y-99262500D01*
G75*
G02*
X133047500Y-99325000I-62500J0D01*
G01*
X132347500Y-99325000D01*
G75*
G02*
X132285000Y-99262500I0J62500D01*
G01*
X132285000Y-99137500D01*
G75*
G02*
X132347500Y-99075000I62500J0D01*
G01*
X133047500Y-99075000D01*
G75*
G02*
X133110000Y-99137500I0J-62500D01*
G01*
G37*
G36*
G01*
X133110000Y-99637500D02*
X133110000Y-99762500D01*
G75*
G02*
X133047500Y-99825000I-62500J0D01*
G01*
X132347500Y-99825000D01*
G75*
G02*
X132285000Y-99762500I0J62500D01*
G01*
X132285000Y-99637500D01*
G75*
G02*
X132347500Y-99575000I62500J0D01*
G01*
X133047500Y-99575000D01*
G75*
G02*
X133110000Y-99637500I0J-62500D01*
G01*
G37*
G36*
G01*
X133110000Y-100137500D02*
X133110000Y-100262500D01*
G75*
G02*
X133047500Y-100325000I-62500J0D01*
G01*
X132347500Y-100325000D01*
G75*
G02*
X132285000Y-100262500I0J62500D01*
G01*
X132285000Y-100137500D01*
G75*
G02*
X132347500Y-100075000I62500J0D01*
G01*
X133047500Y-100075000D01*
G75*
G02*
X133110000Y-100137500I0J-62500D01*
G01*
G37*
G36*
G01*
X133110000Y-100637500D02*
X133110000Y-100762500D01*
G75*
G02*
X133047500Y-100825000I-62500J0D01*
G01*
X132347500Y-100825000D01*
G75*
G02*
X132285000Y-100762500I0J62500D01*
G01*
X132285000Y-100637500D01*
G75*
G02*
X132347500Y-100575000I62500J0D01*
G01*
X133047500Y-100575000D01*
G75*
G02*
X133110000Y-100637500I0J-62500D01*
G01*
G37*
G36*
G01*
X133535000Y-101062500D02*
X133535000Y-101762500D01*
G75*
G02*
X133472500Y-101825000I-62500J0D01*
G01*
X133347500Y-101825000D01*
G75*
G02*
X133285000Y-101762500I0J62500D01*
G01*
X133285000Y-101062500D01*
G75*
G02*
X133347500Y-101000000I62500J0D01*
G01*
X133472500Y-101000000D01*
G75*
G02*
X133535000Y-101062500I0J-62500D01*
G01*
G37*
G36*
G01*
X134035000Y-101062500D02*
X134035000Y-101762500D01*
G75*
G02*
X133972500Y-101825000I-62500J0D01*
G01*
X133847500Y-101825000D01*
G75*
G02*
X133785000Y-101762500I0J62500D01*
G01*
X133785000Y-101062500D01*
G75*
G02*
X133847500Y-101000000I62500J0D01*
G01*
X133972500Y-101000000D01*
G75*
G02*
X134035000Y-101062500I0J-62500D01*
G01*
G37*
G36*
G01*
X134535000Y-101062500D02*
X134535000Y-101762500D01*
G75*
G02*
X134472500Y-101825000I-62500J0D01*
G01*
X134347500Y-101825000D01*
G75*
G02*
X134285000Y-101762500I0J62500D01*
G01*
X134285000Y-101062500D01*
G75*
G02*
X134347500Y-101000000I62500J0D01*
G01*
X134472500Y-101000000D01*
G75*
G02*
X134535000Y-101062500I0J-62500D01*
G01*
G37*
G36*
G01*
X135035000Y-101062500D02*
X135035000Y-101762500D01*
G75*
G02*
X134972500Y-101825000I-62500J0D01*
G01*
X134847500Y-101825000D01*
G75*
G02*
X134785000Y-101762500I0J62500D01*
G01*
X134785000Y-101062500D01*
G75*
G02*
X134847500Y-101000000I62500J0D01*
G01*
X134972500Y-101000000D01*
G75*
G02*
X135035000Y-101062500I0J-62500D01*
G01*
G37*
G36*
G01*
X135535000Y-101062500D02*
X135535000Y-101762500D01*
G75*
G02*
X135472500Y-101825000I-62500J0D01*
G01*
X135347500Y-101825000D01*
G75*
G02*
X135285000Y-101762500I0J62500D01*
G01*
X135285000Y-101062500D01*
G75*
G02*
X135347500Y-101000000I62500J0D01*
G01*
X135472500Y-101000000D01*
G75*
G02*
X135535000Y-101062500I0J-62500D01*
G01*
G37*
G36*
G01*
X136035000Y-101062500D02*
X136035000Y-101762500D01*
G75*
G02*
X135972500Y-101825000I-62500J0D01*
G01*
X135847500Y-101825000D01*
G75*
G02*
X135785000Y-101762500I0J62500D01*
G01*
X135785000Y-101062500D01*
G75*
G02*
X135847500Y-101000000I62500J0D01*
G01*
X135972500Y-101000000D01*
G75*
G02*
X136035000Y-101062500I0J-62500D01*
G01*
G37*
G36*
G01*
X137035000Y-100637500D02*
X137035000Y-100762500D01*
G75*
G02*
X136972500Y-100825000I-62500J0D01*
G01*
X136272500Y-100825000D01*
G75*
G02*
X136210000Y-100762500I0J62500D01*
G01*
X136210000Y-100637500D01*
G75*
G02*
X136272500Y-100575000I62500J0D01*
G01*
X136972500Y-100575000D01*
G75*
G02*
X137035000Y-100637500I0J-62500D01*
G01*
G37*
G36*
G01*
X137035000Y-100137500D02*
X137035000Y-100262500D01*
G75*
G02*
X136972500Y-100325000I-62500J0D01*
G01*
X136272500Y-100325000D01*
G75*
G02*
X136210000Y-100262500I0J62500D01*
G01*
X136210000Y-100137500D01*
G75*
G02*
X136272500Y-100075000I62500J0D01*
G01*
X136972500Y-100075000D01*
G75*
G02*
X137035000Y-100137500I0J-62500D01*
G01*
G37*
G36*
G01*
X137035000Y-99637500D02*
X137035000Y-99762500D01*
G75*
G02*
X136972500Y-99825000I-62500J0D01*
G01*
X136272500Y-99825000D01*
G75*
G02*
X136210000Y-99762500I0J62500D01*
G01*
X136210000Y-99637500D01*
G75*
G02*
X136272500Y-99575000I62500J0D01*
G01*
X136972500Y-99575000D01*
G75*
G02*
X137035000Y-99637500I0J-62500D01*
G01*
G37*
G36*
G01*
X137035000Y-99137500D02*
X137035000Y-99262500D01*
G75*
G02*
X136972500Y-99325000I-62500J0D01*
G01*
X136272500Y-99325000D01*
G75*
G02*
X136210000Y-99262500I0J62500D01*
G01*
X136210000Y-99137500D01*
G75*
G02*
X136272500Y-99075000I62500J0D01*
G01*
X136972500Y-99075000D01*
G75*
G02*
X137035000Y-99137500I0J-62500D01*
G01*
G37*
G36*
G01*
X137035000Y-98637500D02*
X137035000Y-98762500D01*
G75*
G02*
X136972500Y-98825000I-62500J0D01*
G01*
X136272500Y-98825000D01*
G75*
G02*
X136210000Y-98762500I0J62500D01*
G01*
X136210000Y-98637500D01*
G75*
G02*
X136272500Y-98575000I62500J0D01*
G01*
X136972500Y-98575000D01*
G75*
G02*
X137035000Y-98637500I0J-62500D01*
G01*
G37*
G36*
G01*
X137035000Y-98137500D02*
X137035000Y-98262500D01*
G75*
G02*
X136972500Y-98325000I-62500J0D01*
G01*
X136272500Y-98325000D01*
G75*
G02*
X136210000Y-98262500I0J62500D01*
G01*
X136210000Y-98137500D01*
G75*
G02*
X136272500Y-98075000I62500J0D01*
G01*
X136972500Y-98075000D01*
G75*
G02*
X137035000Y-98137500I0J-62500D01*
G01*
G37*
%TD*%
%TO.C,FB3*%
G36*
G01*
X136520000Y-88286250D02*
X136520000Y-87773750D01*
G75*
G02*
X136738750Y-87555000I218750J0D01*
G01*
X137176250Y-87555000D01*
G75*
G02*
X137395000Y-87773750I0J-218750D01*
G01*
X137395000Y-88286250D01*
G75*
G02*
X137176250Y-88505000I-218750J0D01*
G01*
X136738750Y-88505000D01*
G75*
G02*
X136520000Y-88286250I0J218750D01*
G01*
G37*
G36*
G01*
X134945000Y-88286250D02*
X134945000Y-87773750D01*
G75*
G02*
X135163750Y-87555000I218750J0D01*
G01*
X135601250Y-87555000D01*
G75*
G02*
X135820000Y-87773750I0J-218750D01*
G01*
X135820000Y-88286250D01*
G75*
G02*
X135601250Y-88505000I-218750J0D01*
G01*
X135163750Y-88505000D01*
G75*
G02*
X134945000Y-88286250I0J218750D01*
G01*
G37*
%TD*%
%TO.C,D9*%
X131440000Y-99290000D03*
X130040000Y-99290000D03*
%TD*%
%TO.C,D8*%
X131440000Y-95100000D03*
X130040000Y-95100000D03*
%TD*%
%TO.C,D7*%
X131190000Y-90940000D03*
X129790000Y-90940000D03*
%TD*%
%TO.C,C37*%
G36*
G01*
X137577500Y-100180000D02*
X137922500Y-100180000D01*
G75*
G02*
X138070000Y-100327500I0J-147500D01*
G01*
X138070000Y-100622500D01*
G75*
G02*
X137922500Y-100770000I-147500J0D01*
G01*
X137577500Y-100770000D01*
G75*
G02*
X137430000Y-100622500I0J147500D01*
G01*
X137430000Y-100327500D01*
G75*
G02*
X137577500Y-100180000I147500J0D01*
G01*
G37*
G36*
G01*
X137577500Y-99210000D02*
X137922500Y-99210000D01*
G75*
G02*
X138070000Y-99357500I0J-147500D01*
G01*
X138070000Y-99652500D01*
G75*
G02*
X137922500Y-99800000I-147500J0D01*
G01*
X137577500Y-99800000D01*
G75*
G02*
X137430000Y-99652500I0J147500D01*
G01*
X137430000Y-99357500D01*
G75*
G02*
X137577500Y-99210000I147500J0D01*
G01*
G37*
%TD*%
%TO.C,C36*%
G36*
G01*
X133502500Y-89620000D02*
X133157500Y-89620000D01*
G75*
G02*
X133010000Y-89472500I0J147500D01*
G01*
X133010000Y-89177500D01*
G75*
G02*
X133157500Y-89030000I147500J0D01*
G01*
X133502500Y-89030000D01*
G75*
G02*
X133650000Y-89177500I0J-147500D01*
G01*
X133650000Y-89472500D01*
G75*
G02*
X133502500Y-89620000I-147500J0D01*
G01*
G37*
G36*
G01*
X133502500Y-90590000D02*
X133157500Y-90590000D01*
G75*
G02*
X133010000Y-90442500I0J147500D01*
G01*
X133010000Y-90147500D01*
G75*
G02*
X133157500Y-90000000I147500J0D01*
G01*
X133502500Y-90000000D01*
G75*
G02*
X133650000Y-90147500I0J-147500D01*
G01*
X133650000Y-90442500D01*
G75*
G02*
X133502500Y-90590000I-147500J0D01*
G01*
G37*
%TD*%
%TO.C,C35*%
G36*
G01*
X137936326Y-97067625D02*
X137692375Y-96823673D01*
G75*
G02*
X137692375Y-96615077I104298J104298D01*
G01*
X137900971Y-96406481D01*
G75*
G02*
X138109567Y-96406481I104298J-104298D01*
G01*
X138353519Y-96650433D01*
G75*
G02*
X138353519Y-96859029I-104298J-104298D01*
G01*
X138144923Y-97067625D01*
G75*
G02*
X137936327Y-97067625I-104298J104298D01*
G01*
G37*
G36*
G01*
X137250432Y-97753519D02*
X137006481Y-97509567D01*
G75*
G02*
X137006481Y-97300971I104298J104298D01*
G01*
X137215077Y-97092375D01*
G75*
G02*
X137423673Y-97092375I104298J-104298D01*
G01*
X137667625Y-97336327D01*
G75*
G02*
X137667625Y-97544923I-104298J-104298D01*
G01*
X137459029Y-97753519D01*
G75*
G02*
X137250433Y-97753519I-104298J104298D01*
G01*
G37*
%TD*%
%TO.C,C34*%
G36*
G01*
X132562500Y-89620000D02*
X132217500Y-89620000D01*
G75*
G02*
X132070000Y-89472500I0J147500D01*
G01*
X132070000Y-89177500D01*
G75*
G02*
X132217500Y-89030000I147500J0D01*
G01*
X132562500Y-89030000D01*
G75*
G02*
X132710000Y-89177500I0J-147500D01*
G01*
X132710000Y-89472500D01*
G75*
G02*
X132562500Y-89620000I-147500J0D01*
G01*
G37*
G36*
G01*
X132562500Y-90590000D02*
X132217500Y-90590000D01*
G75*
G02*
X132070000Y-90442500I0J147500D01*
G01*
X132070000Y-90147500D01*
G75*
G02*
X132217500Y-90000000I147500J0D01*
G01*
X132562500Y-90000000D01*
G75*
G02*
X132710000Y-90147500I0J-147500D01*
G01*
X132710000Y-90442500D01*
G75*
G02*
X132562500Y-90590000I-147500J0D01*
G01*
G37*
%TD*%
%TO.C,C33*%
G36*
G01*
X134540000Y-89057500D02*
X134540000Y-89402500D01*
G75*
G02*
X134392500Y-89550000I-147500J0D01*
G01*
X134097500Y-89550000D01*
G75*
G02*
X133950000Y-89402500I0J147500D01*
G01*
X133950000Y-89057500D01*
G75*
G02*
X134097500Y-88910000I147500J0D01*
G01*
X134392500Y-88910000D01*
G75*
G02*
X134540000Y-89057500I0J-147500D01*
G01*
G37*
G36*
G01*
X135510000Y-89057500D02*
X135510000Y-89402500D01*
G75*
G02*
X135362500Y-89550000I-147500J0D01*
G01*
X135067500Y-89550000D01*
G75*
G02*
X134920000Y-89402500I0J147500D01*
G01*
X134920000Y-89057500D01*
G75*
G02*
X135067500Y-88910000I147500J0D01*
G01*
X135362500Y-88910000D01*
G75*
G02*
X135510000Y-89057500I0J-147500D01*
G01*
G37*
%TD*%
%TO.C,C32*%
G36*
G01*
X134540000Y-89997500D02*
X134540000Y-90342500D01*
G75*
G02*
X134392500Y-90490000I-147500J0D01*
G01*
X134097500Y-90490000D01*
G75*
G02*
X133950000Y-90342500I0J147500D01*
G01*
X133950000Y-89997500D01*
G75*
G02*
X134097500Y-89850000I147500J0D01*
G01*
X134392500Y-89850000D01*
G75*
G02*
X134540000Y-89997500I0J-147500D01*
G01*
G37*
G36*
G01*
X135510000Y-89997500D02*
X135510000Y-90342500D01*
G75*
G02*
X135362500Y-90490000I-147500J0D01*
G01*
X135067500Y-90490000D01*
G75*
G02*
X134920000Y-90342500I0J147500D01*
G01*
X134920000Y-89997500D01*
G75*
G02*
X135067500Y-89850000I147500J0D01*
G01*
X135362500Y-89850000D01*
G75*
G02*
X135510000Y-89997500I0J-147500D01*
G01*
G37*
%TD*%
D11*
%TO.C,J9*%
X133700000Y-63250000D03*
X135100000Y-63250000D03*
X139300000Y-63250000D03*
X136500000Y-63250000D03*
X137900000Y-63250000D03*
X140700000Y-63250000D03*
X142100000Y-63250000D03*
X146300000Y-63250000D03*
X143500000Y-63250000D03*
X144900000Y-63250000D03*
%TD*%
M02*
