%TF.GenerationSoftware,KiCad,Pcbnew,(5.1.6-0-10_14)*%
%TF.CreationDate,2021-04-11T14:49:43-04:00*%
%TF.ProjectId,F051_ESC-4in1-V2,46303531-5f45-4534-932d-34696e312d56,rev?*%
%TF.SameCoordinates,Original*%
%TF.FileFunction,Paste,Top*%
%TF.FilePolarity,Positive*%
%FSLAX46Y46*%
G04 Gerber Fmt 4.6, Leading zero omitted, Abs format (unit mm)*
G04 Created by KiCad (PCBNEW (5.1.6-0-10_14)) date 2021-04-11 14:49:43*
%MOMM*%
%LPD*%
G01*
G04 APERTURE LIST*
%ADD10C,0.010000*%
%ADD11C,0.100000*%
%ADD12R,1.400000X0.570000*%
%ADD13R,0.570000X1.400000*%
%ADD14R,0.890000X2.440000*%
%ADD15R,5.600000X2.440000*%
%ADD16R,3.400000X0.980000*%
%ADD17R,1.450000X0.850000*%
%ADD18R,1.050000X0.850000*%
%ADD19R,1.060000X0.650000*%
%ADD20R,0.650000X1.060000*%
%ADD21R,1.100000X1.100000*%
G04 APERTURE END LIST*
D10*
%TO.C,Q23*%
G36*
X123870000Y-84509000D02*
G01*
X126850000Y-84509000D01*
X126850000Y-86881000D01*
X123870000Y-86881000D01*
X123870000Y-84509000D01*
G37*
X123870000Y-84509000D02*
X126850000Y-84509000D01*
X126850000Y-86881000D01*
X123870000Y-86881000D01*
X123870000Y-84509000D01*
%TO.C,Q21*%
G36*
X123870000Y-78924000D02*
G01*
X126850000Y-78924000D01*
X126850000Y-81296000D01*
X123870000Y-81296000D01*
X123870000Y-78924000D01*
G37*
X123870000Y-78924000D02*
X126850000Y-78924000D01*
X126850000Y-81296000D01*
X123870000Y-81296000D01*
X123870000Y-78924000D01*
%TO.C,Q19*%
G36*
X130560000Y-70064000D02*
G01*
X133540000Y-70064000D01*
X133540000Y-72436000D01*
X130560000Y-72436000D01*
X130560000Y-70064000D01*
G37*
X130560000Y-70064000D02*
X133540000Y-70064000D01*
X133540000Y-72436000D01*
X130560000Y-72436000D01*
X130560000Y-70064000D01*
%TO.C,Q5*%
G36*
X156130000Y-92486000D02*
G01*
X153150000Y-92486000D01*
X153150000Y-90114000D01*
X156130000Y-90114000D01*
X156130000Y-92486000D01*
G37*
X156130000Y-92486000D02*
X153150000Y-92486000D01*
X153150000Y-90114000D01*
X156130000Y-90114000D01*
X156130000Y-92486000D01*
%TO.C,Q3*%
G36*
X156130000Y-98076000D02*
G01*
X153150000Y-98076000D01*
X153150000Y-95704000D01*
X156130000Y-95704000D01*
X156130000Y-98076000D01*
G37*
X156130000Y-98076000D02*
X153150000Y-98076000D01*
X153150000Y-95704000D01*
X156130000Y-95704000D01*
X156130000Y-98076000D01*
%TO.C,Q1*%
G36*
X149440000Y-106936000D02*
G01*
X146460000Y-106936000D01*
X146460000Y-104564000D01*
X149440000Y-104564000D01*
X149440000Y-106936000D01*
G37*
X149440000Y-106936000D02*
X146460000Y-106936000D01*
X146460000Y-104564000D01*
X149440000Y-104564000D01*
X149440000Y-106936000D01*
%TO.C,Q11*%
G36*
X149440000Y-72436000D02*
G01*
X146460000Y-72436000D01*
X146460000Y-70064000D01*
X149440000Y-70064000D01*
X149440000Y-72436000D01*
G37*
X149440000Y-72436000D02*
X146460000Y-72436000D01*
X146460000Y-70064000D01*
X149440000Y-70064000D01*
X149440000Y-72436000D01*
%TO.C,Q9*%
G36*
X156130000Y-81296000D02*
G01*
X153150000Y-81296000D01*
X153150000Y-78924000D01*
X156130000Y-78924000D01*
X156130000Y-81296000D01*
G37*
X156130000Y-81296000D02*
X153150000Y-81296000D01*
X153150000Y-78924000D01*
X156130000Y-78924000D01*
X156130000Y-81296000D01*
%TO.C,Q7*%
G36*
X156130000Y-86886000D02*
G01*
X153150000Y-86886000D01*
X153150000Y-84514000D01*
X156130000Y-84514000D01*
X156130000Y-86886000D01*
G37*
X156130000Y-86886000D02*
X153150000Y-86886000D01*
X153150000Y-84514000D01*
X156130000Y-84514000D01*
X156130000Y-86886000D01*
%TO.C,Q17*%
G36*
X130560000Y-104564000D02*
G01*
X133540000Y-104564000D01*
X133540000Y-106936000D01*
X130560000Y-106936000D01*
X130560000Y-104564000D01*
G37*
X130560000Y-104564000D02*
X133540000Y-104564000D01*
X133540000Y-106936000D01*
X130560000Y-106936000D01*
X130560000Y-104564000D01*
%TO.C,Q15*%
G36*
X123870000Y-95704000D02*
G01*
X126850000Y-95704000D01*
X126850000Y-98076000D01*
X123870000Y-98076000D01*
X123870000Y-95704000D01*
G37*
X123870000Y-95704000D02*
X126850000Y-95704000D01*
X126850000Y-98076000D01*
X123870000Y-98076000D01*
X123870000Y-95704000D01*
%TO.C,Q13*%
G36*
X123870000Y-90114000D02*
G01*
X126850000Y-90114000D01*
X126850000Y-92486000D01*
X123870000Y-92486000D01*
X123870000Y-90114000D01*
G37*
X123870000Y-90114000D02*
X126850000Y-90114000D01*
X126850000Y-92486000D01*
X123870000Y-92486000D01*
X123870000Y-90114000D01*
%TD*%
%TO.C,J2*%
G36*
G01*
X134790000Y-62994600D02*
X134790000Y-64295400D01*
G75*
G02*
X134540400Y-64545000I-249600J0D01*
G01*
X133839600Y-64545000D01*
G75*
G02*
X133590000Y-64295400I0J249600D01*
G01*
X133590000Y-62994600D01*
G75*
G02*
X133839600Y-62745000I249600J0D01*
G01*
X134540400Y-62745000D01*
G75*
G02*
X134790000Y-62994600I0J-249600D01*
G01*
G37*
G36*
G01*
X146390000Y-62994600D02*
X146390000Y-64295400D01*
G75*
G02*
X146140400Y-64545000I-249600J0D01*
G01*
X145439600Y-64545000D01*
G75*
G02*
X145190000Y-64295400I0J249600D01*
G01*
X145190000Y-62994600D01*
G75*
G02*
X145439600Y-62745000I249600J0D01*
G01*
X146140400Y-62745000D01*
G75*
G02*
X146390000Y-62994600I0J-249600D01*
G01*
G37*
G36*
G01*
X135790000Y-66895000D02*
X135790000Y-68145000D01*
G75*
G02*
X135640000Y-68295000I-150000J0D01*
G01*
X135340000Y-68295000D01*
G75*
G02*
X135190000Y-68145000I0J150000D01*
G01*
X135190000Y-66895000D01*
G75*
G02*
X135340000Y-66745000I150000J0D01*
G01*
X135640000Y-66745000D01*
G75*
G02*
X135790000Y-66895000I0J-150000D01*
G01*
G37*
G36*
G01*
X136790000Y-66895000D02*
X136790000Y-68145000D01*
G75*
G02*
X136640000Y-68295000I-150000J0D01*
G01*
X136340000Y-68295000D01*
G75*
G02*
X136190000Y-68145000I0J150000D01*
G01*
X136190000Y-66895000D01*
G75*
G02*
X136340000Y-66745000I150000J0D01*
G01*
X136640000Y-66745000D01*
G75*
G02*
X136790000Y-66895000I0J-150000D01*
G01*
G37*
G36*
G01*
X137790000Y-66895000D02*
X137790000Y-68145000D01*
G75*
G02*
X137640000Y-68295000I-150000J0D01*
G01*
X137340000Y-68295000D01*
G75*
G02*
X137190000Y-68145000I0J150000D01*
G01*
X137190000Y-66895000D01*
G75*
G02*
X137340000Y-66745000I150000J0D01*
G01*
X137640000Y-66745000D01*
G75*
G02*
X137790000Y-66895000I0J-150000D01*
G01*
G37*
G36*
G01*
X138790000Y-66895000D02*
X138790000Y-68145000D01*
G75*
G02*
X138640000Y-68295000I-150000J0D01*
G01*
X138340000Y-68295000D01*
G75*
G02*
X138190000Y-68145000I0J150000D01*
G01*
X138190000Y-66895000D01*
G75*
G02*
X138340000Y-66745000I150000J0D01*
G01*
X138640000Y-66745000D01*
G75*
G02*
X138790000Y-66895000I0J-150000D01*
G01*
G37*
G36*
G01*
X139790000Y-66895000D02*
X139790000Y-68145000D01*
G75*
G02*
X139640000Y-68295000I-150000J0D01*
G01*
X139340000Y-68295000D01*
G75*
G02*
X139190000Y-68145000I0J150000D01*
G01*
X139190000Y-66895000D01*
G75*
G02*
X139340000Y-66745000I150000J0D01*
G01*
X139640000Y-66745000D01*
G75*
G02*
X139790000Y-66895000I0J-150000D01*
G01*
G37*
G36*
G01*
X140790000Y-66895000D02*
X140790000Y-68145000D01*
G75*
G02*
X140640000Y-68295000I-150000J0D01*
G01*
X140340000Y-68295000D01*
G75*
G02*
X140190000Y-68145000I0J150000D01*
G01*
X140190000Y-66895000D01*
G75*
G02*
X140340000Y-66745000I150000J0D01*
G01*
X140640000Y-66745000D01*
G75*
G02*
X140790000Y-66895000I0J-150000D01*
G01*
G37*
G36*
G01*
X141790000Y-66895000D02*
X141790000Y-68145000D01*
G75*
G02*
X141640000Y-68295000I-150000J0D01*
G01*
X141340000Y-68295000D01*
G75*
G02*
X141190000Y-68145000I0J150000D01*
G01*
X141190000Y-66895000D01*
G75*
G02*
X141340000Y-66745000I150000J0D01*
G01*
X141640000Y-66745000D01*
G75*
G02*
X141790000Y-66895000I0J-150000D01*
G01*
G37*
G36*
G01*
X142790000Y-66895000D02*
X142790000Y-68145000D01*
G75*
G02*
X142640000Y-68295000I-150000J0D01*
G01*
X142340000Y-68295000D01*
G75*
G02*
X142190000Y-68145000I0J150000D01*
G01*
X142190000Y-66895000D01*
G75*
G02*
X142340000Y-66745000I150000J0D01*
G01*
X142640000Y-66745000D01*
G75*
G02*
X142790000Y-66895000I0J-150000D01*
G01*
G37*
G36*
G01*
X143790000Y-66895000D02*
X143790000Y-68145000D01*
G75*
G02*
X143640000Y-68295000I-150000J0D01*
G01*
X143340000Y-68295000D01*
G75*
G02*
X143190000Y-68145000I0J150000D01*
G01*
X143190000Y-66895000D01*
G75*
G02*
X143340000Y-66745000I150000J0D01*
G01*
X143640000Y-66745000D01*
G75*
G02*
X143790000Y-66895000I0J-150000D01*
G01*
G37*
G36*
G01*
X144790000Y-66895000D02*
X144790000Y-68145000D01*
G75*
G02*
X144640000Y-68295000I-150000J0D01*
G01*
X144340000Y-68295000D01*
G75*
G02*
X144190000Y-68145000I0J150000D01*
G01*
X144190000Y-66895000D01*
G75*
G02*
X144340000Y-66745000I150000J0D01*
G01*
X144640000Y-66745000D01*
G75*
G02*
X144790000Y-66895000I0J-150000D01*
G01*
G37*
%TD*%
D11*
%TO.C,U13*%
G36*
X137120000Y-101100000D02*
G01*
X136445000Y-100425000D01*
X135220000Y-100425000D01*
X135220000Y-99775000D01*
X136455000Y-99775000D01*
X137120000Y-99100000D01*
X139570000Y-99100000D01*
X139570000Y-101100000D01*
X137120000Y-101100000D01*
G37*
D12*
X135920000Y-101595000D03*
X135920000Y-98605000D03*
%TD*%
D11*
%TO.C,U3*%
G36*
X141460000Y-100650000D02*
G01*
X142135000Y-99975000D01*
X142135000Y-98750000D01*
X142785000Y-98750000D01*
X142785000Y-99985000D01*
X143460000Y-100650000D01*
X143460000Y-103100000D01*
X141460000Y-103100000D01*
X141460000Y-100650000D01*
G37*
D13*
X140965000Y-99450000D03*
X143955000Y-99450000D03*
%TD*%
D14*
%TO.C,R1*%
X136750000Y-110520000D03*
X136750000Y-115480000D03*
D15*
X140890000Y-110520000D03*
X140890000Y-115480000D03*
%TD*%
D16*
%TO.C,L1*%
X141580000Y-76725000D03*
X141580000Y-74355000D03*
%TD*%
%TO.C,C55*%
G36*
G01*
X132175000Y-74495000D02*
X132175000Y-75745000D01*
G75*
G02*
X131925000Y-75995000I-250000J0D01*
G01*
X131175000Y-75995000D01*
G75*
G02*
X130925000Y-75745000I0J250000D01*
G01*
X130925000Y-74495000D01*
G75*
G02*
X131175000Y-74245000I250000J0D01*
G01*
X131925000Y-74245000D01*
G75*
G02*
X132175000Y-74495000I0J-250000D01*
G01*
G37*
G36*
G01*
X134975000Y-74495000D02*
X134975000Y-75745000D01*
G75*
G02*
X134725000Y-75995000I-250000J0D01*
G01*
X133975000Y-75995000D01*
G75*
G02*
X133725000Y-75745000I0J250000D01*
G01*
X133725000Y-74495000D01*
G75*
G02*
X133975000Y-74245000I250000J0D01*
G01*
X134725000Y-74245000D01*
G75*
G02*
X134975000Y-74495000I0J-250000D01*
G01*
G37*
%TD*%
%TO.C,C67*%
G36*
G01*
X129025000Y-96815000D02*
X130275000Y-96815000D01*
G75*
G02*
X130525000Y-97065000I0J-250000D01*
G01*
X130525000Y-97815000D01*
G75*
G02*
X130275000Y-98065000I-250000J0D01*
G01*
X129025000Y-98065000D01*
G75*
G02*
X128775000Y-97815000I0J250000D01*
G01*
X128775000Y-97065000D01*
G75*
G02*
X129025000Y-96815000I250000J0D01*
G01*
G37*
G36*
G01*
X129025000Y-94015000D02*
X130275000Y-94015000D01*
G75*
G02*
X130525000Y-94265000I0J-250000D01*
G01*
X130525000Y-95015000D01*
G75*
G02*
X130275000Y-95265000I-250000J0D01*
G01*
X129025000Y-95265000D01*
G75*
G02*
X128775000Y-95015000I0J250000D01*
G01*
X128775000Y-94265000D01*
G75*
G02*
X129025000Y-94015000I250000J0D01*
G01*
G37*
%TD*%
%TO.C,C66*%
G36*
G01*
X147525000Y-86995000D02*
X148775000Y-86995000D01*
G75*
G02*
X149025000Y-87245000I0J-250000D01*
G01*
X149025000Y-87995000D01*
G75*
G02*
X148775000Y-88245000I-250000J0D01*
G01*
X147525000Y-88245000D01*
G75*
G02*
X147275000Y-87995000I0J250000D01*
G01*
X147275000Y-87245000D01*
G75*
G02*
X147525000Y-86995000I250000J0D01*
G01*
G37*
G36*
G01*
X147525000Y-84195000D02*
X148775000Y-84195000D01*
G75*
G02*
X149025000Y-84445000I0J-250000D01*
G01*
X149025000Y-85195000D01*
G75*
G02*
X148775000Y-85445000I-250000J0D01*
G01*
X147525000Y-85445000D01*
G75*
G02*
X147275000Y-85195000I0J250000D01*
G01*
X147275000Y-84445000D01*
G75*
G02*
X147525000Y-84195000I250000J0D01*
G01*
G37*
%TD*%
%TO.C,C65*%
G36*
G01*
X148975000Y-80195000D02*
X147725000Y-80195000D01*
G75*
G02*
X147475000Y-79945000I0J250000D01*
G01*
X147475000Y-79195000D01*
G75*
G02*
X147725000Y-78945000I250000J0D01*
G01*
X148975000Y-78945000D01*
G75*
G02*
X149225000Y-79195000I0J-250000D01*
G01*
X149225000Y-79945000D01*
G75*
G02*
X148975000Y-80195000I-250000J0D01*
G01*
G37*
G36*
G01*
X148975000Y-82995000D02*
X147725000Y-82995000D01*
G75*
G02*
X147475000Y-82745000I0J250000D01*
G01*
X147475000Y-81995000D01*
G75*
G02*
X147725000Y-81745000I250000J0D01*
G01*
X148975000Y-81745000D01*
G75*
G02*
X149225000Y-81995000I0J-250000D01*
G01*
X149225000Y-82745000D01*
G75*
G02*
X148975000Y-82995000I-250000J0D01*
G01*
G37*
%TD*%
%TO.C,C64*%
G36*
G01*
X131165000Y-96815000D02*
X132415000Y-96815000D01*
G75*
G02*
X132665000Y-97065000I0J-250000D01*
G01*
X132665000Y-97815000D01*
G75*
G02*
X132415000Y-98065000I-250000J0D01*
G01*
X131165000Y-98065000D01*
G75*
G02*
X130915000Y-97815000I0J250000D01*
G01*
X130915000Y-97065000D01*
G75*
G02*
X131165000Y-96815000I250000J0D01*
G01*
G37*
G36*
G01*
X131165000Y-94015000D02*
X132415000Y-94015000D01*
G75*
G02*
X132665000Y-94265000I0J-250000D01*
G01*
X132665000Y-95015000D01*
G75*
G02*
X132415000Y-95265000I-250000J0D01*
G01*
X131165000Y-95265000D01*
G75*
G02*
X130915000Y-95015000I0J250000D01*
G01*
X130915000Y-94265000D01*
G75*
G02*
X131165000Y-94015000I250000J0D01*
G01*
G37*
%TD*%
%TO.C,C63*%
G36*
G01*
X132275000Y-89995000D02*
X131025000Y-89995000D01*
G75*
G02*
X130775000Y-89745000I0J250000D01*
G01*
X130775000Y-88995000D01*
G75*
G02*
X131025000Y-88745000I250000J0D01*
G01*
X132275000Y-88745000D01*
G75*
G02*
X132525000Y-88995000I0J-250000D01*
G01*
X132525000Y-89745000D01*
G75*
G02*
X132275000Y-89995000I-250000J0D01*
G01*
G37*
G36*
G01*
X132275000Y-92795000D02*
X131025000Y-92795000D01*
G75*
G02*
X130775000Y-92545000I0J250000D01*
G01*
X130775000Y-91795000D01*
G75*
G02*
X131025000Y-91545000I250000J0D01*
G01*
X132275000Y-91545000D01*
G75*
G02*
X132525000Y-91795000I0J-250000D01*
G01*
X132525000Y-92545000D01*
G75*
G02*
X132275000Y-92795000I-250000J0D01*
G01*
G37*
%TD*%
%TO.C,C62*%
G36*
G01*
X149715000Y-96795000D02*
X150965000Y-96795000D01*
G75*
G02*
X151215000Y-97045000I0J-250000D01*
G01*
X151215000Y-97795000D01*
G75*
G02*
X150965000Y-98045000I-250000J0D01*
G01*
X149715000Y-98045000D01*
G75*
G02*
X149465000Y-97795000I0J250000D01*
G01*
X149465000Y-97045000D01*
G75*
G02*
X149715000Y-96795000I250000J0D01*
G01*
G37*
G36*
G01*
X149715000Y-93995000D02*
X150965000Y-93995000D01*
G75*
G02*
X151215000Y-94245000I0J-250000D01*
G01*
X151215000Y-94995000D01*
G75*
G02*
X150965000Y-95245000I-250000J0D01*
G01*
X149715000Y-95245000D01*
G75*
G02*
X149465000Y-94995000I0J250000D01*
G01*
X149465000Y-94245000D01*
G75*
G02*
X149715000Y-93995000I250000J0D01*
G01*
G37*
%TD*%
%TO.C,C61*%
G36*
G01*
X131915000Y-101255000D02*
X131915000Y-102505000D01*
G75*
G02*
X131665000Y-102755000I-250000J0D01*
G01*
X130915000Y-102755000D01*
G75*
G02*
X130665000Y-102505000I0J250000D01*
G01*
X130665000Y-101255000D01*
G75*
G02*
X130915000Y-101005000I250000J0D01*
G01*
X131665000Y-101005000D01*
G75*
G02*
X131915000Y-101255000I0J-250000D01*
G01*
G37*
G36*
G01*
X134715000Y-101255000D02*
X134715000Y-102505000D01*
G75*
G02*
X134465000Y-102755000I-250000J0D01*
G01*
X133715000Y-102755000D01*
G75*
G02*
X133465000Y-102505000I0J250000D01*
G01*
X133465000Y-101255000D01*
G75*
G02*
X133715000Y-101005000I250000J0D01*
G01*
X134465000Y-101005000D01*
G75*
G02*
X134715000Y-101255000I0J-250000D01*
G01*
G37*
%TD*%
%TO.C,C60*%
G36*
G01*
X148315000Y-102605000D02*
X148315000Y-101355000D01*
G75*
G02*
X148565000Y-101105000I250000J0D01*
G01*
X149315000Y-101105000D01*
G75*
G02*
X149565000Y-101355000I0J-250000D01*
G01*
X149565000Y-102605000D01*
G75*
G02*
X149315000Y-102855000I-250000J0D01*
G01*
X148565000Y-102855000D01*
G75*
G02*
X148315000Y-102605000I0J250000D01*
G01*
G37*
G36*
G01*
X145515000Y-102605000D02*
X145515000Y-101355000D01*
G75*
G02*
X145765000Y-101105000I250000J0D01*
G01*
X146515000Y-101105000D01*
G75*
G02*
X146765000Y-101355000I0J-250000D01*
G01*
X146765000Y-102605000D01*
G75*
G02*
X146515000Y-102855000I-250000J0D01*
G01*
X145765000Y-102855000D01*
G75*
G02*
X145515000Y-102605000I0J250000D01*
G01*
G37*
%TD*%
%TO.C,C59*%
G36*
G01*
X132575000Y-80185000D02*
X131325000Y-80185000D01*
G75*
G02*
X131075000Y-79935000I0J250000D01*
G01*
X131075000Y-79185000D01*
G75*
G02*
X131325000Y-78935000I250000J0D01*
G01*
X132575000Y-78935000D01*
G75*
G02*
X132825000Y-79185000I0J-250000D01*
G01*
X132825000Y-79935000D01*
G75*
G02*
X132575000Y-80185000I-250000J0D01*
G01*
G37*
G36*
G01*
X132575000Y-82985000D02*
X131325000Y-82985000D01*
G75*
G02*
X131075000Y-82735000I0J250000D01*
G01*
X131075000Y-81985000D01*
G75*
G02*
X131325000Y-81735000I250000J0D01*
G01*
X132575000Y-81735000D01*
G75*
G02*
X132825000Y-81985000I0J-250000D01*
G01*
X132825000Y-82735000D01*
G75*
G02*
X132575000Y-82985000I-250000J0D01*
G01*
G37*
%TD*%
%TO.C,C58*%
G36*
G01*
X148315000Y-100145000D02*
X148315000Y-98895000D01*
G75*
G02*
X148565000Y-98645000I250000J0D01*
G01*
X149315000Y-98645000D01*
G75*
G02*
X149565000Y-98895000I0J-250000D01*
G01*
X149565000Y-100145000D01*
G75*
G02*
X149315000Y-100395000I-250000J0D01*
G01*
X148565000Y-100395000D01*
G75*
G02*
X148315000Y-100145000I0J250000D01*
G01*
G37*
G36*
G01*
X145515000Y-100145000D02*
X145515000Y-98895000D01*
G75*
G02*
X145765000Y-98645000I250000J0D01*
G01*
X146515000Y-98645000D01*
G75*
G02*
X146765000Y-98895000I0J-250000D01*
G01*
X146765000Y-100145000D01*
G75*
G02*
X146515000Y-100395000I-250000J0D01*
G01*
X145765000Y-100395000D01*
G75*
G02*
X145515000Y-100145000I0J250000D01*
G01*
G37*
%TD*%
%TO.C,C57*%
G36*
G01*
X130285000Y-80185000D02*
X129035000Y-80185000D01*
G75*
G02*
X128785000Y-79935000I0J250000D01*
G01*
X128785000Y-79185000D01*
G75*
G02*
X129035000Y-78935000I250000J0D01*
G01*
X130285000Y-78935000D01*
G75*
G02*
X130535000Y-79185000I0J-250000D01*
G01*
X130535000Y-79935000D01*
G75*
G02*
X130285000Y-80185000I-250000J0D01*
G01*
G37*
G36*
G01*
X130285000Y-82985000D02*
X129035000Y-82985000D01*
G75*
G02*
X128785000Y-82735000I0J250000D01*
G01*
X128785000Y-81985000D01*
G75*
G02*
X129035000Y-81735000I250000J0D01*
G01*
X130285000Y-81735000D01*
G75*
G02*
X130535000Y-81985000I0J-250000D01*
G01*
X130535000Y-82735000D01*
G75*
G02*
X130285000Y-82985000I-250000J0D01*
G01*
G37*
%TD*%
%TO.C,C56*%
G36*
G01*
X130185000Y-89995000D02*
X128935000Y-89995000D01*
G75*
G02*
X128685000Y-89745000I0J250000D01*
G01*
X128685000Y-88995000D01*
G75*
G02*
X128935000Y-88745000I250000J0D01*
G01*
X130185000Y-88745000D01*
G75*
G02*
X130435000Y-88995000I0J-250000D01*
G01*
X130435000Y-89745000D01*
G75*
G02*
X130185000Y-89995000I-250000J0D01*
G01*
G37*
G36*
G01*
X130185000Y-92795000D02*
X128935000Y-92795000D01*
G75*
G02*
X128685000Y-92545000I0J250000D01*
G01*
X128685000Y-91795000D01*
G75*
G02*
X128935000Y-91545000I250000J0D01*
G01*
X130185000Y-91545000D01*
G75*
G02*
X130435000Y-91795000I0J-250000D01*
G01*
X130435000Y-92545000D01*
G75*
G02*
X130185000Y-92795000I-250000J0D01*
G01*
G37*
%TD*%
%TO.C,C54*%
G36*
G01*
X128995000Y-87035000D02*
X130245000Y-87035000D01*
G75*
G02*
X130495000Y-87285000I0J-250000D01*
G01*
X130495000Y-88035000D01*
G75*
G02*
X130245000Y-88285000I-250000J0D01*
G01*
X128995000Y-88285000D01*
G75*
G02*
X128745000Y-88035000I0J250000D01*
G01*
X128745000Y-87285000D01*
G75*
G02*
X128995000Y-87035000I250000J0D01*
G01*
G37*
G36*
G01*
X128995000Y-84235000D02*
X130245000Y-84235000D01*
G75*
G02*
X130495000Y-84485000I0J-250000D01*
G01*
X130495000Y-85235000D01*
G75*
G02*
X130245000Y-85485000I-250000J0D01*
G01*
X128995000Y-85485000D01*
G75*
G02*
X128745000Y-85235000I0J250000D01*
G01*
X128745000Y-84485000D01*
G75*
G02*
X128995000Y-84235000I250000J0D01*
G01*
G37*
%TD*%
%TO.C,C53*%
G36*
G01*
X131915000Y-98965000D02*
X131915000Y-100215000D01*
G75*
G02*
X131665000Y-100465000I-250000J0D01*
G01*
X130915000Y-100465000D01*
G75*
G02*
X130665000Y-100215000I0J250000D01*
G01*
X130665000Y-98965000D01*
G75*
G02*
X130915000Y-98715000I250000J0D01*
G01*
X131665000Y-98715000D01*
G75*
G02*
X131915000Y-98965000I0J-250000D01*
G01*
G37*
G36*
G01*
X134715000Y-98965000D02*
X134715000Y-100215000D01*
G75*
G02*
X134465000Y-100465000I-250000J0D01*
G01*
X133715000Y-100465000D01*
G75*
G02*
X133465000Y-100215000I0J250000D01*
G01*
X133465000Y-98965000D01*
G75*
G02*
X133715000Y-98715000I250000J0D01*
G01*
X134465000Y-98715000D01*
G75*
G02*
X134715000Y-98965000I0J-250000D01*
G01*
G37*
%TD*%
%TO.C,C52*%
G36*
G01*
X132175000Y-76785000D02*
X132175000Y-78035000D01*
G75*
G02*
X131925000Y-78285000I-250000J0D01*
G01*
X131175000Y-78285000D01*
G75*
G02*
X130925000Y-78035000I0J250000D01*
G01*
X130925000Y-76785000D01*
G75*
G02*
X131175000Y-76535000I250000J0D01*
G01*
X131925000Y-76535000D01*
G75*
G02*
X132175000Y-76785000I0J-250000D01*
G01*
G37*
G36*
G01*
X134975000Y-76785000D02*
X134975000Y-78035000D01*
G75*
G02*
X134725000Y-78285000I-250000J0D01*
G01*
X133975000Y-78285000D01*
G75*
G02*
X133725000Y-78035000I0J250000D01*
G01*
X133725000Y-76785000D01*
G75*
G02*
X133975000Y-76535000I250000J0D01*
G01*
X134725000Y-76535000D01*
G75*
G02*
X134975000Y-76785000I0J-250000D01*
G01*
G37*
%TD*%
%TO.C,C51*%
G36*
G01*
X147425000Y-96795000D02*
X148675000Y-96795000D01*
G75*
G02*
X148925000Y-97045000I0J-250000D01*
G01*
X148925000Y-97795000D01*
G75*
G02*
X148675000Y-98045000I-250000J0D01*
G01*
X147425000Y-98045000D01*
G75*
G02*
X147175000Y-97795000I0J250000D01*
G01*
X147175000Y-97045000D01*
G75*
G02*
X147425000Y-96795000I250000J0D01*
G01*
G37*
G36*
G01*
X147425000Y-93995000D02*
X148675000Y-93995000D01*
G75*
G02*
X148925000Y-94245000I0J-250000D01*
G01*
X148925000Y-94995000D01*
G75*
G02*
X148675000Y-95245000I-250000J0D01*
G01*
X147425000Y-95245000D01*
G75*
G02*
X147175000Y-94995000I0J250000D01*
G01*
X147175000Y-94245000D01*
G75*
G02*
X147425000Y-93995000I250000J0D01*
G01*
G37*
%TD*%
%TO.C,C50*%
G36*
G01*
X131085000Y-87035000D02*
X132335000Y-87035000D01*
G75*
G02*
X132585000Y-87285000I0J-250000D01*
G01*
X132585000Y-88035000D01*
G75*
G02*
X132335000Y-88285000I-250000J0D01*
G01*
X131085000Y-88285000D01*
G75*
G02*
X130835000Y-88035000I0J250000D01*
G01*
X130835000Y-87285000D01*
G75*
G02*
X131085000Y-87035000I250000J0D01*
G01*
G37*
G36*
G01*
X131085000Y-84235000D02*
X132335000Y-84235000D01*
G75*
G02*
X132585000Y-84485000I0J-250000D01*
G01*
X132585000Y-85235000D01*
G75*
G02*
X132335000Y-85485000I-250000J0D01*
G01*
X131085000Y-85485000D01*
G75*
G02*
X130835000Y-85235000I0J250000D01*
G01*
X130835000Y-84485000D01*
G75*
G02*
X131085000Y-84235000I250000J0D01*
G01*
G37*
%TD*%
%TO.C,C21*%
G36*
G01*
X149715000Y-86995000D02*
X150965000Y-86995000D01*
G75*
G02*
X151215000Y-87245000I0J-250000D01*
G01*
X151215000Y-87995000D01*
G75*
G02*
X150965000Y-88245000I-250000J0D01*
G01*
X149715000Y-88245000D01*
G75*
G02*
X149465000Y-87995000I0J250000D01*
G01*
X149465000Y-87245000D01*
G75*
G02*
X149715000Y-86995000I250000J0D01*
G01*
G37*
G36*
G01*
X149715000Y-84195000D02*
X150965000Y-84195000D01*
G75*
G02*
X151215000Y-84445000I0J-250000D01*
G01*
X151215000Y-85195000D01*
G75*
G02*
X150965000Y-85445000I-250000J0D01*
G01*
X149715000Y-85445000D01*
G75*
G02*
X149465000Y-85195000I0J250000D01*
G01*
X149465000Y-84445000D01*
G75*
G02*
X149715000Y-84195000I250000J0D01*
G01*
G37*
%TD*%
%TO.C,C20*%
G36*
G01*
X147835000Y-78035000D02*
X147835000Y-76785000D01*
G75*
G02*
X148085000Y-76535000I250000J0D01*
G01*
X148835000Y-76535000D01*
G75*
G02*
X149085000Y-76785000I0J-250000D01*
G01*
X149085000Y-78035000D01*
G75*
G02*
X148835000Y-78285000I-250000J0D01*
G01*
X148085000Y-78285000D01*
G75*
G02*
X147835000Y-78035000I0J250000D01*
G01*
G37*
G36*
G01*
X145035000Y-78035000D02*
X145035000Y-76785000D01*
G75*
G02*
X145285000Y-76535000I250000J0D01*
G01*
X146035000Y-76535000D01*
G75*
G02*
X146285000Y-76785000I0J-250000D01*
G01*
X146285000Y-78035000D01*
G75*
G02*
X146035000Y-78285000I-250000J0D01*
G01*
X145285000Y-78285000D01*
G75*
G02*
X145035000Y-78035000I0J250000D01*
G01*
G37*
%TD*%
%TO.C,C19*%
G36*
G01*
X151075000Y-89955000D02*
X149825000Y-89955000D01*
G75*
G02*
X149575000Y-89705000I0J250000D01*
G01*
X149575000Y-88955000D01*
G75*
G02*
X149825000Y-88705000I250000J0D01*
G01*
X151075000Y-88705000D01*
G75*
G02*
X151325000Y-88955000I0J-250000D01*
G01*
X151325000Y-89705000D01*
G75*
G02*
X151075000Y-89955000I-250000J0D01*
G01*
G37*
G36*
G01*
X151075000Y-92755000D02*
X149825000Y-92755000D01*
G75*
G02*
X149575000Y-92505000I0J250000D01*
G01*
X149575000Y-91755000D01*
G75*
G02*
X149825000Y-91505000I250000J0D01*
G01*
X151075000Y-91505000D01*
G75*
G02*
X151325000Y-91755000I0J-250000D01*
G01*
X151325000Y-92505000D01*
G75*
G02*
X151075000Y-92755000I-250000J0D01*
G01*
G37*
%TD*%
%TO.C,C18*%
G36*
G01*
X151015000Y-80195000D02*
X149765000Y-80195000D01*
G75*
G02*
X149515000Y-79945000I0J250000D01*
G01*
X149515000Y-79195000D01*
G75*
G02*
X149765000Y-78945000I250000J0D01*
G01*
X151015000Y-78945000D01*
G75*
G02*
X151265000Y-79195000I0J-250000D01*
G01*
X151265000Y-79945000D01*
G75*
G02*
X151015000Y-80195000I-250000J0D01*
G01*
G37*
G36*
G01*
X151015000Y-82995000D02*
X149765000Y-82995000D01*
G75*
G02*
X149515000Y-82745000I0J250000D01*
G01*
X149515000Y-81995000D01*
G75*
G02*
X149765000Y-81745000I250000J0D01*
G01*
X151015000Y-81745000D01*
G75*
G02*
X151265000Y-81995000I0J-250000D01*
G01*
X151265000Y-82745000D01*
G75*
G02*
X151015000Y-82995000I-250000J0D01*
G01*
G37*
%TD*%
%TO.C,C17*%
G36*
G01*
X147835000Y-75745000D02*
X147835000Y-74495000D01*
G75*
G02*
X148085000Y-74245000I250000J0D01*
G01*
X148835000Y-74245000D01*
G75*
G02*
X149085000Y-74495000I0J-250000D01*
G01*
X149085000Y-75745000D01*
G75*
G02*
X148835000Y-75995000I-250000J0D01*
G01*
X148085000Y-75995000D01*
G75*
G02*
X147835000Y-75745000I0J250000D01*
G01*
G37*
G36*
G01*
X145035000Y-75745000D02*
X145035000Y-74495000D01*
G75*
G02*
X145285000Y-74245000I250000J0D01*
G01*
X146035000Y-74245000D01*
G75*
G02*
X146285000Y-74495000I0J-250000D01*
G01*
X146285000Y-75745000D01*
G75*
G02*
X146035000Y-75995000I-250000J0D01*
G01*
X145285000Y-75995000D01*
G75*
G02*
X145035000Y-75745000I0J250000D01*
G01*
G37*
%TD*%
%TO.C,C16*%
G36*
G01*
X148865000Y-89955000D02*
X147615000Y-89955000D01*
G75*
G02*
X147365000Y-89705000I0J250000D01*
G01*
X147365000Y-88955000D01*
G75*
G02*
X147615000Y-88705000I250000J0D01*
G01*
X148865000Y-88705000D01*
G75*
G02*
X149115000Y-88955000I0J-250000D01*
G01*
X149115000Y-89705000D01*
G75*
G02*
X148865000Y-89955000I-250000J0D01*
G01*
G37*
G36*
G01*
X148865000Y-92755000D02*
X147615000Y-92755000D01*
G75*
G02*
X147365000Y-92505000I0J250000D01*
G01*
X147365000Y-91755000D01*
G75*
G02*
X147615000Y-91505000I250000J0D01*
G01*
X148865000Y-91505000D01*
G75*
G02*
X149115000Y-91755000I0J-250000D01*
G01*
X149115000Y-92505000D01*
G75*
G02*
X148865000Y-92755000I-250000J0D01*
G01*
G37*
%TD*%
D17*
%TO.C,Q23*%
X122060000Y-83790000D03*
X122060000Y-85060000D03*
X122060000Y-86330000D03*
X122060000Y-87600000D03*
D18*
X127760000Y-87600000D03*
X127760000Y-86330000D03*
X127760000Y-85060000D03*
X127760000Y-83790000D03*
%TD*%
D17*
%TO.C,Q21*%
X122060000Y-78205000D03*
X122060000Y-79475000D03*
X122060000Y-80745000D03*
X122060000Y-82015000D03*
D18*
X127760000Y-82015000D03*
X127760000Y-80745000D03*
X127760000Y-79475000D03*
X127760000Y-78205000D03*
%TD*%
D17*
%TO.C,Q19*%
X128750000Y-69345000D03*
X128750000Y-70615000D03*
X128750000Y-71885000D03*
X128750000Y-73155000D03*
D18*
X134450000Y-73155000D03*
X134450000Y-71885000D03*
X134450000Y-70615000D03*
X134450000Y-69345000D03*
%TD*%
D17*
%TO.C,Q5*%
X157940000Y-93205000D03*
X157940000Y-91935000D03*
X157940000Y-90665000D03*
X157940000Y-89395000D03*
D18*
X152240000Y-89395000D03*
X152240000Y-90665000D03*
X152240000Y-91935000D03*
X152240000Y-93205000D03*
%TD*%
D17*
%TO.C,Q3*%
X157940000Y-98795000D03*
X157940000Y-97525000D03*
X157940000Y-96255000D03*
X157940000Y-94985000D03*
D18*
X152240000Y-94985000D03*
X152240000Y-96255000D03*
X152240000Y-97525000D03*
X152240000Y-98795000D03*
%TD*%
D17*
%TO.C,Q1*%
X151250000Y-107655000D03*
X151250000Y-106385000D03*
X151250000Y-105115000D03*
X151250000Y-103845000D03*
D18*
X145550000Y-103845000D03*
X145550000Y-105115000D03*
X145550000Y-106385000D03*
X145550000Y-107655000D03*
%TD*%
D17*
%TO.C,Q11*%
X151250000Y-73155000D03*
X151250000Y-71885000D03*
X151250000Y-70615000D03*
X151250000Y-69345000D03*
D18*
X145550000Y-69345000D03*
X145550000Y-70615000D03*
X145550000Y-71885000D03*
X145550000Y-73155000D03*
%TD*%
D17*
%TO.C,Q9*%
X157940000Y-82015000D03*
X157940000Y-80745000D03*
X157940000Y-79475000D03*
X157940000Y-78205000D03*
D18*
X152240000Y-78205000D03*
X152240000Y-79475000D03*
X152240000Y-80745000D03*
X152240000Y-82015000D03*
%TD*%
D17*
%TO.C,Q7*%
X157940000Y-87605000D03*
X157940000Y-86335000D03*
X157940000Y-85065000D03*
X157940000Y-83795000D03*
D18*
X152240000Y-83795000D03*
X152240000Y-85065000D03*
X152240000Y-86335000D03*
X152240000Y-87605000D03*
%TD*%
D17*
%TO.C,Q17*%
X128750000Y-103845000D03*
X128750000Y-105115000D03*
X128750000Y-106385000D03*
X128750000Y-107655000D03*
D18*
X134450000Y-107655000D03*
X134450000Y-106385000D03*
X134450000Y-105115000D03*
X134450000Y-103845000D03*
%TD*%
D17*
%TO.C,Q15*%
X122060000Y-94985000D03*
X122060000Y-96255000D03*
X122060000Y-97525000D03*
X122060000Y-98795000D03*
D18*
X127760000Y-98795000D03*
X127760000Y-97525000D03*
X127760000Y-96255000D03*
X127760000Y-94985000D03*
%TD*%
D17*
%TO.C,Q13*%
X122060000Y-89395000D03*
X122060000Y-90665000D03*
X122060000Y-91935000D03*
X122060000Y-93205000D03*
D18*
X127760000Y-93205000D03*
X127760000Y-91935000D03*
X127760000Y-90665000D03*
X127760000Y-89395000D03*
%TD*%
%TO.C,C73*%
G36*
G01*
X136362500Y-72653750D02*
X136362500Y-73166250D01*
G75*
G02*
X136143750Y-73385000I-218750J0D01*
G01*
X135706250Y-73385000D01*
G75*
G02*
X135487500Y-73166250I0J218750D01*
G01*
X135487500Y-72653750D01*
G75*
G02*
X135706250Y-72435000I218750J0D01*
G01*
X136143750Y-72435000D01*
G75*
G02*
X136362500Y-72653750I0J-218750D01*
G01*
G37*
G36*
G01*
X137937500Y-72653750D02*
X137937500Y-73166250D01*
G75*
G02*
X137718750Y-73385000I-218750J0D01*
G01*
X137281250Y-73385000D01*
G75*
G02*
X137062500Y-73166250I0J218750D01*
G01*
X137062500Y-72653750D01*
G75*
G02*
X137281250Y-72435000I218750J0D01*
G01*
X137718750Y-72435000D01*
G75*
G02*
X137937500Y-72653750I0J-218750D01*
G01*
G37*
%TD*%
%TO.C,C72*%
G36*
G01*
X136360000Y-71193750D02*
X136360000Y-71706250D01*
G75*
G02*
X136141250Y-71925000I-218750J0D01*
G01*
X135703750Y-71925000D01*
G75*
G02*
X135485000Y-71706250I0J218750D01*
G01*
X135485000Y-71193750D01*
G75*
G02*
X135703750Y-70975000I218750J0D01*
G01*
X136141250Y-70975000D01*
G75*
G02*
X136360000Y-71193750I0J-218750D01*
G01*
G37*
G36*
G01*
X137935000Y-71193750D02*
X137935000Y-71706250D01*
G75*
G02*
X137716250Y-71925000I-218750J0D01*
G01*
X137278750Y-71925000D01*
G75*
G02*
X137060000Y-71706250I0J218750D01*
G01*
X137060000Y-71193750D01*
G75*
G02*
X137278750Y-70975000I218750J0D01*
G01*
X137716250Y-70975000D01*
G75*
G02*
X137935000Y-71193750I0J-218750D01*
G01*
G37*
%TD*%
%TO.C,C71*%
G36*
G01*
X137752500Y-77403750D02*
X137752500Y-77916250D01*
G75*
G02*
X137533750Y-78135000I-218750J0D01*
G01*
X137096250Y-78135000D01*
G75*
G02*
X136877500Y-77916250I0J218750D01*
G01*
X136877500Y-77403750D01*
G75*
G02*
X137096250Y-77185000I218750J0D01*
G01*
X137533750Y-77185000D01*
G75*
G02*
X137752500Y-77403750I0J-218750D01*
G01*
G37*
G36*
G01*
X139327500Y-77403750D02*
X139327500Y-77916250D01*
G75*
G02*
X139108750Y-78135000I-218750J0D01*
G01*
X138671250Y-78135000D01*
G75*
G02*
X138452500Y-77916250I0J218750D01*
G01*
X138452500Y-77403750D01*
G75*
G02*
X138671250Y-77185000I218750J0D01*
G01*
X139108750Y-77185000D01*
G75*
G02*
X139327500Y-77403750I0J-218750D01*
G01*
G37*
%TD*%
%TO.C,C69*%
G36*
G01*
X137050000Y-97076250D02*
X137050000Y-96563750D01*
G75*
G02*
X137268750Y-96345000I218750J0D01*
G01*
X137706250Y-96345000D01*
G75*
G02*
X137925000Y-96563750I0J-218750D01*
G01*
X137925000Y-97076250D01*
G75*
G02*
X137706250Y-97295000I-218750J0D01*
G01*
X137268750Y-97295000D01*
G75*
G02*
X137050000Y-97076250I0J218750D01*
G01*
G37*
G36*
G01*
X135475000Y-97076250D02*
X135475000Y-96563750D01*
G75*
G02*
X135693750Y-96345000I218750J0D01*
G01*
X136131250Y-96345000D01*
G75*
G02*
X136350000Y-96563750I0J-218750D01*
G01*
X136350000Y-97076250D01*
G75*
G02*
X136131250Y-97295000I-218750J0D01*
G01*
X135693750Y-97295000D01*
G75*
G02*
X135475000Y-97076250I0J218750D01*
G01*
G37*
%TD*%
%TO.C,C68*%
G36*
G01*
X137050000Y-103586250D02*
X137050000Y-103073750D01*
G75*
G02*
X137268750Y-102855000I218750J0D01*
G01*
X137706250Y-102855000D01*
G75*
G02*
X137925000Y-103073750I0J-218750D01*
G01*
X137925000Y-103586250D01*
G75*
G02*
X137706250Y-103805000I-218750J0D01*
G01*
X137268750Y-103805000D01*
G75*
G02*
X137050000Y-103586250I0J218750D01*
G01*
G37*
G36*
G01*
X135475000Y-103586250D02*
X135475000Y-103073750D01*
G75*
G02*
X135693750Y-102855000I218750J0D01*
G01*
X136131250Y-102855000D01*
G75*
G02*
X136350000Y-103073750I0J-218750D01*
G01*
X136350000Y-103586250D01*
G75*
G02*
X136131250Y-103805000I-218750J0D01*
G01*
X135693750Y-103805000D01*
G75*
G02*
X135475000Y-103586250I0J218750D01*
G01*
G37*
%TD*%
%TO.C,C24*%
G36*
G01*
X144166250Y-79562500D02*
X143653750Y-79562500D01*
G75*
G02*
X143435000Y-79343750I0J218750D01*
G01*
X143435000Y-78906250D01*
G75*
G02*
X143653750Y-78687500I218750J0D01*
G01*
X144166250Y-78687500D01*
G75*
G02*
X144385000Y-78906250I0J-218750D01*
G01*
X144385000Y-79343750D01*
G75*
G02*
X144166250Y-79562500I-218750J0D01*
G01*
G37*
G36*
G01*
X144166250Y-81137500D02*
X143653750Y-81137500D01*
G75*
G02*
X143435000Y-80918750I0J218750D01*
G01*
X143435000Y-80481250D01*
G75*
G02*
X143653750Y-80262500I218750J0D01*
G01*
X144166250Y-80262500D01*
G75*
G02*
X144385000Y-80481250I0J-218750D01*
G01*
X144385000Y-80918750D01*
G75*
G02*
X144166250Y-81137500I-218750J0D01*
G01*
G37*
%TD*%
%TO.C,C5*%
G36*
G01*
X143640000Y-98026250D02*
X143640000Y-97513750D01*
G75*
G02*
X143858750Y-97295000I218750J0D01*
G01*
X144296250Y-97295000D01*
G75*
G02*
X144515000Y-97513750I0J-218750D01*
G01*
X144515000Y-98026250D01*
G75*
G02*
X144296250Y-98245000I-218750J0D01*
G01*
X143858750Y-98245000D01*
G75*
G02*
X143640000Y-98026250I0J218750D01*
G01*
G37*
G36*
G01*
X142065000Y-98026250D02*
X142065000Y-97513750D01*
G75*
G02*
X142283750Y-97295000I218750J0D01*
G01*
X142721250Y-97295000D01*
G75*
G02*
X142940000Y-97513750I0J-218750D01*
G01*
X142940000Y-98026250D01*
G75*
G02*
X142721250Y-98245000I-218750J0D01*
G01*
X142283750Y-98245000D01*
G75*
G02*
X142065000Y-98026250I0J218750D01*
G01*
G37*
%TD*%
%TO.C,C4*%
G36*
G01*
X139360000Y-96563750D02*
X139360000Y-97076250D01*
G75*
G02*
X139141250Y-97295000I-218750J0D01*
G01*
X138703750Y-97295000D01*
G75*
G02*
X138485000Y-97076250I0J218750D01*
G01*
X138485000Y-96563750D01*
G75*
G02*
X138703750Y-96345000I218750J0D01*
G01*
X139141250Y-96345000D01*
G75*
G02*
X139360000Y-96563750I0J-218750D01*
G01*
G37*
G36*
G01*
X140935000Y-96563750D02*
X140935000Y-97076250D01*
G75*
G02*
X140716250Y-97295000I-218750J0D01*
G01*
X140278750Y-97295000D01*
G75*
G02*
X140060000Y-97076250I0J218750D01*
G01*
X140060000Y-96563750D01*
G75*
G02*
X140278750Y-96345000I218750J0D01*
G01*
X140716250Y-96345000D01*
G75*
G02*
X140935000Y-96563750I0J-218750D01*
G01*
G37*
%TD*%
%TO.C,R77*%
G36*
G01*
X143777500Y-73820000D02*
X144122500Y-73820000D01*
G75*
G02*
X144270000Y-73967500I0J-147500D01*
G01*
X144270000Y-74262500D01*
G75*
G02*
X144122500Y-74410000I-147500J0D01*
G01*
X143777500Y-74410000D01*
G75*
G02*
X143630000Y-74262500I0J147500D01*
G01*
X143630000Y-73967500D01*
G75*
G02*
X143777500Y-73820000I147500J0D01*
G01*
G37*
G36*
G01*
X143777500Y-72850000D02*
X144122500Y-72850000D01*
G75*
G02*
X144270000Y-72997500I0J-147500D01*
G01*
X144270000Y-73292500D01*
G75*
G02*
X144122500Y-73440000I-147500J0D01*
G01*
X143777500Y-73440000D01*
G75*
G02*
X143630000Y-73292500I0J147500D01*
G01*
X143630000Y-72997500D01*
G75*
G02*
X143777500Y-72850000I147500J0D01*
G01*
G37*
%TD*%
%TO.C,R76*%
G36*
G01*
X137070000Y-70077500D02*
X137070000Y-70422500D01*
G75*
G02*
X136922500Y-70570000I-147500J0D01*
G01*
X136627500Y-70570000D01*
G75*
G02*
X136480000Y-70422500I0J147500D01*
G01*
X136480000Y-70077500D01*
G75*
G02*
X136627500Y-69930000I147500J0D01*
G01*
X136922500Y-69930000D01*
G75*
G02*
X137070000Y-70077500I0J-147500D01*
G01*
G37*
G36*
G01*
X138040000Y-70077500D02*
X138040000Y-70422500D01*
G75*
G02*
X137892500Y-70570000I-147500J0D01*
G01*
X137597500Y-70570000D01*
G75*
G02*
X137450000Y-70422500I0J147500D01*
G01*
X137450000Y-70077500D01*
G75*
G02*
X137597500Y-69930000I147500J0D01*
G01*
X137892500Y-69930000D01*
G75*
G02*
X138040000Y-70077500I0J-147500D01*
G01*
G37*
%TD*%
%TO.C,R74*%
G36*
G01*
X141310000Y-69497500D02*
X141310000Y-69842500D01*
G75*
G02*
X141162500Y-69990000I-147500J0D01*
G01*
X140867500Y-69990000D01*
G75*
G02*
X140720000Y-69842500I0J147500D01*
G01*
X140720000Y-69497500D01*
G75*
G02*
X140867500Y-69350000I147500J0D01*
G01*
X141162500Y-69350000D01*
G75*
G02*
X141310000Y-69497500I0J-147500D01*
G01*
G37*
G36*
G01*
X142280000Y-69497500D02*
X142280000Y-69842500D01*
G75*
G02*
X142132500Y-69990000I-147500J0D01*
G01*
X141837500Y-69990000D01*
G75*
G02*
X141690000Y-69842500I0J147500D01*
G01*
X141690000Y-69497500D01*
G75*
G02*
X141837500Y-69350000I147500J0D01*
G01*
X142132500Y-69350000D01*
G75*
G02*
X142280000Y-69497500I0J-147500D01*
G01*
G37*
%TD*%
%TO.C,R73*%
G36*
G01*
X143170000Y-70177500D02*
X143170000Y-70522500D01*
G75*
G02*
X143022500Y-70670000I-147500J0D01*
G01*
X142727500Y-70670000D01*
G75*
G02*
X142580000Y-70522500I0J147500D01*
G01*
X142580000Y-70177500D01*
G75*
G02*
X142727500Y-70030000I147500J0D01*
G01*
X143022500Y-70030000D01*
G75*
G02*
X143170000Y-70177500I0J-147500D01*
G01*
G37*
G36*
G01*
X144140000Y-70177500D02*
X144140000Y-70522500D01*
G75*
G02*
X143992500Y-70670000I-147500J0D01*
G01*
X143697500Y-70670000D01*
G75*
G02*
X143550000Y-70522500I0J147500D01*
G01*
X143550000Y-70177500D01*
G75*
G02*
X143697500Y-70030000I147500J0D01*
G01*
X143992500Y-70030000D01*
G75*
G02*
X144140000Y-70177500I0J-147500D01*
G01*
G37*
%TD*%
%TO.C,R3*%
G36*
G01*
X142980000Y-104902500D02*
X142980000Y-104557500D01*
G75*
G02*
X143127500Y-104410000I147500J0D01*
G01*
X143422500Y-104410000D01*
G75*
G02*
X143570000Y-104557500I0J-147500D01*
G01*
X143570000Y-104902500D01*
G75*
G02*
X143422500Y-105050000I-147500J0D01*
G01*
X143127500Y-105050000D01*
G75*
G02*
X142980000Y-104902500I0J147500D01*
G01*
G37*
G36*
G01*
X142010000Y-104902500D02*
X142010000Y-104557500D01*
G75*
G02*
X142157500Y-104410000I147500J0D01*
G01*
X142452500Y-104410000D01*
G75*
G02*
X142600000Y-104557500I0J-147500D01*
G01*
X142600000Y-104902500D01*
G75*
G02*
X142452500Y-105050000I-147500J0D01*
G01*
X142157500Y-105050000D01*
G75*
G02*
X142010000Y-104902500I0J147500D01*
G01*
G37*
%TD*%
%TO.C,R2*%
G36*
G01*
X138880000Y-104357500D02*
X138880000Y-104702500D01*
G75*
G02*
X138732500Y-104850000I-147500J0D01*
G01*
X138437500Y-104850000D01*
G75*
G02*
X138290000Y-104702500I0J147500D01*
G01*
X138290000Y-104357500D01*
G75*
G02*
X138437500Y-104210000I147500J0D01*
G01*
X138732500Y-104210000D01*
G75*
G02*
X138880000Y-104357500I0J-147500D01*
G01*
G37*
G36*
G01*
X139850000Y-104357500D02*
X139850000Y-104702500D01*
G75*
G02*
X139702500Y-104850000I-147500J0D01*
G01*
X139407500Y-104850000D01*
G75*
G02*
X139260000Y-104702500I0J147500D01*
G01*
X139260000Y-104357500D01*
G75*
G02*
X139407500Y-104210000I147500J0D01*
G01*
X139702500Y-104210000D01*
G75*
G02*
X139850000Y-104357500I0J-147500D01*
G01*
G37*
%TD*%
%TO.C,C70*%
G36*
G01*
X138460000Y-73937500D02*
X138460000Y-74282500D01*
G75*
G02*
X138312500Y-74430000I-147500J0D01*
G01*
X138017500Y-74430000D01*
G75*
G02*
X137870000Y-74282500I0J147500D01*
G01*
X137870000Y-73937500D01*
G75*
G02*
X138017500Y-73790000I147500J0D01*
G01*
X138312500Y-73790000D01*
G75*
G02*
X138460000Y-73937500I0J-147500D01*
G01*
G37*
G36*
G01*
X139430000Y-73937500D02*
X139430000Y-74282500D01*
G75*
G02*
X139282500Y-74430000I-147500J0D01*
G01*
X138987500Y-74430000D01*
G75*
G02*
X138840000Y-74282500I0J147500D01*
G01*
X138840000Y-73937500D01*
G75*
G02*
X138987500Y-73790000I147500J0D01*
G01*
X139282500Y-73790000D01*
G75*
G02*
X139430000Y-73937500I0J-147500D01*
G01*
G37*
%TD*%
%TO.C,U14*%
G36*
G01*
X140230000Y-70932500D02*
X140230000Y-71597500D01*
G75*
G02*
X140057500Y-71770000I-172500J0D01*
G01*
X139712500Y-71770000D01*
G75*
G02*
X139540000Y-71597500I0J172500D01*
G01*
X139540000Y-70932500D01*
G75*
G02*
X139712500Y-70760000I172500J0D01*
G01*
X140057500Y-70760000D01*
G75*
G02*
X140230000Y-70932500I0J-172500D01*
G01*
G37*
G36*
G01*
X140230000Y-72182500D02*
X140230000Y-72847500D01*
G75*
G02*
X140057500Y-73020000I-172500J0D01*
G01*
X139712500Y-73020000D01*
G75*
G02*
X139540000Y-72847500I0J172500D01*
G01*
X139540000Y-72182500D01*
G75*
G02*
X139712500Y-72010000I172500J0D01*
G01*
X140057500Y-72010000D01*
G75*
G02*
X140230000Y-72182500I0J-172500D01*
G01*
G37*
G36*
G01*
X141080000Y-70932500D02*
X141080000Y-71597500D01*
G75*
G02*
X140907500Y-71770000I-172500J0D01*
G01*
X140562500Y-71770000D01*
G75*
G02*
X140390000Y-71597500I0J172500D01*
G01*
X140390000Y-70932500D01*
G75*
G02*
X140562500Y-70760000I172500J0D01*
G01*
X140907500Y-70760000D01*
G75*
G02*
X141080000Y-70932500I0J-172500D01*
G01*
G37*
G36*
G01*
X141080000Y-72182500D02*
X141080000Y-72847500D01*
G75*
G02*
X140907500Y-73020000I-172500J0D01*
G01*
X140562500Y-73020000D01*
G75*
G02*
X140390000Y-72847500I0J172500D01*
G01*
X140390000Y-72182500D01*
G75*
G02*
X140562500Y-72010000I172500J0D01*
G01*
X140907500Y-72010000D01*
G75*
G02*
X141080000Y-72182500I0J-172500D01*
G01*
G37*
G36*
G01*
X139260000Y-72827500D02*
X139260000Y-72952500D01*
G75*
G02*
X139197500Y-73015000I-62500J0D01*
G01*
X138497500Y-73015000D01*
G75*
G02*
X138435000Y-72952500I0J62500D01*
G01*
X138435000Y-72827500D01*
G75*
G02*
X138497500Y-72765000I62500J0D01*
G01*
X139197500Y-72765000D01*
G75*
G02*
X139260000Y-72827500I0J-62500D01*
G01*
G37*
G36*
G01*
X139260000Y-72327500D02*
X139260000Y-72452500D01*
G75*
G02*
X139197500Y-72515000I-62500J0D01*
G01*
X138497500Y-72515000D01*
G75*
G02*
X138435000Y-72452500I0J62500D01*
G01*
X138435000Y-72327500D01*
G75*
G02*
X138497500Y-72265000I62500J0D01*
G01*
X139197500Y-72265000D01*
G75*
G02*
X139260000Y-72327500I0J-62500D01*
G01*
G37*
G36*
G01*
X139260000Y-71827500D02*
X139260000Y-71952500D01*
G75*
G02*
X139197500Y-72015000I-62500J0D01*
G01*
X138497500Y-72015000D01*
G75*
G02*
X138435000Y-71952500I0J62500D01*
G01*
X138435000Y-71827500D01*
G75*
G02*
X138497500Y-71765000I62500J0D01*
G01*
X139197500Y-71765000D01*
G75*
G02*
X139260000Y-71827500I0J-62500D01*
G01*
G37*
G36*
G01*
X139260000Y-71327500D02*
X139260000Y-71452500D01*
G75*
G02*
X139197500Y-71515000I-62500J0D01*
G01*
X138497500Y-71515000D01*
G75*
G02*
X138435000Y-71452500I0J62500D01*
G01*
X138435000Y-71327500D01*
G75*
G02*
X138497500Y-71265000I62500J0D01*
G01*
X139197500Y-71265000D01*
G75*
G02*
X139260000Y-71327500I0J-62500D01*
G01*
G37*
G36*
G01*
X139260000Y-70827500D02*
X139260000Y-70952500D01*
G75*
G02*
X139197500Y-71015000I-62500J0D01*
G01*
X138497500Y-71015000D01*
G75*
G02*
X138435000Y-70952500I0J62500D01*
G01*
X138435000Y-70827500D01*
G75*
G02*
X138497500Y-70765000I62500J0D01*
G01*
X139197500Y-70765000D01*
G75*
G02*
X139260000Y-70827500I0J-62500D01*
G01*
G37*
G36*
G01*
X142185000Y-70827500D02*
X142185000Y-70952500D01*
G75*
G02*
X142122500Y-71015000I-62500J0D01*
G01*
X141422500Y-71015000D01*
G75*
G02*
X141360000Y-70952500I0J62500D01*
G01*
X141360000Y-70827500D01*
G75*
G02*
X141422500Y-70765000I62500J0D01*
G01*
X142122500Y-70765000D01*
G75*
G02*
X142185000Y-70827500I0J-62500D01*
G01*
G37*
G36*
G01*
X142185000Y-71327500D02*
X142185000Y-71452500D01*
G75*
G02*
X142122500Y-71515000I-62500J0D01*
G01*
X141422500Y-71515000D01*
G75*
G02*
X141360000Y-71452500I0J62500D01*
G01*
X141360000Y-71327500D01*
G75*
G02*
X141422500Y-71265000I62500J0D01*
G01*
X142122500Y-71265000D01*
G75*
G02*
X142185000Y-71327500I0J-62500D01*
G01*
G37*
G36*
G01*
X142185000Y-71827500D02*
X142185000Y-71952500D01*
G75*
G02*
X142122500Y-72015000I-62500J0D01*
G01*
X141422500Y-72015000D01*
G75*
G02*
X141360000Y-71952500I0J62500D01*
G01*
X141360000Y-71827500D01*
G75*
G02*
X141422500Y-71765000I62500J0D01*
G01*
X142122500Y-71765000D01*
G75*
G02*
X142185000Y-71827500I0J-62500D01*
G01*
G37*
G36*
G01*
X142185000Y-72327500D02*
X142185000Y-72452500D01*
G75*
G02*
X142122500Y-72515000I-62500J0D01*
G01*
X141422500Y-72515000D01*
G75*
G02*
X141360000Y-72452500I0J62500D01*
G01*
X141360000Y-72327500D01*
G75*
G02*
X141422500Y-72265000I62500J0D01*
G01*
X142122500Y-72265000D01*
G75*
G02*
X142185000Y-72327500I0J-62500D01*
G01*
G37*
G36*
G01*
X142185000Y-72827500D02*
X142185000Y-72952500D01*
G75*
G02*
X142122500Y-73015000I-62500J0D01*
G01*
X141422500Y-73015000D01*
G75*
G02*
X141360000Y-72952500I0J62500D01*
G01*
X141360000Y-72827500D01*
G75*
G02*
X141422500Y-72765000I62500J0D01*
G01*
X142122500Y-72765000D01*
G75*
G02*
X142185000Y-72827500I0J-62500D01*
G01*
G37*
%TD*%
D19*
%TO.C,U7*%
X140720000Y-107950000D03*
X140720000Y-106050000D03*
X142920000Y-106050000D03*
X142920000Y-107000000D03*
X142920000Y-107950000D03*
%TD*%
D20*
%TO.C,U5*%
X139060000Y-108000000D03*
X137160000Y-108000000D03*
X137160000Y-105800000D03*
X138110000Y-105800000D03*
X139060000Y-105800000D03*
%TD*%
%TO.C,U4*%
X142330000Y-80590000D03*
X140430000Y-80590000D03*
X140430000Y-78390000D03*
X141380000Y-78390000D03*
X142330000Y-78390000D03*
%TD*%
D21*
%TO.C,D13*%
X135980000Y-75580000D03*
X138780000Y-75580000D03*
%TD*%
%TO.C,C76*%
G36*
G01*
X143550000Y-71462500D02*
X143550000Y-71117500D01*
G75*
G02*
X143697500Y-70970000I147500J0D01*
G01*
X143992500Y-70970000D01*
G75*
G02*
X144140000Y-71117500I0J-147500D01*
G01*
X144140000Y-71462500D01*
G75*
G02*
X143992500Y-71610000I-147500J0D01*
G01*
X143697500Y-71610000D01*
G75*
G02*
X143550000Y-71462500I0J147500D01*
G01*
G37*
G36*
G01*
X142580000Y-71462500D02*
X142580000Y-71117500D01*
G75*
G02*
X142727500Y-70970000I147500J0D01*
G01*
X143022500Y-70970000D01*
G75*
G02*
X143170000Y-71117500I0J-147500D01*
G01*
X143170000Y-71462500D01*
G75*
G02*
X143022500Y-71610000I-147500J0D01*
G01*
X142727500Y-71610000D01*
G75*
G02*
X142580000Y-71462500I0J147500D01*
G01*
G37*
%TD*%
%TO.C,C75*%
G36*
G01*
X143550000Y-72402500D02*
X143550000Y-72057500D01*
G75*
G02*
X143697500Y-71910000I147500J0D01*
G01*
X143992500Y-71910000D01*
G75*
G02*
X144140000Y-72057500I0J-147500D01*
G01*
X144140000Y-72402500D01*
G75*
G02*
X143992500Y-72550000I-147500J0D01*
G01*
X143697500Y-72550000D01*
G75*
G02*
X143550000Y-72402500I0J147500D01*
G01*
G37*
G36*
G01*
X142580000Y-72402500D02*
X142580000Y-72057500D01*
G75*
G02*
X142727500Y-71910000I147500J0D01*
G01*
X143022500Y-71910000D01*
G75*
G02*
X143170000Y-72057500I0J-147500D01*
G01*
X143170000Y-72402500D01*
G75*
G02*
X143022500Y-72550000I-147500J0D01*
G01*
X142727500Y-72550000D01*
G75*
G02*
X142580000Y-72402500I0J147500D01*
G01*
G37*
%TD*%
%TO.C,C74*%
G36*
G01*
X136600000Y-73937500D02*
X136600000Y-74282500D01*
G75*
G02*
X136452500Y-74430000I-147500J0D01*
G01*
X136157500Y-74430000D01*
G75*
G02*
X136010000Y-74282500I0J147500D01*
G01*
X136010000Y-73937500D01*
G75*
G02*
X136157500Y-73790000I147500J0D01*
G01*
X136452500Y-73790000D01*
G75*
G02*
X136600000Y-73937500I0J-147500D01*
G01*
G37*
G36*
G01*
X137570000Y-73937500D02*
X137570000Y-74282500D01*
G75*
G02*
X137422500Y-74430000I-147500J0D01*
G01*
X137127500Y-74430000D01*
G75*
G02*
X136980000Y-74282500I0J147500D01*
G01*
X136980000Y-73937500D01*
G75*
G02*
X137127500Y-73790000I147500J0D01*
G01*
X137422500Y-73790000D01*
G75*
G02*
X137570000Y-73937500I0J-147500D01*
G01*
G37*
%TD*%
%TO.C,C23*%
G36*
G01*
X139282500Y-79830000D02*
X138937500Y-79830000D01*
G75*
G02*
X138790000Y-79682500I0J147500D01*
G01*
X138790000Y-79387500D01*
G75*
G02*
X138937500Y-79240000I147500J0D01*
G01*
X139282500Y-79240000D01*
G75*
G02*
X139430000Y-79387500I0J-147500D01*
G01*
X139430000Y-79682500D01*
G75*
G02*
X139282500Y-79830000I-147500J0D01*
G01*
G37*
G36*
G01*
X139282500Y-80800000D02*
X138937500Y-80800000D01*
G75*
G02*
X138790000Y-80652500I0J147500D01*
G01*
X138790000Y-80357500D01*
G75*
G02*
X138937500Y-80210000I147500J0D01*
G01*
X139282500Y-80210000D01*
G75*
G02*
X139430000Y-80357500I0J-147500D01*
G01*
X139430000Y-80652500D01*
G75*
G02*
X139282500Y-80800000I-147500J0D01*
G01*
G37*
%TD*%
%TO.C,C22*%
G36*
G01*
X144150000Y-78132500D02*
X144150000Y-77787500D01*
G75*
G02*
X144297500Y-77640000I147500J0D01*
G01*
X144592500Y-77640000D01*
G75*
G02*
X144740000Y-77787500I0J-147500D01*
G01*
X144740000Y-78132500D01*
G75*
G02*
X144592500Y-78280000I-147500J0D01*
G01*
X144297500Y-78280000D01*
G75*
G02*
X144150000Y-78132500I0J147500D01*
G01*
G37*
G36*
G01*
X143180000Y-78132500D02*
X143180000Y-77787500D01*
G75*
G02*
X143327500Y-77640000I147500J0D01*
G01*
X143622500Y-77640000D01*
G75*
G02*
X143770000Y-77787500I0J-147500D01*
G01*
X143770000Y-78132500D01*
G75*
G02*
X143622500Y-78280000I-147500J0D01*
G01*
X143327500Y-78280000D01*
G75*
G02*
X143180000Y-78132500I0J147500D01*
G01*
G37*
%TD*%
%TO.C,C8*%
G36*
G01*
X141120000Y-104902500D02*
X141120000Y-104557500D01*
G75*
G02*
X141267500Y-104410000I147500J0D01*
G01*
X141562500Y-104410000D01*
G75*
G02*
X141710000Y-104557500I0J-147500D01*
G01*
X141710000Y-104902500D01*
G75*
G02*
X141562500Y-105050000I-147500J0D01*
G01*
X141267500Y-105050000D01*
G75*
G02*
X141120000Y-104902500I0J147500D01*
G01*
G37*
G36*
G01*
X140150000Y-104902500D02*
X140150000Y-104557500D01*
G75*
G02*
X140297500Y-104410000I147500J0D01*
G01*
X140592500Y-104410000D01*
G75*
G02*
X140740000Y-104557500I0J-147500D01*
G01*
X140740000Y-104902500D01*
G75*
G02*
X140592500Y-105050000I-147500J0D01*
G01*
X140297500Y-105050000D01*
G75*
G02*
X140150000Y-104902500I0J147500D01*
G01*
G37*
%TD*%
%TO.C,C7*%
G36*
G01*
X137020000Y-104357500D02*
X137020000Y-104702500D01*
G75*
G02*
X136872500Y-104850000I-147500J0D01*
G01*
X136577500Y-104850000D01*
G75*
G02*
X136430000Y-104702500I0J147500D01*
G01*
X136430000Y-104357500D01*
G75*
G02*
X136577500Y-104210000I147500J0D01*
G01*
X136872500Y-104210000D01*
G75*
G02*
X137020000Y-104357500I0J-147500D01*
G01*
G37*
G36*
G01*
X137990000Y-104357500D02*
X137990000Y-104702500D01*
G75*
G02*
X137842500Y-104850000I-147500J0D01*
G01*
X137547500Y-104850000D01*
G75*
G02*
X137400000Y-104702500I0J147500D01*
G01*
X137400000Y-104357500D01*
G75*
G02*
X137547500Y-104210000I147500J0D01*
G01*
X137842500Y-104210000D01*
G75*
G02*
X137990000Y-104357500I0J-147500D01*
G01*
G37*
%TD*%
M02*
